<svg width="55" height="40" viewBox="0 0 55 40" fill="none" xmlns="http://www.w3.org/2000/svg">
<g clip-path="url(#clip0_623_2484)">
<path d="M13.3423 0H41.6507V40H13.334L13.3423 0Z" fill="white"/>
<path d="M-0.808594 0H13.3414V40H-0.808594V0ZM41.6497 0H55.7997V40H41.6581L41.6497 0ZM17.5831 19.3333L16.4747 19.7L21.5914 24.2C21.9831 25.3417 21.4581 25.6833 21.1247 26.2833L26.6747 25.5833L26.5414 31.1667L27.6997 31.1417L27.4414 25.5917L32.9997 26.2583C32.6581 25.5333 32.3497 25.15 32.6664 23.9917L37.7747 19.7417L36.8831 19.4083C36.1497 18.8417 37.1997 16.6917 37.3497 15.3333C37.3497 15.3333 34.3747 16.3583 34.1831 15.8167L33.4164 14.3583L30.6997 17.3417C30.4081 17.4167 30.2831 17.3 30.2081 17.05L31.4581 10.8167L29.4747 11.9333C29.3081 12.0083 29.1414 11.9417 29.0414 11.75L27.1247 7.91667L25.1581 11.9C25.0081 12.0417 24.8581 12.0583 24.7414 11.9583L22.8331 10.9L23.9747 17.075C23.8831 17.325 23.6664 17.3917 23.4164 17.2583L20.8164 14.3167C20.4831 14.8583 20.2497 15.7417 19.7997 15.9417C19.3497 16.1333 17.8414 15.5667 16.8331 15.3583C17.1831 16.5917 18.2497 18.6583 17.5831 19.3333Z" fill="#D52B1E"/>
</g>
<defs>
<clipPath id="clip0_623_2484">
<rect width="53.3333" height="40" fill="white" transform="translate(0.833984)"/>
</clipPath>
</defs>
</svg>
