<svg width="55" height="40" viewBox="0 0 55 40" fill="none" xmlns="http://www.w3.org/2000/svg">
<g clip-path="url(#clip0_623_1806)">
<path fill-rule="evenodd" clip-rule="evenodd" d="M-2.50195 0H57.498V40H-2.50195V0Z" fill="#199D00"/>
<path fill-rule="evenodd" clip-rule="evenodd" d="M12.6158 11.336C12.5533 12.2735 12.4595 13.9141 13.2642 14.086C14.2252 14.1798 13.6939 12.461 14.0455 12.1485C14.108 11.9923 14.2252 11.9923 14.233 12.1876V13.6485C14.233 14.1173 14.5455 14.2579 14.7798 14.3516C15.0298 14.336 15.2017 14.3516 15.2955 14.586L15.4205 17.1094C15.4205 17.1094 15.9986 17.2813 16.0298 15.6954C16.0533 14.7579 15.8423 13.9844 15.9673 13.8048C15.9673 13.6251 16.2017 13.6173 16.358 13.7032C16.608 13.8751 16.7173 14.0938 17.108 14.0157C17.7017 13.8438 18.0611 13.5548 18.0689 13.1016C18.0572 12.6563 17.9645 12.2169 17.7955 11.8048C17.8267 11.7266 17.6861 11.5157 17.7173 11.4376C17.8189 11.6094 17.983 11.5938 18.0142 11.4376C17.9127 11.1094 17.7564 10.7891 17.5064 10.6563C17.2955 10.4688 16.983 10.5001 16.8814 10.8907C16.8189 11.336 17.0377 11.8594 17.358 12.2969C17.4283 12.461 17.522 12.7423 17.483 12.9923C17.3111 13.0938 17.1392 13.0469 16.9908 12.8985C16.9908 12.8985 16.522 12.5469 16.522 12.461C16.647 11.6641 16.5455 11.5704 16.4752 11.3438C16.4283 11.0391 16.2798 10.9376 16.1627 10.7344C16.0455 10.6094 15.8892 10.6094 15.8111 10.7344C15.6002 11.0938 15.7017 11.8673 15.8502 12.2188C15.9595 12.5391 16.1236 12.7423 16.0455 12.7423C15.983 12.9219 15.8502 12.8751 15.7486 12.6641C15.6343 12.2202 15.5791 11.7631 15.5845 11.3048C15.5455 10.9454 15.4986 10.1798 15.2564 9.97663C15.1158 9.78913 14.9048 9.88288 14.8267 10.0548C14.8061 10.4038 14.8139 10.7539 14.8502 11.1016C15.0064 11.6798 15.0611 12.1954 15.1392 12.7813C15.1627 13.5704 14.6861 13.1251 14.7095 12.7266C14.812 12.2257 14.804 11.7085 14.6861 11.211C14.608 11.0079 14.522 10.961 14.3267 10.9923C14.1783 10.9923 13.7955 11.4063 13.6861 12.1094C13.6861 12.1094 13.5923 12.4688 13.5533 12.7891C13.4986 13.1485 13.2642 13.4141 13.0923 12.7423C12.9517 12.2501 12.858 11.0548 12.6236 11.336H12.6158Z" fill="white"/>
<path fill-rule="evenodd" clip-rule="evenodd" d="M15.2324 15.1719L12.7324 16.375C12.7559 15.8047 13.9121 14.7812 14.709 14.7734C15.2168 14.7812 15.0918 14.9687 15.2246 15.1719H15.2324Z" fill="white"/>
<path fill-rule="evenodd" clip-rule="evenodd" d="M14.7872 15.9533C13.4747 19.3517 17.8732 19.8283 18.3653 16.0939C18.4122 15.9377 18.5997 15.7892 18.631 16.0392C18.5294 19.422 15.2247 19.6486 14.6622 18.5861C14.5299 18.2205 14.4638 17.8343 14.4669 17.4455C14.3888 16.7814 14.0372 17.0392 13.9825 17.6955C13.9278 18.0627 13.9435 18.1642 13.9435 18.5158C14.1153 21.1877 18.3732 20.0392 19.0685 17.8361C19.4357 16.6174 19.006 15.7189 19.2013 15.7189C19.6232 16.172 20.2169 15.7814 20.3497 15.6252C20.4044 15.547 20.545 15.4924 20.6388 15.5939C20.9669 15.8283 21.545 15.7189 21.67 15.3049C21.7403 14.8908 21.795 14.4689 21.8107 14.0392C21.5372 14.1174 21.3419 14.172 21.3185 14.2892L21.2638 14.6486C21.2403 14.7658 21.0138 14.7658 20.9982 14.6174C20.8966 14.1486 20.4747 14.0939 20.2169 14.8127C20.0528 14.9533 19.7403 14.9845 19.7091 14.7736C19.7482 14.2892 19.5528 14.2267 19.1622 14.4533L18.7872 11.6252C18.9435 11.6252 19.0997 11.7424 19.2482 11.5549C19.0919 11.047 18.7403 10.0158 18.545 9.93767C18.4591 9.82829 18.381 9.8986 18.256 9.92985C18.0528 9.99235 17.8653 10.1642 17.9278 10.508C18.1622 11.9767 18.3185 13.0939 18.5607 14.5705C18.5997 14.7345 18.4591 14.9611 18.2716 14.9377C17.9591 14.7267 17.881 14.297 17.3341 14.3127C16.9435 14.3127 16.506 14.7424 16.4513 15.1486C16.381 15.4767 16.3575 15.8283 16.4513 16.1095C16.7247 16.4377 17.0528 16.4064 17.3419 16.3361C17.5763 16.2345 17.7716 16.0002 17.8575 16.0549C17.9122 16.1252 17.8653 16.9064 16.7403 17.5002C16.0607 17.8127 15.5138 17.8752 15.2247 17.3205C15.045 16.9689 15.2403 15.6486 14.7872 15.9533Z" fill="white"/>
<path fill-rule="evenodd" clip-rule="evenodd" d="M20.3888 12.5001C20.6467 12.4063 21.8967 10.9688 21.8967 10.9688L21.7092 10.8126C21.6388 10.7579 21.6467 10.6954 21.7092 10.6407C22.0217 10.4532 21.9201 10.0626 21.7638 9.87507C21.6578 9.82336 21.5411 9.79713 21.4231 9.79849C21.3051 9.79985 21.189 9.82874 21.0842 9.88288C20.8654 10.0938 20.8185 10.4298 20.9904 10.6329C21.1545 10.711 21.3185 10.8829 21.2092 10.9766C20.6935 11.5235 19.2951 12.4688 19.4592 12.5001C19.4904 12.5469 20.3576 12.5469 20.381 12.5001H20.3888ZM12.8107 17.5782C12.342 18.3282 12.3029 19.4454 12.5607 19.7813C12.7013 19.9376 12.9279 20.0079 13.092 19.9532C13.3888 19.8282 13.5217 19.2266 13.4513 19.0157C13.3498 18.8594 13.2717 18.836 13.1701 18.961C12.967 19.3829 12.881 19.0938 12.8576 18.8594C12.8352 18.4625 12.8562 18.0643 12.9201 17.6719C12.9748 17.3438 12.9201 17.4376 12.8107 17.5782ZM32.8967 16.3829C32.4435 15.3985 31.8107 14.4298 31.6154 14.0626C31.0066 13.1001 30.3603 12.1619 29.6779 11.2501C29.1935 10.6719 30.4748 11.4923 29.5217 10.336L28.8263 9.75007C28.6701 9.64069 28.2951 9.43757 28.2326 9.76569C28.2013 10.0626 28.217 10.2188 28.2638 10.461C28.3029 10.6173 28.5373 10.8907 28.6545 11.0469C30.2561 13.1684 31.6629 15.4302 32.8576 17.8048C33.0607 17.7032 33.0138 16.5469 32.8967 16.3829Z" fill="white"/>
<path fill-rule="evenodd" clip-rule="evenodd" d="M30.9035 19.6487C30.8097 19.7503 31.1222 20.1799 31.5285 20.1799C32.2003 20.1018 32.7941 19.7268 33.341 18.7268C33.5632 18.3942 33.7049 18.0143 33.755 17.6174C33.8212 15.7209 33.6691 13.823 33.3019 11.9612C33.2785 11.8049 33.3019 11.6174 33.3175 11.5706C33.3644 11.5159 33.5128 11.5706 33.591 11.4378C33.7081 11.3206 33.2785 10.344 33.0441 9.97681C32.966 9.80494 32.9269 9.69556 32.7863 9.99244C32.6166 10.32 32.5358 10.6864 32.5519 11.0549C32.8722 13.2815 32.9738 15.2268 33.1769 17.4534C33.2003 17.6721 33.1691 17.9846 33.0206 18.1096C32.4311 18.766 31.7097 19.2904 30.9035 19.6487ZM40.005 19.6409C39.5206 19.9221 39.5206 20.2424 39.9113 20.2503C40.5831 20.1721 41.38 20.1174 41.9269 19.2893C42.1201 18.8993 42.2317 18.4739 42.255 18.0393C42.3534 16.172 42.2301 14.2995 41.8878 12.4612C41.8722 12.3049 41.8019 11.9378 41.8253 11.8909C41.8722 11.7815 42.091 11.8987 42.1691 11.7737C42.2785 11.6565 41.5988 10.7815 41.3566 10.4065C41.2785 10.2346 41.2472 10.1253 41.0988 10.4221C40.9414 10.7527 40.8922 11.1245 40.9581 11.4846C41.3175 13.9065 41.5831 15.719 41.6378 17.8596C41.6066 18.0628 41.5988 18.1721 41.505 18.4299C41.2941 18.6956 41.0597 19.0393 40.841 19.2034C40.6222 19.3596 40.1535 19.5159 40.005 19.6409Z" fill="white"/>
<path fill-rule="evenodd" clip-rule="evenodd" d="M40.366 17.4766C40.366 16.9063 40.3738 16.4219 40.3582 15.9922C40.3531 15.6283 40.2733 15.2693 40.1238 14.9375C39.9832 14.6172 40.0691 14.3594 39.9988 14.0156C39.9363 13.6719 39.9519 13.1563 39.8582 12.7578C39.8269 12.6016 39.7488 12.0938 39.7722 12.0391C39.8113 11.9297 39.9597 12.0391 40.0378 11.9141C40.1472 11.7969 39.6472 10.5078 39.3972 10.1406C39.3113 9.97657 39.1394 10.0313 38.9441 10.2969C38.7488 10.4766 38.8191 10.875 38.8972 11.2578C39.3738 13.7813 39.741 16.0703 39.6628 18.4688C39.6316 18.6719 40.366 17.8594 40.366 17.4766ZM36.7957 14.3516C36.491 14.3359 35.8582 13.75 35.6707 13.4141C35.64 13.332 35.6269 13.2443 35.6323 13.1568C35.6376 13.0694 35.6614 12.984 35.7019 12.9063C35.8191 12.8281 35.991 12.75 36.1238 12.8281C36.1238 12.8281 36.2566 13.0156 36.2331 13.0391C36.3894 13.1172 36.4675 13.0781 36.4832 13.0078C36.491 12.8906 36.4363 12.8203 36.4363 12.6953C36.5066 12.3359 36.905 12.2813 37.0613 12.5078C37.1707 12.6484 37.2175 12.9375 37.2253 13.1328C37.2253 13.2344 37.0691 13.1172 36.9675 13.1328C36.8816 13.1641 36.8582 13.2734 36.8503 13.3672C36.8347 13.625 36.8035 14.0391 36.7957 14.3438V14.3516ZM31.1863 18.1016C31.2644 17.3359 31.155 15.9688 31.1472 15.5156C31.1054 14.3503 31.009 13.1876 30.8582 12.0313C30.7644 11.375 31.1238 12.1016 31.0769 11.7188C30.9597 11.0703 30.6003 10.625 30.1707 10.0391C30.0378 9.84376 30.0378 9.8047 29.8269 10.0859C29.5925 10.6094 29.7957 10.9766 29.8582 11.3906C30.1628 12.7344 30.3425 13.9688 30.4285 15.1953C30.5184 16.4695 30.5289 17.748 30.4597 19.0234C30.6941 19.0313 31.0535 18.6563 31.1863 18.1016Z" fill="white"/>
<path fill-rule="evenodd" clip-rule="evenodd" d="M41.4045 16.875C40.8654 15.9687 40.0607 15 39.842 14.6328C39.1176 13.6211 38.3566 12.6361 37.5607 11.6797C36.8967 10.9765 37.8732 11.5625 37.4357 11.0156C37.0685 10.6172 36.967 10.4843 36.6467 10.2422C36.4904 10.1406 36.3967 9.94528 36.3342 10.2812C36.3093 10.5722 36.304 10.8645 36.3185 11.1562C36.3185 11.289 36.4592 11.5468 36.5842 11.7031C38.2014 13.6953 39.9748 15.7265 41.3967 18.2812C41.5998 18.1797 41.5295 17.0312 41.3967 16.875H41.4045Z" fill="white"/>
<path fill-rule="evenodd" clip-rule="evenodd" d="M17.077 15.211C17.038 15.2813 16.952 15.3672 16.9833 15.4532C17.038 15.5313 17.0926 15.5547 17.1864 15.5547C17.2723 15.5547 17.3973 15.5782 17.4208 15.5313C17.4676 15.4766 17.4989 15.375 17.4676 15.2735C17.3739 15.0391 17.1239 15.1329 17.077 15.211Z" fill="#1BA400"/>
<path fill-rule="evenodd" clip-rule="evenodd" d="M35.1699 28.3203C35.8887 28.3516 36.3574 28.3594 36.9902 28.4297L37.7402 28.3516C38.5684 28.2735 38.5996 29.5313 38.5996 29.5313C38.5996 30.2735 38.3105 30.3125 37.9434 30.3907C37.7324 30.4219 37.6309 30.2657 37.5137 30.1094C37.337 30.166 37.1488 30.1768 36.9668 30.1407C36.6621 30.125 36.3652 30.125 36.0684 30.1016C35.7559 30.0782 35.584 30.1407 35.2637 30.1094C35.2012 30.211 35.1074 30.3516 34.9199 30.3125C34.7637 30.2891 34.5684 29.8438 34.623 29.4922C34.7402 29.2422 34.7012 29.3282 34.7012 29.2188C31.7637 29.1407 28.8027 29.0078 25.9277 29.0469C23.6777 29.0547 21.459 29.1485 19.2324 29.2422C18.0449 29.2266 17.1387 29.0391 16.5137 28.125C16.5762 28.125 19.5449 28.2891 20.4121 28.2344C22.0137 28.2188 23.4824 28.086 25.1152 28.0391C28.334 28.0938 31.5293 28.0938 34.748 28.3203C34.4355 28.1094 34.4355 27.6172 34.9043 27.4922C34.9434 27.461 34.9668 27.7344 35.0371 27.7266C35.4199 27.7032 35.248 28.2188 35.1699 28.3203ZM22.2324 10.5703C21.748 11.961 22.5137 13.4922 23.0449 13.3438C23.4355 13.5 23.6699 12.7657 23.8262 11.9688C23.9434 11.7422 24.0215 11.7188 24.0762 11.836C24.0605 12.8985 24.1543 13.1407 24.4277 13.461C25.0371 13.9297 25.5449 13.5235 25.584 13.4844L26.0527 13.0078C26.1621 12.8907 26.3027 12.8907 26.4512 12.9844C26.5996 13.1172 26.5762 13.3438 26.8887 13.5C27.1543 13.6094 27.709 13.5313 27.8418 13.3047C28.0137 13 28.0605 12.8985 28.1387 12.7891C28.2637 12.625 28.4746 12.6953 28.4746 12.75C28.4512 12.8438 28.3262 12.9297 28.4121 13.1016C28.5684 13.211 28.5996 13.1407 28.6855 13.1172C28.998 12.961 29.2324 12.2891 29.2324 12.2891C29.2402 12.0391 29.0996 12.0547 29.0059 12.1172L28.7637 12.2813C28.6074 12.3047 28.3184 12.4063 28.1699 12.1797C28.0215 11.9141 28.0215 11.5313 27.9121 11.2578C27.9121 11.2422 27.709 10.8282 27.8965 10.8047C27.9902 10.8203 28.1855 10.875 28.2168 10.711C28.3105 10.5469 28.0137 10.086 27.8027 9.85159C27.623 9.65628 27.373 9.63284 27.1309 9.83597C26.959 9.99222 26.9824 10.1641 26.9512 10.3282C26.9215 10.4457 26.9202 10.5687 26.9474 10.6868C26.9746 10.805 27.0294 10.915 27.1074 11.0078C27.2793 11.336 27.584 11.7657 27.4824 12.375C27.4824 12.375 27.3027 12.6563 26.9902 12.6172C26.8574 12.5938 26.6465 12.5391 26.5371 11.6953C26.4512 11.0703 26.5527 10.1797 26.2871 9.76566C26.1855 9.50784 26.1152 9.26566 25.8809 9.69534C25.8184 9.86722 25.5449 10.125 25.7402 10.6485C25.9251 11.1202 25.979 11.633 25.8965 12.1328C25.7793 12.3047 25.7559 12.3594 25.6074 12.5235C25.4043 12.7578 25.1777 12.6953 25.0059 12.6094C24.8496 12.5078 24.7246 12.4532 24.6465 12.1016C24.6621 11.5547 24.6934 10.6563 24.5918 10.4688C24.4434 10.1719 24.2012 10.2813 24.0996 10.375C23.6349 10.8913 23.3237 11.5272 23.2012 12.211C23.0605 12.6641 22.9121 12.5313 22.8105 12.3516C22.5605 12.1172 22.5371 10.2657 22.2324 10.5703Z" fill="white"/>
<path fill-rule="evenodd" clip-rule="evenodd" d="M23.7019 13.6014C23.9285 13.4452 23.8269 13.3358 24.155 13.6639C24.5786 14.4133 24.8245 15.2499 24.8738 16.1092C24.8582 16.3124 24.9988 16.4374 25.0691 16.3905C25.1004 15.9217 26.2488 15.2655 27.3035 15.1717C27.4597 15.1327 27.3816 14.828 27.405 14.6717C27.3425 14.0858 27.7332 13.5545 28.28 13.5155C29.03 13.6249 29.28 14.0233 29.2957 14.6249C29.2097 15.7967 27.991 15.992 27.3113 16.0858C27.2097 16.1249 27.1629 16.1717 27.3113 16.2264L30.1707 16.242L30.3191 16.3202C30.3347 16.3983 30.2722 16.3358 30.1629 16.5233C30.0056 16.7996 29.9071 17.1055 29.8738 17.4217C29.0222 17.703 28.1394 17.8124 27.2488 17.9295C26.9363 18.0858 26.78 18.2967 26.8425 18.5311C26.9519 18.7889 27.6394 19.0545 27.6394 19.0624C27.7722 19.1405 27.9207 19.3358 27.6003 19.7342C26.2097 19.6717 25.1238 19.078 24.7488 18.242C24.6394 18.1561 24.5144 18.242 24.4363 18.3514C23.8894 19.0545 23.3582 19.6795 22.4285 20.0233C21.8816 20.1639 21.3113 19.9374 21.0457 19.578C20.866 19.367 20.8738 19.1405 20.8113 19.0936C20.5066 19.2264 17.9285 20.3202 18.2566 19.8045C18.8816 19.1405 19.9754 18.6405 20.9285 17.9842C20.9988 17.7577 21.1238 17.0077 21.4988 16.7655C21.5222 16.7655 21.4441 17.203 21.4519 17.3905C21.4519 17.5467 21.4363 17.6014 21.4675 17.5624C21.5379 17.5233 22.6941 16.6092 22.7957 16.328C22.905 16.1717 22.8191 15.7655 22.8191 15.7499C22.6004 15.1874 22.2957 15.1405 22.1863 14.8592C22.0847 14.492 22.1316 14.0702 22.3425 13.9452C22.53 13.7811 22.7488 13.7967 22.9597 13.9842C23.1941 14.1952 23.3972 14.6092 23.4597 14.9139C23.4207 15.0311 23.1472 14.8358 23.0691 14.8905C23.2195 15.0633 23.3195 15.2741 23.3582 15.4999C23.5144 16.1405 23.4675 16.3905 23.3113 16.8045C22.7957 17.8905 22.1394 18.2108 21.5613 18.617C21.5457 18.617 21.5379 18.8905 21.7488 19.0389C21.8269 19.117 22.1316 19.1561 22.4832 19.0389C23.2342 18.6218 23.8416 17.9873 24.2254 17.2186C24.2917 16.6337 24.2277 16.0414 24.0379 15.4842C23.8113 14.9608 23.5457 14.2186 23.5457 14.203C23.5379 13.8749 23.5613 13.7655 23.7019 13.6014ZM16.2175 10.5858C16.5457 10.742 17.1707 10.6717 17.1394 10.1405L17.1238 9.8983C17.0613 9.74205 16.8738 9.78111 16.8347 9.93736C16.8191 9.99205 16.8582 10.078 16.8113 10.1014C16.78 10.1327 16.6785 10.117 16.6785 9.96861C16.6785 9.92173 16.6472 9.87486 16.6238 9.84361C16.6082 9.82798 16.5925 9.82798 16.5535 9.82798C16.5066 9.82798 16.5066 9.8358 16.4832 9.87486C16.4754 9.91392 16.4597 9.95298 16.4597 9.99986C16.4597 10.0545 16.4285 10.0702 16.3972 10.078C16.3504 10.078 16.3582 10.078 16.3191 10.0624C16.3035 10.0389 16.28 10.0311 16.28 9.98423L16.2566 9.85923C16.241 9.8358 16.2097 9.82017 16.1785 9.81236C15.9988 9.81236 15.9832 10.0233 15.9988 10.1014C15.9832 10.117 15.9754 10.4842 16.2175 10.5858Z" fill="white"/>
<path fill-rule="evenodd" clip-rule="evenodd" d="M25.866 14.664C26.1941 14.8202 26.9832 14.7343 26.7879 14.2265L26.7723 13.9765C26.7019 13.8202 26.5223 13.8593 26.4832 14.0234C26.4676 14.0702 26.5066 14.1562 26.4519 14.1796C26.4285 14.2109 26.3191 14.1952 26.3269 14.0546C26.3269 14.0077 26.2957 13.9531 26.2723 13.9218C26.2488 13.914 26.241 13.9062 26.1941 13.9062C26.1551 13.9062 26.1551 13.9218 26.1316 13.9609C26.116 13.9999 26.1082 14.039 26.1082 14.0859C26.1004 14.1327 26.0769 14.1484 26.0379 14.164C25.9988 14.164 26.0066 14.164 25.9754 14.1406C25.9519 14.1171 25.9285 14.1093 25.9285 14.0702L25.9051 13.9452C25.8894 13.9218 25.8582 13.9062 25.8269 13.8984C25.6473 13.8984 25.6316 14.1015 25.6394 14.1796C25.6316 14.1952 25.6238 14.5702 25.8738 14.664H25.866ZM31.491 12.9765C31.8191 13.1327 32.4363 13.0624 32.4129 12.539L32.3973 12.289C32.3269 12.1327 32.1473 12.1718 32.1082 12.3281C32.0926 12.3827 32.1316 12.4687 32.0769 12.4999C32.0535 12.5234 31.9441 12.5077 31.9519 12.3593C31.9519 12.3124 31.9207 12.2656 31.8973 12.2343C31.8738 12.2187 31.866 12.2187 31.8191 12.2187C31.7801 12.2187 31.7801 12.2343 31.7566 12.2734L31.7332 12.3906C31.7254 12.4452 31.7019 12.4687 31.6629 12.4687C31.6238 12.4687 31.6316 12.4687 31.6004 12.4531C31.5769 12.4296 31.5535 12.4218 31.5535 12.3827C31.5535 12.3437 31.5457 12.2812 31.5301 12.2499C31.5144 12.2265 31.4832 12.2187 31.4519 12.2109C31.2723 12.2109 31.2566 12.414 31.2644 12.4921C31.2566 12.5077 31.2488 12.8749 31.4988 12.9765H31.491ZM34.4051 17.2187C33.8348 17.8671 34.0848 18.9374 34.2176 19.1718C34.4051 19.5468 34.5535 19.789 34.9207 19.9765C35.2566 20.2187 35.5223 20.0702 35.6629 19.8984C35.9988 19.5468 36.0066 18.6484 36.1629 18.4765C36.2723 18.1484 36.5535 18.2031 36.6863 18.3515C36.8106 18.5279 36.9771 18.6702 37.1707 18.7656C37.4832 19.039 37.8582 19.0937 38.2332 18.8437C38.4832 18.6952 38.6473 18.5156 38.7957 18.1484C38.9519 17.7109 38.8738 15.6796 38.8348 14.4765L38.5066 12.7968C38.5066 12.7812 38.4676 11.9999 38.4285 11.8202C38.4285 11.7421 38.4051 11.7187 38.4832 11.7265C38.5691 11.8046 38.5769 11.8046 38.6394 11.8281C38.7176 11.8437 38.7957 11.6952 38.741 11.5702L37.9598 10.1171C37.8973 10.0546 37.8113 9.99212 37.7098 10.1327C37.6498 10.187 37.6021 10.2534 37.5698 10.3274C37.5375 10.4015 37.5213 10.4816 37.5223 10.5624C37.5457 10.9062 37.6004 11.2577 37.6238 11.6015L37.9363 13.3671C38.0379 14.6171 38.0613 15.6484 38.1629 16.9062C38.1473 17.4374 37.9832 17.8984 37.8269 17.9687C37.8269 17.9687 37.5926 18.1015 37.4363 17.9531C37.3191 17.9062 36.8582 17.1796 36.8582 17.1796C36.6238 16.9687 36.4676 17.0234 36.3035 17.1796C35.8348 17.6327 35.6316 18.4609 35.3113 19.039C35.2332 19.1718 34.9988 19.2734 34.7488 19.0312C34.1082 18.1484 34.4832 16.8984 34.4051 17.2187ZM31.6394 9.89837C31.9363 10.0156 32.1394 10.6171 32.0769 10.914C32.0144 11.2656 31.8582 11.6562 31.7488 11.6093C31.6238 11.5624 31.8269 11.2499 31.7098 10.9218C31.6473 10.7031 31.241 10.3124 31.2879 10.2031C31.2098 9.96087 31.4598 9.8515 31.6394 9.89056V9.89837Z" fill="white"/>
<path fill-rule="evenodd" clip-rule="evenodd" d="M35.3566 17.5781C35.4113 16.8593 35.3098 16.4218 35.2941 16C35.2785 15.5781 34.8176 12.3593 34.7238 12.0468C34.6066 11.4375 35.1691 11.9687 35.1066 11.6093C34.9113 11.1718 34.4348 10.5234 34.2863 10.1406C34.1926 9.98434 34.2316 9.82809 34.0285 10.1015C33.8536 10.5809 33.7921 11.0944 33.8488 11.6015C34.3332 14.125 34.8254 16.2187 34.7473 18.6172C34.9816 18.6172 35.2395 18.0937 35.3566 17.5781ZM40.3879 10.914C40.6613 11.0468 40.8176 11.7968 40.7863 12.0078C40.7316 12.3984 40.591 12.8203 40.4895 12.7656C40.3723 12.7187 40.5129 12.1875 40.4582 12.0234C40.3957 11.789 40.0285 11.3672 40.0676 11.2422C39.9895 10.9765 40.2238 10.8672 40.3879 10.914ZM20.4113 16.2187C20.6691 16.3203 20.8254 16.8672 20.802 17.0234C20.7395 17.3125 20.6066 17.625 20.5051 17.5781C20.4035 17.5468 20.5285 17.1562 20.4816 17.0312C20.4582 16.7422 20.0988 16.5859 20.1066 16.4609C20.0441 16.2265 20.2629 16.1875 20.4191 16.2187H20.4113Z" fill="white"/>
<path fill-rule="evenodd" clip-rule="evenodd" d="M26.6312 17.0469C26.9593 17.0625 27.1234 17.3281 26.8187 17.4375C26.5062 17.5391 26.2171 17.625 26.2093 18.0625C26.3265 18.6875 26.0531 18.4687 25.8968 18.3906C25.7093 18.25 25.1781 17.9219 25.0999 17.2187C25.0921 17.0547 25.2249 16.9062 25.4359 16.9062C25.7484 16.9922 26.2171 17 26.6312 17.0469Z" fill="#1B9D00"/>
<path fill-rule="evenodd" clip-rule="evenodd" d="M13.5444 9.71881C13.9194 9.82818 13.9429 10.3907 13.9194 10.5547C13.8648 10.8516 13.7319 11.1719 13.6382 11.1329C13.5288 11.0938 13.6382 10.6876 13.5835 10.5626C13.5288 10.3907 13.2085 10.0626 13.2398 9.96881C13.1694 9.77349 13.396 9.67974 13.5444 9.71881ZM21.0366 12.3438C20.7398 12.5001 20.6304 12.9688 20.8101 13.2501C20.9819 13.4844 21.2476 13.3985 21.2788 13.3985C21.5679 13.4297 21.7398 12.8594 21.7398 12.8594C21.7398 12.8594 21.7476 12.7032 21.4116 13.0079C21.2632 13.0313 21.2554 12.9766 21.2163 12.8985C21.1806 12.7498 21.1943 12.5934 21.2554 12.4532C21.3101 12.3126 21.2007 12.2501 21.0366 12.3438ZM23.2241 9.50006C23.0679 9.60162 22.7788 9.90631 22.771 10.2501C22.7632 10.4454 22.7241 10.4454 22.8491 10.5626C22.9507 10.7032 23.0366 10.6954 23.2241 10.5938C23.2709 10.5644 23.3109 10.5256 23.3419 10.4799C23.3728 10.4341 23.3939 10.3825 23.4038 10.3282C23.4507 10.1094 23.1694 10.4376 23.1382 10.1876C23.0757 9.95318 23.2554 9.85943 23.4273 9.64068C23.4273 9.48443 23.4273 9.38287 23.2163 9.50006H23.2241ZM24.9741 9.81256C24.9053 10.097 24.8634 10.3874 24.8491 10.6797C24.8023 10.8985 25.0835 10.9922 25.2007 10.711C25.3882 10.2032 25.3882 9.98443 25.4038 9.77349C25.3491 9.43756 25.1226 9.44537 24.9741 9.81256ZM36.0679 15.461C36.0991 15.4219 37.6304 14.336 37.6304 14.336C37.7866 14.2813 37.7476 14.8985 37.6773 14.8907C37.2024 15.3484 36.6562 15.7257 36.0601 16.0079C35.9819 16.0626 35.9116 15.5938 36.0601 15.461H36.0679ZM37.4507 15.4454C37.7241 15.5782 37.8335 16.3672 37.8023 16.5782C37.8023 17.0001 37.5444 17.3282 37.4351 17.2813C37.3257 17.2266 37.4507 16.7579 37.396 16.5938C37.3335 16.3594 37.1069 15.9297 37.146 15.8047C37.0679 15.5391 37.2866 15.3985 37.4585 15.4454H37.4507ZM28.3882 18.836C28.5149 18.6881 28.6623 18.5591 28.8257 18.4532C28.9819 18.3751 29.1226 18.5157 29.1148 18.5079C29.1382 18.6641 29.021 18.7969 29.0601 19.0001C29.0913 19.0782 29.1148 19.1719 29.2632 19.1407C29.5054 18.9454 29.7319 18.9297 29.9663 18.9219C30.1616 18.9297 30.1694 19.2501 30.0444 19.2501C29.5991 19.3438 29.4038 19.4688 29.0835 19.586C28.9273 19.6797 28.8023 19.5626 28.8023 19.5547C28.8023 19.5469 28.7163 19.4688 28.771 19.2657C28.7866 19.1094 28.7241 19.0157 28.5835 19.0313C28.4898 19.0938 28.396 19.1251 28.3491 19.0079C28.3257 18.9297 28.3179 18.8829 28.3882 18.836ZM39.0601 19.2579C39.1226 19.336 39.1694 19.4141 39.0523 19.5547L38.7632 19.8047C38.7163 19.8829 38.6851 20.0235 38.8413 20.0626C39.1226 20.1407 39.7788 19.711 39.7788 19.7032C39.8882 19.6251 39.8569 19.4688 39.8413 19.4688C39.7788 19.3985 39.6382 19.4454 39.5444 19.4297C39.4976 19.4297 39.3491 19.4141 39.4194 19.2735C39.4719 19.2045 39.514 19.1281 39.5444 19.0469C39.5835 18.9532 39.5444 18.8907 39.3882 18.836C39.2241 18.8047 39.1538 18.8204 38.9741 18.836C38.8804 18.8516 38.8491 18.8985 38.8257 19.0157C38.8335 19.1954 38.9429 19.1876 39.0601 19.2501V19.2579Z" fill="white"/>
<path fill-rule="evenodd" clip-rule="evenodd" d="M28.444 14.8203C28.4049 14.8985 28.2643 14.8985 28.1315 14.8203C27.9987 14.7422 27.9205 14.6172 27.9674 14.5469C28.0143 14.4766 28.1471 14.4766 28.2799 14.5469C28.4127 14.6172 28.483 14.75 28.444 14.8203ZM21.4908 10.6328C21.4127 10.6563 21.3033 10.586 21.2565 10.4766C21.2096 10.3672 21.233 10.2735 21.3112 10.25C21.3893 10.2266 21.4908 10.3047 21.5455 10.4063C21.6002 10.5078 21.569 10.6172 21.483 10.6407L21.4908 10.6328Z" fill="#259F00"/>
<path fill-rule="evenodd" clip-rule="evenodd" d="M35.2491 29.2969C35.9834 29.3281 36.6709 29.2969 37.3975 29.3359C37.5303 29.4531 37.4366 29.7266 37.3506 29.7109L36.7412 29.6875C36.7334 29.4531 36.1397 29.4922 36.1553 29.6953C35.835 29.7344 35.5459 29.6875 35.2178 29.6719C35.1241 29.5547 35.1397 29.3438 35.2491 29.2969Z" fill="#209000"/>
</g>
<defs>
<clipPath id="clip0_623_1806">
<rect width="53.3333" height="40" fill="white" transform="translate(0.832031)"/>
</clipPath>
</defs>
</svg>
