<svg width="55" height="40" viewBox="0 0 55 40" fill="none" xmlns="http://www.w3.org/2000/svg">
<g clip-path="url(#clip0_623_2510)">
<path d="M0.832031 26.6667H54.1654V40.0001H0.832031V26.6667Z" fill="black"/>
<path d="M0.832031 13.3333H54.1654V26.6666H0.832031V13.3333Z" fill="white"/>
<path d="M0.832031 0H54.1654V13.3333H0.832031V0Z" fill="#CE1126"/>
<path d="M27.5522 20.16L32.1189 24.4L31.7922 16.7C31.7456 15.5334 30.7322 15.8 29.9922 16.22C29.2522 16.7 28.3922 16.7 27.4989 16.3867C26.5989 16.7 25.7456 16.7 25.0056 16.22C24.2722 15.8 23.2522 15.5334 23.2056 16.7L22.8789 24.4L27.5522 20.16Z" fill="white" stroke="#C09300" stroke-width="0.086125" stroke-linejoin="round"/>
<path d="M23.7322 16.4336L23.4122 23.9203L22.8789 24.4003L23.2056 16.7003C23.3631 16.5795 23.5417 16.489 23.7322 16.4336ZM24.3722 16.9669L24.1056 23.2336L23.5722 23.7803L23.8922 16.5469C23.9989 16.6536 24.3122 16.9136 24.3722 16.9669ZM24.9522 17.4469L24.7456 22.6736L24.3122 23.0936L24.5789 17.1336C24.6856 17.2336 24.8989 17.3869 24.9522 17.4469ZM25.5856 17.7136L25.3789 22.1669L24.9589 22.5069L25.1656 17.5536C25.2722 17.6003 25.4789 17.7136 25.5856 17.7136ZM26.1722 17.7136L26.0189 21.4269L25.5856 21.8469L25.7522 17.7603C25.8522 17.7603 26.1256 17.7603 26.1722 17.7136Z" fill="#C09300"/>
<path d="M31.2658 16.4336L31.5858 23.9203L32.1191 24.4003L31.7925 16.7003C31.635 16.5795 31.4564 16.489 31.2658 16.4336ZM30.6258 16.9669L30.8925 23.2336L31.4258 23.7803L31.1058 16.5469C30.9991 16.6536 30.6858 16.9136 30.6258 16.9669ZM30.0458 17.4469L30.2525 22.6736L30.6858 23.0936L30.4191 17.1336C30.3125 17.2336 30.0991 17.3869 30.0458 17.4469ZM29.4125 17.7136L29.6191 22.1669L30.0391 22.5069L29.8325 17.5536C29.7258 17.6003 29.5191 17.7136 29.4125 17.7136ZM28.8258 17.7136L28.9791 21.4269L29.4125 21.8469L29.2458 17.7603C29.1458 17.7603 28.8725 17.7603 28.8258 17.7136Z" fill="#C09300"/>
<path d="M27.7132 21L28.3531 23.92L28.1398 24.1333L27.9198 23.9667L27.5598 21.3667L27.7132 23.9667L27.4998 24.2333L27.2931 23.9667L27.4465 21.3667L27.0798 23.9667L26.8598 24.1333L26.6465 23.92L27.2865 21.0067H27.7132V21Z" fill="#C09300" stroke="#C09300" stroke-width="0.072875"/>
<path d="M26.0663 19.7202L24.793 24.2335L26.5463 24.5002L27.2863 21.1069L26.0663 19.7202Z" fill="white" stroke="#C09300" stroke-width="0.0795" stroke-linejoin="round"/>
<path d="M25.6465 21.2669L25.7998 21.6336L26.6265 20.8469" stroke="#C09300" stroke-width="0.086125" stroke-linejoin="round"/>
<path d="M26.2206 20.3335L26.3939 21.9535L26.9206 21.2602M26.7072 21.5268L26.9939 22.5268M27.1072 22.1602L26.5272 23.0402M26.7072 23.9202L26.5206 23.0402L26.3606 22.1468L25.9672 22.6735L25.8006 22.0668L25.2539 22.6268L25.5272 23.6402L25.9139 23.0135L26.1206 23.6535L26.5206 23.0402" stroke="#C09300" stroke-width="0.086125" stroke-linejoin="round"/>
<path d="M25.166 24.1335L25.5193 23.6335L25.746 24.4002L26.066 23.8669L26.2727 24.5069" stroke="#C09300" stroke-width="0.086125" stroke-linejoin="round"/>
<path d="M28.9317 19.7202L30.2051 24.2335L28.4517 24.5002L27.7117 21.1069L28.9317 19.7202Z" fill="white" stroke="#C09300" stroke-width="0.0795" stroke-linejoin="round"/>
<path d="M29.3516 21.2669L29.1982 21.6336L28.3716 20.8469" stroke="#C09300" stroke-width="0.086125" stroke-linejoin="round"/>
<path d="M28.7775 20.3335L28.6041 21.9535L28.0775 21.2602M28.2908 21.5268L28.0041 22.5268M27.8908 22.1602L28.4708 23.0402M28.2908 23.9202L28.4775 23.0402L28.6375 22.1468L29.0308 22.6735L29.1975 22.0668L29.7441 22.6268L29.4708 23.6402L29.0841 23.0135L28.8775 23.6535L28.4775 23.0402" stroke="#C09300" stroke-width="0.086125" stroke-linejoin="round"/>
<path d="M29.832 24.1335L29.4787 23.6335L29.252 24.4002L28.932 23.8669L28.7254 24.5069" stroke="#C09300" stroke-width="0.086125" stroke-linejoin="round"/>
<path d="M27.4982 26.2535C28.8315 26.2535 30.0982 26.1468 30.8448 25.9402C31.1582 25.8802 31.1582 25.7202 31.1582 25.5068C31.4782 25.4002 31.3182 25.0268 31.5382 25.0268C31.3115 25.0935 31.2715 24.6602 31.0048 24.7135C31.0048 24.3402 30.6248 24.2935 30.3115 24.4002C29.6782 24.6068 28.5582 24.6602 27.4982 24.6602C26.4315 24.6068 25.3248 24.6068 24.6848 24.3935C24.3715 24.2935 23.9982 24.3402 23.9982 24.7135C23.7315 24.6602 23.6848 25.0868 23.4648 25.0268C23.6848 25.0268 23.5182 25.4068 23.8382 25.5068C23.8382 25.7202 23.8382 25.8802 24.1582 25.9402C24.8915 26.1468 26.1715 26.2535 27.4982 26.2535Z" fill="white" stroke="#C09300" stroke-width="0.159" stroke-linecap="round" stroke-linejoin="round"/>
<path d="M25.6905 24.2336C26.1172 24.2936 26.5972 24.3403 26.9705 24.2936C27.1839 24.2936 27.3372 24.6603 26.9105 24.7136C26.5439 24.7603 25.9572 24.7136 25.6439 24.6603C25.2315 24.5881 24.8223 24.4991 24.4172 24.3936C24.0439 24.2336 24.3105 23.9269 24.5239 23.9669C24.9045 24.0889 25.2948 24.1781 25.6905 24.2336ZM29.3039 24.2336C28.8772 24.2936 28.3972 24.3403 28.0372 24.2936C27.8105 24.2936 27.6572 24.6603 28.0839 24.7136C28.4572 24.7603 29.0372 24.7136 29.3505 24.6603C29.6172 24.6069 30.2039 24.5069 30.5772 24.3936C30.9505 24.2336 30.6839 23.9269 30.4705 23.9669C30.0899 24.0889 29.6996 24.1781 29.3039 24.2336Z" fill="white" stroke="#C09300" stroke-width="0.086125" stroke-linecap="round" stroke-linejoin="round"/>
<path d="M24.3645 24.027C24.0445 23.967 23.8978 24.3403 23.9978 24.5536C24.0445 24.447 24.2645 24.447 24.3112 24.3403C24.3712 24.1803 24.2645 24.1803 24.3712 24.027H24.3645ZM25.6445 25.007C25.6445 24.7936 25.8512 24.8203 25.8512 24.607C25.8512 24.507 25.7978 24.3403 25.6912 24.3403C25.6356 24.3435 25.5832 24.367 25.5439 24.4063C25.5045 24.4456 25.481 24.4981 25.4778 24.5536C25.4312 24.7603 25.6445 24.7936 25.6445 25.007ZM27.1578 24.4003C27.4712 24.4003 27.4378 24.8203 27.2912 25.0336C27.2912 24.8803 27.0245 24.8203 27.0245 24.7136C27.0245 24.5536 27.2645 24.5536 27.1578 24.4003ZM30.6245 24.027C30.9512 23.967 31.1045 24.3403 30.9978 24.5536C30.9512 24.447 30.7312 24.447 30.6845 24.3403C30.6245 24.1803 30.7312 24.1803 30.6245 24.027ZM29.3645 25.0003C29.3645 24.787 29.1512 24.8136 29.1512 24.6003C29.1512 24.5003 29.2045 24.3336 29.3112 24.3336C29.3667 24.3368 29.4192 24.3603 29.4585 24.3996C29.4978 24.439 29.5213 24.4914 29.5245 24.547C29.5712 24.7536 29.3578 24.787 29.3578 25.0003H29.3645ZM27.8312 24.4003C27.5178 24.4003 27.5512 24.8203 27.6978 25.0336C27.6978 24.8803 27.9645 24.8203 27.9645 24.7136C27.9645 24.5536 27.7245 24.5536 27.8312 24.4003Z" fill="white" stroke="#C09300" stroke-width="0.086125" stroke-linecap="round" stroke-linejoin="round"/>
<path d="M24.4785 24.1335C24.5852 24.1335 24.7452 24.1802 24.7918 24.2402L24.4785 24.1335ZM25.0052 24.2935C25.0585 24.2935 25.2718 24.3402 25.3718 24.4002L25.0052 24.2935ZM26.9118 24.5069C26.8118 24.5069 26.5985 24.5069 26.5452 24.5535L26.9118 24.5002V24.5069ZM26.3318 24.5069C26.2718 24.4469 26.0652 24.4469 25.9585 24.5069H26.3318ZM30.5185 24.1335C30.4054 24.135 30.2957 24.1723 30.2052 24.2402L30.5185 24.1335ZM29.9985 24.2935C29.9318 24.2935 29.7318 24.3402 29.6252 24.4002L29.9985 24.2935ZM28.0852 24.5069C28.1852 24.5069 28.3985 24.5069 28.4585 24.5535L28.0852 24.5002V24.5069ZM28.6652 24.5069C28.7252 24.4469 28.9318 24.4469 29.0385 24.5069H28.6652Z" fill="white" stroke="#C09300" stroke-width="0.059625" stroke-linecap="round" stroke-linejoin="round"/>
<path d="M24.384 24.9737C24.3507 24.967 24.3307 24.9337 24.344 24.907C24.3507 24.8603 24.384 24.8403 24.4107 24.8537C24.4374 24.8537 24.4707 24.8937 24.4707 24.907L24.444 24.9537L24.4307 24.9603C24.4307 24.9737 24.404 24.9737 24.384 24.9737ZM28.0507 25.2337C28.0374 25.2337 28.0107 25.2003 28.0107 25.187C28.0107 25.1603 28.0507 25.1203 28.0774 25.1203L28.1307 25.147C28.1507 25.167 28.1507 25.207 28.124 25.227C28.1107 25.2403 28.0707 25.2403 28.0507 25.227V25.2337ZM28.0707 25.4003C28.044 25.387 28.0374 25.3737 28.0307 25.347C28.0307 25.3137 28.0307 25.307 28.064 25.287L28.0907 25.2737L28.1174 25.287C28.144 25.3003 28.164 25.3137 28.164 25.3403C28.164 25.3603 28.144 25.3803 28.1174 25.3937C28.0974 25.407 28.0907 25.407 28.0707 25.3937V25.4003Z" fill="#C09300"/>
<path d="M24.6841 24.667C24.6575 24.667 24.6241 24.6937 24.6041 24.707C24.5641 24.7137 24.5108 24.7403 24.4708 24.707C24.4308 24.7003 24.3775 24.707 24.3708 24.7603C24.3775 24.807 24.4375 24.827 24.4775 24.8003C24.5041 24.767 24.5775 24.7403 24.5908 24.8003C24.5575 24.8537 24.5641 24.9137 24.5375 24.9603C24.5375 24.9937 24.5175 25.0203 24.5041 25.047C24.4708 25.047 24.4375 25.047 24.4108 25.067C24.3901 25.067 24.3697 25.0718 24.3512 25.0811C24.3327 25.0903 24.3166 25.1038 24.3041 25.1203C24.2775 25.1603 24.2508 25.2003 24.2441 25.2537C24.2508 25.2937 24.3108 25.307 24.3508 25.3137L24.4841 25.3537L24.6975 25.4137C24.8041 25.447 24.9108 25.4603 25.0175 25.487L25.0508 25.4937C25.0975 25.507 25.1175 25.4603 25.1175 25.427L25.1841 25.187C25.1975 25.1537 25.2175 25.087 25.1575 25.1003C25.1241 25.1203 25.0908 25.1537 25.0508 25.1537C24.9908 25.1537 25.0241 25.2203 25.0508 25.2403C25.0508 25.2803 25.0375 25.327 25.0175 25.3603C24.9775 25.3803 24.9375 25.3603 24.8975 25.347C24.8641 25.347 24.7841 25.327 24.8175 25.2803L24.8508 25.1603C24.8708 25.1203 24.8708 25.0737 24.8841 25.027C24.8575 24.9803 24.8175 25.047 24.7841 25.0537C24.7575 25.067 24.6775 25.0737 24.7175 25.1203C24.7575 25.147 24.7308 25.1937 24.7175 25.2337C24.7175 25.2803 24.6641 25.3003 24.6241 25.2803C24.5841 25.2803 24.5241 25.247 24.5575 25.207L24.5908 25.087L24.6375 24.9537C24.6375 24.907 24.6575 24.8737 24.6775 24.8337C24.6775 24.787 24.7108 24.747 24.7108 24.7003C24.7108 24.6803 24.6975 24.6737 24.6841 24.6737V24.667ZM24.4375 25.1537C24.4405 25.1519 24.444 25.151 24.4475 25.151C24.451 25.151 24.4544 25.1519 24.4575 25.1537C24.4708 25.167 24.4708 25.1803 24.4575 25.1937L24.4375 25.207C24.4041 25.207 24.3975 25.2003 24.3975 25.187C24.3975 25.1803 24.3975 25.1737 24.4175 25.167C24.4256 25.1611 24.4346 25.1566 24.4441 25.1537H24.4375ZM24.3708 25.487C24.3375 25.4603 24.3441 25.4403 24.3908 25.4003C24.4175 25.387 24.4241 25.387 24.4508 25.407C24.4908 25.4403 24.4908 25.4603 24.4508 25.4937C24.4375 25.507 24.4308 25.507 24.4175 25.507C24.3975 25.507 24.3908 25.507 24.3708 25.4937V25.487ZM24.5708 25.5537C24.5559 25.549 24.5434 25.5388 24.5359 25.5251C24.5285 25.5114 24.5266 25.4954 24.5308 25.4803C24.5441 25.4537 24.5508 25.447 24.5908 25.447C24.6375 25.447 24.6441 25.4537 24.6508 25.4937C24.6508 25.5203 24.6508 25.527 24.6308 25.5403C24.6234 25.5462 24.6148 25.5504 24.6056 25.5527C24.5964 25.555 24.5868 25.5554 24.5775 25.5537H24.5708ZM30.5175 25.5537C30.5041 25.547 30.4975 25.5403 30.4975 25.5203C30.4975 25.4937 30.5108 25.4737 30.5508 25.4603C30.5908 25.4403 30.6175 25.4403 30.6308 25.4737C30.6508 25.5137 30.6508 25.527 30.6241 25.5537C30.6108 25.5737 30.6041 25.5737 30.5708 25.5737C30.5375 25.5737 30.5308 25.5737 30.5175 25.5603V25.5537ZM24.8508 25.6337C24.8241 25.6337 24.8108 25.607 24.8108 25.5803C24.8108 25.5603 24.8108 25.5537 24.8241 25.5403L24.8641 25.527L24.9041 25.5337C24.9375 25.5603 24.9441 25.587 24.9241 25.6137C24.9041 25.6403 24.8841 25.6403 24.8441 25.6337H24.8508ZM26.3041 25.7003L26.2908 25.6803C26.2908 25.6403 26.2908 25.607 26.3041 25.567C26.3108 25.5337 26.3041 25.5003 26.3175 25.467L26.3441 25.2803C26.3441 25.247 26.3441 25.2137 26.3575 25.187C26.3641 25.1337 26.3575 25.087 26.3708 25.0403C26.3708 25.0203 26.3908 24.9737 26.4108 25.0003C26.4375 25.0403 26.4708 25.067 26.5041 25.1003C26.5308 25.1203 26.5041 25.147 26.4841 25.1537C26.4575 25.1603 26.4508 25.1937 26.4508 25.2203L26.4375 25.3003C26.4375 25.347 26.4375 25.387 26.4241 25.4337L26.4175 25.5537L26.4041 25.6337C26.4041 25.6603 26.4041 25.6937 26.3775 25.707C26.3575 25.7203 26.3241 25.7203 26.3108 25.7003H26.3041ZM28.2841 25.047L28.1975 25.127C28.1575 25.1603 28.2308 25.1737 28.2375 25.2003C28.2508 25.2403 28.2508 25.2803 28.2508 25.3203C28.2641 25.3603 28.2708 25.3937 28.2641 25.4337C28.2641 25.4803 28.2108 25.467 28.1841 25.4937C28.1508 25.507 28.1375 25.5403 28.1175 25.5603C28.1016 25.5938 28.0926 25.63 28.0908 25.667C28.0908 25.7003 28.0708 25.7337 28.0908 25.7603L28.0975 25.7737H28.1308L28.2308 25.767C28.3108 25.7537 28.3975 25.7537 28.4775 25.747L28.6241 25.7337C28.6641 25.7403 28.6841 25.7003 28.6841 25.667C28.6575 25.6203 28.6775 25.5737 28.6575 25.5337C28.6441 25.4803 28.6508 25.4337 28.6441 25.387C28.6441 25.347 28.5975 25.3337 28.5775 25.3603C28.5508 25.387 28.5108 25.3937 28.4975 25.4203C28.4775 25.4603 28.5375 25.4603 28.5508 25.487L28.5575 25.587C28.5641 25.627 28.5241 25.627 28.4908 25.6337C28.4575 25.647 28.4108 25.6537 28.3908 25.6137C28.3775 25.5803 28.3775 25.547 28.3775 25.5137C28.3775 25.447 28.3575 25.3937 28.3575 25.3337C28.3575 25.267 28.3375 25.1937 28.3375 25.1203C28.3375 25.087 28.3308 25.0403 28.2841 25.047ZM28.2441 25.5937H28.2641V25.647L28.2441 25.6537C28.2354 25.6564 28.2265 25.6587 28.2175 25.6603C28.213 25.6605 28.2086 25.6605 28.2041 25.6603C28.1908 25.647 28.1908 25.627 28.2108 25.607L28.2441 25.5937ZM26.2441 24.9803C26.2241 24.9803 26.1908 25.027 26.1641 25.0203C26.1041 25.027 26.1108 25.087 26.1575 25.107V25.1603C26.1641 25.2137 26.1308 25.2603 26.1375 25.3137C26.1375 25.367 26.1175 25.427 26.1175 25.487C26.0975 25.547 26.0975 25.607 26.0908 25.667C26.0841 25.7203 26.0441 25.7003 26.0108 25.687V25.6203C26.0175 25.5603 25.9775 25.547 25.9308 25.5403C25.8841 25.5403 25.8641 25.507 25.8775 25.467C25.8975 25.4403 25.9441 25.447 25.9775 25.447C26.0441 25.4603 26.0375 25.3737 26.0041 25.3403C25.9775 25.3003 25.9241 25.2737 25.9108 25.2337C25.9108 25.1803 25.8775 25.1203 25.8308 25.0937C25.7575 25.087 25.6975 25.147 25.6775 25.2137C25.6441 25.2137 25.6108 25.227 25.5841 25.2403C25.5375 25.2537 25.4708 25.3337 25.5375 25.367C25.5708 25.3737 25.6841 25.4003 25.6308 25.447C25.6041 25.5003 25.5508 25.5003 25.5041 25.487C25.4575 25.487 25.4041 25.4603 25.4041 25.407C25.3975 25.3537 25.3975 25.3003 25.3775 25.2537C25.3641 25.2003 25.3041 25.2137 25.2975 25.267C25.2508 25.3003 25.2575 25.3603 25.2908 25.4003C25.3108 25.447 25.2908 25.507 25.2708 25.547C25.2575 25.6137 25.1908 25.6137 25.1441 25.627C25.1241 25.6403 25.0375 25.627 25.0708 25.6737C25.1208 25.6967 25.1767 25.7037 25.2308 25.6937C25.2841 25.6937 25.3308 25.647 25.3641 25.6003C25.3975 25.567 25.4575 25.587 25.5108 25.587C25.5575 25.587 25.6108 25.6203 25.6641 25.5937C25.6775 25.5603 25.7441 25.4937 25.7641 25.5603C25.7641 25.6203 25.8108 25.647 25.8641 25.6403C25.9241 25.6403 25.8975 25.6803 25.8975 25.7203C25.8975 25.7803 25.9441 25.8137 25.9975 25.8403H26.0508C26.0975 25.8203 26.1508 25.8003 26.1708 25.747C26.1908 25.7003 26.1908 25.647 26.2041 25.6003C26.2175 25.527 26.2308 25.447 26.2308 25.3737C26.2508 25.307 26.2441 25.2337 26.2575 25.1603L26.2775 25.007C26.2775 24.9737 26.2641 24.9737 26.2441 24.9803ZM25.7975 25.2537C25.8041 25.2537 25.8108 25.267 25.8108 25.287C25.8108 25.3137 25.8241 25.3337 25.8441 25.3403V25.3603L25.7908 25.3737C25.7575 25.3737 25.7308 25.3603 25.7108 25.3403L25.6975 25.327L25.7175 25.3137L25.7508 25.2803C25.7708 25.2603 25.7841 25.2537 25.7975 25.2537ZM30.1975 24.727C30.1591 24.7297 30.1211 24.7365 30.0841 24.747C30.0175 24.747 29.9841 24.8137 30.0508 24.8537C30.0908 24.9537 30.1508 24.827 30.2175 24.8403C30.3108 24.8537 30.3175 24.9603 30.3375 25.0403C30.3375 25.1137 30.3641 25.187 30.3841 25.2603C30.4508 25.3337 30.3375 25.3803 30.2908 25.327C30.2508 25.2803 30.1575 25.227 30.1108 25.287C30.0508 25.3137 30.0441 25.3937 29.9975 25.4203C29.9175 25.4403 29.9108 25.3403 29.8641 25.3003C29.8241 25.2403 29.7508 25.2337 29.6908 25.2203C29.6641 25.1603 29.6775 25.0603 29.6241 25.0203C29.5708 25.0403 29.4775 25.1337 29.5575 25.1803C29.6241 25.247 29.5241 25.2737 29.4908 25.3137C29.4375 25.3737 29.4241 25.447 29.4241 25.5137C29.3375 25.5603 29.3241 25.4603 29.3108 25.4003C29.3108 25.327 29.2441 25.347 29.1975 25.3737C29.1308 25.4003 29.1041 25.4603 29.0641 25.507V25.6403C29.0775 25.7003 29.1441 25.6737 29.1841 25.667C29.2508 25.6403 29.2775 25.7137 29.2241 25.7537C29.1841 25.7937 29.0775 25.7737 29.0908 25.847H29.1975C29.2641 25.827 29.3441 25.7737 29.3508 25.6937C29.3641 25.627 29.4641 25.6337 29.5175 25.6203C29.5841 25.6003 29.6708 25.5937 29.6908 25.687C29.7375 25.7337 29.8375 25.787 29.8908 25.7203C29.9162 25.7042 29.9365 25.6813 29.9495 25.6542C29.9625 25.6271 29.9676 25.5969 29.9641 25.567C29.9575 25.5137 30.0508 25.5137 30.0775 25.547C30.1108 25.6003 30.2175 25.587 30.2708 25.547C30.3241 25.5137 30.3375 25.4403 30.4175 25.4403L30.7775 25.3403C30.8708 25.3203 30.7641 25.2603 30.7375 25.2203C30.6708 25.187 30.6041 25.3337 30.5241 25.2603C30.4575 25.2137 30.4641 25.127 30.4441 25.0537C30.4241 24.9603 30.4308 24.8537 30.3641 24.787C30.3241 24.7403 30.2575 24.727 30.1975 24.727ZM29.7441 25.3603C29.7508 25.3603 29.7641 25.3603 29.7775 25.3737C29.8041 25.387 29.8241 25.4137 29.8241 25.4403C29.8241 25.4537 29.8241 25.4537 29.8041 25.4603L29.7708 25.4737C29.7575 25.4737 29.7241 25.4537 29.7241 25.4403V25.4137C29.7108 25.387 29.7108 25.387 29.7241 25.3737L29.7441 25.3603ZM30.1775 25.387C30.2041 25.387 30.2175 25.387 30.2308 25.407C30.2375 25.4337 30.2308 25.447 30.2041 25.4603L30.1708 25.4737L30.1441 25.4537C30.1308 25.447 30.1241 25.4403 30.1241 25.427C30.1241 25.407 30.1508 25.387 30.1775 25.3803V25.387ZM29.5775 25.387C29.5908 25.387 29.5975 25.387 29.6041 25.4003C29.6175 25.4137 29.6241 25.4203 29.6241 25.4403V25.4803C29.6241 25.5003 29.6241 25.4937 29.5841 25.4937C29.5441 25.4937 29.5375 25.4937 29.5375 25.4537C29.5375 25.427 29.5375 25.4203 29.5575 25.407C29.5641 25.3937 29.5775 25.3937 29.5841 25.3937L29.5775 25.387ZM29.2175 25.487C29.2238 25.4889 29.2295 25.4923 29.2341 25.497C29.2388 25.5016 29.2422 25.5074 29.2441 25.5137C29.2441 25.5337 29.2441 25.547 29.2308 25.5537C29.2108 25.5603 29.1775 25.567 29.1641 25.5537C29.164 25.5514 29.164 25.5492 29.1641 25.547C29.1508 25.5403 29.1508 25.5337 29.1641 25.527V25.5203L29.1775 25.5003C29.1816 25.4938 29.1878 25.489 29.1951 25.4865C29.2024 25.4841 29.2103 25.4843 29.2175 25.487ZM29.8308 25.567L29.8641 25.5737V25.6137H29.7841L29.7775 25.6003C29.7775 25.587 29.7775 25.5803 29.7908 25.5737L29.8308 25.567ZM28.6908 25.887C28.6841 25.887 28.6708 25.8803 28.6841 25.8737C28.6908 25.8537 28.7175 25.847 28.7375 25.8337C28.7738 25.8198 28.8059 25.7968 28.8308 25.767C28.8308 25.7403 28.8575 25.727 28.8575 25.7003L28.8508 25.607C28.8418 25.579 28.8228 25.5553 28.7975 25.5403C28.7775 25.5337 28.7508 25.527 28.7441 25.5003C28.7441 25.4803 28.7641 25.4603 28.7708 25.4403L28.8108 25.3603C28.8308 25.3403 28.8575 25.3603 28.8641 25.3737L28.8975 25.4403C28.9175 25.4603 28.9308 25.4803 28.9375 25.507C28.9508 25.5337 28.9641 25.5537 28.9641 25.5737L28.9775 25.6603C28.9775 25.6937 28.9775 25.7337 28.9641 25.767L28.9241 25.8203C28.9041 25.8403 28.8841 25.8603 28.8575 25.867C28.8375 25.8737 28.8241 25.8937 28.7975 25.8937H28.6975L28.6908 25.887ZM28.2308 25.9137C28.2175 25.9003 28.2108 25.8937 28.2108 25.8737C28.2108 25.8537 28.2108 25.8537 28.2308 25.8337C28.2575 25.807 28.2708 25.807 28.3241 25.8337C28.3708 25.8603 28.3908 25.8603 28.3908 25.8403C28.3975 25.827 28.4241 25.807 28.4575 25.807C28.4698 25.8075 28.4816 25.8122 28.4908 25.8203C28.5041 25.8337 28.5108 25.8403 28.5108 25.867C28.5108 25.9003 28.5108 25.9003 28.4908 25.9203C28.4708 25.9337 28.4708 25.9337 28.4441 25.9337C28.4323 25.933 28.4209 25.9289 28.4114 25.9217C28.4019 25.9146 28.3947 25.9049 28.3908 25.8937C28.3908 25.8803 28.3908 25.8737 28.3775 25.887L28.3641 25.8937C28.3508 25.8937 28.3241 25.9137 28.3108 25.927L28.2775 25.9337C28.2508 25.9337 28.2508 25.9337 28.2308 25.9137ZM26.9108 25.3203C26.8641 25.3203 26.8175 25.3603 26.8108 25.407C26.8241 25.4537 26.8641 25.507 26.8375 25.5537C26.8575 25.6203 26.7841 25.647 26.7375 25.6137C26.7108 25.547 26.6975 25.4803 26.6508 25.4137C26.5975 25.4003 26.5775 25.487 26.5375 25.5203C26.5575 25.567 26.6108 25.6137 26.6175 25.6737C26.6308 25.7403 26.5908 25.807 26.5441 25.8337C26.4975 25.8803 26.4308 25.867 26.3775 25.8737C26.3108 25.9137 26.4241 25.927 26.4575 25.927C26.5241 25.9337 26.5975 25.927 26.6575 25.8737C26.7041 25.8537 26.6975 25.7603 26.7575 25.7537L27.0775 25.7737C27.1308 25.787 27.2175 25.767 27.2575 25.807C27.2575 25.8737 27.3241 25.927 27.3841 25.9537C27.4175 25.967 27.4508 25.9203 27.4841 25.9137C27.5508 25.8937 27.5308 25.8137 27.5708 25.7803H27.9041C27.9175 25.7803 27.9241 25.747 27.9441 25.7337L27.9308 25.607C27.9108 25.5537 27.9308 25.487 27.8975 25.4403C27.8375 25.427 27.7908 25.4737 27.7375 25.4803C27.6708 25.507 27.6241 25.567 27.6175 25.6337C27.5841 25.6937 27.5241 25.6203 27.5508 25.567L27.5441 25.5003C27.5108 25.467 27.4508 25.4803 27.4041 25.4737L27.2041 25.4603C27.1375 25.4603 27.0775 25.467 27.0241 25.4537C26.9575 25.4537 26.9575 25.387 26.9575 25.3337C26.9441 25.3235 26.9275 25.3187 26.9108 25.3203ZM27.0441 25.567L27.1108 25.5737H27.1975C27.2641 25.587 27.3308 25.587 27.3975 25.587C27.4108 25.587 27.4241 25.6003 27.4375 25.6137V25.747C27.4375 25.767 27.4375 25.7937 27.4241 25.8003C27.4206 25.8056 27.4161 25.8102 27.4108 25.8137C27.401 25.8119 27.3918 25.808 27.3837 25.8023C27.3756 25.7965 27.3689 25.789 27.3641 25.7803V25.687C27.3509 25.6758 27.3347 25.6689 27.3175 25.667L27.1441 25.6603L27.0108 25.6537C26.9908 25.647 26.9641 25.6537 26.9508 25.627C26.9375 25.6137 26.9575 25.587 26.9775 25.5803C26.9984 25.5709 27.0212 25.5664 27.0441 25.567ZM27.7975 25.587C27.8041 25.587 27.8108 25.587 27.8108 25.607L27.8241 25.6403C27.8241 25.647 27.8241 25.6537 27.8108 25.6537C27.7775 25.667 27.7441 25.667 27.7308 25.6537C27.7308 25.647 27.7308 25.6203 27.7441 25.6137L27.7975 25.587Z" fill="#C09300"/>
<path d="M27.4989 21.8135C29.6722 20.1469 29.4855 17.6935 29.4855 17.6935L29.3189 17.7069C28.8589 17.7069 27.7722 17.4402 27.5189 17.1135C27.2522 17.4135 26.1322 17.7135 25.6789 17.7135L25.5122 17.6935C25.5122 17.6935 25.3189 20.1402 27.4989 21.8135Z" fill="white" stroke="#C09300" stroke-width="0.072875"/>
<path d="M29.3122 17.8668H29.2589C28.8455 17.8668 27.8855 17.6601 27.5122 17.3401C27.1255 17.6334 26.1455 17.8734 25.7389 17.8734C25.7209 17.8727 25.7031 17.8705 25.6855 17.8668C25.6892 18.2881 25.7475 18.7071 25.8589 19.1134C26.1263 20.0924 26.7012 20.9594 27.4989 21.5868C28.297 20.957 28.8719 20.0877 29.1389 19.1068C29.2497 18.7026 29.308 18.2858 29.3122 17.8668Z" fill="white" stroke="#C09300" stroke-width="0.059625"/>
<path d="M26.7922 17.6668C26.4341 17.7834 26.0618 17.8507 25.6855 17.8668L25.6922 18.1402C25.715 18.4672 25.7708 18.7911 25.8589 19.1068C26.0381 19.7625 26.3564 20.3719 26.7922 20.8935V17.6668ZM28.1655 17.6668V20.9468C28.6223 20.4132 28.9548 19.7847 29.1389 19.1068C29.2269 18.791 29.2827 18.4672 29.3055 18.1402L29.3122 17.8735H29.2589C29.0055 17.8735 28.5655 17.7935 28.1655 17.6602V17.6668Z" fill="#C09300"/>
<path d="M28.3185 16.8668C28.3652 16.8735 28.2585 16.6335 28.2585 16.6335C28.3785 16.7535 28.8185 16.7868 28.8185 16.7868C28.5519 16.6668 28.2852 15.7801 28.3185 15.0668C28.3452 14.3601 28.2185 14.0801 28.1185 13.9735C27.9852 13.8401 27.5519 13.7201 27.2719 13.7068C27.1052 13.7001 27.1385 13.8268 27.1385 13.8268C26.8385 13.7535 26.5385 13.7201 26.4052 13.8135C26.2852 13.8935 26.2585 14.3135 26.3519 14.2401C26.5719 14.0601 26.7652 14.2268 26.8985 14.4201C27.0185 14.5868 27.0119 15.0668 26.8385 15.6335C26.6851 16.0619 26.4596 16.4609 26.1719 16.8135C26.4385 16.8135 26.8119 16.5801 26.8119 16.5801L26.7252 16.9468C27.0052 16.8135 27.2252 16.6068 27.2252 16.6068L27.4919 16.8868C27.5785 16.7668 27.7585 16.6068 27.7585 16.6068C27.7585 16.6068 27.9785 16.8401 28.3185 16.8735V16.8668Z" fill="white" stroke="#C09300" stroke-width="0.0795"/>
<path d="M27.2392 15.1735C27.2392 15.1735 27.0925 16.2668 26.8125 16.5735M27.4792 15.1401C27.4792 15.1401 27.4125 16.2535 27.2258 16.6068M27.6858 15.1868C27.6858 15.1868 27.6858 16.4001 27.7525 16.6068M27.9525 15.2468C27.9525 15.2468 28.0058 16.2668 28.2592 16.6335" stroke="#C09300" stroke-width="0.086125"/>
<path d="M26.9649 14.6403C26.9589 14.563 26.9362 14.4879 26.8982 14.4203C26.7649 14.2203 26.5716 14.0603 26.3516 14.2403C26.3516 14.2403 26.4249 14.007 26.5916 14.0003C26.7116 13.9936 26.9982 14.0936 27.2516 14.5203C27.2516 14.5203 27.0649 14.4803 27.0182 14.5203C26.9382 14.587 26.9716 14.6403 26.9716 14.6403H26.9649Z" fill="#C09300" stroke="#C09300" stroke-width="0.019875"/>
<path d="M26.3242 13.9535C26.3442 13.8868 26.3709 13.8335 26.4109 13.8135C26.5442 13.7201 26.8376 13.7468 27.1376 13.8268C27.1376 13.8268 27.1109 13.7001 27.2709 13.7068C27.5509 13.7201 27.9776 13.8401 28.1109 13.9735C28.1536 14.0203 28.1875 14.0745 28.2109 14.1335C28.1442 14.0401 27.9576 14.0468 27.9109 14.0535C27.8442 14.0601 27.7976 14.0535 27.7042 14.0801C27.6576 14.0935 27.5909 14.1068 27.5509 14.1335C27.5242 14.1601 27.4976 14.2401 27.4576 14.2401C27.3909 14.2401 27.3909 14.2268 27.3709 14.2068C27.3509 14.1735 27.3376 14.1335 27.3109 14.1401C27.2442 14.1468 27.1242 14.0935 26.9776 13.9735C26.8242 13.8535 26.7642 13.8268 26.5776 13.8401C26.3776 13.8535 26.3242 13.9668 26.3242 13.9668V13.9535Z" fill="#C09300" stroke="#C09300" stroke-width="0.019875"/>
<path d="M27.4174 14.1258C27.4613 14.1258 27.4969 14.0902 27.4969 14.0463C27.4969 14.0024 27.4613 13.9668 27.4174 13.9668C27.3735 13.9668 27.3379 14.0024 27.3379 14.0463C27.3379 14.0902 27.3735 14.1258 27.4174 14.1258Z" fill="white"/>
</g>
<defs>
<clipPath id="clip0_623_2510">
<rect width="53.3333" height="40" fill="white" transform="translate(0.832031)"/>
</clipPath>
</defs>
</svg>
