<svg width="55" height="40" viewBox="0 0 55 40" fill="none" xmlns="http://www.w3.org/2000/svg">
<g clip-path="url(#clip0_623_1390)">
<path fill-rule="evenodd" clip-rule="evenodd" d="M0.832031 0H54.1654V40H0.832031V0Z" fill="#00247D"/>
<path d="M41.7012 8.93213V10.1962L44.2294 8.93213H41.7012Z" fill="white"/>
<path d="M42.2391 10.3374L41.4961 9.3147L44.2845 8.85133L42.2391 10.3374Z" fill="white"/>
<path d="M41.7012 8.93213V10.1962L39.173 8.93213H41.7012Z" fill="white"/>
<path d="M41.1632 10.3374L41.9062 9.3147L39.1179 8.85133L41.1632 10.3374Z" fill="white"/>
<path d="M42.4141 9.45654L41.2118 9.84717L43.1953 11.861L42.4141 9.45654Z" fill="white"/>
<path d="M41.2433 10.4028L41.9863 9.38013L43.2887 11.8889L41.2433 10.4028Z" fill="white"/>
<path d="M40.9805 9.4563L42.1827 9.84693L41.7617 7.05183L40.9805 9.4563Z" fill="white"/>
<path d="M42.4835 9.37817L41.2812 9.7688L41.7022 6.9737L42.4835 9.37817Z" fill="white"/>
<path d="M40.9785 9.45654L42.1808 9.84717L40.1973 11.861L40.9785 9.45654Z" fill="white"/>
<path d="M42.1493 10.4028L41.4062 9.38013L40.1039 11.8889L42.1493 10.4028Z" fill="white"/>
<path d="M41.6934 9.1897V10.025L43.364 9.1897H41.6934Z" fill="#CC142B"/>
<path d="M42.0496 10.1179L41.5586 9.44214L43.4011 9.13595L42.0496 10.1179Z" fill="#CC142B"/>
<path d="M41.6934 9.1897V10.025L40.0227 9.1897H41.6934Z" fill="#CC142B"/>
<path d="M41.3371 10.1179L41.8281 9.44214L39.9856 9.13595L41.3371 10.1179Z" fill="#CC142B"/>
<path d="M42.1797 9.53589L41.3853 9.79401L42.6959 11.1247L42.1797 9.53589Z" fill="#CC142B"/>
<path d="M41.4075 10.1611L41.8984 9.48535L42.759 11.1431L41.4075 10.1611Z" fill="#CC142B"/>
<path d="M41.2188 9.53613L42.0132 9.79426L41.735 7.94727L41.2188 9.53613Z" fill="#CC142B"/>
<path d="M42.2104 9.48455L41.416 9.74268L41.6942 7.89569L42.2104 9.48455Z" fill="#CC142B"/>
<path d="M41.2168 9.53589L42.0112 9.79401L40.7005 11.1247L41.2168 9.53589Z" fill="#CC142B"/>
<path d="M41.989 10.1611L41.498 9.48535L40.6375 11.1431L41.989 10.1611Z" fill="#CC142B"/>
<path d="M48.3242 14.7666L48.3242 15.8915L50.574 14.7666L48.3242 14.7666Z" fill="white"/>
<path d="M48.8038 16.0167L48.1426 15.1067L50.6239 14.6944L48.8038 16.0167Z" fill="white"/>
<path d="M48.3242 14.7666L48.3242 15.8915L46.0744 14.7666L48.3242 14.7666Z" fill="white"/>
<path d="M47.8447 16.0167L48.5059 15.1067L46.0246 14.6944L47.8447 16.0167Z" fill="white"/>
<path d="M48.9668 15.2329L47.897 15.5805L49.662 17.3726L48.9668 15.2329Z" fill="white"/>
<path d="M47.9267 16.0751L48.5879 15.165L49.7468 17.3975L47.9267 16.0751Z" fill="white"/>
<path d="M47.6836 15.2329L48.7534 15.5805L48.3788 13.0932L47.6836 15.2329Z" fill="white"/>
<path d="M49.021 15.1634L47.9512 15.511L48.3258 13.0237L49.021 15.1634Z" fill="white"/>
<path d="M47.6836 15.2329L48.7534 15.5805L46.9884 17.3726L47.6836 15.2329Z" fill="white"/>
<path d="M48.7237 16.0751L48.0625 15.165L46.9036 17.3975L48.7237 16.0751Z" fill="white"/>
<path d="M48.3125 15.0234L48.3125 15.7195L49.7047 15.0234L48.3125 15.0234Z" fill="#CC142B"/>
<path d="M48.6084 15.7968L48.1992 15.2336L49.7347 14.9785L48.6084 15.7968Z" fill="#CC142B"/>
<path d="M48.3105 15.0234L48.3105 15.7195L46.9184 15.0234L48.3105 15.0234Z" fill="#CC142B"/>
<path d="M48.0147 15.797L48.4238 15.2339L46.8884 14.9787L48.0147 15.797Z" fill="#CC142B"/>
<path d="M48.7188 15.3123L48.0567 15.5274L49.149 16.6363L48.7188 15.3123Z" fill="#CC142B"/>
<path d="M48.0752 15.8334L48.4844 15.2703L49.2015 16.6517L48.0752 15.8334Z" fill="#CC142B"/>
<path d="M47.9141 15.3123L48.5761 15.5274L48.3443 13.9882L47.9141 15.3123Z" fill="#CC142B"/>
<path d="M48.7401 15.2693L48.0781 15.4844L48.3099 13.9452L48.7401 15.2693Z" fill="#CC142B"/>
<path d="M47.9141 15.3123L48.5761 15.5274L47.4839 16.6363L47.9141 15.3123Z" fill="#CC142B"/>
<path d="M48.5576 15.8334L48.1484 15.2703L47.4313 16.6517L48.5576 15.8334Z" fill="#CC142B"/>
<path d="M33.9844 16.7009L33.9844 17.965L36.5126 16.7009L33.9844 16.7009Z" fill="white"/>
<path d="M34.5223 18.1059L33.7793 17.0833L36.5677 16.6199L34.5223 18.1059Z" fill="white"/>
<path d="M33.9844 16.7009L33.9844 17.965L31.4562 16.7009L33.9844 16.7009Z" fill="white"/>
<path d="M33.4464 18.1059L34.1895 17.0833L31.4011 16.6199L33.4464 18.1059Z" fill="white"/>
<path d="M34.6992 17.2253L33.497 17.616L35.4805 19.6298L34.6992 17.2253Z" fill="white"/>
<path d="M33.5285 18.1719L34.2715 17.1492L35.5738 19.6579L33.5285 18.1719Z" fill="white"/>
<path d="M33.2637 17.2251L34.4659 17.6157L34.0449 14.8206L33.2637 17.2251Z" fill="white"/>
<path d="M34.7667 17.1472L33.5645 17.5378L33.9854 14.7427L34.7667 17.1472Z" fill="white"/>
<path d="M33.2637 17.2253L34.4659 17.616L32.4824 19.6298L33.2637 17.2253Z" fill="white"/>
<path d="M34.4344 18.1719L33.6914 17.1492L32.3891 19.6579L34.4344 18.1719Z" fill="white"/>
<path d="M33.9766 16.958L33.9766 17.7933L35.6472 16.958L33.9766 16.958Z" fill="#CC142B"/>
<path d="M34.3328 17.8865L33.8418 17.2107L35.6843 16.9045L34.3328 17.8865Z" fill="#CC142B"/>
<path d="M33.9766 16.958L33.9766 17.7933L32.3059 16.958L33.9766 16.958Z" fill="#CC142B"/>
<path d="M33.6203 17.8865L34.1113 17.2107L32.2688 16.9045L33.6203 17.8865Z" fill="#CC142B"/>
<path d="M34.4629 17.3042L33.6685 17.5623L34.9791 18.8931L34.4629 17.3042Z" fill="#CC142B"/>
<path d="M33.6907 17.9297L34.1816 17.2539L35.0422 18.9117L33.6907 17.9297Z" fill="#CC142B"/>
<path d="M33.502 17.3047L34.2964 17.5628L34.0182 15.7158L33.502 17.3047Z" fill="#CC142B"/>
<path d="M34.4936 17.2529L33.6992 17.511L33.9774 15.664L34.4936 17.2529Z" fill="#CC142B"/>
<path d="M33.5 17.3042L34.2944 17.5623L32.9837 18.8931L33.5 17.3042Z" fill="#CC142B"/>
<path d="M34.2722 17.9297L33.7812 17.2539L32.9207 18.9117L34.2722 17.9297Z" fill="#CC142B"/>
<path d="M41.7012 28.8965V30.2998L44.5078 28.8965H41.7012Z" fill="white"/>
<path d="M42.2995 30.4559L41.4746 29.3206L44.5701 28.8062L42.2995 30.4559Z" fill="white"/>
<path d="M41.7012 28.8965V30.2998L38.8945 28.8965H41.7012Z" fill="white"/>
<path d="M41.1029 30.4559L41.9277 29.3206L38.8323 28.8062L41.1029 30.4559Z" fill="white"/>
<path d="M42.5 29.4783L41.1654 29.9119L43.3673 32.1476L42.5 29.4783Z" fill="white"/>
<path d="M41.2025 30.5289L42.0273 29.3936L43.4731 32.1786L41.2025 30.5289Z" fill="white"/>
<path d="M40.9004 29.478L42.235 29.9117L41.7677 26.8087L40.9004 29.478Z" fill="white"/>
<path d="M42.5671 29.3913L41.2324 29.825L41.6998 26.722L42.5671 29.3913Z" fill="white"/>
<path d="M40.9004 29.4783L42.235 29.9119L40.0331 32.1476L40.9004 29.4783Z" fill="white"/>
<path d="M42.1979 30.5289L41.373 29.3936L39.9273 32.1786L42.1979 30.5289Z" fill="white"/>
<path d="M41.7012 29.1538V30.1283L43.6502 29.1538H41.7012Z" fill="#CC142B"/>
<path d="M42.1158 30.2367L41.543 29.4482L43.6926 29.091L42.1158 30.2367Z" fill="#CC142B"/>
<path d="M41.7012 29.1538V30.1283L39.7521 29.1538H41.7012Z" fill="#CC142B"/>
<path d="M41.2866 30.2367L41.8594 29.4482L39.7097 29.091L41.2866 30.2367Z" fill="#CC142B"/>
<path d="M42.2578 29.5579L41.331 29.859L42.8601 31.4115L42.2578 29.5579Z" fill="#CC142B"/>
<path d="M41.3549 30.2877L41.9277 29.4993L42.9317 31.4333L41.3549 30.2877Z" fill="#CC142B"/>
<path d="M41.1445 29.5579L42.0714 29.859L41.7468 27.7042L41.1445 29.5579Z" fill="#CC142B"/>
<path d="M42.3038 29.4974L41.377 29.7986L41.7015 27.6438L42.3038 29.4974Z" fill="#CC142B"/>
<path d="M41.1445 29.5579L42.0714 29.859L40.5422 31.4115L41.1445 29.5579Z" fill="#CC142B"/>
<path d="M42.0474 30.2877L41.4746 29.4993L40.4706 31.4333L42.0474 30.2877Z" fill="#CC142B"/>
<path d="M0.832031 0H27.4987V20H0.832031V0Z" fill="#012169"/>
<path d="M3.95703 0L14.1237 7.54167L24.2487 0H27.4987V2.58333L17.4987 10.0417L27.4987 17.4583V20H24.1654L14.1654 12.5417L4.20703 20H0.832031V17.5L10.7904 10.0833L0.832031 2.66667V0H3.95703Z" fill="white"/>
<path d="M18.4987 11.7083L27.4987 18.3333V20L16.207 11.7083H18.4987ZM10.832 12.5417L11.082 14L3.08203 20H0.832031L10.832 12.5417ZM27.4987 0V0.125L17.1237 7.95833L17.207 6.125L25.4154 0H27.4987ZM0.832031 0L10.7904 7.33333H8.29036L0.832031 1.75V0Z" fill="#C8102E"/>
<path d="M10.8737 0V20H17.5404V0H10.8737ZM0.832031 6.66667V13.3333H27.4987V6.66667H0.832031Z" fill="white"/>
<path d="M0.832031 8.04167V12.0417H27.4987V8.04167H0.832031ZM12.207 0V20H16.207V0H12.207Z" fill="#C8102E"/>
</g>
<defs>
<clipPath id="clip0_623_1390">
<rect width="53.3333" height="40" fill="white" transform="translate(0.832031)"/>
</clipPath>
</defs>
</svg>
