<svg width="55" height="40" viewBox="0 0 55 40" fill="none" xmlns="http://www.w3.org/2000/svg">
<g clip-path="url(#clip0_623_1364)">
<path d="M0.832031 0H54.1654V40H0.832031V0Z" fill="#CC0000"/>
<path d="M0.873047 3.32495H54.123V6.52495H0.873047V3.32495ZM0.873047 9.88328H54.123V13.0833H0.873047V9.88328ZM0.873047 16.45H54.123V19.65H0.873047V16.45Z" fill="white"/>
<path d="M0.832031 0.0415039H27.4987V23.3748H0.832031V0.0415039Z" fill="#000066"/>
<path d="M18.123 6.14984L18.623 9.54151L20.5397 6.70817L19.5063 9.97484L22.4647 8.24151L20.123 10.7415L23.5397 10.4748L20.348 11.7082L23.5397 12.9415L20.123 12.6748L22.4647 15.1748L19.5063 13.4415L20.5313 16.7165L18.6147 13.8748L18.1147 17.2665L17.623 13.8748L15.7063 16.7082L16.7397 13.4415L13.7813 15.1748L16.1147 12.6748L12.698 12.9415L15.898 11.7082L12.7063 10.4748L16.123 10.7415L13.7813 8.24151L16.7397 9.97484L15.7063 6.69984L17.623 9.54151L18.123 6.14984ZM15.348 6.29151C14.446 5.89165 13.4584 5.7234 12.4748 5.80201C11.4913 5.88062 10.5429 6.20362 9.71586 6.74167C8.88879 7.27973 8.2092 8.01582 7.73874 8.88312C7.26829 9.75043 7.02188 10.7215 7.02188 11.7082C7.02188 12.6949 7.26829 13.6659 7.73874 14.5332C8.2092 15.4005 8.88879 16.1366 9.71586 16.6747C10.5429 17.2127 11.4913 17.5357 12.4748 17.6143C13.4584 17.693 14.446 17.5247 15.348 17.1248C14.3518 17.8396 13.1777 18.2658 11.955 18.3566C10.7322 18.4473 9.50814 18.1991 8.41733 17.6392C7.32651 17.0793 6.41123 16.2294 5.77215 15.183C5.13306 14.1367 4.79492 12.9343 4.79492 11.7082C4.79492 10.4821 5.13306 9.27969 5.77215 8.23331C6.41123 7.18692 7.32651 6.33705 8.41733 5.77716C9.50814 5.21727 10.7322 4.96905 11.955 5.05979C13.1777 5.15053 14.3518 5.57673 15.348 6.29151Z" fill="#FFCC00"/>
<path d="M0.873698 23.0166H54.1237V26.2166H0.873698V23.0166ZM0.873698 29.5333H54.1237V32.7333H0.873698V29.5333ZM0.832031 36.7999H54.082V39.9999H0.832031V36.7999Z" fill="white"/>
</g>
<defs>
<clipPath id="clip0_623_1364">
<rect width="53.3333" height="40" fill="white" transform="translate(0.832031)"/>
</clipPath>
</defs>
</svg>
