<svg width="55" height="40" viewBox="0 0 55 40" fill="none" xmlns="http://www.w3.org/2000/svg">
<g clip-path="url(#clip0_623_1332)">
<path fill-rule="evenodd" clip-rule="evenodd" d="M0.832031 0H76.832V3.08333H0.832031V0ZM0.832031 6.15833H76.832V9.24167H0.832031V6.15833ZM0.832031 12.3083H76.832V15.3917H0.832031V12.3083ZM0.832031 18.4583H76.832V21.5417H0.832031V18.4583ZM0.832031 24.625H76.832V27.6917H0.832031V24.625ZM0.832031 30.7667H76.832V33.85H0.832031V30.7667ZM0.832031 36.9167H76.832V40H0.832031V36.9167Z" fill="#BD3D44"/>
<path fill-rule="evenodd" clip-rule="evenodd" d="M0.832031 3.08325H76.832V6.15825H0.832031V3.08325ZM0.832031 9.23325H76.832V12.3083H0.832031V9.23325ZM0.832031 15.3833H76.832V18.4666H0.832031V15.3833ZM0.832031 21.5416H76.832V24.6249H0.832031V21.5416ZM0.832031 27.6916H76.832V30.7749H0.832031V27.6916ZM0.832031 33.8416H76.832V36.9249H0.832031V33.8416Z" fill="white"/>
<path fill-rule="evenodd" clip-rule="evenodd" d="M0.832031 0H31.232V21.5417H0.832031V0Z" fill="#192F5D"/>
<path fill-rule="evenodd" clip-rule="evenodd" d="M3.36445 0.916748L3.64779 1.77508H4.53112L3.81445 2.30008L4.08945 3.15841L3.36445 2.62508L2.64779 3.15008L2.91445 2.30008L2.18945 1.77508H3.09779L3.36445 0.916748ZM8.43112 0.916748L8.70612 1.77508H9.60612L8.88112 2.30008L9.14779 3.15841L8.43112 2.62508L7.70612 3.15008L7.98112 2.30008L7.26445 1.77508H8.14779L8.43112 0.916748ZM13.4978 0.916748L13.7728 1.77508H14.6645L13.9478 2.30008L14.2228 3.15841L13.4978 2.62508L12.7728 3.15008L13.0478 2.30008L12.3228 1.77508H13.2228L13.4978 0.916748ZM18.5645 0.916748L18.8395 1.77508H19.7395L19.0145 2.30008L19.2895 3.15841L18.5645 2.62508L17.8395 3.15008L18.1228 2.30008L17.3895 1.77508H18.2811L18.5645 0.916748ZM23.6311 0.916748L23.9061 1.77508H24.7978L24.0811 2.30008L24.3561 3.15841L23.6311 2.62508L22.9061 3.15008L23.1811 2.30008L22.4645 1.77508H23.3561L23.6311 0.916748ZM28.6978 0.916748L28.9728 1.77508H29.8728L29.1395 2.30008L29.4228 3.15841L28.6978 2.62508L27.9728 3.15008L28.2561 2.30008L27.5228 1.77508H28.4228L28.6978 0.916748ZM5.89779 3.08341L6.17279 3.93341H7.08112L6.35612 4.45008L6.62279 5.30841L5.91445 4.78341L5.18945 5.30841L5.44779 4.45008L4.74779 3.93341H5.63945L5.89779 3.08341ZM10.9645 3.08341L11.2478 3.93341H12.1395L11.4061 4.45008L11.6895 5.30841L10.9645 4.78341L10.2395 5.30841L10.5145 4.45008L9.78945 3.93341H10.6895L10.9645 3.08341ZM16.0311 3.08341L16.3061 3.93341H17.2061L16.4811 4.45008L16.7561 5.30841L16.0311 4.78341L15.3061 5.30841L15.5811 4.45008L14.8645 3.93341H15.7478L16.0311 3.08341ZM21.0978 3.08341L21.3811 3.93341H22.2728L21.5395 4.45008L21.8228 5.30841L21.0978 4.78341L20.3811 5.30841L20.6478 4.45008L19.9228 3.93341H20.8311L21.0978 3.08341ZM26.1645 3.08341L26.4395 3.93341H27.3395L26.6145 4.45008L26.8895 5.30841L26.1645 4.78341L25.4395 5.30841L25.7145 4.45008L24.9978 3.93341H25.8895L26.1645 3.08341ZM3.36445 5.21675L3.64779 6.08342H4.53112L3.81445 6.60842L4.08945 7.45842L3.36445 6.93341L2.64779 7.45842L2.91445 6.60842L2.18945 6.08342H3.09779L3.36445 5.21675ZM8.43112 5.21675L8.70612 6.08342H9.60612L8.88112 6.60842L9.14779 7.45842L8.43112 6.93341L7.70612 7.45842L7.98112 6.60008L7.26445 6.07508H8.14779L8.43112 5.21675ZM13.4978 5.21675L13.7728 6.07508H14.6645L13.9478 6.60008L14.2228 7.45008L13.4978 6.92508L12.7728 7.45008L13.0478 6.59175L12.3228 6.06675H13.2228L13.4978 5.21675ZM18.5645 5.21675L18.8395 6.07508H19.7395L19.0145 6.60008L19.2895 7.45008L18.5645 6.92508L17.8395 7.45008L18.1228 6.59175L17.3895 6.06675H18.2811L18.5645 5.21675ZM23.6311 5.21675L23.9061 6.07508H24.7978L24.0811 6.60008L24.3561 7.45008L23.6311 6.92508L22.9061 7.45008L23.1811 6.59175L22.4645 6.06675H23.3561L23.6311 5.21675ZM28.6978 5.21675L28.9728 6.07508H29.8728L29.1395 6.60008L29.4228 7.45008L28.6978 6.92508L27.9728 7.45008L28.2561 6.59175L27.5228 6.06675H28.4228L28.6978 5.21675ZM5.89779 7.38341L6.17279 8.23342H7.08112L6.35612 8.75841L6.63112 9.61675L5.90612 9.08342L5.18112 9.60842L5.45612 8.75841L4.73945 8.23342H5.63112L5.89779 7.38341ZM10.9645 7.38341L11.2478 8.23342H12.1395L11.4061 8.75841L11.6895 9.61675L10.9645 9.08342L10.2395 9.60842L10.5145 8.75841L9.78945 8.23342H10.6895L10.9645 7.38341ZM16.0311 7.38341L16.3061 8.23342H17.2061L16.4811 8.75841L16.7561 9.61675L16.0311 9.08342L15.3061 9.60842L15.5811 8.75841L14.8645 8.23342H15.7478L16.0311 7.38341ZM21.0978 7.38341L21.3811 8.23342H22.2728L21.5478 8.75841L21.8228 9.61675L21.0978 9.08342L20.3811 9.60842L20.6478 8.75841L19.9228 8.23342H20.8311L21.0978 7.38341ZM26.1645 7.38341L26.4395 8.23342H27.3395L26.6145 8.75841L26.8895 9.61675L26.1645 9.08342L25.4395 9.60842L25.7145 8.75841L24.9978 8.23342H25.8895L26.1645 7.38341ZM3.36445 9.54175L3.64779 10.3917H4.53112L3.81445 10.9167L4.08945 11.7751L3.36445 11.2417L2.64779 11.7667L2.91445 10.9167L2.18945 10.3917H3.09779L3.36445 9.54175ZM8.43112 9.54175L8.70612 10.3917H9.60612L8.88112 10.9167L9.14779 11.7667L8.43112 11.2417L7.70612 11.7667L7.98112 10.9167L7.26445 10.3917H8.14779L8.43112 9.54175ZM13.4978 9.54175L13.7728 10.3917H14.6645L13.9478 10.9167L14.2228 11.7751L13.4978 11.2417L12.7728 11.7667L13.0478 10.9167L12.3228 10.3917H13.2228L13.4978 9.54175ZM18.5645 9.54175L18.8395 10.3917H19.7395L19.0145 10.9167L19.2895 11.7751L18.5645 11.2417L17.8395 11.7667L18.1228 10.9167L17.3895 10.3917H18.2811L18.5645 9.54175ZM23.6311 9.54175L23.9061 10.3917H24.7978L24.0811 10.9167L24.3561 11.7751L23.6311 11.2417L22.9061 11.7667L23.1811 10.9167L22.4645 10.3917H23.3561L23.6311 9.54175ZM28.6978 9.54175L28.9728 10.3917H29.8728L29.1395 10.9167L29.4228 11.7751L28.6978 11.2417L27.9728 11.7667L28.2478 10.9167L27.5145 10.3917H28.4145L28.6978 9.54175ZM5.89779 11.6917L6.17279 12.5501H7.08112L6.35612 13.0667L6.63112 13.9251L5.90612 13.3917L5.18112 13.9251L5.45612 13.0667L4.73945 12.5417H5.63112L5.89779 11.6917ZM10.9645 11.6917L11.2478 12.5501H12.1395L11.4061 13.0667L11.6895 13.9251L10.9645 13.3917L10.2395 13.9251L10.5145 13.0667L9.78945 12.5417H10.6895L10.9645 11.6917ZM16.0311 11.6917L16.3061 12.5501H17.2061L16.4811 13.0667L16.7561 13.9251L16.0311 13.3917L15.3061 13.9251L15.5811 13.0667L14.8645 12.5417H15.7478L16.0311 11.6917ZM21.0978 11.6917L21.3811 12.5501H22.2728L21.5478 13.0667L21.8228 13.9251L21.0978 13.3917L20.3811 13.9251L20.6478 13.0667L19.9228 12.5417H20.8311L21.0978 11.6917ZM26.1645 11.6917L26.4395 12.5501H27.3395L26.6145 13.0667L26.8895 13.9251L26.1645 13.3917L25.4395 13.9251L25.7145 13.0667L24.9978 12.5417H25.8895L26.1645 11.6917ZM3.36445 13.8417L3.64779 14.7001H4.53112L3.81445 15.2251L4.08945 16.0667L3.36445 15.5501L2.64779 16.0667L2.91445 15.2167L2.18945 14.6917H3.09779L3.36445 13.8417ZM8.43112 13.8417L8.70612 14.7001H9.60612L8.88112 15.2251L9.15612 16.0667L8.43112 15.5501L7.70612 16.0667L7.98945 15.2167L7.26445 14.6917H8.14779L8.43112 13.8417ZM13.4978 13.8417L13.7728 14.7001H14.6645L13.9478 15.2251L14.2228 16.0667L13.4978 15.5501L12.7728 16.0667L13.0478 15.2167L12.3228 14.6917H13.2228L13.4978 13.8417ZM18.5645 13.8417L18.8395 14.7001H19.7395L19.0145 15.2251L19.2895 16.0667L18.5645 15.5501L17.8395 16.0667L18.1228 15.2167L17.3895 14.6917H18.2811L18.5645 13.8417ZM23.6311 13.8417L23.9061 14.7001H24.7978L24.0811 15.2251L24.3561 16.0667L23.6311 15.5501L22.9061 16.0667L23.1811 15.2167L22.4645 14.6917H23.3561L23.6311 13.8417ZM28.6978 13.8417L28.9728 14.7001H29.8728L29.1395 15.2251L29.4228 16.0667L28.6978 15.5501L27.9728 16.0667L28.2561 15.2167L27.5228 14.6917H28.4228L28.6978 13.8417ZM5.89779 16.0001L6.17279 16.8501H7.08112L6.35612 17.3751L6.63112 18.2334L5.90612 17.7001L5.18112 18.2251L5.45612 17.3751L4.73945 16.8501H5.63112L5.89779 16.0001ZM10.9645 16.0001L11.2478 16.8501H12.1395L11.4061 17.3751L11.6895 18.2334L10.9645 17.7001L10.2395 18.2251L10.5145 17.3751L9.78945 16.8501H10.6895L10.9645 16.0001ZM16.0311 16.0001L16.3061 16.8501H17.2061L16.4811 17.3751L16.7561 18.2334L16.0311 17.7001L15.3061 18.2251L15.5811 17.3751L14.8645 16.8501H15.7478L16.0311 16.0001ZM21.0978 16.0001L21.3811 16.8501H22.2728L21.5478 17.3751L21.8228 18.2334L21.0978 17.7001L20.3811 18.2251L20.6478 17.3751L19.9228 16.8501H20.8311L21.0978 16.0001ZM26.1645 16.0001L26.4395 16.8501H27.3395L26.6145 17.3751L26.8895 18.2334L26.1645 17.7001L25.4395 18.2251L25.7145 17.3751L24.9978 16.8501H25.8895L26.1645 16.0001ZM3.36445 18.1584L3.64779 19.0084H4.53112L3.81445 19.5334L4.08945 20.3834L3.36445 19.8584L2.64779 20.3834L2.91445 19.5251L2.18945 19.0001H3.09779L3.36445 18.1584ZM8.43112 18.1584L8.70612 19.0084H9.60612L8.88112 19.5334L9.15612 20.3834L8.43112 19.8584L7.70612 20.3834L7.98945 19.5251L7.26445 19.0001H8.14779L8.43112 18.1584ZM13.4978 18.1584L13.7728 19.0084H14.6645L13.9645 19.5334L14.2395 20.3834L13.5145 19.8584L12.7895 20.3834L13.0645 19.5251L12.3395 19.0001H13.2395L13.4978 18.1584ZM18.5645 18.1584L18.8395 19.0084H19.7395L19.0145 19.5334L19.2895 20.3834L18.5645 19.8584L17.8395 20.3834L18.1228 19.5251L17.3895 19.0001H18.2811L18.5645 18.1584ZM23.6311 18.1584L23.9061 19.0084H24.7978L24.0811 19.5334L24.3561 20.3834L23.6311 19.8584L22.9061 20.3834L23.1811 19.5251L22.4645 19.0001H23.3561L23.6311 18.1584ZM28.6978 18.1584L28.9728 19.0084H29.8728L29.1395 19.5334L29.4228 20.3834L28.6978 19.8584L27.9728 20.3834L28.2561 19.5251L27.5228 19.0001H28.4228L28.6978 18.1584Z" fill="white"/>
</g>
<defs>
<clipPath id="clip0_623_1332">
<rect width="53.3333" height="40" fill="white" transform="translate(0.832031)"/>
</clipPath>
</defs>
</svg>
