<svg width="55" height="40" viewBox="0 0 55 40" fill="none" xmlns="http://www.w3.org/2000/svg">
<g clip-path="url(#clip0_623_2491)">
<path d="M0.832031 0H54.1654V40H0.832031V0Z" fill="#EE1C25"/>
<path d="M7.232 14.8L10.832 4L14.4319 14.8L4.83203 8.2H16.8319L7.232 14.8Z" fill="#FFFF00"/>
<path d="M22.8468 4.20705L19.142 5.02806L21.6132 2.14834L21.3708 6.02407L19.3149 2.59288L22.8468 4.20705Z" fill="#FFFF00"/>
<path d="M26.5859 8.94574L22.8526 8.26561L26.2473 6.56974L24.5207 10.0481L23.9565 6.0881L26.5859 8.94574Z" fill="#FFFF00"/>
<path d="M26.0405 15.5938L22.9093 13.4501L26.7004 13.2863L23.7054 15.758L24.8052 11.9122L26.0405 15.5938Z" fill="#FFFF00"/>
<path d="M21.3318 19.9369L19.2714 16.7502L22.8317 18.0633L19.1144 19.1865L21.6142 16.0639L21.3318 19.9369Z" fill="#FFFF00"/>
</g>
<defs>
<clipPath id="clip0_623_2491">
<rect width="53.3333" height="40" fill="white" transform="translate(0.832031)"/>
</clipPath>
</defs>
</svg>
