<svg width="55" height="40" viewBox="0 0 55 40" fill="none" xmlns="http://www.w3.org/2000/svg">
<g clip-path="url(#clip0_623_1829)">
<path fill-rule="evenodd" clip-rule="evenodd" d="M-0.833984 0H59.166V40H-0.833984V0Z" fill="white"/>
<path fill-rule="evenodd" clip-rule="evenodd" d="M-0.833984 0H59.166V20H-0.833984V0Z" fill="#DF0000"/>
<path fill-rule="evenodd" clip-rule="evenodd" d="M13 3.35009C11.4215 3.68932 10.0077 4.56129 8.99613 5.81961C7.98453 7.07793 7.43664 8.64598 7.44446 10.2605C7.45228 11.875 8.01533 13.4377 9.03907 14.6861C10.0628 15.9346 11.4849 16.7928 13.0666 17.1168C12.1605 17.379 11.2116 17.4597 10.2742 17.3543C9.33679 17.249 8.42943 16.9596 7.60413 16.5028C6.77882 16.0461 6.05181 15.4308 5.46478 14.6925C4.87775 13.9541 4.44227 13.1071 4.18329 12.2001C3.66893 10.3768 3.8974 8.42409 4.81874 6.7688C5.74008 5.11351 7.27933 3.89036 9.09996 3.36676C10.4333 2.98343 11.6666 2.97509 13.0083 3.35009H13Z" fill="white"/>
<path fill-rule="evenodd" clip-rule="evenodd" d="M11.9167 9.1666L12.325 10.4166L11.2417 9.64994L10.175 10.4333L10.5667 9.1666L9.5 8.3916L10.825 8.37493L11.2417 7.12493L11.6583 8.37493H12.975L11.9167 9.1666ZM13.375 13.4999L13.7917 14.7583L12.7083 13.9916L11.6333 14.7666L12.0333 13.5083L10.9667 12.7249L12.2917 12.7166L12.7 11.4583L13.1167 12.7083H14.45L13.375 13.4999ZM18.25 13.4666L18.6583 14.7333L17.575 13.9583L16.5083 14.7333L16.9 13.4749L15.8333 12.6999L17.1583 12.6833L17.575 11.4333L17.9917 12.6833H19.3083L18.25 13.4666ZM19.7 9.1666L20.1083 10.4249L19.025 9.65827L17.9583 10.4333L18.3583 9.17493L17.2833 8.3916L18.6167 8.38327L19.0167 7.12493L19.4333 8.37493H20.7667L19.7 9.1666ZM15.8417 6.30827L16.2583 7.57493L15.175 6.79993L14.1 7.58327L14.5 6.3166L13.4333 5.53327L14.75 5.52494L15.1667 4.2666L15.5833 5.5166H16.9167L15.8417 6.30827Z" fill="white"/>
</g>
<defs>
<clipPath id="clip0_623_1829">
<rect width="53.3333" height="40" fill="white" transform="translate(0.832031)"/>
</clipPath>
</defs>
</svg>
