<svg width="55" height="40" viewBox="0 0 55 40" fill="none" xmlns="http://www.w3.org/2000/svg">
<g clip-path="url(#clip0_623_1543)">
<path fill-rule="evenodd" clip-rule="evenodd" d="M0.556641 -1.80029H59.0816V44.283H0.556641V-1.80029Z" fill="#EF2D29"/>
<path fill-rule="evenodd" clip-rule="evenodd" d="M15.3809 26.4414H60.0225V43.7497H15.3809V26.4414Z" fill="#009025"/>
<path fill-rule="evenodd" clip-rule="evenodd" d="M15.3814 -2.9502H62.4564V12.8831H15.373L15.3814 -2.9502Z" fill="white"/>
<path d="M12.4993 5.79883H10.5873C10.4841 5.79883 10.4004 5.87695 10.4004 5.97331V6.88121C10.4004 6.97758 10.4841 7.05569 10.5873 7.05569H12.4993C12.6025 7.05569 12.6862 6.97758 12.6862 6.88121V5.97331C12.6862 5.87695 12.6025 5.79883 12.4993 5.79883Z" fill="white" stroke="#EF2D28" stroke-width="0.0218943"/>
<path d="M12.4504 5.85205H10.636C10.5382 5.85205 10.459 5.92421 10.459 6.01323V6.84424C10.459 6.93325 10.5382 7.00541 10.636 7.00541H12.4504C12.5481 7.00541 12.6274 6.93325 12.6274 6.84424V6.01323C12.6274 5.92421 12.5481 5.85205 12.4504 5.85205Z" fill="white" stroke="#EF2D28" stroke-width="0.0203304"/>
<path fill-rule="evenodd" clip-rule="evenodd" d="M11.469 6.16455L11.5782 6.16888L11.5827 6.21907L11.6729 6.26493L11.7427 6.20695L11.8272 6.25281L11.7483 6.303L11.7675 6.37223L11.8666 6.3679V6.45876L11.7878 6.4553L11.7472 6.51241L11.8373 6.57731L11.7675 6.63096L11.692 6.57385L11.5827 6.59634L11.5884 6.68028L11.469 6.68893L11.4532 6.60759L11.3541 6.56606L11.2989 6.62317L11.2144 6.58077L11.2639 6.51587L11.2042 6.47433H11.1197L11.1152 6.35579L11.1997 6.36357L11.2594 6.29435L11.1896 6.2407L11.2797 6.18013L11.3439 6.22945L11.4532 6.21387L11.469 6.16455Z" fill="white" stroke="#EF2D28" stroke-width="0.012835"/>
<path d="M11.4997 6.51712C11.5665 6.51712 11.6206 6.4711 11.6206 6.41432C11.6206 6.35755 11.5665 6.31152 11.4997 6.31152C11.433 6.31152 11.3789 6.35755 11.3789 6.41432C11.3789 6.4711 11.433 6.51712 11.4997 6.51712Z" fill="white" stroke="#EF2D28" stroke-width="0.0138218"/>
<path fill-rule="evenodd" clip-rule="evenodd" d="M10.7529 5.90381L10.5759 6.06055L10.7529 5.90381ZM10.8703 5.90381L10.6933 6.06055L10.8703 5.90381ZM10.9861 5.90381L10.8107 6.06055L10.9861 5.90381ZM11.1035 5.90381L10.9282 6.06055L11.1035 5.90381ZM11.2209 5.90381L11.0456 6.06055L11.2209 5.90381ZM11.3384 5.90381L11.163 6.06055L11.3384 5.90381ZM11.4558 5.90381L11.2805 6.06055L11.4558 5.90381ZM11.5732 5.90381L11.3979 6.06055L11.5732 5.90381ZM11.6907 5.90381L11.5137 6.06055L11.6907 5.90381ZM11.8081 5.90381L11.6295 6.06055L11.8081 5.90381ZM11.9222 5.90381L11.7469 6.06055L11.9222 5.90381ZM12.0397 5.90381L11.8643 6.06055L12.0397 5.90381ZM11.5716 5.90381L11.3979 6.06055L11.5716 5.90381ZM12.1588 5.90381L11.9834 6.06055L12.1588 5.90381ZM12.2762 5.90381L12.1009 6.06055L12.2762 5.90381ZM12.3936 5.90381L12.2183 6.06055L12.3936 5.90381ZM12.5111 5.90381L12.3357 6.06055L12.5111 5.90381ZM12.3357 5.90381L12.5111 6.06055L12.3357 5.90381ZM12.2183 5.90381L12.3936 6.06055L12.2183 5.90381ZM12.1009 5.90381L12.2762 6.06055L12.1009 5.90381ZM11.9834 5.90381L12.1588 6.06055L11.9834 5.90381ZM11.866 5.90381L12.0413 6.06055L11.866 5.90381ZM11.7486 5.90381L11.9239 6.06055L11.7486 5.90381ZM11.6311 5.90381L11.8081 6.06055L11.6311 5.90381ZM11.5137 5.90381L11.689 6.06055L11.5137 5.90381ZM11.3946 5.90381L11.5716 6.06055L11.3946 5.90381ZM11.2788 5.90381L11.4541 6.06055L11.2788 5.90381ZM11.1614 5.90381L11.3367 6.06055L11.1614 5.90381ZM11.044 5.90381L11.2193 6.06055L11.044 5.90381ZM11.5137 5.90381L11.689 6.06055L11.5137 5.90381ZM10.9282 5.90381L11.1018 6.06055L10.9282 5.90381ZM10.8091 5.90381L10.9861 6.06055L10.8091 5.90381ZM10.6917 5.90381L10.8686 6.06055L10.6917 5.90381ZM10.5742 5.90381L10.7529 6.06055L10.5742 5.90381ZM10.7529 6.79397L10.5775 6.95218L10.7529 6.79397ZM10.8686 6.79397L10.6917 6.95218L10.8686 6.79397ZM10.9877 6.79397L10.8107 6.95218L10.9877 6.79397ZM11.1035 6.79397L10.9282 6.95218L11.1035 6.79397ZM11.2209 6.79397L11.0456 6.95218L11.2209 6.79397ZM11.3384 6.79397L11.163 6.95218L11.3384 6.79397ZM11.4558 6.79397L11.2821 6.95218L11.4558 6.79397ZM11.5732 6.79397L11.3979 6.95218L11.5732 6.79397ZM11.6907 6.79397L11.5137 6.95218L11.6907 6.79397ZM11.8064 6.79397L11.6295 6.95218L11.8064 6.79397ZM11.9272 6.79397L11.7502 6.95218L11.9272 6.79397ZM12.043 6.79397L11.8676 6.95218L12.043 6.79397ZM11.5732 6.79397L11.3979 6.95218L11.5732 6.79397ZM12.1588 6.79397L11.9834 6.95218L12.1588 6.79397ZM12.2762 6.79397L12.1009 6.95218L12.2762 6.79397ZM12.3936 6.79397L12.2183 6.95218L12.3936 6.79397ZM12.5111 6.79397L12.3357 6.95218L12.5111 6.79397ZM12.3357 6.79397L12.5111 6.95218L12.3357 6.79397ZM12.2183 6.79397L12.3936 6.95218L12.2183 6.79397ZM12.1009 6.79397L12.2762 6.95218L12.1009 6.79397ZM11.9834 6.79397L12.1588 6.95218L11.9834 6.79397ZM11.866 6.79397L12.0413 6.95218L11.866 6.79397ZM11.7486 6.79397L11.9255 6.95218L11.7486 6.79397ZM11.6295 6.79397L11.8064 6.95218L11.6295 6.79397ZM11.5137 6.79397L11.689 6.95218L11.5137 6.79397ZM11.3979 6.79397L11.5732 6.95218L11.3979 6.79397ZM11.2805 6.79397L11.4558 6.95218L11.2805 6.79397ZM11.163 6.79397L11.3384 6.95218L11.163 6.79397ZM11.0456 6.79397L11.2209 6.95218L11.0456 6.79397ZM11.5153 6.79397L11.6907 6.95218L11.5153 6.79397ZM10.9298 6.79397L11.1035 6.95218L10.9298 6.79397ZM10.8107 6.79397L10.9877 6.95218L10.8107 6.79397ZM10.6933 6.79397L10.8703 6.95218L10.6933 6.79397ZM10.5775 6.79397L10.7529 6.95218L10.5775 6.79397Z" fill="white"/>
<path d="M10.7529 5.90381L10.5759 6.06055M10.8703 5.90381L10.6933 6.06055M10.9861 5.90381L10.8107 6.06055M11.1035 5.90381L10.9282 6.06055M11.2209 5.90381L11.0456 6.06055M11.3384 5.90381L11.163 6.06055M11.4558 5.90381L11.2805 6.06055M11.5732 5.90381L11.3979 6.06055M11.6907 5.90381L11.5137 6.06055M11.8081 5.90381L11.6295 6.06055M11.9222 5.90381L11.7469 6.06055M12.0397 5.90381L11.8643 6.06055M11.5716 5.90381L11.3979 6.06055M12.1588 5.90381L11.9834 6.06055M12.2762 5.90381L12.1009 6.06055M12.3936 5.90381L12.2183 6.06055M12.5111 5.90381L12.3357 6.06055M12.3357 5.90381L12.5111 6.06055M12.2183 5.90381L12.3936 6.06055M12.1009 5.90381L12.2762 6.06055M11.9834 5.90381L12.1588 6.06055M11.866 5.90381L12.0413 6.06055M11.7486 5.90381L11.9239 6.06055M11.6311 5.90381L11.8081 6.06055M11.5137 5.90381L11.689 6.06055M11.3946 5.90381L11.5716 6.06055M11.2788 5.90381L11.4541 6.06055M11.1614 5.90381L11.3367 6.06055M11.044 5.90381L11.2193 6.06055M11.5137 5.90381L11.689 6.06055M10.9282 5.90381L11.1018 6.06055M10.8091 5.90381L10.9861 6.06055M10.6917 5.90381L10.8686 6.06055M10.5742 5.90381L10.7529 6.06055M10.7529 6.79397L10.5775 6.95218M10.8686 6.79397L10.6917 6.95218M10.9877 6.79397L10.8107 6.95218M11.1035 6.79397L10.9282 6.95218M11.2209 6.79397L11.0456 6.95218M11.3384 6.79397L11.163 6.95218M11.4558 6.79397L11.2821 6.95218M11.5732 6.79397L11.3979 6.95218M11.6907 6.79397L11.5137 6.95218M11.8064 6.79397L11.6295 6.95218M11.9272 6.79397L11.7502 6.95218M12.043 6.79397L11.8676 6.95218M11.5732 6.79397L11.3979 6.95218M12.1588 6.79397L11.9834 6.95218M12.2762 6.79397L12.1009 6.95218M12.3936 6.79397L12.2183 6.95218M12.5111 6.79397L12.3357 6.95218M12.3357 6.79397L12.5111 6.95218M12.2183 6.79397L12.3936 6.95218M12.1009 6.79397L12.2762 6.95218M11.9834 6.79397L12.1588 6.95218M11.866 6.79397L12.0413 6.95218M11.7486 6.79397L11.9255 6.95218M11.6295 6.79397L11.8064 6.95218M11.5137 6.79397L11.689 6.95218M11.3979 6.79397L11.5732 6.95218M11.2805 6.79397L11.4558 6.95218M11.163 6.79397L11.3384 6.95218M11.0456 6.79397L11.2209 6.95218M11.5153 6.79397L11.6907 6.95218M10.9298 6.79397L11.1035 6.95218M10.8107 6.79397L10.9877 6.95218M10.6933 6.79397L10.8703 6.95218M10.5775 6.79397L10.7529 6.95218" stroke="#EF2D28" stroke-width="0.0203304"/>
<path d="M4.81572 5.74854H2.9037C2.80048 5.74854 2.7168 5.82665 2.7168 5.92302V6.83092C2.7168 6.92728 2.80048 7.0054 2.9037 7.0054H4.81572C4.91895 7.0054 5.00262 6.92728 5.00262 6.83092V5.92302C5.00262 5.82665 4.91895 5.74854 4.81572 5.74854Z" fill="white" stroke="#EF2D28" stroke-width="0.0218943"/>
<path d="M4.76681 5.80176H2.95237C2.85463 5.80176 2.77539 5.87392 2.77539 5.96293V6.79394C2.77539 6.88296 2.85463 6.95512 2.95237 6.95512H4.76681C4.86455 6.95512 4.94378 6.88296 4.94378 6.79394V5.96293C4.94378 5.87392 4.86455 5.80176 4.76681 5.80176Z" fill="white" stroke="#EF2D28" stroke-width="0.0203304"/>
<path fill-rule="evenodd" clip-rule="evenodd" d="M3.78536 6.11426L3.89463 6.11858L3.89914 6.16877L3.98926 6.21463L4.0591 6.15666L4.14359 6.20252L4.06474 6.25271L4.08389 6.32193L4.18302 6.31761V6.40847L4.10416 6.405L4.06361 6.46211L4.15373 6.52701L4.08389 6.58066L4.00841 6.52355L3.89914 6.54605L3.90477 6.62999L3.78536 6.63864L3.76959 6.5573L3.67046 6.51576L3.61526 6.57288L3.53077 6.53047L3.58034 6.46558L3.52063 6.42404H3.43615L3.43164 6.30549L3.51613 6.31328L3.57583 6.24406L3.50599 6.19041L3.59611 6.12983L3.66032 6.17916L3.76959 6.16358L3.78536 6.11426Z" fill="white" stroke="#EF2D28" stroke-width="0.012835"/>
<path d="M3.81615 6.46683C3.88289 6.46683 3.93699 6.4208 3.93699 6.36403C3.93699 6.30726 3.88289 6.26123 3.81615 6.26123C3.74941 6.26123 3.69531 6.30726 3.69531 6.36403C3.69531 6.4208 3.74941 6.46683 3.81615 6.46683Z" fill="white" stroke="#EF2D28" stroke-width="0.0138218"/>
<path fill-rule="evenodd" clip-rule="evenodd" d="M3.06926 5.85352L2.89228 6.01025L3.06926 5.85352ZM3.18669 5.85352L3.00971 6.01025L3.18669 5.85352ZM3.30247 5.85352L3.12715 6.01025L3.30247 5.85352ZM3.41991 5.85352L3.24458 6.01025L3.41991 5.85352ZM3.53734 5.85352L3.36202 6.01025L3.53734 5.85352ZM3.65477 5.85352L3.47945 6.01025L3.65477 5.85352ZM3.77221 5.85352L3.59688 6.01025L3.77221 5.85352ZM3.88964 5.85352L3.71432 6.01025L3.88964 5.85352ZM4.00708 5.85352L3.8301 6.01025L4.00708 5.85352ZM4.12451 5.85352L3.94588 6.01025L4.12451 5.85352ZM4.23864 5.85352L4.06331 6.01025L4.23864 5.85352ZM4.35607 5.85352L4.18075 6.01025L4.35607 5.85352ZM3.88799 5.85352L3.71432 6.01025L3.88799 5.85352ZM4.47516 5.85352L4.29983 6.01025L4.47516 5.85352ZM4.59259 5.85352L4.41727 6.01025L4.59259 5.85352ZM4.71003 5.85352L4.5347 6.01025L4.71003 5.85352ZM4.82746 5.85352L4.65214 6.01025L4.82746 5.85352ZM4.65214 5.85352L4.82746 6.01025L4.65214 5.85352ZM4.5347 5.85352L4.71003 6.01025L4.5347 5.85352ZM4.41727 5.85352L4.59259 6.01025L4.41727 5.85352ZM4.29983 5.85352L4.47516 6.01025L4.29983 5.85352ZM4.1824 5.85352L4.35772 6.01025L4.1824 5.85352ZM4.06497 5.85352L4.24029 6.01025L4.06497 5.85352ZM3.94753 5.85352L4.12451 6.01025L3.94753 5.85352ZM3.8301 5.85352L4.00542 6.01025L3.8301 5.85352ZM3.71101 5.85352L3.88799 6.01025L3.71101 5.85352ZM3.59523 5.85352L3.77055 6.01025L3.59523 5.85352ZM3.4778 5.85352L3.65312 6.01025L3.4778 5.85352ZM3.36036 5.85352L3.53568 6.01025L3.36036 5.85352ZM3.8301 5.85352L4.00542 6.01025L3.8301 5.85352ZM3.24458 5.85352L3.41825 6.01025L3.24458 5.85352ZM3.12549 5.85352L3.30247 6.01025L3.12549 5.85352ZM3.00806 5.85352L3.18504 6.01025L3.00806 5.85352ZM2.89062 5.85352L3.06926 6.01025L2.89062 5.85352ZM3.06926 6.74367L2.89393 6.90189L3.06926 6.74367ZM3.18504 6.74367L3.00806 6.90189L3.18504 6.74367ZM3.30413 6.74367L3.12715 6.90189L3.30413 6.74367ZM3.41991 6.74367L3.24458 6.90189L3.41991 6.74367ZM3.53734 6.74367L3.36202 6.90189L3.53734 6.74367ZM3.65477 6.74367L3.47945 6.90189L3.65477 6.74367ZM3.77221 6.74367L3.59854 6.90189L3.77221 6.74367ZM3.88964 6.74367L3.71432 6.90189L3.88964 6.74367ZM4.00708 6.74367L3.8301 6.90189L4.00708 6.74367ZM4.12286 6.74367L3.94588 6.90189L4.12286 6.74367ZM4.2436 6.74367L4.06662 6.90189L4.2436 6.74367ZM4.35938 6.74367L4.18405 6.90189L4.35938 6.74367ZM3.88964 6.74367L3.71432 6.90189L3.88964 6.74367ZM4.47516 6.74367L4.29983 6.90189L4.47516 6.74367ZM4.59259 6.74367L4.41727 6.90189L4.59259 6.74367ZM4.71003 6.74367L4.5347 6.90189L4.71003 6.74367ZM4.82746 6.74367L4.65214 6.90189L4.82746 6.74367ZM4.65214 6.74367L4.82746 6.90189L4.65214 6.74367ZM4.5347 6.74367L4.71003 6.90189L4.5347 6.74367ZM4.41727 6.74367L4.59259 6.90189L4.41727 6.74367ZM4.29983 6.74367L4.47516 6.90189L4.29983 6.74367ZM4.1824 6.74367L4.35772 6.90189L4.1824 6.74367ZM4.06497 6.74367L4.24194 6.90189L4.06497 6.74367ZM3.94588 6.74367L4.12286 6.90189L3.94588 6.74367ZM3.8301 6.74367L4.00542 6.90189L3.8301 6.74367ZM3.71432 6.74367L3.88964 6.90189L3.71432 6.74367ZM3.59688 6.74367L3.77221 6.90189L3.59688 6.74367ZM3.47945 6.74367L3.65477 6.90189L3.47945 6.74367ZM3.36202 6.74367L3.53734 6.90189L3.36202 6.74367ZM3.83175 6.74367L4.00708 6.90189L3.83175 6.74367ZM3.24624 6.74367L3.41991 6.90189L3.24624 6.74367ZM3.12715 6.74367L3.30413 6.90189L3.12715 6.74367ZM3.00971 6.74367L3.18669 6.90189L3.00971 6.74367ZM2.89393 6.74367L3.06926 6.90189L2.89393 6.74367Z" fill="white"/>
<path d="M3.06926 5.85352L2.89228 6.01025M3.18669 5.85352L3.00971 6.01025M3.30247 5.85352L3.12715 6.01025M3.41991 5.85352L3.24458 6.01025M3.53734 5.85352L3.36202 6.01025M3.65477 5.85352L3.47945 6.01025M3.77221 5.85352L3.59688 6.01025M3.88964 5.85352L3.71432 6.01025M4.00708 5.85352L3.8301 6.01025M4.12451 5.85352L3.94588 6.01025M4.23864 5.85352L4.06331 6.01025M4.35607 5.85352L4.18075 6.01025M3.88799 5.85352L3.71432 6.01025M4.47516 5.85352L4.29983 6.01025M4.59259 5.85352L4.41727 6.01025M4.71003 5.85352L4.5347 6.01025M4.82746 5.85352L4.65214 6.01025M4.65214 5.85352L4.82746 6.01025M4.5347 5.85352L4.71003 6.01025M4.41727 5.85352L4.59259 6.01025M4.29983 5.85352L4.47516 6.01025M4.1824 5.85352L4.35772 6.01025M4.06497 5.85352L4.24029 6.01025M3.94753 5.85352L4.12451 6.01025M3.8301 5.85352L4.00542 6.01025M3.71101 5.85352L3.88799 6.01025M3.59523 5.85352L3.77055 6.01025M3.4778 5.85352L3.65312 6.01025M3.36036 5.85352L3.53568 6.01025M3.8301 5.85352L4.00542 6.01025M3.24458 5.85352L3.41825 6.01025M3.12549 5.85352L3.30247 6.01025M3.00806 5.85352L3.18504 6.01025M2.89062 5.85352L3.06926 6.01025M3.06926 6.74367L2.89393 6.90189M3.18504 6.74367L3.00806 6.90189M3.30413 6.74367L3.12715 6.90189M3.41991 6.74367L3.24458 6.90189M3.53734 6.74367L3.36202 6.90189M3.65477 6.74367L3.47945 6.90189M3.77221 6.74367L3.59854 6.90189M3.88964 6.74367L3.71432 6.90189M4.00708 6.74367L3.8301 6.90189M4.12286 6.74367L3.94588 6.90189M4.2436 6.74367L4.06662 6.90189M4.35938 6.74367L4.18405 6.90189M3.88964 6.74367L3.71432 6.90189M4.47516 6.74367L4.29983 6.90189M4.59259 6.74367L4.41727 6.90189M4.71003 6.74367L4.5347 6.90189M4.82746 6.74367L4.65214 6.90189M4.65214 6.74367L4.82746 6.90189M4.5347 6.74367L4.71003 6.90189M4.41727 6.74367L4.59259 6.90189M4.29983 6.74367L4.47516 6.90189M4.1824 6.74367L4.35772 6.90189M4.06497 6.74367L4.24194 6.90189M3.94588 6.74367L4.12286 6.90189M3.8301 6.74367L4.00542 6.90189M3.71432 6.74367L3.88964 6.90189M3.59688 6.74367L3.77221 6.90189M3.47945 6.74367L3.65477 6.90189M3.36202 6.74367L3.53734 6.90189M3.83175 6.74367L4.00708 6.90189M3.24624 6.74367L3.41991 6.90189M3.12715 6.74367L3.30413 6.90189M3.00971 6.74367L3.18669 6.90189M2.89393 6.74367L3.06926 6.90189" stroke="#EF2D28" stroke-width="0.0203304"/>
<path fill-rule="evenodd" clip-rule="evenodd" d="M6.30477 8.37935C3.46064 11.1687 2.24736 11.5211 2.81778 11.7462C3.38819 11.9714 5.21918 10.5314 7.12411 8.62056C9.02905 6.70968 10.1959 5.00762 9.62548 4.78248C9.05507 4.55734 9.33064 5.41515 6.30477 8.37935Z" fill="white" stroke="#EF2D28" stroke-width="0.034025"/>
<path fill-rule="evenodd" clip-rule="evenodd" d="M3.91475 10.4092L4.91211 10.6709C3.97429 11.5625 2.91904 11.9278 2.62628 11.771C2.33352 11.6143 3.15391 11.2476 3.9164 10.4107L3.91475 10.4092Z" fill="white" stroke="#EF2D28" stroke-width="0.0187665"/>
<path fill-rule="evenodd" clip-rule="evenodd" d="M3.91463 10.5132L4.73633 10.7222C3.8228 11.5796 2.91893 11.8227 2.68531 11.7175C2.45008 11.6137 3.1735 11.3194 3.91463 10.5132Z" fill="white" stroke="#EF2D28" stroke-width="0.0196761"/>
<path d="M6.96875 8.26025C6.96642 8.2737 6.95943 8.3337 6.95361 8.3575C6.95361 8.3906 6.95011 8.41543 6.94662 8.44129C6.9373 8.46405 6.93846 8.48474 6.91051 8.49302C6.8976 8.51371 6.87702 8.52979 6.85227 8.53853C6.82988 8.55448 6.8052 8.5677 6.77888 8.57785C6.75135 8.58848 6.72061 8.59066 6.69152 8.58405C6.66589 8.56853 6.64726 8.55198 6.62629 8.53853C6.62163 8.51784 6.61697 8.48784 6.61115 8.46715C6.62024 8.49474 6.62533 8.52325 6.62629 8.55198C6.62396 8.58302 6.61115 8.5975 6.59717 8.62233" stroke="#EF2D28" stroke-width="0.0197592"/>
<path d="M6.705 8.69341L6.69801 8.6872C6.71549 8.70272 6.7085 8.69548 6.66889 8.67375C6.64094 8.66134 6.61065 8.65513 6.57454 8.64893H6.47204C6.43243 8.64893 6.40564 8.6541 6.37768 8.66134C6.35672 8.67996 6.32643 8.69031 6.3043 8.70686C6.28463 8.72006 6.26966 8.73802 6.2612 8.75858C6.2414 8.77617 6.22859 8.80307 6.20995 8.81651C6.20179 8.84651 6.18549 8.84548 6.17384 8.86824C6.20878 8.87031 6.23557 8.87445 6.25421 8.8941C6.2845 8.90755 6.22859 8.88065 6.21694 8.86824C6.19364 8.86203 6.18782 8.85583 6.15171 8.85583C6.11909 8.84548 6.09812 8.86307 6.06434 8.86824C6.04454 8.87858 6.03872 8.88169 6.01309 8.88169" stroke="#EF2D28" stroke-width="0.0197592"/>
<path d="M6.3125 9.01535C6.29736 9.01535 6.2298 9.02673 6.20301 9.01535C6.17272 9.0081 6.15641 8.99466 6.13777 8.96983C6.12846 8.95224 6.13777 9.00086 6.13777 9.02155C6.13428 9.05983 6.12147 9.05983 6.1005 9.08569C6.07953 9.09811 6.0574 9.11466 6.03527 9.125C6.01586 9.13907 5.99377 9.14993 5.97004 9.15707C5.94674 9.16742 5.92228 9.17569 5.90481 9.18914C5.88035 9.20466 5.88151 9.22328 5.86753 9.24811C5.87103 9.27914 5.87685 9.29776 5.89665 9.31225C5.90597 9.33397 5.92461 9.3557 5.94092 9.37018C5.95839 9.40121 5.97936 9.41466 5.93393 9.4219C5.9083 9.43225 5.89433 9.42397 5.86753 9.4219" stroke="#EF2D28" stroke-width="0.0197592"/>
<path d="M5.85156 9.46615C5.83293 9.46201 5.77002 9.44339 5.74207 9.43408H5.63956C5.60112 9.43719 5.59297 9.44753 5.56035 9.45994C5.53822 9.4796 5.52424 9.49305 5.49396 9.50546C5.47882 9.52305 5.44737 9.55408 5.43572 9.57684C5.42613 9.60359 5.42141 9.63153 5.42174 9.6596C5.42174 9.69788 5.43339 9.70512 5.43572 9.73823C5.44387 9.76666 5.45899 9.79315 5.47998 9.81581C5.48348 9.82409 5.48581 9.82616 5.49396 9.82823" stroke="#EF2D28" stroke-width="0.0197592"/>
<path d="M5.50781 9.91249C5.5045 9.91249 5.49789 9.92882 5.48714 9.94271C5.46315 9.9672 5.46067 9.96884 5.42511 9.96884C5.39203 9.9672 5.39617 9.95577 5.37301 9.94842C5.36226 9.93209 5.34903 9.91903 5.33662 9.89698C5.32835 9.88391 5.32091 9.8635 5.31181 9.85125C5.30189 9.83573 5.29031 9.8243 5.28039 9.81042C5.27046 9.80634 5.26716 9.80225 5.25392 9.7998C5.2837 9.8047 5.287 9.81532 5.30602 9.83083C5.3154 9.84561 5.32396 9.86087 5.33166 9.87656C5.33497 9.89861 5.34159 9.91576 5.34241 9.94271C5.34241 9.97129 5.34241 9.99089 5.33166 10.0146C5.31926 10.0268 5.31099 10.0399 5.29527 10.0505C5.2822 10.063 5.2703 10.0767 5.25971 10.0913L5.21257 10.1215C5.19769 10.1305 5.18032 10.1395 5.15634 10.142C5.12574 10.1395 5.11664 10.1313 5.09431 10.1215C5.07446 10.1077 5.05958 10.0987 5.04221 10.0856C5.02796 10.074 5.01568 10.0602 5.00582 10.0448C4.97853 10.0382 4.96034 10.0407 4.9438 10.0554C4.92977 10.0651 4.91771 10.0773 4.90824 10.0913C4.89997 10.0954 4.88508 10.1077 4.87681 10.1117" stroke="#EF2D28" stroke-width="0.0189008"/>
<path d="M4.93522 10.1284C4.94345 10.1315 4.97429 10.1529 4.98663 10.16C4.99486 10.1875 5.00822 10.2018 5.01233 10.2313C5.01953 10.2578 5.01953 10.2884 5.01953 10.32C5.01233 10.3526 4.99897 10.3761 4.98663 10.4015C4.96607 10.4158 4.95579 10.426 4.92905 10.4403C4.90335 10.4443 4.87764 10.4474 4.84577 10.4474C4.82521 10.4535 4.78819 10.4566 4.76866 10.4474C4.73987 10.4433 4.71828 10.4321 4.69771 10.4219C4.67407 10.4087 4.65967 10.3954 4.63397 10.3832C4.6206 10.3648 4.60107 10.3475 4.58256 10.3261C4.56611 10.3047 4.5548 10.2925 4.54349 10.2691C4.55377 10.2955 4.56714 10.32 4.57536 10.3455C4.59079 10.372 4.59901 10.3822 4.60107 10.4148C4.61135 10.4413 4.60826 10.4739 4.60826 10.5045C4.60518 10.5248 4.60415 10.5636 4.5949 10.5809V10.6003" stroke="#EF2D28" stroke-width="0.0194487"/>
<path d="M3.98821 10.7007V10.711C3.98821 10.6859 3.98821 10.6977 3.99979 10.748C4.01799 10.7687 4.06595 10.7746 4.10234 10.7657C4.13542 10.7406 4.13542 10.7214 4.19496 10.711C4.25451 10.714 4.27766 10.7287 4.31074 10.748C4.34592 10.7597 4.37525 10.7822 4.39344 10.8116C4.40502 10.8426 4.41164 10.8648 4.37194 10.8766C4.33737 10.8973 4.29758 10.91 4.25616 10.9136C4.20985 10.9136 4.17512 10.9091 4.15361 10.9328C4.12053 10.9624 4.12384 10.9801 4.12384 11.0334C4.11226 11.0496 4.11061 11.0984 4.10234 11.1176C4.07387 11.131 4.04183 11.1372 4.00972 11.1354C3.99814 11.1058 3.98656 11.0555 3.97829 11.0245C3.97002 10.992 3.96837 10.9446 3.94686 10.9225C3.9279 10.897 3.90378 10.8749 3.87574 10.8574C3.85902 10.8404 3.8372 10.8281 3.81289 10.8219C3.85424 10.8396 3.8592 10.8603 3.86416 10.9047C3.82943 10.9195 3.81951 10.9313 3.76162 10.9328C3.70373 10.9284 3.69049 10.9151 3.66899 10.8855C3.66403 10.9328 3.64749 10.9476 3.63591 10.989C3.61606 11.0156 3.60779 11.0437 3.58629 11.0807C3.59456 11.125 3.61441 11.1265 3.61606 11.1812C3.6293 11.2182 3.6293 11.2522 3.65741 11.2744C3.67065 11.2892 3.68057 11.2906 3.71034 11.2921C3.6508 11.2921 3.61441 11.2862 3.57471 11.2655C3.54494 11.2478 3.52179 11.2271 3.49201 11.2093C3.4547 11.1842 3.4127 11.1652 3.36796 11.1531C3.32 11.1531 3.28526 11.1487 3.26542 11.1723C3.23564 11.1916 3.2158 11.2241 3.20256 11.2655C3.19429 11.3128 3.18933 11.3454 3.21414 11.3764C3.23068 11.4119 3.23564 11.4252 3.21414 11.4681C3.18933 11.4977 3.1546 11.5021 3.09836 11.5139C3.06032 11.5124 3.02228 11.505 2.99581 11.4962" stroke="#EF2D28" stroke-width="0.0187665"/>
<path fill-rule="evenodd" clip-rule="evenodd" d="M9.55392 5.8647C10.8152 3.68149 11.6517 1.8211 11.4237 1.71579C11.1932 1.6094 9.98285 3.29716 8.72155 5.48037L9.55392 5.8647Z" fill="white" stroke="#EF2D28" stroke-width="0.0258462"/>
<path fill-rule="evenodd" clip-rule="evenodd" d="M9.47052 5.82761C10.6873 3.72144 11.5253 1.94101 11.3428 1.85676C11.1585 1.77165 10.0214 3.41397 8.80462 5.52014" fill="white"/>
<path d="M9.47052 5.82761C10.6873 3.72144 11.5253 1.94101 11.3428 1.85676C11.1585 1.77165 10.0214 3.41397 8.80462 5.52014" stroke="#EF2D28" stroke-width="0.0227061"/>
<path fill-rule="evenodd" clip-rule="evenodd" d="M9.26177 4.72903C9.11362 4.97516 8.95665 5.25717 8.80485 5.51993L9.47263 5.82826C9.62443 5.5655 9.7908 5.28784 9.92955 5.03737L9.26177 4.72903Z" fill="white" stroke="#EF2D28" stroke-width="0.02577"/>
<path fill-rule="evenodd" clip-rule="evenodd" d="M9.31974 4.81404C9.17083 5.06148 9.06851 5.2489 8.91595 5.51297L9.41443 5.74313C9.56623 5.48038 9.67947 5.29468 9.81822 5.0442L9.31974 4.81404Z" fill="white" stroke="#EF2D28" stroke-width="0.02577"/>
<path fill-rule="evenodd" clip-rule="evenodd" d="M9.68164 5.0997L9.34775 4.94554L9.05174 5.45791L9.38562 5.61208L9.68164 5.0997ZM9.68164 5.0997L9.05174 5.45791L9.68164 5.0997ZM9.38562 5.61208L9.34775 4.94554L9.38562 5.61208ZM11.1875 2.49316L10.8536 2.339L11.1875 2.49316Z" fill="white"/>
<path d="M9.68164 5.0997L9.05174 5.45791M9.38562 5.61208L9.34775 4.94554M11.1875 2.49316L10.8536 2.339M9.68164 5.0997L9.34775 4.94554L9.05174 5.45791L9.38562 5.61208L9.68164 5.0997Z" stroke="#EF2D28" stroke-width="0.02577"/>
<path d="M11.1854 2.25061C11.1341 2.26358 11.0831 2.23751 11.0715 2.19239C11.0599 2.14727 11.0921 2.10017 11.1434 2.0872C11.1947 2.07423 11.2457 2.1003 11.2573 2.14542C11.2689 2.19055 11.2367 2.23764 11.1854 2.25061Z" fill="#EF0000" stroke="#EF2D28" stroke-width="0.033391"/>
<path fill-rule="evenodd" clip-rule="evenodd" d="M9.05851 8.32955C11.9026 11.1189 13.1159 11.4713 12.5455 11.6964C11.9751 11.9216 10.1441 10.4816 8.23917 8.57076C6.33424 6.65987 5.16739 4.95782 5.7378 4.73268C6.30821 4.50753 6.03265 5.36535 9.05851 8.32955Z" fill="white" stroke="#EF2D28" stroke-width="0.034025"/>
<path fill-rule="evenodd" clip-rule="evenodd" d="M11.4505 10.3594L10.4531 10.6211C11.3909 11.5127 12.4462 11.878 12.739 11.7212C13.0317 11.5645 12.2113 11.1978 11.4488 10.3609L11.4505 10.3594Z" fill="white" stroke="#EF2D28" stroke-width="0.0187665"/>
<path fill-rule="evenodd" clip-rule="evenodd" d="M11.4506 10.4548L10.6289 10.6638C11.5424 11.5212 12.4463 11.7643 12.6799 11.6591C12.9152 11.5553 12.1917 11.261 11.4506 10.4548Z" fill="white" stroke="#EF2D28" stroke-width="0.0196761"/>
<path d="M8.39453 8.20215C8.39686 8.2156 8.40385 8.2756 8.40967 8.29939C8.40967 8.3325 8.41317 8.35732 8.41666 8.38319C8.42598 8.40594 8.42482 8.42663 8.45277 8.43491C8.46568 8.4556 8.48626 8.47169 8.51101 8.48043C8.5334 8.49637 8.55808 8.50959 8.5844 8.51974C8.61193 8.53037 8.64267 8.53256 8.67176 8.52595C8.69739 8.51043 8.71603 8.49388 8.73699 8.48043C8.74165 8.45974 8.74631 8.42974 8.75213 8.40905C8.74304 8.43664 8.73795 8.46514 8.73699 8.49388C8.73932 8.52491 8.75213 8.5394 8.76611 8.56422" stroke="#EF2D28" stroke-width="0.0197592"/>
<path d="M8.66023 8.6353L8.66722 8.6291C8.64975 8.64461 8.65674 8.63737 8.69634 8.61565C8.7243 8.60323 8.75458 8.59703 8.79069 8.59082H8.8932C8.9328 8.59082 8.95959 8.59599 8.98755 8.60323C9.00852 8.62185 9.0388 8.6322 9.06094 8.64875C9.08061 8.66195 9.09557 8.67991 9.10403 8.70048C9.12384 8.71806 9.13665 8.74496 9.15529 8.75841C9.16344 8.78841 9.17975 8.78737 9.1914 8.81013C9.15645 8.8122 9.12966 8.81634 9.11102 8.836C9.08074 8.84944 9.13665 8.82255 9.1483 8.81013C9.17159 8.80393 9.17742 8.79772 9.21353 8.79772C9.24614 8.78738 9.26711 8.80496 9.30089 8.81013C9.32069 8.82048 9.32652 8.82358 9.35214 8.82358" stroke="#EF2D28" stroke-width="0.0197592"/>
<path d="M9.05273 8.9653C9.06788 8.9653 9.13544 8.97668 9.16223 8.9653C9.19251 8.95806 9.20882 8.94461 9.22746 8.91978C9.23678 8.90219 9.22746 8.95081 9.22746 8.9715C9.23095 9.00978 9.24377 9.00978 9.26473 9.03564C9.2857 9.04806 9.30783 9.06461 9.32996 9.07495C9.34938 9.08902 9.37147 9.09988 9.3952 9.10702C9.41849 9.11737 9.44295 9.12564 9.46043 9.13909C9.48489 9.15461 9.48372 9.17323 9.4977 9.19806C9.49421 9.22909 9.48838 9.24771 9.46858 9.2622C9.45926 9.28392 9.44062 9.30565 9.42432 9.32013C9.40684 9.35117 9.38588 9.36461 9.43131 9.37186C9.45693 9.3822 9.47091 9.37392 9.4977 9.37186" stroke="#EF2D28" stroke-width="0.0197592"/>
<path d="M9.51367 9.41635C9.53231 9.41221 9.59521 9.39359 9.62317 9.38428H9.72567C9.76411 9.38738 9.77226 9.39773 9.80488 9.41014C9.82701 9.4298 9.84099 9.44324 9.87128 9.45566C9.88642 9.47324 9.91787 9.50428 9.92952 9.52704C9.93911 9.55379 9.94382 9.58173 9.9435 9.6098C9.9435 9.64808 9.93185 9.65532 9.92952 9.68842C9.92136 9.71686 9.90625 9.74335 9.88525 9.76601C9.88176 9.77428 9.87943 9.77635 9.87128 9.77842" stroke="#EF2D28" stroke-width="0.0197592"/>
<path d="M9.86523 9.86269C9.86854 9.86269 9.87516 9.87902 9.88591 9.8929C9.90989 9.9174 9.91237 9.91903 9.94793 9.91903C9.98101 9.9174 9.97688 9.90597 10 9.89862C10.0108 9.88229 10.024 9.86922 10.0364 9.84717C10.0447 9.83411 10.0521 9.81369 10.0612 9.80144C10.0712 9.78593 10.0827 9.7745 10.0927 9.76062C10.1026 9.75653 10.1059 9.75245 10.1191 9.75C10.0894 9.7549 10.086 9.76551 10.067 9.78103C10.0576 9.7958 10.0491 9.81107 10.0414 9.82676C10.0381 9.84881 10.0315 9.86595 10.0306 9.8929C10.0306 9.92148 10.0306 9.94108 10.0414 9.96476C10.0538 9.97701 10.0621 9.99008 10.0778 10.0007C10.0908 10.0132 10.1027 10.0269 10.1133 10.0415L10.1605 10.0717C10.1754 10.0807 10.1927 10.0897 10.2167 10.0921C10.2473 10.0897 10.2564 10.0815 10.2787 10.0717C10.2986 10.0579 10.3135 10.0489 10.3308 10.0358C10.3451 10.0242 10.3574 10.0104 10.3672 9.99498C10.3945 9.98844 10.4127 9.99089 10.4292 10.0056C10.4433 10.0153 10.4553 10.0274 10.4648 10.0415C10.4731 10.0456 10.488 10.0579 10.4962 10.0619" stroke="#EF2D28" stroke-width="0.0189008"/>
<path d="M10.4281 10.0703C10.4198 10.0734 10.389 10.0948 10.3767 10.1019C10.3684 10.1294 10.3551 10.1437 10.3509 10.1732C10.3437 10.1997 10.3438 10.2303 10.3438 10.2619C10.3509 10.2945 10.3643 10.318 10.3767 10.3434C10.3972 10.3577 10.4075 10.3679 10.4342 10.3822C10.4599 10.3862 10.4856 10.3893 10.5175 10.3893C10.5381 10.3954 10.5751 10.3985 10.5946 10.3893C10.6234 10.3852 10.645 10.374 10.6656 10.3638C10.6892 10.3506 10.7036 10.3373 10.7293 10.3251C10.7427 10.3067 10.7622 10.2894 10.7807 10.268C10.7972 10.2466 10.8085 10.2344 10.8198 10.2109C10.8095 10.2374 10.7961 10.2619 10.7879 10.2874C10.7725 10.3139 10.7643 10.3241 10.7622 10.3567C10.7519 10.3832 10.755 10.4158 10.755 10.4464C10.7581 10.4667 10.7591 10.5055 10.7684 10.5228V10.5421" stroke="#EF2D28" stroke-width="0.0194487"/>
<path d="M11.377 10.6504V10.6607C11.377 10.6356 11.377 10.6474 11.3654 10.6977C11.3472 10.7184 11.2993 10.7243 11.2629 10.7154C11.2298 10.6903 11.2298 10.6711 11.1703 10.6607C11.1107 10.6637 11.0876 10.6785 11.0545 10.6977C11.0193 10.7094 10.99 10.7319 10.9718 10.7613C10.9602 10.7923 10.9536 10.8145 10.9933 10.8263C11.0279 10.847 11.0677 10.8597 11.1091 10.8633C11.1554 10.8633 11.1901 10.8589 11.2116 10.8825C11.2447 10.9121 11.2414 10.9298 11.2414 10.9831C11.253 10.9993 11.2546 11.0481 11.2629 11.0673C11.2914 11.0807 11.3234 11.0869 11.3555 11.0851C11.3671 11.0555 11.3787 11.0052 11.3869 10.9742C11.3952 10.9417 11.3969 10.8943 11.4184 10.8722C11.4373 10.8467 11.4615 10.8246 11.4895 10.8071C11.5062 10.7901 11.528 10.7778 11.5523 10.7716C11.511 10.7894 11.506 10.8101 11.5011 10.8544C11.5358 10.8692 11.5457 10.881 11.6036 10.8825C11.6615 10.8781 11.6747 10.8648 11.6962 10.8352C11.7012 10.8825 11.7177 10.8973 11.7293 10.9387C11.7492 10.9653 11.7574 10.9934 11.7789 11.0304C11.7707 11.0747 11.7508 11.0762 11.7492 11.1309C11.7359 11.1679 11.7359 11.2019 11.7078 11.2241C11.6946 11.2389 11.6847 11.2403 11.6549 11.2418C11.7144 11.2418 11.7508 11.2359 11.7905 11.2152C11.8203 11.1975 11.8434 11.1768 11.8732 11.159C11.9105 11.1339 11.9525 11.1149 11.9973 11.1028C12.0452 11.1028 12.08 11.0984 12.0998 11.1221C12.1296 11.1413 12.1494 11.1738 12.1627 11.2152C12.1709 11.2625 12.1759 11.2951 12.1511 11.3261C12.1346 11.3616 12.1296 11.3749 12.1511 11.4178C12.1759 11.4474 12.2106 11.4518 12.2669 11.4636C12.3049 11.4621 12.343 11.4548 12.3694 11.4459" stroke="#EF2D28" stroke-width="0.0187665"/>
<path fill-rule="evenodd" clip-rule="evenodd" d="M5.81132 5.81441C4.55001 3.6312 3.7135 1.77081 3.94158 1.6655C4.17201 1.5591 5.38238 3.24687 6.64369 5.43008L5.81132 5.81441Z" fill="white" stroke="#EF2D28" stroke-width="0.0258462"/>
<path fill-rule="evenodd" clip-rule="evenodd" d="M5.89471 5.77732C4.67792 3.67115 3.83994 1.89072 4.02241 1.80647C4.20675 1.72135 5.34382 3.36368 6.56062 5.46985" fill="white"/>
<path d="M5.89471 5.77732C4.67792 3.67115 3.83994 1.89072 4.02241 1.80647C4.20675 1.72135 5.34382 3.36368 6.56062 5.46985" stroke="#EF2D28" stroke-width="0.0227061"/>
<path fill-rule="evenodd" clip-rule="evenodd" d="M6.10346 4.67874C6.25162 4.92487 6.40858 5.20688 6.56038 5.46963L5.8926 5.77797C5.7408 5.51521 5.57443 5.23755 5.43568 4.98707L6.10346 4.67874Z" fill="white" stroke="#EF2D28" stroke-width="0.02577"/>
<path fill-rule="evenodd" clip-rule="evenodd" d="M6.04549 4.76374C6.19441 5.01119 6.29672 5.1986 6.44928 5.46267L5.9508 5.69284C5.799 5.43008 5.68576 5.24438 5.54701 4.99391L6.04549 4.76374Z" fill="white" stroke="#EF2D28" stroke-width="0.02577"/>
<path fill-rule="evenodd" clip-rule="evenodd" d="M5.6836 5.04917L6.01749 4.895L6.3135 5.40737L5.97961 5.56154L5.6836 5.04917ZM5.6836 5.04917L6.3135 5.40737L5.6836 5.04917ZM5.97961 5.56154L6.01749 4.895L5.97961 5.56154ZM4.17773 2.44263L4.51162 2.28846L4.17773 2.44263Z" fill="white"/>
<path d="M5.6836 5.04917L6.3135 5.40738M5.97961 5.56154L6.01749 4.895M4.17773 2.44263L4.51162 2.28846M5.6836 5.04917L6.01749 4.895L6.3135 5.40738L5.97961 5.56154L5.6836 5.04917Z" stroke="#EF2D28" stroke-width="0.02577"/>
<path d="M4.17987 2.20032C4.23117 2.21329 4.28214 2.18722 4.29372 2.1421C4.3053 2.09697 4.2731 2.04988 4.2218 2.03691C4.17049 2.02394 4.11952 2.05001 4.10794 2.09513C4.09636 2.14025 4.12856 2.18735 4.17987 2.20032Z" fill="#EF0000" stroke="#EF2D28" stroke-width="0.033391"/>
<path fill-rule="evenodd" clip-rule="evenodd" d="M6.82023 4.70166C6.82023 6.53521 6.83126 7.22574 6.69674 7.32038C6.56883 7.42241 3.01172 7.32038 3.01172 7.84383C3.01172 8.36728 5.94033 8.89368 6.82023 8.89368C7.99344 8.89368 8.57784 8.36875 8.57784 7.32038V4.70314H6.82023V4.70166Z" fill="white" stroke="#EF2D28" stroke-width="0.0234752"/>
<path fill-rule="evenodd" clip-rule="evenodd" d="M6.82031 5.2251V5.48682C7.40177 5.57398 7.9954 5.57398 8.57686 5.48682V5.2251C7.9954 5.31226 7.40177 5.31226 6.82031 5.2251Z" fill="white" stroke="#EF2D28" stroke-width="0.0203304"/>
<path fill-rule="evenodd" clip-rule="evenodd" d="M6.82031 4.70166V4.96338C7.40177 5.05054 7.9954 5.05054 8.57686 4.96338V4.70166C7.9954 4.78882 7.40177 4.78882 6.82031 4.70166Z" fill="white" stroke="#EF2D28" stroke-width="0.0203304"/>
<path fill-rule="evenodd" clip-rule="evenodd" d="M6.82031 4.96338V5.2251C7.40177 5.31226 7.9954 5.31226 8.57686 5.2251V4.96338C7.9954 5.05054 7.40177 5.05054 6.82031 4.96338Z" fill="white" stroke="#EF2D28" stroke-width="0.0203304"/>
<path fill-rule="evenodd" clip-rule="evenodd" d="M6.82031 5.48682V5.74854C7.40177 5.8357 7.9954 5.8357 8.57686 5.74854V5.48682C7.9954 5.57398 7.40177 5.57398 6.82031 5.48682Z" fill="white" stroke="#EF2D28" stroke-width="0.0203304"/>
<path d="M6.90061 5.16808C6.94495 5.16808 6.9809 5.14275 6.9809 5.1115C6.9809 5.08026 6.94495 5.05493 6.90061 5.05493C6.85626 5.05493 6.82031 5.08026 6.82031 5.1115C6.82031 5.14275 6.85626 5.16808 6.90061 5.16808Z" fill="white" stroke="#EF2D28" stroke-width="0.0192734"/>
<path d="M7.22092 5.1964C7.26526 5.1964 7.30121 5.17107 7.30121 5.13982C7.30121 5.10858 7.26526 5.08325 7.22092 5.08325C7.17657 5.08325 7.14062 5.10858 7.14062 5.13982C7.14062 5.17107 7.17657 5.1964 7.22092 5.1964Z" fill="white" stroke="#EF2D28" stroke-width="0.0192734"/>
<path d="M7.54123 5.22496C7.58558 5.22496 7.62152 5.19963 7.62152 5.16839C7.62152 5.13714 7.58558 5.11182 7.54123 5.11182C7.49689 5.11182 7.46094 5.13714 7.46094 5.16839C7.46094 5.19963 7.49689 5.22496 7.54123 5.22496Z" fill="white" stroke="#EF2D28" stroke-width="0.0192734"/>
<path d="M7.85959 5.22496C7.90394 5.22496 7.93988 5.19963 7.93988 5.16839C7.93988 5.13714 7.90394 5.11182 7.85959 5.11182C7.81525 5.11182 7.7793 5.13714 7.7793 5.16839C7.7793 5.19963 7.81525 5.22496 7.85959 5.22496Z" fill="white" stroke="#EF2D28" stroke-width="0.0192734"/>
<path d="M8.1799 5.1964C8.22425 5.1964 8.2602 5.17107 8.2602 5.13982C8.2602 5.10858 8.22425 5.08325 8.1799 5.08325C8.13556 5.08325 8.09961 5.10858 8.09961 5.13982C8.09961 5.17107 8.13556 5.1964 8.1799 5.1964Z" fill="white" stroke="#EF2D28" stroke-width="0.0192734"/>
<path d="M8.50022 5.16808C8.54456 5.16808 8.58051 5.14275 8.58051 5.1115C8.58051 5.08026 8.54456 5.05493 8.50022 5.05493C8.45587 5.05493 8.41992 5.08026 8.41992 5.1115C8.41992 5.14275 8.45587 5.16808 8.50022 5.16808Z" fill="white" stroke="#EF2D28" stroke-width="0.0192734"/>
<path fill-rule="evenodd" clip-rule="evenodd" d="M6.82121 6.01025L8.57776 7.42534L6.82121 6.01025ZM6.99653 6.01025L8.57941 7.26712L6.99653 6.01025ZM7.22975 6.06349L8.57941 7.11186L7.22975 6.06349ZM7.40507 6.06201L8.57941 6.95364L7.40507 6.06201ZM7.58205 6.06349L8.57776 6.7969L7.58205 6.06349ZM7.75737 6.06349L8.57776 6.64017L7.75737 6.06349ZM7.9327 6.06349L8.57776 6.48195L7.9327 6.06349ZM8.11133 6.06349L8.58107 6.37696L8.11133 6.06349ZM8.285 6.06349L8.57941 6.27346L8.285 6.06349ZM8.46198 6.06349L8.57776 6.16699L8.46198 6.06349ZM6.82121 6.16699L8.57776 7.58355L6.82121 6.16699ZM8.57776 6.01173L6.64258 7.58208L8.57776 6.01173ZM8.40078 6.01025L6.70212 7.37358L8.40078 6.01025ZM8.16757 6.06349L6.81956 7.11038L8.16757 6.06349ZM7.99059 6.06349L6.81956 6.95364L7.99059 6.06349ZM7.81692 6.06349L6.82121 6.7969L7.81692 6.06349ZM7.64159 6.06349L6.82121 6.64017L7.64159 6.06349ZM7.46627 6.06349L6.82121 6.48195L7.46627 6.06349ZM7.28764 6.06349L6.81956 6.37696L7.28764 6.06349ZM7.11231 6.06349L6.81956 6.27346L7.11231 6.06349ZM6.93534 6.06349L6.81956 6.16699L6.93534 6.06349ZM8.57776 6.16699L6.64258 7.74177L8.57776 6.16699ZM8.57776 6.32669L6.64258 7.89703L8.57776 6.32669ZM8.57776 6.48195L6.64258 8.05377L8.57776 6.48195ZM8.57776 6.63869L6.64258 8.21347L8.57776 6.63869ZM8.57776 6.79838L6.64258 8.36873L8.57776 6.79838ZM8.57776 6.95364L6.64258 8.52547L8.57776 6.95364ZM8.57776 7.11038L6.64258 8.6822L8.57776 7.11038ZM8.57776 7.2686L6.64258 8.84042L8.57776 7.2686ZM8.57776 7.42534L6.76001 8.89217L8.57776 7.42534ZM8.57776 7.58208L6.93699 8.89217L8.57776 7.58208ZM8.51821 7.79205L7.22809 8.84042L8.51821 7.79205ZM8.46198 8.00054L7.40673 8.83894L8.46198 8.00054ZM8.34454 8.26226L7.81526 8.68073L8.34454 8.26226ZM6.82121 6.32373L8.51987 7.68558L6.82121 6.32373ZM6.82121 6.48047L8.51987 7.8438L6.82121 6.48047ZM6.82121 6.64017L8.46198 7.94879L6.82121 6.64017ZM6.82121 6.79543L8.46198 8.107L6.82121 6.79543ZM6.82121 6.95364L8.40243 8.21051L6.82121 6.95364ZM6.76167 7.05863L8.34454 8.3155L6.76167 7.05863ZM6.76167 7.21685L8.22711 8.37021L6.76167 7.21685ZM6.70378 7.32035L8.16922 8.47371L6.70378 7.32035ZM6.64258 7.42386L8.04848 8.52399L6.64258 7.42386ZM6.64258 7.5806L7.99059 8.62897L6.64258 7.5806ZM6.64258 7.73881L7.81692 8.68073L6.64258 7.73881Z" fill="white"/>
<path d="M6.82121 6.01025L8.57776 7.42534M6.99653 6.01025L8.57941 7.26712M7.22975 6.06349L8.57941 7.11186M7.40507 6.06201L8.57941 6.95364M7.58205 6.06349L8.57776 6.7969M7.75737 6.06349L8.57776 6.64017M7.9327 6.06349L8.57776 6.48195M8.11133 6.06349L8.58107 6.37696M8.285 6.06349L8.57941 6.27346M8.46198 6.06349L8.57776 6.16699M6.82121 6.16699L8.57776 7.58356M8.57776 6.01173L6.64258 7.58208M8.40078 6.01025L6.70212 7.37358M8.16757 6.06349L6.81956 7.11038M7.99059 6.06349L6.81956 6.95364M7.81692 6.06349L6.82121 6.7969M7.64159 6.06349L6.82121 6.64017M7.46627 6.06349L6.82121 6.48195M7.28764 6.06349L6.81956 6.37696M7.11231 6.06349L6.81956 6.27346M6.93534 6.06349L6.81956 6.16699M8.57776 6.16699L6.64258 7.74177M8.57776 6.32669L6.64258 7.89703M8.57776 6.48195L6.64258 8.05377M8.57776 6.63869L6.64258 8.21347M8.57776 6.79838L6.64258 8.36873M8.57776 6.95364L6.64258 8.52547M8.57776 7.11038L6.64258 8.6822M8.57776 7.2686L6.64258 8.84042M8.57776 7.42534L6.76001 8.89217M8.57776 7.58208L6.93699 8.89217M8.51821 7.79205L7.22809 8.84042M8.46198 8.00054L7.40673 8.83894M8.34454 8.26226L7.81526 8.68073M6.82121 6.32373L8.51987 7.68558M6.82121 6.48047L8.51987 7.8438M6.82121 6.64017L8.46198 7.94879M6.82121 6.79543L8.46198 8.107M6.82121 6.95364L8.40243 8.21051M6.76167 7.05863L8.34454 8.31549M6.76167 7.21685L8.22711 8.37021M6.70378 7.32035L8.16922 8.47371M6.64258 7.42386L8.04848 8.52399M6.64258 7.5806L7.99059 8.62897M6.64258 7.73881L7.81692 8.68073" stroke="#EF2D28" stroke-width="0.0203304"/>
<path fill-rule="evenodd" clip-rule="evenodd" d="M6.82031 5.75V6.01172C7.40177 6.09888 7.9954 6.09888 8.57686 6.01172V5.75C7.9954 5.83716 7.40177 5.83716 6.82031 5.75Z" fill="white" stroke="#EF2D28" stroke-width="0.0203304"/>
<path fill-rule="evenodd" clip-rule="evenodd" d="M6.64423 7.89722L7.69948 8.73562L6.64423 7.89722ZM6.64423 8.05543L7.58205 8.78737L6.64423 8.05543ZM6.64423 8.21069L7.46462 8.84061L6.64423 8.21069ZM6.64423 8.36743L7.2314 8.84061L6.64423 8.36743ZM6.64258 8.52565L7.11231 8.89236L6.64258 8.52565ZM6.64258 8.68239L6.93534 8.89236L6.64258 8.68239Z" fill="white"/>
<path d="M6.64423 7.89722L7.69948 8.73562M6.64423 8.05543L7.58205 8.78737M6.64423 8.21069L7.46462 8.84061M6.64423 8.36743L7.2314 8.84061M6.64258 8.52565L7.11231 8.89236M6.64258 8.68239L6.93534 8.89236" stroke="#EF2D28" stroke-width="0.0203304"/>
<path d="M6.90061 5.95494C6.94495 5.95494 6.9809 5.92961 6.9809 5.89837C6.9809 5.86713 6.94495 5.8418 6.90061 5.8418C6.85626 5.8418 6.82031 5.86713 6.82031 5.89837C6.82031 5.92961 6.85626 5.95494 6.90061 5.95494Z" fill="white" stroke="#EF2D28" stroke-width="0.0192734"/>
<path d="M7.22092 5.98302C7.26526 5.98302 7.30121 5.95769 7.30121 5.92645C7.30121 5.8952 7.26526 5.86987 7.22092 5.86987C7.17657 5.86987 7.14062 5.8952 7.14062 5.92645C7.14062 5.95769 7.17657 5.98302 7.22092 5.98302Z" fill="white" stroke="#EF2D28" stroke-width="0.0192734"/>
<path d="M7.54123 6.01012C7.58558 6.01012 7.62152 5.98479 7.62152 5.95354C7.62152 5.9223 7.58558 5.89697 7.54123 5.89697C7.49689 5.89697 7.46094 5.9223 7.46094 5.95354C7.46094 5.98479 7.49689 6.01012 7.54123 6.01012Z" fill="white" stroke="#EF2D28" stroke-width="0.0192734"/>
<path d="M7.85959 6.01036C7.90394 6.01036 7.93988 5.98503 7.93988 5.95379C7.93988 5.92254 7.90394 5.89722 7.85959 5.89722C7.81525 5.89722 7.7793 5.92254 7.7793 5.95379C7.7793 5.98503 7.81525 6.01036 7.85959 6.01036Z" fill="white" stroke="#EF2D28" stroke-width="0.0192734"/>
<path d="M8.1799 5.98302C8.22425 5.98302 8.2602 5.95769 8.2602 5.92645C8.2602 5.8952 8.22425 5.86987 8.1799 5.86987C8.13556 5.86987 8.09961 5.8952 8.09961 5.92645C8.09961 5.95769 8.13556 5.98302 8.1799 5.98302Z" fill="white" stroke="#EF2D28" stroke-width="0.0192734"/>
<path d="M8.50022 5.95494C8.54456 5.95494 8.58051 5.92961 8.58051 5.89837C8.58051 5.86713 8.54456 5.8418 8.50022 5.8418C8.45587 5.8418 8.41992 5.86713 8.41992 5.89837C8.41992 5.92961 8.45587 5.95494 8.50022 5.95494Z" fill="white" stroke="#EF2D28" stroke-width="0.0192734"/>
<path fill-rule="evenodd" clip-rule="evenodd" d="M4.30122 8.47366L6.41007 7.37354L4.30122 8.47366ZM4.18379 8.42043L6.17686 7.37354L4.18379 8.42043ZM4.1259 8.31545L5.94199 7.37354L4.1259 8.31545ZM4.06635 8.21194L5.64923 7.37354L4.06635 8.21194ZM3.94727 8.10695L5.41271 7.37354L3.94727 8.10695ZM4.00681 7.95022L5.00252 7.42529L4.00681 7.95022ZM3.94727 7.84375L4.70811 7.42529L3.94727 7.84375ZM3.94727 7.68701L4.47655 7.42529L3.94727 7.68701ZM4.47655 8.52542L6.46796 7.47704L4.47655 8.52542ZM4.65352 8.57717L6.52751 7.58203L4.65352 8.57717ZM4.82885 8.6304L6.58705 7.68701L4.82885 8.6304ZM5.00417 8.68216L6.46962 7.89698L5.00417 8.68216ZM5.23739 8.68216L6.52751 8.00197L5.23739 8.68216ZM5.41271 8.73539L6.52585 8.15871L5.41271 8.73539ZM5.58803 8.78714L6.46796 8.31545L5.58803 8.78714ZM5.8229 8.78862L6.52585 8.42043L5.8229 8.78862ZM6.05777 8.84037L6.52751 8.57717L6.05777 8.84037ZM6.29595 8.84037L6.5887 8.68363L6.29595 8.84037Z" fill="white"/>
<path d="M4.30122 8.47366L6.41007 7.37354M4.18379 8.42043L6.17686 7.37354M4.1259 8.31545L5.94199 7.37354M4.06635 8.21194L5.64923 7.37354M3.94727 8.10695L5.41271 7.37354M4.00681 7.95022L5.00252 7.42529M3.94727 7.84375L4.70811 7.42529M3.94727 7.68701L4.47655 7.42529M4.47655 8.52542L6.46796 7.47704M4.65352 8.57717L6.52751 7.58203M4.82885 8.6304L6.58705 7.68701M5.00417 8.68216L6.46962 7.89698M5.23739 8.68216L6.52751 8.00197M5.41271 8.73539L6.52585 8.15871M5.58803 8.78714L6.46796 8.31545M5.8229 8.78862L6.52585 8.42043M6.05777 8.84037L6.52751 8.57717M6.29595 8.84037L6.5887 8.68363" stroke="#EF2D28" stroke-width="0.0203304"/>
<path fill-rule="evenodd" clip-rule="evenodd" d="M6.70117 7.32178H6.40842C6.31092 7.8416 6.31092 8.3723 6.40842 8.89212H6.70117C6.60368 8.3723 6.60368 7.8416 6.70117 7.32178Z" fill="white" stroke="#EF2D28" stroke-width="0.0203304"/>
<path fill-rule="evenodd" clip-rule="evenodd" d="M3.24414 8.05372L3.94709 7.53027L3.24414 8.05372ZM3.24414 7.68701L3.94709 8.31545L3.24414 7.68701Z" fill="white"/>
<path d="M3.24414 8.05372L3.94709 7.53027M3.24414 7.68701L3.94709 8.31545" stroke="#EF2D28" stroke-width="0.0203304"/>
<path fill-rule="evenodd" clip-rule="evenodd" d="M4.30078 7.42432L3.94881 7.47676C3.87074 7.80921 3.87074 8.08828 3.94881 8.42074L4.30078 8.52469C4.22271 8.19317 4.22271 7.75677 4.30078 7.42432Z" fill="white" stroke="#EF2D28" stroke-width="0.0144713"/>
<path fill-rule="evenodd" clip-rule="evenodd" d="M8.57735 4.80521V4.54053C8.31218 4.54349 8.13623 4.38527 8.13623 4.22705L7.25895 4.22853C7.25895 4.38527 7.08548 4.54349 6.82031 4.54349V4.80521H8.57735Z" fill="white" stroke="#EF2D28" stroke-width="0.0248855"/>
<path fill-rule="evenodd" clip-rule="evenodd" d="M7.32031 3.91508H8.07454V4.23004H7.32031V3.91508ZM7.38482 3.60013H8.01168V3.91508H7.38316L7.38482 3.60013ZM7.38482 3.28665H8.01168V3.60013H7.38316L7.38482 3.28665ZM7.44767 2.86671H7.94883V3.28665H7.44767V2.86671ZM7.42617 2.5H7.97199V2.86671H7.42617V2.5Z" fill="white" stroke="#EF2D28" stroke-width="0.0218943"/>
<path d="M7.72831 2.65824C8.12947 2.65824 8.45467 2.43514 8.45467 2.15993C8.45467 1.88472 8.12947 1.66162 7.72831 1.66162C7.32715 1.66162 7.00195 1.88472 7.00195 2.15993C7.00195 2.43514 7.32715 2.65824 7.72831 2.65824Z" fill="white" stroke="#EF2D28" stroke-width="0.0206661"/>
<path fill-rule="evenodd" clip-rule="evenodd" d="M8.09087 2.1333C8.09087 2.27082 8.27203 2.50001 8.27203 2.50001C8.14043 2.59169 7.9268 2.65823 7.72684 2.65823C7.52687 2.65823 7.27735 2.61978 7.18164 2.50001C7.18164 2.50001 7.3628 2.2723 7.3628 2.13478C7.3628 1.99726 7.18164 1.81982 7.18164 1.81982C7.34027 1.71898 7.5317 1.66412 7.72855 1.66309C7.9268 1.66309 8.13872 1.72963 8.27203 1.81982C8.27203 1.81982 8.09087 1.99726 8.09087 2.13478V2.1333Z" fill="white" stroke="#EF2D28" stroke-width="0.0206661"/>
<path fill-rule="evenodd" clip-rule="evenodd" d="M7.96927 2.1333C7.96927 2.27082 8.15044 2.55324 8.15044 2.55324C8.01884 2.64196 7.92826 2.65675 7.72659 2.65675C7.52491 2.65675 7.39844 2.67302 7.30273 2.55324C7.30273 2.55324 7.4839 2.2723 7.4839 2.1333C7.4839 1.99431 7.30273 1.76659 7.30273 1.76659C7.43433 1.67787 7.52491 1.66309 7.72659 1.66309C7.92655 1.66309 8.01884 1.67787 8.15044 1.76659C8.15044 1.76659 7.96927 1.99579 7.96927 2.1333Z" fill="white" stroke="#EF2D28" stroke-width="0.0206661"/>
<path d="M7.00147 2.3418C7.10153 2.3418 7.18264 2.27162 7.18264 2.18506C7.18264 2.09849 7.10153 2.02832 7.00147 2.02832C6.90142 2.02832 6.82031 2.09849 6.82031 2.18506C6.82031 2.27162 6.90142 2.3418 7.00147 2.3418Z" fill="white" stroke="#EF2D28" stroke-width="0.0206661"/>
<path d="M8.4546 2.3418C8.55465 2.3418 8.63576 2.27162 8.63576 2.18506C8.63576 2.09849 8.55465 2.02832 8.4546 2.02832C8.35455 2.02832 8.27344 2.09849 8.27344 2.18506C8.27344 2.27162 8.35455 2.3418 8.4546 2.3418Z" fill="white" stroke="#EF2D28" stroke-width="0.0206661"/>
<path d="M7.72804 2.3418C7.82809 2.3418 7.9092 2.27162 7.9092 2.18506C7.9092 2.09849 7.82809 2.02832 7.72804 2.02832C7.62798 2.02832 7.54688 2.09849 7.54688 2.18506C7.54688 2.27162 7.62798 2.3418 7.72804 2.3418Z" fill="white" stroke="#EF2D28" stroke-width="0.0206661"/>
<path d="M7.72804 1.81836C7.82809 1.81836 7.9092 1.74819 7.9092 1.66162C7.9092 1.57506 7.82809 1.50488 7.72804 1.50488C7.62798 1.50488 7.54688 1.57506 7.54688 1.66162C7.54688 1.74819 7.62798 1.81836 7.72804 1.81836Z" fill="white" stroke="#EF2D28" stroke-width="0.0206661"/>
<path d="M7.1974 4.80518C7.30102 4.80518 7.38503 4.735 7.38503 4.64844C7.38503 4.56187 7.30102 4.4917 7.1974 4.4917C7.09377 4.4917 7.00977 4.56187 7.00977 4.64844C7.00977 4.735 7.09377 4.80518 7.1974 4.80518Z" fill="white" stroke="#EF2D28" stroke-width="0.0210319"/>
<path d="M8.19935 4.80518C8.30298 4.80518 8.38698 4.735 8.38698 4.64844C8.38698 4.56187 8.30298 4.4917 8.19935 4.4917C8.09572 4.4917 8.01172 4.56187 8.01172 4.64844C8.01172 4.735 8.09572 4.80518 8.19935 4.80518Z" fill="white" stroke="#EF2D28" stroke-width="0.0210319"/>
<path fill-rule="evenodd" clip-rule="evenodd" d="M7.25977 4.22852H8.13774L7.69875 4.70021L7.25977 4.22852Z" fill="white" stroke="#EF2D28" stroke-width="0.0210319"/>
<path d="M7.69745 4.80419C7.83563 4.80419 7.94764 4.71063 7.94764 4.59521C7.94764 4.47979 7.83563 4.38623 7.69745 4.38623C7.55928 4.38623 7.44727 4.47979 7.44727 4.59521C7.44727 4.71063 7.55928 4.80419 7.69745 4.80419Z" fill="white" stroke="#EF2D28" stroke-width="0.0280429"/>
<path d="M8.01126 6.16211H6.8055C6.76622 6.16211 6.73438 6.1866 6.73438 6.21682V6.42235C6.73438 6.45257 6.76622 6.47707 6.8055 6.47707H8.01126C8.05054 6.47707 8.08239 6.45257 8.08239 6.42235V6.21682C8.08239 6.1866 8.05054 6.16211 8.01126 6.16211Z" fill="white" stroke="#EF2D28" stroke-width="0.0187665"/>
<path fill-rule="evenodd" clip-rule="evenodd" d="M8.49394 5.9004C8.33185 5.9004 8.20118 6.02313 8.20118 6.17395V6.41202C8.20008 6.44722 8.20681 6.48226 8.22097 6.51512C8.23513 6.54798 8.25644 6.578 8.28367 6.60345C8.3109 6.62889 8.34351 6.64925 8.3796 6.66335C8.41569 6.67744 8.45456 6.685 8.49394 6.68557C8.53333 6.685 8.57219 6.67744 8.60828 6.66335C8.64438 6.64925 8.67699 6.62889 8.70422 6.60345C8.73145 6.578 8.75276 6.54798 8.76692 6.51512C8.78108 6.48226 8.7878 6.44722 8.7867 6.41202V6.17543C8.78802 6.14011 8.78146 6.10491 8.76741 6.07188C8.75335 6.03884 8.73207 6.00865 8.70482 5.98304C8.67757 5.95744 8.64489 5.93695 8.60868 5.92276C8.57247 5.90857 8.53347 5.90097 8.49394 5.9004ZM8.49394 6.00391C8.39636 6.00391 8.31862 6.10298 8.31862 6.22423V6.36174C8.31862 6.48299 8.39636 6.58059 8.49394 6.58059C8.59153 6.58059 8.66927 6.48299 8.66927 6.36174V6.22423C8.66927 6.10298 8.59153 6.00539 8.49394 6.00539V6.00391ZM6.97061 5.95215C6.87137 5.95215 6.79528 6.04974 6.79528 6.17247V6.41498C6.79528 6.53623 6.87302 6.63382 6.97061 6.63382C7.06819 6.63382 7.14593 6.53623 7.14593 6.41498V6.171C7.14593 6.04827 7.06819 5.95067 6.97061 5.95067V5.95215ZM6.97061 5.84865C6.93122 5.84922 6.89236 5.85677 6.85627 5.87087C6.82017 5.88497 6.78756 5.90533 6.76033 5.93077C6.7331 5.95622 6.71179 5.98624 6.69763 6.0191C6.68348 6.05196 6.67675 6.087 6.67785 6.1222V6.46525C6.67675 6.50045 6.68348 6.53549 6.69763 6.56835C6.71179 6.60121 6.7331 6.63124 6.76033 6.65668C6.78756 6.68212 6.82017 6.70248 6.85627 6.71658C6.89236 6.73068 6.93122 6.73823 6.97061 6.7388C7.1327 6.7388 7.26337 6.61607 7.26337 6.46525V6.1222C7.26469 6.08688 7.25813 6.05167 7.24407 6.01864C7.23001 5.98561 7.20874 5.95541 7.18149 5.92981C7.15423 5.90421 7.12155 5.88372 7.08535 5.86953C7.04914 5.85534 7.01014 5.84774 6.97061 5.84717V5.84865Z" fill="white" stroke="#EF2D28" stroke-width="0.0187665"/>
<path fill-rule="evenodd" clip-rule="evenodd" d="M6.49991 6.05713C6.40232 6.05713 6.32458 6.15473 6.32458 6.27598V6.33364C6.32458 6.45489 6.40232 6.55249 6.49991 6.55249C6.59915 6.55249 6.67688 6.45489 6.67688 6.33364V6.27598C6.67688 6.15473 6.59749 6.05713 6.49991 6.05713ZM6.49991 5.95363C6.46052 5.9542 6.42166 5.96175 6.38556 5.97585C6.34947 5.98995 6.31686 6.01031 6.28963 6.03575C6.2624 6.0612 6.24109 6.09122 6.22693 6.12408C6.21277 6.15694 6.20605 6.19198 6.20715 6.22718V6.38392C6.20605 6.41912 6.21277 6.45416 6.22693 6.48702C6.24109 6.51988 6.2624 6.5499 6.28963 6.57535C6.31686 6.60079 6.34947 6.62115 6.38556 6.63525C6.42166 6.64934 6.46052 6.6569 6.49991 6.65747C6.662 6.65747 6.79432 6.53474 6.79432 6.38392V6.22718C6.79564 6.19174 6.78903 6.15641 6.77487 6.12328C6.76071 6.09016 6.73929 6.05989 6.71186 6.03427C6.68443 6.00865 6.65155 5.98819 6.61515 5.97408C6.57876 5.95998 6.53957 5.95252 6.49991 5.95215V5.95363Z" fill="white" stroke="#EF2D28" stroke-width="0.0187665"/>
<path fill-rule="evenodd" clip-rule="evenodd" d="M5.79977 5.9125C5.62114 5.9125 5.48121 6.02157 5.48121 6.15708V6.42975C5.48121 6.56361 5.62412 6.67433 5.79977 6.67433C5.97245 6.67433 6.11536 6.56526 6.11536 6.4281V6.15708C6.11536 6.02157 5.97245 5.9125 5.79977 5.9125ZM5.79977 5.79682C5.72889 5.79725 5.65886 5.80548 5.59374 5.82103C5.52863 5.83659 5.46972 5.85916 5.42043 5.88744C5.37114 5.91572 5.33245 5.94915 5.3066 5.98579C5.28075 6.02243 5.26825 6.06155 5.26983 6.10089V6.48428C5.26745 6.52376 5.27926 6.5631 5.30456 6.60002C5.32987 6.63693 5.36816 6.67068 5.41722 6.69929C5.46627 6.72791 5.5251 6.75081 5.59027 6.76667C5.65544 6.78253 5.72565 6.79102 5.7968 6.79166C6.09154 6.79166 6.32674 6.6545 6.32674 6.48428V6.10089C6.32872 6.06155 6.31661 6.02238 6.29113 5.98566C6.26564 5.94894 6.22728 5.91539 6.17827 5.88695C6.12925 5.85851 6.07056 5.83576 6.00559 5.82C5.94062 5.80425 5.87066 5.79581 5.79977 5.79517V5.79682Z" fill="white" stroke="#EF2D28" stroke-width="0.019963"/>
<path fill-rule="evenodd" clip-rule="evenodd" d="M9.60837 5.96401C9.42973 5.96401 9.28981 6.07308 9.28981 6.20859V6.48126C9.28981 6.61512 9.43271 6.72584 9.60837 6.72584C9.78104 6.72584 9.92395 6.61677 9.92395 6.47961V6.20859C9.92395 6.07308 9.78104 5.96401 9.60837 5.96401ZM9.60837 5.84833C9.53748 5.84876 9.46745 5.85699 9.40234 5.87254C9.33722 5.8881 9.27831 5.91067 9.22902 5.93895C9.17974 5.96723 9.14104 6.00066 9.11519 6.0373C9.08934 6.07394 9.07685 6.11306 9.07843 6.1524V6.5358C9.07604 6.57527 9.08785 6.61462 9.11315 6.65153C9.13846 6.68845 9.17676 6.7222 9.22581 6.75081C9.27486 6.77942 9.33369 6.80232 9.39886 6.81818C9.46403 6.83404 9.53424 6.84254 9.60539 6.84317C9.90013 6.84317 10.1353 6.70601 10.1353 6.5358V6.1524C10.1373 6.11306 10.1252 6.0739 10.0997 6.03717C10.0742 6.00045 10.0359 5.9669 9.98686 5.93846C9.93785 5.91003 9.87915 5.88727 9.81418 5.87152C9.74921 5.85576 9.67926 5.84732 9.60837 5.84668V5.84833Z" fill="white" stroke="#EF2D28" stroke-width="0.019963"/>
<path d="M9.27624 6.16211H8.64937C8.62836 6.16211 8.61133 6.1866 8.61133 6.21682V6.42235C8.61133 6.45257 8.62836 6.47707 8.64937 6.47707H9.27624C9.29725 6.47707 9.31428 6.45257 9.31428 6.42235V6.21682C9.31428 6.1866 9.29725 6.16211 9.27624 6.16211Z" fill="white" stroke="#EF2D28" stroke-width="0.0187665"/>
<path d="M8.35549 6.11035H7.9883C7.97642 6.11035 7.9668 6.14279 7.9668 6.18281V6.45784C7.9668 6.49785 7.97642 6.53029 7.9883 6.53029H8.35549C8.36736 6.53029 8.37699 6.49785 8.37699 6.45784V6.18281C8.37699 6.14279 8.36736 6.11035 8.35549 6.11035Z" fill="white" stroke="#EF2D28" stroke-width="0.0187665"/>
<path d="M6.42189 6.11035H6.05471C6.04283 6.11035 6.0332 6.14279 6.0332 6.18281V6.45784C6.0332 6.49785 6.04283 6.53029 6.05471 6.53029H6.42189C6.43377 6.53029 6.4434 6.49785 6.4434 6.45784V6.18281C6.4434 6.14279 6.43377 6.11035 6.42189 6.11035Z" fill="white" stroke="#EF2D28" stroke-width="0.0187665"/>
<path d="M5.51957 6.05688H4.78519C4.76144 6.05688 4.74219 6.09727 4.74219 6.14708V6.49013C4.74219 6.53995 4.76144 6.58033 4.78519 6.58033H5.51957C5.54332 6.58033 5.56257 6.53995 5.56257 6.49013V6.14708C5.56257 6.09727 5.54332 6.05688 5.51957 6.05688Z" fill="white" stroke="#EF2D28" stroke-width="0.0187665"/>
<path d="M10.5629 6.11035H9.88315C9.86031 6.11035 9.8418 6.15073 9.8418 6.20055V6.5436C9.8418 6.59342 9.86031 6.6338 9.88315 6.6338H10.5629C10.5858 6.6338 10.6043 6.59342 10.6043 6.5436V6.20055C10.6043 6.15073 10.5858 6.11035 10.5629 6.11035Z" fill="white" stroke="#EF2D28" stroke-width="0.0187665"/>
</g>
<defs>
<clipPath id="clip0_623_1543">
<rect width="53.3333" height="40" fill="white" transform="translate(0.832031)"/>
</clipPath>
</defs>
</svg>
