<svg width="55" height="40" viewBox="0 0 55 40" fill="none" xmlns="http://www.w3.org/2000/svg">
<g clip-path="url(#clip0_623_1088)">
<path d="M0.832031 0H54.1654V40H0.832031V0Z" fill="#003399"/>
<path d="M27.4988 6.3645L26.9062 8.33981L27.8939 8.53734L27.4988 6.3645Z" fill="#FFCC00"/>
<path d="M27.4992 6.3645L28.0918 8.33981L27.1041 8.53734L27.4992 6.3645Z" fill="#FFCC00"/>
<path d="M29.3784 7.72912L27.3167 7.77593L27.434 8.77629L29.3784 7.72912Z" fill="#FFCC00"/>
<path d="M29.3774 7.72938L27.6819 8.90337L27.1889 8.0251L29.3774 7.72938Z" fill="#FFCC00"/>
<path d="M28.6612 9.93792L27.9796 7.99154L27.0644 8.41226L28.6612 9.93792Z" fill="#FFCC00"/>
<path d="M28.6611 9.93782L27.0206 8.68807L27.7035 7.94774L28.6611 9.93782Z" fill="#FFCC00"/>
<path d="M25.6216 7.72936L27.6833 7.77618L27.566 8.77653L25.6216 7.72936Z" fill="#FFCC00"/>
<path d="M25.6226 7.72962L27.3181 8.90362L27.8111 8.02534L25.6226 7.72962Z" fill="#FFCC00"/>
<path d="M26.3388 9.93792L27.0204 7.99154L27.9356 8.41226L26.3388 9.93792Z" fill="#FFCC00"/>
<path d="M26.3389 9.93782L27.9794 8.68807L27.2965 7.94774L26.3389 9.93782Z" fill="#FFCC00"/>
<path d="M27.4617 30.0684L26.8691 32.0437L27.8568 32.2412L27.4617 30.0684Z" fill="#FFCC00"/>
<path d="M27.4621 30.0684L28.0547 32.0437L27.067 32.2412L27.4621 30.0684Z" fill="#FFCC00"/>
<path d="M29.3784 31.4332L27.3167 31.48L27.434 32.4804L29.3784 31.4332Z" fill="#FFCC00"/>
<path d="M29.3774 31.4332L27.6819 32.6072L27.1889 31.729L29.3774 31.4332Z" fill="#FFCC00"/>
<path d="M28.6612 33.6418L27.9796 31.6954L27.0644 32.1161L28.6612 33.6418Z" fill="#FFCC00"/>
<path d="M28.6611 33.6417L27.0206 32.3919L27.7035 31.6516L28.6611 33.6417Z" fill="#FFCC00"/>
<path d="M25.5825 31.4332L27.6443 31.48L27.5269 32.4804L25.5825 31.4332Z" fill="#FFCC00"/>
<path d="M25.5835 31.4332L27.279 32.6072L27.7721 31.729L25.5835 31.4332Z" fill="#FFCC00"/>
<path d="M26.2997 33.6418L26.9814 31.6954L27.8965 32.1161L26.2997 33.6418Z" fill="#FFCC00"/>
<path d="M26.2999 33.6417L27.9404 32.3919L27.2574 31.6516L26.2999 33.6417Z" fill="#FFCC00"/>
<path d="M15.6473 18.2163L15.0547 20.1916L16.0423 20.3891L15.6473 18.2163Z" fill="#FFCC00"/>
<path d="M15.6476 18.2163L16.2402 20.1916L15.2526 20.3891L15.6476 18.2163Z" fill="#FFCC00"/>
<path d="M17.5269 19.5812L15.4651 19.628L15.5825 20.6283L17.5269 19.5812Z" fill="#FFCC00"/>
<path d="M17.5259 19.5814L15.8304 20.7554L15.3373 19.8771L17.5259 19.5814Z" fill="#FFCC00"/>
<path d="M16.8096 21.7895L16.128 19.8431L15.2129 20.2638L16.8096 21.7895Z" fill="#FFCC00"/>
<path d="M16.8095 21.7894L15.169 20.5396L15.8519 19.7993L16.8095 21.7894Z" fill="#FFCC00"/>
<path d="M13.7681 19.5812L15.8298 19.628L15.7125 20.6283L13.7681 19.5812Z" fill="#FFCC00"/>
<path d="M13.7691 19.5812L15.4646 20.7552L15.9576 19.8769L13.7691 19.5812Z" fill="#FFCC00"/>
<path d="M14.4853 21.7895L15.1669 19.8431L16.0821 20.2638L14.4853 21.7895Z" fill="#FFCC00"/>
<path d="M14.4854 21.7894L16.1259 20.5396L15.443 19.7993L14.4854 21.7894Z" fill="#FFCC00"/>
<path d="M20.5577 11.6153L22.1982 10.3656L21.5152 9.62523L20.5577 11.6153Z" fill="#FFCC00"/>
<path d="M20.5575 11.6154L21.2392 9.66903L22.1543 10.0898L20.5575 11.6154Z" fill="#FFCC00"/>
<path d="M19.8394 9.40663L21.5349 10.5806L22.0279 9.70234L19.8394 9.40663Z" fill="#FFCC00"/>
<path d="M19.8384 9.40661L21.9001 9.45342L21.7828 10.4538L19.8384 9.40661Z" fill="#FFCC00"/>
<path d="M21.7176 8.04175L21.125 10.0171L22.1127 10.2146L21.7176 8.04175Z" fill="#FFCC00"/>
<path d="M21.718 8.04175L22.3105 10.0171L21.3229 10.2146L21.718 8.04175Z" fill="#FFCC00"/>
<path d="M22.8779 11.6156L21.2374 10.3658L21.9203 9.62547L22.8779 11.6156Z" fill="#FFCC00"/>
<path d="M22.878 11.6157L22.1964 9.66928L21.2812 10.09L22.878 11.6157Z" fill="#FFCC00"/>
<path d="M23.5962 9.40711L21.9007 10.5811L21.4076 9.70283L23.5962 9.40711Z" fill="#FFCC00"/>
<path d="M23.5952 9.40709L21.5335 9.45391L21.6508 10.4543L23.5952 9.40709Z" fill="#FFCC00"/>
<path d="M18.4835 16.0092L17.8018 14.0628L16.8867 14.4836L18.4835 16.0092Z" fill="#FFCC00"/>
<path d="M18.4833 16.0093L16.8428 14.7596L17.5258 14.0193L18.4833 16.0093Z" fill="#FFCC00"/>
<path d="M16.1632 16.0091L17.8036 14.7594L17.1207 14.019L16.1632 16.0091Z" fill="#FFCC00"/>
<path d="M16.163 16.0092L16.8447 14.0628L17.7598 14.4836L16.163 16.0092Z" fill="#FFCC00"/>
<path d="M15.4448 13.8007L17.1403 14.9747L17.6334 14.0964L15.4448 13.8007Z" fill="#FFCC00"/>
<path d="M15.4438 13.8006L17.5056 13.8475L17.3882 14.8478L15.4438 13.8006Z" fill="#FFCC00"/>
<path d="M19.2016 13.8004L17.5061 14.9744L17.0131 14.0961L19.2016 13.8004Z" fill="#FFCC00"/>
<path d="M19.2007 13.8002L17.1389 13.847L17.2563 14.8473L19.2007 13.8002Z" fill="#FFCC00"/>
<path d="M17.3234 12.4355L17.916 14.4109L16.9284 14.6084L17.3234 12.4355Z" fill="#FFCC00"/>
<path d="M17.3231 12.4355L16.7305 14.4109L17.7181 14.6084L17.3231 12.4355Z" fill="#FFCC00"/>
<path d="M19.1968 25.6808L17.135 25.7276L17.2524 26.7279L19.1968 25.6808Z" fill="#FFCC00"/>
<path d="M19.1958 25.681L17.5003 26.855L17.0072 25.9768L19.1958 25.681Z" fill="#FFCC00"/>
<path d="M18.4776 27.8896L17.796 25.9432L16.8808 26.3639L18.4776 27.8896Z" fill="#FFCC00"/>
<path d="M18.4775 27.8895L16.837 26.6397L17.5199 25.8994L18.4775 27.8895Z" fill="#FFCC00"/>
<path d="M16.1573 27.8895L17.7978 26.6397L17.1149 25.8994L16.1573 27.8895Z" fill="#FFCC00"/>
<path d="M16.1572 27.8896L16.8388 25.9432L17.7539 26.3639L16.1572 27.8896Z" fill="#FFCC00"/>
<path d="M17.3273 24.3164L17.9199 26.2917L16.9323 26.4892L17.3273 24.3164Z" fill="#FFCC00"/>
<path d="M17.327 24.3164L16.7344 26.2917L17.722 26.4892L17.327 24.3164Z" fill="#FFCC00"/>
<path d="M15.4477 25.6813L17.5095 25.7281L17.3922 26.7284L15.4477 25.6813Z" fill="#FFCC00"/>
<path d="M15.4487 25.6815L17.1443 26.8555L17.6373 25.9772L15.4487 25.6815Z" fill="#FFCC00"/>
<path d="M23.4546 29.6573L21.3929 29.7042L21.5102 30.7045L23.4546 29.6573Z" fill="#FFCC00"/>
<path d="M23.4536 29.6576L21.7581 30.8316L21.265 29.9533L23.4536 29.6576Z" fill="#FFCC00"/>
<path d="M22.7374 31.8659L22.0557 29.9195L21.1406 30.3402L22.7374 31.8659Z" fill="#FFCC00"/>
<path d="M22.7372 31.866L21.0968 30.6163L21.7797 29.876L22.7372 31.866Z" fill="#FFCC00"/>
<path d="M20.4171 31.8658L22.0575 30.6161L21.3746 29.8757L20.4171 31.8658Z" fill="#FFCC00"/>
<path d="M20.4169 31.8657L21.0986 29.9193L22.0137 30.34L20.4169 31.8657Z" fill="#FFCC00"/>
<path d="M21.5812 28.2922L22.1738 30.2675L21.1862 30.4651L21.5812 28.2922Z" fill="#FFCC00"/>
<path d="M21.5809 28.2925L20.9883 30.2678L21.9759 30.4653L21.5809 28.2925Z" fill="#FFCC00"/>
<path d="M19.6958 29.6571L21.7575 29.7039L21.6402 30.7043L19.6958 29.6571Z" fill="#FFCC00"/>
<path d="M19.6948 29.6571L21.3903 30.8311L21.8834 29.9528L19.6948 29.6571Z" fill="#FFCC00"/>
<path d="M39.3137 18.2163L39.9062 20.1916L38.9186 20.3891L39.3137 18.2163Z" fill="#FFCC00"/>
<path d="M39.3133 18.2163L38.7207 20.1916L39.7084 20.3891L39.3133 18.2163Z" fill="#FFCC00"/>
<path d="M37.4341 19.5812L39.4958 19.628L39.3785 20.6283L37.4341 19.5812Z" fill="#FFCC00"/>
<path d="M37.4351 19.5812L39.1306 20.7552L39.6236 19.8769L37.4351 19.5812Z" fill="#FFCC00"/>
<path d="M38.1513 21.7895L38.8329 19.8431L39.7481 20.2638L38.1513 21.7895Z" fill="#FFCC00"/>
<path d="M38.1514 21.7894L39.7919 20.5396L39.109 19.7993L38.1514 21.7894Z" fill="#FFCC00"/>
<path d="M41.1929 19.5812L39.1311 19.628L39.2485 20.6283L41.1929 19.5812Z" fill="#FFCC00"/>
<path d="M41.1919 19.5814L39.4964 20.7554L39.0033 19.8771L41.1919 19.5814Z" fill="#FFCC00"/>
<path d="M40.4757 21.7895L39.794 19.8431L38.8789 20.2638L40.4757 21.7895Z" fill="#FFCC00"/>
<path d="M40.4755 21.7894L38.835 20.5396L39.518 19.7993L40.4755 21.7894Z" fill="#FFCC00"/>
<path d="M34.4013 11.6153L32.7608 10.3656L33.4437 9.62523L34.4013 11.6153Z" fill="#FFCC00"/>
<path d="M34.4014 11.6154L33.7198 9.66903L32.8047 10.0898L34.4014 11.6154Z" fill="#FFCC00"/>
<path d="M35.1196 9.40687L33.4241 10.5809L32.931 9.70259L35.1196 9.40687Z" fill="#FFCC00"/>
<path d="M35.1187 9.40661L33.0569 9.45342L33.1743 10.4538L35.1187 9.40661Z" fill="#FFCC00"/>
<path d="M33.2414 8.04199L33.834 10.0173L32.8463 10.2148L33.2414 8.04199Z" fill="#FFCC00"/>
<path d="M33.241 8.04199L32.6484 10.0173L33.6361 10.2148L33.241 8.04199Z" fill="#FFCC00"/>
<path d="M32.0811 11.6156L33.7216 10.3658L33.0387 9.62547L32.0811 11.6156Z" fill="#FFCC00"/>
<path d="M32.081 11.6157L32.7626 9.66928L33.6778 10.09L32.081 11.6157Z" fill="#FFCC00"/>
<path d="M31.3628 9.40711L33.0583 10.5811L33.5514 9.70283L31.3628 9.40711Z" fill="#FFCC00"/>
<path d="M31.3638 9.40709L33.4255 9.45391L33.3082 10.4543L31.3638 9.40709Z" fill="#FFCC00"/>
<path d="M36.4755 16.0092L37.1572 14.0628L38.0723 14.4836L36.4755 16.0092Z" fill="#FFCC00"/>
<path d="M36.4757 16.0093L38.1161 14.7596L37.4332 14.0193L36.4757 16.0093Z" fill="#FFCC00"/>
<path d="M38.7997 16.0091L37.1593 14.7594L37.8422 14.019L38.7997 16.0091Z" fill="#FFCC00"/>
<path d="M38.7999 16.0092L38.1182 14.0628L37.2031 14.4836L38.7999 16.0092Z" fill="#FFCC00"/>
<path d="M39.5181 13.8007L37.8225 14.9747L37.3295 14.0964L39.5181 13.8007Z" fill="#FFCC00"/>
<path d="M39.5191 13.8006L37.4573 13.8475L37.5746 14.8478L39.5191 13.8006Z" fill="#FFCC00"/>
<path d="M35.7573 13.8007L37.4528 14.9747L37.9459 14.0964L35.7573 13.8007Z" fill="#FFCC00"/>
<path d="M35.7563 13.8006L37.8181 13.8475L37.7007 14.8478L35.7563 13.8006Z" fill="#FFCC00"/>
<path d="M37.6356 12.4358L37.043 14.4111L38.0306 14.6086L37.6356 12.4358Z" fill="#FFCC00"/>
<path d="M37.6359 12.436L38.2285 14.4113L37.2409 14.6089L37.6359 12.436Z" fill="#FFCC00"/>
<path d="M35.7661 25.6808L37.8278 25.7276L37.7105 26.7279L35.7661 25.6808Z" fill="#FFCC00"/>
<path d="M35.7671 25.681L37.4626 26.855L37.9557 25.9768L35.7671 25.681Z" fill="#FFCC00"/>
<path d="M36.4833 27.8893L37.165 25.943L38.0801 26.3637L36.4833 27.8893Z" fill="#FFCC00"/>
<path d="M36.4835 27.8892L38.1239 26.6395L37.441 25.8992L36.4835 27.8892Z" fill="#FFCC00"/>
<path d="M38.8036 27.8895L37.1632 26.6397L37.8461 25.8994L38.8036 27.8895Z" fill="#FFCC00"/>
<path d="M38.8038 27.8896L38.1221 25.9432L37.207 26.3639L38.8038 27.8896Z" fill="#FFCC00"/>
<path d="M37.6356 24.3157L37.043 26.291L38.0306 26.4885L37.6356 24.3157Z" fill="#FFCC00"/>
<path d="M37.6359 24.3157L38.2285 26.291L37.2409 26.4885L37.6359 24.3157Z" fill="#FFCC00"/>
<path d="M39.5152 25.6803L37.4534 25.7271L37.5707 26.7275L39.5152 25.6803Z" fill="#FFCC00"/>
<path d="M39.5141 25.6803L37.8186 26.8543L37.3256 25.976L39.5141 25.6803Z" fill="#FFCC00"/>
<path d="M31.4712 29.6571L33.5329 29.7039L33.4156 30.7043L31.4712 29.6571Z" fill="#FFCC00"/>
<path d="M31.4702 29.6571L33.1657 30.8311L33.6588 29.9528L31.4702 29.6571Z" fill="#FFCC00"/>
<path d="M32.1904 31.8657L32.872 29.9193L33.7871 30.34L32.1904 31.8657Z" fill="#FFCC00"/>
<path d="M32.1905 31.8658L33.831 30.6161L33.1481 29.8757L32.1905 31.8658Z" fill="#FFCC00"/>
<path d="M34.5107 31.8656L32.8702 30.6158L33.5531 29.8755L34.5107 31.8656Z" fill="#FFCC00"/>
<path d="M34.5108 31.8654L33.8292 29.919L32.914 30.3398L34.5108 31.8654Z" fill="#FFCC00"/>
<path d="M33.3524 28.2922L32.7598 30.2675L33.7474 30.4651L33.3524 28.2922Z" fill="#FFCC00"/>
<path d="M33.3527 28.2922L33.9453 30.2675L32.9577 30.4651L33.3527 28.2922Z" fill="#FFCC00"/>
<path d="M35.23 29.6573L33.1682 29.7042L33.2856 30.7045L35.23 29.6573Z" fill="#FFCC00"/>
<path d="M35.2309 29.6576L33.5354 30.8316L33.0424 29.9533L35.2309 29.6576Z" fill="#FFCC00"/>
</g>
<defs>
<clipPath id="clip0_623_1088">
<rect width="53.3333" height="40" fill="white" transform="translate(0.832031)"/>
</clipPath>
</defs>
</svg>
