<svg width="55" height="40" viewBox="0 0 55 40" fill="none" xmlns="http://www.w3.org/2000/svg">
<g clip-path="url(#clip0_623_1353)">
<path fill-rule="evenodd" clip-rule="evenodd" d="M-2.50195 30H57.498V40H-2.50195V30ZM-2.50195 0H57.498V10H-2.50195V0Z" fill="#EE161F"/>
<path fill-rule="evenodd" clip-rule="evenodd" d="M-2.50195 10H57.498V30H-2.50195V10Z" fill="white"/>
<path d="M27.1925 10.1563C26.5831 11.3672 26.1769 11.3672 25.1612 12.1875C24.755 12.5859 24.1456 12.7891 24.9581 13.2031C24.1378 13.6016 23.7316 13.8047 23.3253 14.6172L23.5284 14.8203C23.5284 14.8203 24.3097 14.4453 24.3409 14.6172C24.4816 14.7812 23.3253 15.3984 23.1769 15.5L22.3175 16.0469C21.2941 16.8516 20.6769 16.6484 20.0753 17.8672L22.1066 17.6641C22.5128 19.0859 21.0909 19.2891 20.0753 19.8984L18.4425 20.9141C18.8566 22.3359 20.0753 21.5234 21.0909 21.1172L21.2941 21.3203V21.7266L19.2628 22.7422C19.2628 22.7422 16.8566 24.1172 16.8175 24.1641C16.8019 24.2422 16.8175 24.5703 16.8175 24.5703C17.63 24.7734 18.8487 24.9766 19.6691 24.5703C20.6847 24.1641 20.8878 23.7578 22.1066 23.7578C20.9335 24.6731 19.5247 25.2366 18.0441 25.3828V26.1953C19.2628 26.1953 20.0753 26.1953 21.0909 25.9922L23.7316 25.1797C24.3409 25.1797 24.9581 25.7891 24.7472 26.3984C24.1456 28.6328 21.7003 28.2266 20.8878 30.0547L24.1378 28.8281C24.9503 28.4219 25.7628 28.0234 26.7784 28.2266C27.9972 28.6328 27.9972 29.4453 29.6222 29.8516L29.2159 28.8359C29.6222 29.0391 30.0284 29.0391 30.4425 29.2422C31.4581 29.6484 31.6612 30.0547 32.88 29.8516C31.8644 28.6328 31.6612 28.8359 30.8487 28.0234C30.0362 26.8047 29.6222 24.9766 30.8487 24.7734L32.2706 25.1797C33.6925 25.3828 33.6925 24.9766 35.7237 25.7891C36.9503 26.1953 37.3566 26.8047 38.7706 26.3984C38.1691 24.9766 35.9347 23.9609 34.505 23.5547C36.1378 22.5391 35.7237 23.9609 37.9659 23.3516V22.9453C36.3487 21.7187 35.7316 20.7031 33.4972 20.7031L36.9581 20.2969V19.8906C36.9581 19.8906 33.5441 19 33.4659 18.9609C33.4894 18.8594 33.5753 18.7031 33.8019 18.6094C34.4503 19.0312 36.4034 18.9844 36.5206 18.9766C36.4581 18.4766 35.5284 18.0625 34.7237 17.6562C34.7237 17.6562 31.2316 15.5078 31.2159 15.3203C31.2862 14.7734 32.6456 15.4062 34.1066 15.8281C33.7003 15.0156 32.8878 14.6094 32.0753 14.4062L33.2941 14.2031C32.4816 12.375 30.4503 12.5781 29.2316 11.7656C28.4112 11.1563 28.4112 10.75 27.1925 10.1484V10.1563Z" fill="#00A850"/>
<path fill-rule="evenodd" clip-rule="evenodd" d="M24.998 23.6719C25.1465 23.1954 25.3418 22.7657 24.4355 22.3516C23.5293 21.9376 24.8887 24.0001 24.998 23.6797V23.6719ZM26.0684 22.711C25.8887 22.7344 25.7871 23.3985 26.1543 23.586C26.5605 23.6485 26.2324 22.7188 26.0684 22.711ZM27.123 22.6329C26.9355 22.6954 26.9277 23.6329 27.5918 23.461C28.2637 23.2969 27.5918 22.5626 27.123 22.6407V22.6329ZM28.3574 20.2344C28.498 20.0001 28.3496 19.0626 27.7793 19.4532C27.2012 19.8516 28.1699 20.2969 28.3574 20.2344ZM27.1074 19.4532C27.2871 19.3829 27.3027 18.8047 26.7949 18.961C26.3027 19.1094 26.9746 19.5704 27.1074 19.4532ZM25.9824 19.6797C25.9824 19.6797 25.6309 19.1954 25.3574 19.2969C25.0215 19.6251 26.0059 19.6876 25.9824 19.6797ZM22.1074 21.2266C22.2559 21.2422 23.3574 21.0469 23.7402 20.6172C24.123 20.1876 21.7793 20.7969 21.7793 20.8047C21.7793 20.8126 21.998 21.1876 22.1074 21.2266ZM33.1309 18.4922C33.1855 18.3907 32.5449 17.9376 32.1621 18.1172C32.0605 18.4532 33.1309 18.5626 33.1309 18.4922ZM30.959 17.3985C31.084 17.2266 30.6855 16.5157 29.8887 16.9141C29.0918 17.3047 30.7246 17.6797 30.959 17.4063V17.3985ZM28.4512 16.9844C28.4512 16.9844 28.6465 16.3438 29.123 16.4688C29.6699 16.8829 28.4746 17.0079 28.4512 16.9844ZM27.9824 16.5001C27.9043 16.3204 27.4121 16.4219 26.8418 16.8047C26.2637 17.1719 28.1543 16.9141 27.9824 16.4922V16.5001ZM29.4434 14.7735C29.4434 14.7735 29.9512 14.5391 30.1074 14.7735C30.3184 15.1094 29.4355 14.7735 29.4434 14.7735ZM29.0137 14.5469C28.9121 14.3438 28.3496 14.3204 28.3652 14.6251C28.2715 14.8594 29.0996 14.8126 29.0137 14.5469ZM27.6699 14.5469C27.6152 14.4297 26.8105 14.5469 26.5762 15.0313C26.9668 15.2188 27.8496 14.8516 27.6699 14.5469ZM25.9512 15.0391C25.9512 15.0391 24.9043 15.6876 24.834 16.1563C24.8652 16.5626 26.1465 15.4219 26.1465 15.4219C26.1465 15.4219 26.2559 14.9688 25.959 15.0391H25.9512ZM24.7871 14.4532C24.8184 14.3204 25.3105 14.0157 25.3496 14.0391C25.3887 14.1719 24.9512 14.5313 24.7871 14.4532ZM25.123 16.9219C25.1465 16.7266 23.873 16.7422 24.3496 17.3282C24.7559 17.8204 25.209 17.0079 25.123 16.9219ZM23.9512 17.7579C23.8887 17.6329 23.7949 17.2891 23.623 17.2579C23.4746 17.2579 22.709 17.4141 22.6465 17.5391C22.6152 17.6407 22.9668 18.2735 23.084 18.2891C23.2246 18.3438 23.9355 17.8204 23.959 17.7579H23.9512ZM30.8574 22.0704C30.8965 21.9297 32.209 21.4844 32.6543 21.9141C33.1855 22.6407 30.8262 22.3047 30.8574 22.0704ZM34.4512 22.9219C34.7402 22.4376 33.5684 21.8594 33.0762 22.4141C33.248 23.0782 34.2168 23.3204 34.4512 22.9219Z" fill="white" stroke="white" stroke-width="0.250546" stroke-linecap="round" stroke-linejoin="round"/>
</g>
<defs>
<clipPath id="clip0_623_1353">
<rect width="53.3333" height="40" fill="white" transform="translate(0.832031)"/>
</clipPath>
</defs>
</svg>
