<svg width="55" height="40" viewBox="0 0 55 40" fill="none" xmlns="http://www.w3.org/2000/svg">
<g clip-path="url(#clip0_623_1648)">
<path d="M22.166 0H54.166V40H22.166V0Z" fill="#FF0000"/>
<path d="M0.832031 0H22.1654V40H0.832031V0Z" fill="#006600"/>
<path fill-rule="evenodd" clip-rule="evenodd" d="M29.1224 25.5166C26.4307 25.4333 14.1224 17.7499 14.0391 16.5166L14.7141 15.3916C15.9391 17.1666 28.5224 24.6416 29.7641 24.3749L29.1224 25.5166Z" fill="#FFFF00" stroke="black" stroke-width="0.05" stroke-linecap="round" stroke-linejoin="round"/>
<path fill-rule="evenodd" clip-rule="evenodd" d="M14.5739 15.2332C14.3323 15.8832 17.7906 18.0166 21.9406 20.5499C26.0989 23.0749 29.6823 24.6332 29.9406 24.4166L30.0656 24.1832C30.0156 24.2666 29.8989 24.2916 29.7073 24.2332C28.5823 23.9082 25.6573 22.5666 22.0323 20.3666C18.3989 18.1666 15.2489 16.1416 14.7573 15.2832C14.719 15.2028 14.7017 15.1139 14.7073 15.0249H14.6906L14.5906 15.2082L14.5739 15.2332ZM29.1823 25.5499C29.1406 25.6332 29.0489 25.6332 28.8906 25.6166C27.8906 25.5082 24.8406 24.0249 21.2323 21.8666C17.0323 19.3499 13.5656 17.0666 13.9489 16.4666L14.0489 16.2832L14.0656 16.2916C13.7323 17.3082 20.9073 21.4082 21.3323 21.6749C25.4823 24.2416 28.9823 25.7499 29.2906 25.3582L29.1823 25.5499Z" fill="#FFFF00" stroke="black" stroke-width="0.05" stroke-linecap="round" stroke-linejoin="round"/>
<path fill-rule="evenodd" clip-rule="evenodd" d="M22.1811 17.2668C24.8645 17.2418 28.1811 16.9002 30.0978 16.1335L29.6811 15.4668C28.5561 16.0918 25.2228 16.5085 22.1561 16.5668C18.5395 16.5335 15.9811 16.1918 14.6978 15.3335L14.3145 16.0502C16.6645 17.0502 19.0811 17.2585 22.1811 17.2668Z" fill="#FFFF00"/>
<path d="M22.1811 17.2668C24.8645 17.2418 28.1811 16.9002 30.0978 16.1335L29.6811 15.4668C28.5561 16.0918 25.2228 16.5085 22.1561 16.5668C18.5395 16.5335 15.9811 16.1918 14.6978 15.3335L14.3145 16.0502C16.6645 17.0502 19.0811 17.2585 22.1811 17.2668" stroke="black" stroke-width="0.05" stroke-linecap="round" stroke-linejoin="round"/>
<path fill-rule="evenodd" clip-rule="evenodd" d="M30.206 16.15C30.1393 16.2583 28.8893 16.6833 27.056 17C25.4399 17.2449 23.8072 17.3647 22.1727 17.3583C20.6066 17.3642 19.0419 17.2639 17.4893 17.0583C15.5643 16.7583 14.5727 16.3416 14.1977 16.1916L14.2893 16.0083C15.3477 16.425 16.3477 16.675 17.5143 16.8583C19.0555 17.0664 20.6091 17.1694 22.1643 17.1666C23.7904 17.1683 25.4144 17.0486 27.0227 16.8083C28.8977 16.5 29.9227 16.1083 30.0727 15.9333L30.206 16.1583V16.15ZM29.8393 15.475C29.6393 15.6416 28.6227 16 26.8393 16.2833C25.2994 16.5061 23.7453 16.6175 22.1893 16.6166C20.356 16.6166 18.8477 16.4833 17.706 16.3166C15.8893 16.0833 14.9227 15.65 14.5727 15.5333L14.681 15.35C14.956 15.4916 15.881 15.8666 17.7227 16.125C19.2031 16.3233 20.6957 16.4179 22.1893 16.4083C23.7342 16.4088 25.2772 16.2974 26.806 16.075C28.5977 15.825 29.5643 15.375 29.7143 15.2583L29.8393 15.475ZM13.356 20.5C15.006 21.3916 18.681 21.8333 22.156 21.8666C25.3227 21.875 29.4393 21.3833 30.981 20.5666L30.9393 19.675C30.456 20.425 26.0393 21.15 22.1227 21.125C18.206 21.0916 14.5643 20.4916 13.3477 19.7083V20.5" fill="#FFFF00"/>
<path d="M13.356 20.5C15.006 21.3916 18.681 21.8333 22.156 21.8666C25.3227 21.875 29.4393 21.3833 30.981 20.5666L30.9393 19.675C30.456 20.425 26.0393 21.15 22.1227 21.125C18.206 21.0916 14.5643 20.4916 13.3477 19.7083V20.5M30.206 16.15C30.1393 16.2583 28.8893 16.6833 27.056 17C25.4399 17.2449 23.8072 17.3647 22.1727 17.3583C20.6066 17.3642 19.0419 17.2639 17.4893 17.0583C15.5643 16.7583 14.5727 16.3416 14.1977 16.1916L14.2893 16.0083C15.3477 16.425 16.3477 16.675 17.5143 16.8583C19.0555 17.0664 20.6091 17.1694 22.1643 17.1666C23.7904 17.1683 25.4144 17.0486 27.0227 16.8083C28.8977 16.5 29.9227 16.1083 30.0727 15.9333L30.206 16.1583V16.15ZM29.8393 15.475C29.6393 15.6416 28.6227 16 26.8393 16.2833C25.2994 16.5061 23.7453 16.6175 22.1893 16.6166C20.356 16.6166 18.8477 16.4833 17.706 16.3166C15.8893 16.0833 14.9227 15.65 14.5727 15.5333L14.681 15.35C14.956 15.4916 15.881 15.8666 17.7227 16.125C19.2031 16.3233 20.6957 16.4179 22.1893 16.4083C23.7342 16.4088 25.2772 16.2974 26.806 16.075C28.5977 15.825 29.5643 15.375 29.7143 15.2583L29.8393 15.475V15.475Z" stroke="black" stroke-width="0.05" stroke-linecap="round" stroke-linejoin="round"/>
<path fill-rule="evenodd" clip-rule="evenodd" d="M31.0647 20.3751V20.5835C30.8314 20.8668 29.3814 21.2835 27.5647 21.5835C25.7599 21.8429 23.938 21.9655 22.1147 21.9501C20.3858 21.9649 18.6584 21.8451 16.948 21.5918C15.6718 21.4443 14.4248 21.1073 13.248 20.5918V20.3501C14.0564 20.8835 16.2397 21.2835 16.973 21.4001C18.2897 21.6001 19.9814 21.7501 22.1147 21.7501C24.3564 21.7501 26.148 21.5918 27.5314 21.3835C28.8397 21.1918 30.698 20.7001 31.0647 20.3751ZM31.0647 19.6251V19.8335C30.8314 20.1085 29.3814 20.5251 27.5647 20.8251C25.7601 21.0873 23.9382 21.2127 22.1147 21.2001C20.3859 21.2103 18.6589 21.0905 16.948 20.8418C15.6718 20.6943 14.4248 20.3573 13.248 19.8418V19.5918C14.0564 20.1335 16.248 20.5251 16.973 20.6418C18.6754 20.8912 20.3942 21.011 22.1147 21.0001C24.3564 21.0001 26.1564 20.8335 27.5314 20.6251C28.8397 20.4418 30.698 19.9501 31.0647 19.6251ZM22.148 25.3585C18.348 25.3418 15.0897 24.3251 14.398 24.1585L14.898 24.9418C17.2355 25.7696 19.702 26.1732 22.1814 26.1335C25.073 26.0501 27.598 25.8251 29.373 24.9585L29.8897 24.1418C28.6814 24.7168 24.5564 25.3585 22.1397 25.3585" fill="#FFFF00"/>
<path d="M22.148 25.3585C18.348 25.3418 15.0897 24.3251 14.398 24.1585L14.898 24.9418C17.2355 25.7696 19.702 26.1732 22.1814 26.1335C25.073 26.0501 27.598 25.8251 29.373 24.9585L29.8897 24.1418C28.6814 24.7168 24.5564 25.3585 22.1397 25.3585M31.0647 20.3751V20.5835C30.8314 20.8668 29.3814 21.2835 27.5647 21.5835C25.7599 21.8429 23.938 21.9655 22.1147 21.9501C20.3858 21.9649 18.6584 21.8451 16.948 21.5918C15.6718 21.4443 14.4248 21.1073 13.248 20.5918V20.3501C14.0564 20.8835 16.2397 21.2835 16.973 21.4001C18.2897 21.6001 19.9814 21.7501 22.1147 21.7501C24.3564 21.7501 26.148 21.5918 27.5314 21.3835C28.8397 21.1918 30.698 20.7001 31.0647 20.3751V20.3751ZM31.0647 19.6251V19.8335C30.8314 20.1085 29.3814 20.5251 27.5647 20.8251C25.7601 21.0873 23.9382 21.2127 22.1147 21.2001C20.3859 21.2103 18.6589 21.0905 16.948 20.8418C15.6718 20.6943 14.4248 20.3573 13.248 19.8418V19.5918C14.0564 20.1335 16.248 20.5251 16.973 20.6418C18.6754 20.8912 20.3942 21.011 22.1147 21.0001C24.3564 21.0001 26.1564 20.8335 27.5314 20.6251C28.8397 20.4418 30.698 19.9501 31.0647 19.6251V19.6251Z" stroke="black" stroke-width="0.05" stroke-linecap="round" stroke-linejoin="round"/>
<path fill-rule="evenodd" clip-rule="evenodd" d="M29.573 24.7749C29.4972 24.8873 29.4194 24.9984 29.3397 25.1082C28.5064 25.4082 27.173 25.7249 26.623 25.8082C25.1472 26.0832 23.6493 26.2227 22.148 26.2249C18.7814 26.1749 16.023 25.5165 14.7314 24.9499L14.623 24.7749L14.6397 24.7415L14.8147 24.8165C17.1864 25.6014 19.6666 26.0091 22.1647 26.0249C23.7314 26.0249 25.2897 25.8499 26.548 25.6249C28.4814 25.2332 29.2647 24.9415 29.5064 24.8082L29.5647 24.7749H29.573ZM30.0147 24.0415C29.9598 24.1391 29.9043 24.2364 29.848 24.3332C29.398 24.4999 28.1814 24.8499 26.4064 25.0999C25.2397 25.2582 24.5147 25.4165 22.1897 25.4582C19.5319 25.4315 16.8904 25.0389 14.3397 24.2915L14.248 24.0832C16.8396 24.7994 19.51 25.1913 22.198 25.2499C24.323 25.2082 25.2314 25.0499 26.3897 24.8915C28.4564 24.5749 29.498 24.2249 29.8064 24.1332C29.8066 24.1277 29.8066 24.1221 29.8064 24.1165L30.023 24.0332L30.0147 24.0415Z" fill="#FFFF00" stroke="black" stroke-width="0.05" stroke-linecap="round" stroke-linejoin="round"/>
<path fill-rule="evenodd" clip-rule="evenodd" d="M30.0643 19.8C30.0727 22.3 28.7893 24.55 27.7643 25.5333C26.2505 27.0098 24.2288 27.8507 22.1143 27.8833C19.5893 27.925 17.2143 26.2833 16.5727 25.5583C15.1372 24.036 14.3202 22.0337 14.281 19.9417C14.431 17.2083 15.506 15.3083 17.056 14C18.5617 12.7605 20.4558 12.0908 22.406 12.1083C23.5444 12.1635 24.6588 12.4559 25.6777 12.9668C26.6965 13.4777 27.5974 14.1957 28.3227 15.075C29.3643 16.3417 29.8227 17.7167 30.0643 19.8ZM22.131 11.25C24.4622 11.2499 26.699 12.1714 28.3537 13.8136C30.0083 15.4558 30.9467 17.6855 30.9643 20.0167C30.9643 21.1734 30.7365 22.3188 30.2938 23.3875C29.8512 24.4561 29.2024 25.4272 28.3844 26.2451C27.5665 27.063 26.5955 27.7118 25.5268 28.1545C24.4581 28.5972 23.3127 28.825 22.156 28.825C20.9993 28.825 19.8539 28.5972 18.7852 28.1545C17.7165 27.7118 16.7455 27.063 15.9276 26.2451C15.1096 25.4272 14.4608 24.4561 14.0182 23.3875C13.5755 22.3188 13.3477 21.1734 13.3477 20.0167C13.3393 15.1833 17.2893 11.25 22.131 11.25Z" fill="#FFFF00"/>
<path d="M22.131 11.25C24.4622 11.2499 26.699 12.1714 28.3537 13.8136C30.0083 15.4558 30.9467 17.6855 30.9643 20.0167C30.9643 21.1734 30.7365 22.3188 30.2938 23.3875C29.8512 24.4561 29.2024 25.4272 28.3844 26.2451C27.5665 27.063 26.5955 27.7118 25.5268 28.1545C24.4581 28.5972 23.3127 28.825 22.156 28.825C20.9993 28.825 19.8539 28.5972 18.7852 28.1545C17.7165 27.7118 16.7455 27.063 15.9276 26.2451C15.1096 25.4272 14.4608 24.4561 14.0182 23.3875C13.5755 22.3188 13.3477 21.1734 13.3477 20.0167C13.3393 15.1833 17.2893 11.25 22.131 11.25M30.0643 19.8C30.0727 22.3 28.7893 24.55 27.7643 25.5333C26.2505 27.0098 24.2288 27.8507 22.1143 27.8833C19.5893 27.925 17.2143 26.2833 16.5727 25.5583C15.1372 24.036 14.3202 22.0337 14.281 19.9417C14.431 17.2083 15.506 15.3083 17.056 14C18.5617 12.7605 20.4558 12.0908 22.406 12.1083C23.5444 12.1635 24.6588 12.4559 25.6777 12.9668C26.6965 13.4777 27.5974 14.1957 28.3227 15.075C29.3643 16.3417 29.8227 17.7167 30.0643 19.8V19.8Z" stroke="black" stroke-width="0.05" stroke-linecap="round" stroke-linejoin="round"/>
<path fill-rule="evenodd" clip-rule="evenodd" d="M22.1569 11.2085C27.0069 11.2085 30.9569 15.1585 30.9569 20.0085C30.9569 24.8585 27.0069 28.8085 22.1652 28.8085C17.3236 28.8085 13.3652 24.8585 13.3652 20.0085C13.3652 15.1585 17.3152 11.2085 22.1652 11.2085H22.1569ZM13.5486 20.0002C13.5486 24.7335 17.4402 28.6085 22.1569 28.6085C26.8736 28.6085 30.7652 24.7335 30.7652 20.0002C30.7652 15.2668 26.8736 11.3918 22.1569 11.3918C17.4402 11.3918 13.5486 15.2668 13.5486 20.0002Z" fill="#FFFF00" stroke="black" stroke-width="0.05" stroke-linecap="round" stroke-linejoin="round"/>
<path fill-rule="evenodd" clip-rule="evenodd" d="M22.1658 11.9417C24.3009 11.9482 26.3468 12.7994 27.8566 14.3092C29.3664 15.819 30.2175 17.8648 30.2241 20C30.2175 22.1359 29.3667 24.1826 27.8571 25.6938C26.3475 27.2049 24.3017 28.0579 22.1658 28.0666C17.7491 28.0666 14.1074 24.4333 14.1074 20C14.1162 17.8655 14.968 15.8209 16.4773 14.3116C17.9867 12.8022 20.0313 11.9504 22.1658 11.9417ZM14.2991 20C14.2991 24.3333 17.8491 27.8666 22.1658 27.8666C26.4824 27.8666 30.0324 24.325 30.0324 20C30.0324 15.6666 26.4824 12.1333 22.1658 12.1333C20.0821 12.1421 18.0863 12.9737 16.6129 14.4471C15.1395 15.9205 14.3079 17.9163 14.2991 20Z" fill="#FFFF00" stroke="black" stroke-width="0.05" stroke-linecap="round" stroke-linejoin="round"/>
<path fill-rule="evenodd" clip-rule="evenodd" d="M22.524 11.1667H21.7656V28.8584H22.5156L22.524 11.1667Z" fill="#FFFF00" stroke="black" stroke-width="0.05" stroke-linecap="round" stroke-linejoin="round"/>
<path fill-rule="evenodd" clip-rule="evenodd" d="M22.4395 11.0667H22.6311V28.9583H22.4478V11.0667H22.4395ZM21.6895 11.0667H21.8895V28.9583H21.6978V11.0667H21.6895Z" fill="#FFFF00" stroke="black" stroke-width="0.05" stroke-linecap="round" stroke-linejoin="round"/>
<path fill-rule="evenodd" clip-rule="evenodd" d="M30.9659 20.3502V19.7002L30.4326 19.2002L27.4076 18.4002L23.0576 17.9585L17.8076 18.2252L14.0742 19.1085L13.3242 19.6668V20.3252L15.2326 19.4668L19.7659 18.7585H24.1242L27.3242 19.1085L29.5409 19.6418L30.9659 20.3502Z" fill="#FFFF00" stroke="black" stroke-width="0.05" stroke-linecap="round" stroke-linejoin="round"/>
<path fill-rule="evenodd" clip-rule="evenodd" d="M22.1647 18.65C24.2397 18.65 26.248 18.8417 27.8564 19.15C29.5064 19.4834 30.6647 19.9 31.0647 20.3584V20.5917C30.5814 20.0084 29.023 19.5917 27.8147 19.3417C26.2314 19.0417 24.2314 18.8417 22.1564 18.8417C19.9814 18.8417 17.948 19.0584 16.3814 19.3584C15.1314 19.6084 13.4564 20.1084 13.248 20.5917V20.35C13.3564 20.0167 14.6064 19.5167 16.3564 19.1584C17.9314 18.85 19.9647 18.65 22.1564 18.65H22.1647ZM22.1647 17.8917C24.0731 17.8879 25.9779 18.0552 27.8564 18.3917C29.5064 18.725 30.6647 19.1417 31.0647 19.6084V19.8334C30.5814 19.2584 29.023 18.8334 27.8147 18.5917C26.2314 18.2834 24.2314 18.0917 22.1564 18.0917C20.2223 18.0856 18.2919 18.2585 16.3897 18.6084C15.1814 18.8334 13.4397 19.35 13.248 19.8334V19.6C13.3647 19.2667 14.6314 18.7417 16.3564 18.4084C17.9397 18.1 19.9647 17.8917 22.1647 17.8917ZM22.1147 14.0417C25.3897 14.025 28.248 14.5 29.5564 15.1667L30.0314 16C28.898 15.3834 25.8147 14.75 22.123 14.8334C19.1147 14.8584 15.898 15.1667 14.2897 16.0334L14.8564 15.0834C16.1814 14.3917 19.298 14.0417 22.1147 14.0417Z" fill="#FFFF00"/>
<path d="M22.1147 14.0417C25.3897 14.025 28.248 14.5 29.5564 15.1667L30.0314 16C28.898 15.3834 25.8147 14.75 22.123 14.8334C19.1147 14.8584 15.898 15.1667 14.2897 16.0334L14.8564 15.0834C16.1814 14.3917 19.298 14.0417 22.1147 14.0417M22.1647 18.65C24.2397 18.65 26.248 18.8417 27.8564 19.15C29.5064 19.4834 30.6647 19.9 31.0647 20.3584V20.5917C30.5814 20.0084 29.023 19.5917 27.8147 19.3417C26.2314 19.0417 24.2314 18.8417 22.1564 18.8417C19.9814 18.8417 17.948 19.0584 16.3814 19.3584C15.1314 19.6084 13.4564 20.1084 13.248 20.5917V20.35C13.3564 20.0167 14.6064 19.5167 16.3564 19.1584C17.9314 18.85 19.9647 18.65 22.1564 18.65H22.1647ZM22.1647 17.8917C24.0731 17.8879 25.9779 18.0552 27.8564 18.3917C29.5064 18.725 30.6647 19.1417 31.0647 19.6084V19.8334C30.5814 19.2584 29.023 18.8334 27.8147 18.5917C26.2314 18.2834 24.2314 18.0917 22.1564 18.0917C20.2223 18.0856 18.2919 18.2585 16.3897 18.6084C15.1814 18.8334 13.4397 19.35 13.248 19.8334V19.6C13.3647 19.2667 14.6314 18.7417 16.3564 18.4084C17.9397 18.1 19.9647 17.8917 22.1647 17.8917V17.8917Z" stroke="black" stroke-width="0.05" stroke-linecap="round" stroke-linejoin="round"/>
<path fill-rule="evenodd" clip-rule="evenodd" d="M22.1658 14.7249C23.8757 14.6961 25.5849 14.816 27.2741 15.0833C28.6074 15.3333 29.8824 15.6999 30.0658 15.8999L30.2074 16.1499C29.7658 15.8666 28.6574 15.5416 27.2408 15.2749C25.8241 15.0083 24.0158 14.9166 22.1574 14.9249C20.0491 14.9166 18.4074 15.0249 17.0074 15.2749C16.0423 15.4102 15.1053 15.7 14.2324 16.1333L14.3741 15.8749C14.8741 15.6249 15.6491 15.3166 16.9658 15.0749C18.4241 14.8083 20.0824 14.7333 22.1658 14.7249ZM22.1658 13.9749C23.9491 13.9583 25.7158 14.0583 27.0908 14.3083C27.9816 14.4405 28.8437 14.7223 29.6408 15.1416L29.8491 15.4749C29.4991 15.0833 28.1824 14.7083 27.0074 14.5083C25.6408 14.2666 23.9491 14.1749 22.1658 14.1583C20.5057 14.1435 18.8473 14.2661 17.2074 14.5249C16.35 14.6444 15.5172 14.9004 14.7408 15.2833L14.9241 15.0083C15.4074 14.7583 16.1908 14.5249 17.1741 14.3333C18.8247 14.0711 20.4945 13.9484 22.1658 13.9666V13.9749ZM26.5324 23.6666C25.088 23.4165 23.623 23.3049 22.1574 23.3333C16.6991 23.3999 14.9408 24.4583 14.7241 24.7749L14.3074 24.1083C15.7074 23.1083 18.6741 22.5416 22.1908 22.5916C24.0158 22.6249 25.5908 22.7499 26.9074 23.0083L26.5324 23.6749" fill="#FFFF00"/>
<path d="M26.5324 23.6666C25.088 23.4165 23.623 23.3049 22.1574 23.3333C16.6991 23.3999 14.9408 24.4583 14.7241 24.7749L14.3074 24.1083C15.7074 23.1083 18.6741 22.5416 22.1908 22.5916C24.0158 22.6249 25.5908 22.7499 26.9074 23.0083L26.5324 23.6749M22.1658 14.7249C23.8757 14.6961 25.5849 14.816 27.2741 15.0833C28.6074 15.3333 29.8824 15.6999 30.0658 15.8999L30.2074 16.1499C29.7658 15.8666 28.6574 15.5416 27.2408 15.2749C25.8241 15.0083 24.0158 14.9166 22.1574 14.9249C20.0491 14.9166 18.4074 15.0249 17.0074 15.2749C16.0423 15.4102 15.1053 15.7 14.2324 16.1333L14.3741 15.8749C14.8741 15.6249 15.6491 15.3166 16.9658 15.0749C18.4241 14.8083 20.0824 14.7333 22.1658 14.7249V14.7249ZM22.1658 13.9749C23.9491 13.9583 25.7158 14.0583 27.0908 14.3083C27.9816 14.4405 28.8437 14.7223 29.6408 15.1416L29.8491 15.4749C29.4991 15.0833 28.1824 14.7083 27.0074 14.5083C25.6408 14.2666 23.9491 14.1749 22.1658 14.1583C20.5057 14.1435 18.8473 14.2661 17.2074 14.5249C16.35 14.6444 15.5172 14.9004 14.7408 15.2833L14.9241 15.0083C15.4074 14.7583 16.1908 14.5249 17.1741 14.3333C18.8247 14.0711 20.4945 13.9484 22.1658 13.9666V13.9749Z" stroke="black" stroke-width="0.05" stroke-linecap="round" stroke-linejoin="round"/>
<path fill-rule="evenodd" clip-rule="evenodd" d="M22.1319 23.2418C23.6486 23.2668 25.1319 23.3251 26.5736 23.5918L26.4736 23.7751C25.1402 23.5251 23.7069 23.4418 22.1402 23.4418C20.1152 23.4251 18.0819 23.6168 16.3069 24.1251C15.7486 24.2834 14.8236 24.6418 14.7236 24.9418L14.6236 24.7751C14.6569 24.5918 15.2069 24.2251 16.2569 23.9418C18.2902 23.3584 20.1902 23.2501 22.1319 23.2418ZM22.1986 22.4751C23.7994 22.4735 25.3972 22.6129 26.9736 22.8918L26.8652 23.0834C25.326 22.8011 23.7635 22.6644 22.1986 22.6751C20.1819 22.6751 18.0402 22.8251 16.0902 23.3918C15.4652 23.5751 14.3736 23.9751 14.3402 24.2834L14.2402 24.1001C14.2569 23.8168 15.1986 23.4418 16.0486 23.2001C18.0069 22.6251 20.1569 22.4834 22.1986 22.4751Z" fill="#FFFF00" stroke="black" stroke-width="0.05" stroke-linecap="round" stroke-linejoin="round"/>
<path fill-rule="evenodd" clip-rule="evenodd" d="M29.9484 24.2082L29.2984 25.2332L27.4068 23.5582L22.5234 20.2666L17.0068 17.2416L14.1484 16.2666L14.7568 15.1332L14.9651 15.0249L16.7401 15.4666L22.6068 18.4916L25.9901 20.6249L28.8318 22.6666L29.9901 23.9999L29.9484 24.2082Z" fill="#FFFF00" stroke="black" stroke-width="0.05" stroke-linecap="round" stroke-linejoin="round"/>
<path fill-rule="evenodd" clip-rule="evenodd" d="M14.0478 16.2916C14.5478 15.9583 18.2311 17.5916 22.0978 19.925C25.9395 22.2583 29.6228 24.8916 29.2895 25.3833L29.1811 25.5583L29.1311 25.6C29.1395 25.5916 29.1978 25.5166 29.1311 25.3416C28.9645 24.8 26.3478 22.7166 22.0228 20.1C17.7978 17.5916 14.2811 16.075 13.9395 16.5083L14.0478 16.2916ZM30.0811 24.2C30.3978 23.5666 26.9811 20.9916 22.7395 18.4833C18.4061 16.025 15.2728 14.575 14.6978 15.0083L14.5811 15.25C14.5811 15.2583 14.5811 15.2333 14.6145 15.2083C14.7145 15.125 14.8895 15.125 14.9645 15.125C15.9478 15.1416 18.7561 16.4333 22.6978 18.6916C24.4311 19.6916 29.9978 23.275 29.9728 24.275C29.9728 24.3583 29.9811 24.375 29.9478 24.425L30.0895 24.2083L30.0811 24.2Z" fill="#FFFF00" stroke="black" stroke-width="0.05" stroke-linecap="round" stroke-linejoin="round"/>
<path d="M16.8848 20.9806C16.8861 21.6706 17.0242 22.3535 17.2913 22.9897C17.5583 23.626 17.9488 24.2029 18.4403 24.6872C18.9258 25.1802 19.5041 25.5722 20.1418 25.8407C20.7795 26.1092 21.464 26.2489 22.1559 26.2517C23.5562 26.2516 24.8991 25.6952 25.8892 24.705C26.379 24.218 26.7678 23.6391 27.0332 23.0015C27.2986 22.3639 27.4355 21.6801 27.4359 20.9894V13.9494L16.8848 13.9316V20.9806Z" fill="white" stroke="black" stroke-width="0.0622224"/>
<path d="M17.0801 20.9895C17.082 21.6514 17.2149 22.3064 17.4712 22.9166C17.7275 23.5269 18.1021 24.0804 18.5734 24.5451C19.5198 25.4964 20.8049 26.0335 22.1468 26.0384C23.4863 26.0392 24.7714 25.5085 25.7201 24.5629C26.1898 24.0974 26.5628 23.5436 26.8175 22.9334C27.0723 22.3232 27.2038 21.6686 27.2046 21.0073V14.1628H17.0979V20.9895M25.1868 16.2162V20.5629L25.1779 21.0162C25.1809 21.4133 25.1037 21.8069 24.951 22.1735C24.7982 22.5401 24.5731 22.872 24.289 23.1495C23.7237 23.7168 22.9564 24.0365 22.1556 24.0384C21.3201 24.0384 20.5823 23.6829 20.0312 23.1318C19.464 22.5665 19.1443 21.7992 19.1423 20.9984V16.1984L25.1868 16.2162Z" fill="#FF0000"/>
<path d="M17.0801 20.9895C17.082 21.6514 17.2149 22.3064 17.4712 22.9166C17.7275 23.5269 18.1021 24.0804 18.5734 24.5451C19.5198 25.4964 20.8049 26.0335 22.1468 26.0384C23.4863 26.0392 24.7714 25.5085 25.7201 24.5629C26.1898 24.0974 26.5628 23.5436 26.8175 22.9334C27.0723 22.3232 27.2038 21.6686 27.2046 21.0073V14.1628H17.0979V20.9895M25.1868 16.2162V20.5629L25.1779 21.0162C25.1809 21.4133 25.1037 21.8069 24.951 22.1735C24.7982 22.5401 24.5731 22.872 24.289 23.1495C23.7237 23.7168 22.9564 24.0365 22.1556 24.0384C21.3201 24.0384 20.5823 23.6829 20.0312 23.1318C19.464 22.5665 19.1443 21.7992 19.1423 20.9984V16.1984L25.1868 16.2162Z" stroke="black" stroke-width="0.0444446"/>
<path d="M17.7383 15.9494C17.7472 15.4605 18.0938 15.345 18.0938 15.345C18.1027 15.345 18.4761 15.4694 18.4761 15.9583H17.7383" fill="#FFFF00"/>
<path d="M17.4352 15.3539L17.373 15.9139H17.7463C17.7463 15.4516 18.1019 15.3805 18.1019 15.3805C18.1107 15.3805 18.4574 15.4783 18.4663 15.9139H18.8396L18.7685 15.345H17.4352V15.3539ZM17.3463 15.9228H18.8574C18.8841 15.9228 18.9108 15.9494 18.9108 15.985C18.9108 16.0294 18.8841 16.0561 18.8574 16.0561H17.3463C17.3196 16.0561 17.293 16.0294 17.293 15.985C17.293 15.9494 17.3196 15.9228 17.3552 15.9228H17.3463Z" fill="#FFFF00" stroke="black" stroke-width="0.0444446"/>
<path d="M17.897 15.9139C17.897 15.6206 18.1015 15.5406 18.1015 15.5406C18.1015 15.5406 18.3059 15.6295 18.3059 15.9139H17.897ZM17.3815 15.1139H18.8304C18.857 15.1139 18.8837 15.1495 18.8837 15.185C18.8837 15.2117 18.857 15.2384 18.8304 15.2384H17.3815C17.3548 15.2384 17.3281 15.2117 17.3281 15.1761C17.3281 15.1495 17.3548 15.1228 17.3815 15.1228V15.1139ZM17.417 15.2473H18.7859C18.8126 15.2473 18.8392 15.2739 18.8392 15.3095C18.8392 15.345 18.8126 15.3717 18.7859 15.3717H17.4081C17.3726 15.3717 17.3548 15.345 17.3548 15.3095C17.3548 15.2739 17.3726 15.2473 17.4081 15.2473H17.417ZM17.8615 14.305H17.9681V14.3761H18.0481V14.305H18.1637V14.385H18.2437V14.2961H18.3504V14.4739C18.3504 14.5095 18.3326 14.5273 18.3059 14.5273H17.9148C17.8881 14.5273 17.8615 14.5095 17.8615 14.4828V14.305ZM18.2703 14.545L18.297 15.1139H17.9148L17.9415 14.5361H18.2703" fill="#FFFF00"/>
<path d="M18.2703 14.545L18.297 15.1139H17.9148L17.9415 14.5361H18.2703M17.897 15.9139C17.897 15.6206 18.1015 15.5406 18.1015 15.5406C18.1015 15.5406 18.3059 15.6295 18.3059 15.9139H17.897ZM17.3815 15.1139H18.8304C18.857 15.1139 18.8837 15.1495 18.8837 15.185C18.8837 15.2117 18.857 15.2384 18.8304 15.2384H17.3815C17.3548 15.2384 17.3281 15.2117 17.3281 15.1761C17.3281 15.1495 17.3548 15.1228 17.3815 15.1228V15.1139ZM17.417 15.2473H18.7859C18.8126 15.2473 18.8392 15.2739 18.8392 15.3095C18.8392 15.345 18.8126 15.3717 18.7859 15.3717H17.4081C17.3726 15.3717 17.3548 15.345 17.3548 15.3095C17.3548 15.2739 17.3726 15.2473 17.4081 15.2473H17.417ZM17.8615 14.305H17.9681V14.3761H18.0481V14.305H18.1637V14.385H18.2437V14.2961H18.3504V14.4739C18.3504 14.5095 18.3326 14.5273 18.3059 14.5273H17.9148C17.8881 14.5273 17.8615 14.5095 17.8615 14.4828V14.305Z" stroke="black" stroke-width="0.0444446"/>
<path d="M17.8087 14.8118V15.114H17.4531V14.8118H17.8087Z" fill="#FFFF00" stroke="black" stroke-width="0.0444446"/>
<path d="M18.7501 14.8118V15.114H18.3945V14.8118H18.7501Z" fill="#FFFF00" stroke="black" stroke-width="0.0444446"/>
<path d="M17.3906 14.5806H17.4973V14.6695H17.5773V14.5806H17.684V14.6695H17.764V14.5806H17.8706V14.7583C17.8706 14.7939 17.8528 14.8117 17.8262 14.8117H17.444C17.4298 14.8117 17.4162 14.8061 17.4062 14.7961C17.3962 14.7861 17.3906 14.7725 17.3906 14.7583V14.5806Z" fill="#FFFF00" stroke="black" stroke-width="0.0444446"/>
<path d="M18.332 14.5806H18.4387V14.6695H18.5187V14.5806H18.6254V14.6695H18.7054V14.5806H18.812V14.7583C18.812 14.7939 18.7943 14.8117 18.7676 14.8117H18.3854C18.3712 14.8117 18.3577 14.8061 18.3477 14.7961C18.3377 14.7861 18.332 14.7725 18.332 14.7583V14.5806Z" fill="#FFFF00" stroke="black" stroke-width="0.0444446"/>
<path d="M18.0664 14.7229C18.0664 14.6695 18.1464 14.6695 18.1464 14.7229V14.8651H18.0664V14.7229Z" fill="black"/>
<path d="M17.5957 14.9184C17.5957 14.8651 17.6668 14.8651 17.6668 14.9184V15.0251H17.5957V14.9184Z" fill="black"/>
<path d="M18.5371 14.9184C18.5371 14.8651 18.6082 14.8651 18.6082 14.9184V15.0251H18.5371V14.9184Z" fill="black"/>
<path d="M17.7383 20.0649C17.7472 19.576 18.0938 19.4604 18.0938 19.4604C18.1027 19.4604 18.4761 19.5849 18.4761 20.0738H17.7383" fill="#FFFF00"/>
<path d="M17.4352 19.4693L17.373 20.0293H17.7463C17.7463 19.5671 18.1019 19.496 18.1019 19.496C18.1107 19.496 18.4574 19.5938 18.4663 20.0293H18.8396L18.7685 19.4604H17.4352V19.4693ZM17.3463 20.0382H18.8574C18.8841 20.0382 18.9108 20.0649 18.9108 20.1005C18.9108 20.1449 18.8841 20.1716 18.8574 20.1716H17.3463C17.3196 20.1716 17.293 20.1449 17.293 20.1005C17.293 20.0649 17.3196 20.0382 17.3552 20.0382H17.3463Z" fill="#FFFF00" stroke="black" stroke-width="0.0444446"/>
<path d="M17.897 20.0294C17.897 19.7361 18.1015 19.6561 18.1015 19.6561C18.1015 19.6561 18.3059 19.745 18.3059 20.0294H17.897ZM17.3815 19.2294H18.8304C18.857 19.2294 18.8837 19.265 18.8837 19.3005C18.8837 19.3272 18.857 19.3538 18.8304 19.3538H17.3815C17.3548 19.3538 17.3281 19.3272 17.3281 19.2916C17.3281 19.265 17.3548 19.2383 17.3815 19.2383V19.2294ZM17.417 19.3627H18.7859C18.8126 19.3627 18.8392 19.3894 18.8392 19.425C18.8392 19.4605 18.8126 19.4872 18.7859 19.4872H17.4081C17.3726 19.4872 17.3548 19.4605 17.3548 19.425C17.3548 19.3894 17.3726 19.3627 17.4081 19.3627H17.417ZM17.8615 18.4205H17.9681V18.4916H18.0481V18.4205H18.1637V18.5005H18.2437V18.4116H18.3504V18.5894C18.3504 18.625 18.3326 18.6427 18.3059 18.6427H17.9148C17.8881 18.6427 17.8615 18.625 17.8615 18.5983V18.4205ZM18.2703 18.6605L18.297 19.2294H17.9148L17.9415 18.6516H18.2703" fill="#FFFF00"/>
<path d="M18.2703 18.6605L18.297 19.2294H17.9148L17.9415 18.6516H18.2703M17.897 20.0294C17.897 19.7361 18.1015 19.6561 18.1015 19.6561C18.1015 19.6561 18.3059 19.745 18.3059 20.0294H17.897ZM17.3815 19.2294H18.8304C18.857 19.2294 18.8837 19.265 18.8837 19.3005C18.8837 19.3272 18.857 19.3538 18.8304 19.3538H17.3815C17.3548 19.3538 17.3281 19.3272 17.3281 19.2916C17.3281 19.265 17.3548 19.2383 17.3815 19.2383V19.2294ZM17.417 19.3627H18.7859C18.8126 19.3627 18.8392 19.3894 18.8392 19.425C18.8392 19.4605 18.8126 19.4872 18.7859 19.4872H17.4081C17.3726 19.4872 17.3548 19.4605 17.3548 19.425C17.3548 19.3894 17.3726 19.3627 17.4081 19.3627H17.417ZM17.8615 18.4205H17.9681V18.4916H18.0481V18.4205H18.1637V18.5005H18.2437V18.4116H18.3504V18.5894C18.3504 18.625 18.3326 18.6427 18.3059 18.6427H17.9148C17.8881 18.6427 17.8615 18.625 17.8615 18.5983V18.4205Z" stroke="black" stroke-width="0.0444446"/>
<path d="M17.8087 18.9272V19.2295H17.4531V18.9272H17.8087Z" fill="#FFFF00" stroke="black" stroke-width="0.0444446"/>
<path d="M18.7501 18.9272V19.2295H18.3945V18.9272H18.7501Z" fill="#FFFF00" stroke="black" stroke-width="0.0444446"/>
<path d="M17.3906 18.696H17.4973V18.7849H17.5773V18.696H17.684V18.7849H17.764V18.696H17.8706V18.8738C17.8706 18.9094 17.8528 18.9272 17.8262 18.9272H17.444C17.4298 18.9272 17.4162 18.9215 17.4062 18.9115C17.3962 18.9015 17.3906 18.888 17.3906 18.8738V18.696Z" fill="#FFFF00" stroke="black" stroke-width="0.0444446"/>
<path d="M18.332 18.696H18.4387V18.7849H18.5187V18.696H18.6254V18.7849H18.7054V18.696H18.812V18.8738C18.812 18.9094 18.7943 18.9272 18.7676 18.9272H18.3854C18.3712 18.9272 18.3577 18.9215 18.3477 18.9115C18.3377 18.9015 18.332 18.888 18.332 18.8738V18.696Z" fill="#FFFF00" stroke="black" stroke-width="0.0444446"/>
<path d="M18.0664 18.8383C18.0664 18.785 18.1464 18.785 18.1464 18.8383V18.9806H18.0664V18.8383Z" fill="black"/>
<path d="M17.5957 19.0337C17.5957 18.9803 17.6668 18.9803 17.6668 19.0337V19.1403H17.5957V19.0337Z" fill="black"/>
<path d="M18.5371 19.0339C18.5371 18.9806 18.6082 18.9806 18.6082 19.0339V19.1406H18.5371V19.0339Z" fill="black"/>
<path d="M19.341 24.3546C19.0004 24.0038 19.1626 23.6764 19.1626 23.6764C19.1689 23.6701 19.5203 23.4929 19.8672 23.8374L19.3473 24.3609" fill="#FFFF00"/>
<path d="M18.7061 24.1495L19.0596 24.5882L19.3227 24.3233C18.9947 23.9976 19.1948 23.6952 19.1948 23.6952C19.2011 23.6889 19.5147 23.5118 19.8301 23.8124L20.0931 23.5475L19.6393 23.1971L18.6998 24.1432L18.7061 24.1495ZM19.0472 24.6134L20.1119 23.5412C20.1307 23.5223 20.1685 23.5221 20.1937 23.5472C20.2252 23.5785 20.2253 23.6162 20.2066 23.6351L19.1418 24.7074C19.123 24.7263 19.0853 24.7264 19.0537 24.6951C19.0285 24.6701 19.0284 24.6323 19.0534 24.6071L19.0472 24.6134Z" fill="#FFFF00" stroke="black" stroke-width="0.0444446"/>
<path d="M19.4297 24.216C19.2215 24.0093 19.3088 23.8079 19.3088 23.8079C19.3088 23.8079 19.5159 23.7254 19.7178 23.9259L19.4297 24.216ZM18.4987 24.0181L19.5197 22.99C19.5384 22.9711 19.5825 22.9772 19.6077 23.0023C19.6266 23.0211 19.6267 23.0588 19.608 23.0777L18.587 24.1058C18.5682 24.1247 18.5305 24.1249 18.5053 24.0998C18.4864 24.081 18.4862 24.0433 18.505 24.0244L18.4987 24.0181ZM18.6184 24.0869L19.5829 23.1155C19.6017 23.0966 19.6394 23.0965 19.6647 23.1215C19.6899 23.1466 19.69 23.1843 19.6712 23.2032L18.7004 24.1808C18.6754 24.2061 18.6439 24.1999 18.6187 24.1748C18.5935 24.1498 18.5871 24.1184 18.6121 24.0932L18.6184 24.0869ZM18.263 23.1076L18.3381 23.0319L18.3886 23.082L18.445 23.0252L18.3945 22.9751L18.4759 22.8931L18.5327 22.9495L18.5891 22.8927L18.526 22.8301L18.6012 22.7544L18.7273 22.8797C18.7525 22.9047 18.7526 22.9299 18.7338 22.9488L18.4582 23.2263C18.4394 23.2452 18.408 23.2516 18.3891 23.2328L18.263 23.1076ZM18.7214 22.9865L19.1438 23.3685L18.8745 23.6397L18.4833 23.2136L18.7151 22.9803" fill="#FFFF00"/>
<path d="M18.7214 22.9865L19.1438 23.3685L18.8745 23.6397L18.4833 23.2136L18.7151 22.9803M19.4297 24.216C19.2215 24.0093 19.3088 23.8079 19.3088 23.8079C19.3088 23.8079 19.5159 23.7254 19.7178 23.9259L19.4297 24.216ZM18.4987 24.0181L19.5197 22.99C19.5384 22.9711 19.5825 22.9772 19.6077 23.0023C19.6266 23.0211 19.6267 23.0588 19.608 23.0777L18.587 24.1058C18.5682 24.1247 18.5305 24.1249 18.5053 24.0998C18.4864 24.081 18.4862 24.0433 18.505 24.0244L18.4987 24.0181ZM18.6184 24.0869L19.5829 23.1155C19.6017 23.0966 19.6394 23.0965 19.6647 23.1215C19.6899 23.1466 19.69 23.1843 19.6712 23.2032L18.7004 24.1808C18.6754 24.2061 18.6439 24.1999 18.6187 24.1748C18.5935 24.1498 18.5871 24.1184 18.6121 24.0932L18.6184 24.0869ZM18.263 23.1076L18.3381 23.0319L18.3886 23.082L18.445 23.0252L18.3945 22.9751L18.4759 22.8931L18.5327 22.9495L18.5891 22.8927L18.526 22.8301L18.6012 22.7544L18.7273 22.8797C18.7525 22.9047 18.7526 22.9299 18.7338 22.9488L18.4582 23.2263C18.4394 23.2452 18.408 23.2516 18.3891 23.2328L18.263 23.1076Z" stroke="black" stroke-width="0.0444446"/>
<path d="M18.5845 23.5023L18.799 23.7153L18.5484 23.9676L18.334 23.7546L18.5845 23.5023Z" fill="#FFFF00" stroke="black" stroke-width="0.0444446"/>
<path d="M19.2486 22.8336L19.463 23.0466L19.2125 23.2989L18.998 23.0859L19.2486 22.8336Z" fill="#FFFF00" stroke="black" stroke-width="0.0444446"/>
<path d="M18.127 23.636L18.2021 23.5603L18.2652 23.6229L18.3216 23.5662L18.2585 23.5035L18.3336 23.4278L18.3967 23.4905L18.4531 23.4337L18.39 23.3711L18.4652 23.2954L18.5913 23.4207C18.6166 23.4457 18.6166 23.4709 18.5979 23.4898L18.3285 23.761C18.3186 23.771 18.305 23.7767 18.2909 23.7767C18.2767 23.7768 18.2631 23.7712 18.2531 23.7613L18.127 23.636Z" fill="#FFFF00" stroke="black" stroke-width="0.0444446"/>
<path d="M18.791 22.9673L18.8662 22.8916L18.9292 22.9542L18.9856 22.8975L18.9225 22.8348L18.9977 22.7591L19.0608 22.8218L19.1172 22.765L19.0541 22.7024L19.1292 22.6267L19.2554 22.752C19.2806 22.777 19.2807 22.8022 19.2619 22.8211L18.9926 23.0923C18.9826 23.1023 18.9691 23.108 18.9549 23.108C18.9408 23.1081 18.9272 23.1025 18.9172 23.0926L18.791 22.9673Z" fill="#FFFF00" stroke="black" stroke-width="0.0444446"/>
<path d="M18.7022 23.2567C18.6644 23.2191 18.7207 23.1624 18.7586 23.1999L18.8595 23.3001L18.8031 23.3569L18.7022 23.2567Z" fill="black"/>
<path d="M18.5108 23.7289C18.473 23.6913 18.5231 23.6408 18.5609 23.6784L18.6366 23.7536L18.5865 23.804L18.5108 23.7289Z" fill="black"/>
<path d="M19.1749 23.0602C19.137 23.0226 19.1871 22.9721 19.225 23.0097L19.3007 23.0849L19.2506 23.1353L19.1749 23.0602Z" fill="black"/>
<path d="M21.8008 15.9494C21.8097 15.4605 22.1563 15.345 22.1563 15.345C22.1652 15.345 22.5386 15.4694 22.5386 15.9583H21.8008" fill="#FFFF00"/>
<path d="M21.4977 15.3539L21.4355 15.9139H21.8088C21.8088 15.4516 22.1644 15.3805 22.1644 15.3805C22.1732 15.3805 22.5199 15.4783 22.5288 15.9139H22.9021L22.831 15.345H21.4977V15.3539ZM21.4088 15.9228H22.9199C22.9466 15.9228 22.9733 15.9494 22.9733 15.985C22.9733 16.0294 22.9466 16.0561 22.9199 16.0561H21.4088C21.3821 16.0561 21.3555 16.0294 21.3555 15.985C21.3555 15.9494 21.3821 15.9228 21.4177 15.9228H21.4088Z" fill="#FFFF00" stroke="black" stroke-width="0.0444446"/>
<path d="M21.9595 15.9139C21.9595 15.6206 22.164 15.5406 22.164 15.5406C22.164 15.5406 22.3684 15.6295 22.3684 15.9139H21.9595ZM21.444 15.1139H22.8929C22.9195 15.1139 22.9462 15.1495 22.9462 15.185C22.9462 15.2117 22.9195 15.2384 22.8929 15.2384H21.444C21.4173 15.2384 21.3906 15.2117 21.3906 15.1761C21.3906 15.1495 21.4173 15.1228 21.444 15.1228V15.1139ZM21.4795 15.2473H22.8484C22.8751 15.2473 22.9017 15.2739 22.9017 15.3095C22.9017 15.345 22.8751 15.3717 22.8484 15.3717H21.4706C21.4351 15.3717 21.4173 15.345 21.4173 15.3095C21.4173 15.2739 21.4351 15.2473 21.4706 15.2473H21.4795ZM21.924 14.305H22.0306V14.3761H22.1106V14.305H22.2262V14.385H22.3062V14.2961H22.4129V14.4739C22.4129 14.5095 22.3951 14.5273 22.3684 14.5273H21.9773C21.9506 14.5273 21.924 14.5095 21.924 14.4828V14.305ZM22.3328 14.545L22.3595 15.1139H21.9773L22.004 14.5361H22.3328" fill="#FFFF00"/>
<path d="M22.3328 14.545L22.3595 15.1139H21.9773L22.004 14.5361H22.3328M21.9595 15.9139C21.9595 15.6206 22.164 15.5406 22.164 15.5406C22.164 15.5406 22.3684 15.6295 22.3684 15.9139H21.9595ZM21.444 15.1139H22.8929C22.9195 15.1139 22.9462 15.1495 22.9462 15.185C22.9462 15.2117 22.9195 15.2384 22.8929 15.2384H21.444C21.4173 15.2384 21.3906 15.2117 21.3906 15.1761C21.3906 15.1495 21.4173 15.1228 21.444 15.1228V15.1139ZM21.4795 15.2473H22.8484C22.8751 15.2473 22.9017 15.2739 22.9017 15.3095C22.9017 15.345 22.8751 15.3717 22.8484 15.3717H21.4706C21.4351 15.3717 21.4173 15.345 21.4173 15.3095C21.4173 15.2739 21.4351 15.2473 21.4706 15.2473H21.4795ZM21.924 14.305H22.0306V14.3761H22.1106V14.305H22.2262V14.385H22.3062V14.2961H22.4129V14.4739C22.4129 14.5095 22.3951 14.5273 22.3684 14.5273H21.9773C21.9506 14.5273 21.924 14.5095 21.924 14.4828V14.305Z" stroke="black" stroke-width="0.0444446"/>
<path d="M21.8712 14.8118V15.114H21.5156V14.8118H21.8712Z" fill="#FFFF00" stroke="black" stroke-width="0.0444446"/>
<path d="M22.8126 14.8118V15.114H22.457V14.8118H22.8126Z" fill="#FFFF00" stroke="black" stroke-width="0.0444446"/>
<path d="M21.4531 14.5806H21.5598V14.6695H21.6398V14.5806H21.7465V14.6695H21.8265V14.5806H21.9331V14.7583C21.9331 14.7939 21.9153 14.8117 21.8887 14.8117H21.5065C21.4923 14.8117 21.4787 14.8061 21.4687 14.7961C21.4587 14.7861 21.4531 14.7725 21.4531 14.7583V14.5806Z" fill="#FFFF00" stroke="black" stroke-width="0.0444446"/>
<path d="M22.3965 14.5806H22.5032V14.6695H22.5832V14.5806H22.6898V14.6695H22.7698V14.5806H22.8765V14.7583C22.8765 14.7939 22.8587 14.8117 22.832 14.8117H22.4498C22.4357 14.8117 22.4221 14.8061 22.4121 14.7961C22.4021 14.7861 22.3965 14.7725 22.3965 14.7583V14.5806Z" fill="#FFFF00" stroke="black" stroke-width="0.0444446"/>
<path d="M22.1289 14.7229C22.1289 14.6695 22.2089 14.6695 22.2089 14.7229V14.8651H22.1289V14.7229Z" fill="black"/>
<path d="M21.6582 14.9184C21.6582 14.8651 21.7293 14.8651 21.7293 14.9184V15.0251H21.6582V14.9184Z" fill="black"/>
<path d="M22.5996 14.9184C22.5996 14.8651 22.6707 14.8651 22.6707 14.9184V15.0251H22.5996V14.9184Z" fill="black"/>
<path d="M26.5723 15.9494C26.5634 15.4605 26.2167 15.345 26.2167 15.345C26.2078 15.345 25.8345 15.4694 25.8345 15.9583H26.5723" fill="#FFFF00"/>
<path d="M26.8754 15.3539L26.9376 15.9139H26.5642C26.5642 15.4516 26.2087 15.3805 26.2087 15.3805C26.1998 15.3805 25.8531 15.4783 25.8442 15.9139H25.4709L25.542 15.345H26.8754V15.3539ZM26.9642 15.9228H25.4531C25.4265 15.9228 25.3998 15.9494 25.3998 15.985C25.3998 16.0294 25.4265 16.0561 25.4531 16.0561H26.9642C26.9909 16.0561 27.0176 16.0294 27.0176 15.985C27.0176 15.9494 26.9909 15.9228 26.9554 15.9228H26.9642Z" fill="#FFFF00" stroke="black" stroke-width="0.0444446"/>
<path d="M26.4135 15.9139C26.4135 15.6206 26.2091 15.5406 26.2091 15.5406C26.2091 15.5406 26.0046 15.6295 26.0046 15.9139H26.4135ZM26.9291 15.1139H25.4802C25.4535 15.1139 25.4269 15.1495 25.4269 15.185C25.4269 15.2117 25.4535 15.2384 25.4802 15.2384H26.9291C26.9558 15.2384 26.9824 15.2117 26.9824 15.1761C26.9824 15.1495 26.9558 15.1228 26.9291 15.1228V15.1139ZM26.8935 15.2473H25.5246C25.498 15.2473 25.4713 15.2739 25.4713 15.3095C25.4713 15.345 25.498 15.3717 25.5246 15.3717H26.9024C26.938 15.3717 26.9558 15.345 26.9558 15.3095C26.9558 15.2739 26.938 15.2473 26.9024 15.2473H26.8935ZM26.4491 14.305H26.3424V14.3761H26.2624V14.305H26.1469V14.385H26.0669V14.2961H25.9602V14.4739C25.9602 14.5095 25.978 14.5273 26.0046 14.5273H26.3958C26.4224 14.5273 26.4491 14.5095 26.4491 14.4828V14.305ZM26.0402 14.545L26.0135 15.1139H26.3958L26.3691 14.5361H26.0402" fill="#FFFF00"/>
<path d="M26.0402 14.545L26.0135 15.1139H26.3958L26.3691 14.5361H26.0402M26.4135 15.9139C26.4135 15.6206 26.2091 15.5406 26.2091 15.5406C26.2091 15.5406 26.0046 15.6295 26.0046 15.9139H26.4135ZM26.9291 15.1139H25.4802C25.4535 15.1139 25.4269 15.1495 25.4269 15.185C25.4269 15.2117 25.4535 15.2384 25.4802 15.2384H26.9291C26.9558 15.2384 26.9824 15.2117 26.9824 15.1761C26.9824 15.1495 26.9558 15.1228 26.9291 15.1228V15.1139ZM26.8935 15.2473H25.5246C25.498 15.2473 25.4713 15.2739 25.4713 15.3095C25.4713 15.345 25.498 15.3717 25.5246 15.3717H26.9024C26.938 15.3717 26.9558 15.345 26.9558 15.3095C26.9558 15.2739 26.938 15.2473 26.9024 15.2473H26.8935ZM26.4491 14.305H26.3424V14.3761H26.2624V14.305H26.1469V14.385H26.0669V14.2961H25.9602V14.4739C25.9602 14.5095 25.978 14.5273 26.0046 14.5273H26.3958C26.4224 14.5273 26.4491 14.5095 26.4491 14.4828V14.305Z" stroke="black" stroke-width="0.0444446"/>
<path d="M26.5019 14.8118V15.114H26.8574V14.8118H26.5019Z" fill="#FFFF00" stroke="black" stroke-width="0.0444446"/>
<path d="M25.5605 14.8118V15.114H25.916V14.8118H25.5605Z" fill="#FFFF00" stroke="black" stroke-width="0.0444446"/>
<path d="M26.9199 14.5806H26.8133V14.6695H26.7333V14.5806H26.6266V14.6695H26.5466V14.5806H26.4399V14.7583C26.4399 14.7939 26.4577 14.8117 26.4844 14.8117H26.8666C26.8807 14.8117 26.8943 14.8061 26.9043 14.7961C26.9143 14.7861 26.9199 14.7725 26.9199 14.7583V14.5806Z" fill="#FFFF00" stroke="black" stroke-width="0.0444446"/>
<path d="M25.9766 14.5806H25.8699V14.6695H25.7899V14.5806H25.6832V14.6695H25.6032V14.5806H25.4966V14.7583C25.4966 14.7939 25.5143 14.8117 25.541 14.8117H25.9232C25.9374 14.8117 25.9509 14.8061 25.9609 14.7961C25.9709 14.7861 25.9766 14.7725 25.9766 14.7583V14.5806Z" fill="#FFFF00" stroke="black" stroke-width="0.0444446"/>
<path d="M26.2441 14.7229C26.2441 14.6695 26.1641 14.6695 26.1641 14.7229V14.8651H26.2441V14.7229Z" fill="black"/>
<path d="M26.7148 14.9184C26.7148 14.8651 26.6437 14.8651 26.6437 14.9184V15.0251H26.7148V14.9184Z" fill="black"/>
<path d="M25.7734 14.9184C25.7734 14.8651 25.7023 14.8651 25.7023 14.9184V15.0251H25.7734V14.9184Z" fill="black"/>
<path d="M26.5723 20.0649C26.5634 19.576 26.2167 19.4604 26.2167 19.4604C26.2078 19.4604 25.8345 19.5849 25.8345 20.0738H26.5723" fill="#FFFF00"/>
<path d="M26.8754 19.4693L26.9376 20.0293H26.5642C26.5642 19.5671 26.2087 19.496 26.2087 19.496C26.1998 19.496 25.8531 19.5938 25.8442 20.0293H25.4709L25.542 19.4604H26.8754V19.4693ZM26.9642 20.0382H25.4531C25.4265 20.0382 25.3998 20.0649 25.3998 20.1005C25.3998 20.1449 25.4265 20.1716 25.4531 20.1716H26.9642C26.9909 20.1716 27.0176 20.1449 27.0176 20.1005C27.0176 20.0649 26.9909 20.0382 26.9554 20.0382H26.9642Z" fill="#FFFF00" stroke="black" stroke-width="0.0444446"/>
<path d="M26.4135 20.0294C26.4135 19.7361 26.2091 19.6561 26.2091 19.6561C26.2091 19.6561 26.0046 19.745 26.0046 20.0294H26.4135ZM26.9291 19.2294H25.4802C25.4535 19.2294 25.4269 19.265 25.4269 19.3005C25.4269 19.3272 25.4535 19.3538 25.4802 19.3538H26.9291C26.9558 19.3538 26.9824 19.3272 26.9824 19.2916C26.9824 19.265 26.9558 19.2383 26.9291 19.2383V19.2294ZM26.8935 19.3627H25.5246C25.498 19.3627 25.4713 19.3894 25.4713 19.425C25.4713 19.4605 25.498 19.4872 25.5246 19.4872H26.9024C26.938 19.4872 26.9558 19.4605 26.9558 19.425C26.9558 19.3894 26.938 19.3627 26.9024 19.3627H26.8935ZM26.4491 18.4205H26.3424V18.4916H26.2624V18.4205H26.1469V18.5005H26.0669V18.4116H25.9602V18.5894C25.9602 18.625 25.978 18.6427 26.0046 18.6427H26.3958C26.4224 18.6427 26.4491 18.625 26.4491 18.5983V18.4205ZM26.0402 18.6605L26.0135 19.2294H26.3958L26.3691 18.6516H26.0402" fill="#FFFF00"/>
<path d="M26.0402 18.6605L26.0135 19.2294H26.3958L26.3691 18.6516H26.0402M26.4135 20.0294C26.4135 19.7361 26.2091 19.6561 26.2091 19.6561C26.2091 19.6561 26.0046 19.745 26.0046 20.0294H26.4135ZM26.9291 19.2294H25.4802C25.4535 19.2294 25.4269 19.265 25.4269 19.3005C25.4269 19.3272 25.4535 19.3538 25.4802 19.3538H26.9291C26.9558 19.3538 26.9824 19.3272 26.9824 19.2916C26.9824 19.265 26.9558 19.2383 26.9291 19.2383V19.2294ZM26.8935 19.3627H25.5246C25.498 19.3627 25.4713 19.3894 25.4713 19.425C25.4713 19.4605 25.498 19.4872 25.5246 19.4872H26.9024C26.938 19.4872 26.9558 19.4605 26.9558 19.425C26.9558 19.3894 26.938 19.3627 26.9024 19.3627H26.8935ZM26.4491 18.4205H26.3424V18.4916H26.2624V18.4205H26.1469V18.5005H26.0669V18.4116H25.9602V18.5894C25.9602 18.625 25.978 18.6427 26.0046 18.6427H26.3958C26.4224 18.6427 26.4491 18.625 26.4491 18.5983V18.4205Z" stroke="black" stroke-width="0.0444446"/>
<path d="M26.5019 18.9272V19.2295H26.8574V18.9272H26.5019Z" fill="#FFFF00" stroke="black" stroke-width="0.0444446"/>
<path d="M25.5605 18.9272V19.2295H25.916V18.9272H25.5605Z" fill="#FFFF00" stroke="black" stroke-width="0.0444446"/>
<path d="M26.9199 18.696H26.8133V18.7849H26.7333V18.696H26.6266V18.7849H26.5466V18.696H26.4399V18.8738C26.4399 18.9094 26.4577 18.9272 26.4844 18.9272H26.8666C26.8807 18.9272 26.8943 18.9215 26.9043 18.9115C26.9143 18.9015 26.9199 18.888 26.9199 18.8738V18.696Z" fill="#FFFF00" stroke="black" stroke-width="0.0444446"/>
<path d="M25.9766 18.696H25.8699V18.7849H25.7899V18.696H25.6832V18.7849H25.6032V18.696H25.4966V18.8738C25.4966 18.9094 25.5143 18.9272 25.541 18.9272H25.9232C25.9374 18.9272 25.9509 18.9215 25.9609 18.9115C25.9709 18.9015 25.9766 18.888 25.9766 18.8738V18.696Z" fill="#FFFF00" stroke="black" stroke-width="0.0444446"/>
<path d="M26.2441 18.8383C26.2441 18.785 26.1641 18.785 26.1641 18.8383V18.9806H26.2441V18.8383Z" fill="black"/>
<path d="M26.7148 19.0337C26.7148 18.9803 26.6437 18.9803 26.6437 19.0337V19.1403H26.7148V19.0337Z" fill="black"/>
<path d="M25.7734 19.0337C25.7734 18.9803 25.7023 18.9803 25.7023 19.0337V19.1403H25.7734V19.0337Z" fill="black"/>
<path d="M24.9695 24.3544C25.3102 24.0036 25.1479 23.6762 25.1479 23.6762C25.1416 23.6699 24.7903 23.4926 24.4434 23.8371L24.9632 24.3606" fill="#FFFF00"/>
<path d="M25.6044 24.149L25.2509 24.5877L24.9878 24.3228C25.3158 23.9971 25.1157 23.6947 25.1157 23.6947C25.1095 23.6884 24.7958 23.5113 24.4805 23.8119L24.2174 23.547L24.6712 23.1966L25.6107 24.1427L25.6044 24.149ZM25.2634 24.6129L24.1986 23.5407C24.1798 23.5218 24.1421 23.5216 24.1169 23.5467C24.0853 23.578 24.0852 23.6157 24.104 23.6346L25.1688 24.7069C25.1876 24.7258 25.2253 24.7259 25.2568 24.6946C25.282 24.6696 25.2822 24.6319 25.2571 24.6066L25.2634 24.6129Z" fill="#FFFF00" stroke="black" stroke-width="0.0444446"/>
<path d="M24.8809 24.2158C25.089 24.0091 25.0017 23.8076 25.0017 23.8076C25.0017 23.8076 24.7946 23.7252 24.5928 23.9256L24.8809 24.2158ZM25.8118 24.0179L24.7909 22.9898C24.7721 22.9709 24.7281 22.977 24.7029 23.0021C24.6839 23.0208 24.6838 23.0586 24.7026 23.0775L25.7235 24.1056C25.7423 24.1245 25.78 24.1246 25.8053 24.0996C25.8242 24.0808 25.8243 24.0431 25.8055 24.0241L25.8118 24.0179ZM25.6922 24.0866L24.7276 23.1153C24.7088 23.0964 24.6711 23.0962 24.6459 23.1213C24.6206 23.1463 24.6205 23.184 24.6393 23.203L25.6101 24.1806C25.6352 24.2058 25.6666 24.1997 25.6919 24.1746C25.7171 24.1495 25.7235 24.1181 25.6984 24.0929L25.6922 24.0866ZM26.0476 23.1073L25.9724 23.0316L25.922 23.0817L25.8656 23.025L25.916 22.9749L25.8346 22.8929L25.7779 22.9492L25.7215 22.8925L25.7846 22.8298L25.7094 22.7542L25.5832 22.8794C25.558 22.9045 25.5579 22.9296 25.5767 22.9485L25.8523 23.2261C25.8711 23.245 25.9025 23.2514 25.9214 23.2326L26.0476 23.1073ZM25.5892 22.9863L25.1667 23.3682L25.436 23.6394L25.8272 23.2134L25.5955 22.98" fill="#FFFF00"/>
<path d="M25.5892 22.9863L25.1667 23.3682L25.436 23.6394L25.8272 23.2134L25.5955 22.98M24.8809 24.2158C25.089 24.0091 25.0017 23.8076 25.0017 23.8076C25.0017 23.8076 24.7946 23.7252 24.5928 23.9256L24.8809 24.2158ZM25.8118 24.0179L24.7909 22.9898C24.7721 22.9709 24.7281 22.977 24.7029 23.0021C24.6839 23.0208 24.6838 23.0586 24.7026 23.0775L25.7235 24.1056C25.7423 24.1245 25.78 24.1246 25.8053 24.0996C25.8242 24.0808 25.8243 24.0431 25.8055 24.0241L25.8118 24.0179ZM25.6922 24.0866L24.7276 23.1153C24.7088 23.0964 24.6711 23.0962 24.6459 23.1213C24.6206 23.1463 24.6205 23.184 24.6393 23.203L25.6101 24.1806C25.6352 24.2058 25.6666 24.1997 25.6919 24.1746C25.7171 24.1495 25.7235 24.1181 25.6984 24.0929L25.6922 24.0866ZM26.0476 23.1073L25.9724 23.0316L25.922 23.0817L25.8656 23.025L25.916 22.9749L25.8346 22.8929L25.7779 22.9492L25.7215 22.8925L25.7846 22.8298L25.7094 22.7542L25.5832 22.8794C25.558 22.9045 25.5579 22.9296 25.5767 22.9485L25.8523 23.2261C25.8711 23.245 25.9025 23.2514 25.9214 23.2326L26.0476 23.1073Z" stroke="black" stroke-width="0.0444446"/>
<path d="M25.726 23.5021L25.5116 23.7151L25.7621 23.9674L25.9766 23.7544L25.726 23.5021Z" fill="#FFFF00" stroke="black" stroke-width="0.0444446"/>
<path d="M25.062 22.8334L24.8475 23.0464L25.0981 23.2986L25.3125 23.0857L25.062 22.8334Z" fill="#FFFF00" stroke="black" stroke-width="0.0444446"/>
<path d="M26.1836 23.6357L26.1084 23.5601L26.0454 23.6227L25.989 23.5659L26.0521 23.5033L25.9769 23.4276L25.9138 23.4902L25.8575 23.4335L25.9205 23.3708L25.8454 23.2951L25.7192 23.4204C25.694 23.4455 25.6939 23.4706 25.7127 23.4895L25.982 23.7607C25.992 23.7708 26.0055 23.7765 26.0197 23.7765C26.0338 23.7765 26.0474 23.771 26.0574 23.761L26.1836 23.6357Z" fill="#FFFF00" stroke="black" stroke-width="0.0444446"/>
<path d="M25.5195 22.967L25.4444 22.8914L25.3813 22.954L25.3249 22.8972L25.388 22.8346L25.3128 22.7589L25.2498 22.8215L25.1934 22.7648L25.2565 22.7021L25.1813 22.6264L25.0552 22.7517C25.0299 22.7768 25.0298 22.8019 25.0486 22.8208L25.318 23.092C25.3279 23.1021 25.3415 23.1078 25.3556 23.1078C25.3698 23.1078 25.3833 23.1023 25.3934 23.0923L25.5195 22.967Z" fill="#FFFF00" stroke="black" stroke-width="0.0444446"/>
<path d="M25.6083 23.2565C25.6462 23.2189 25.5898 23.1621 25.552 23.1997L25.451 23.2999L25.5074 23.3567L25.6083 23.2565Z" fill="black"/>
<path d="M25.7997 23.7286C25.8376 23.691 25.7875 23.6406 25.7496 23.6782L25.6739 23.7533L25.7241 23.8038L25.7997 23.7286Z" fill="black"/>
<path d="M25.1357 23.0599C25.1735 23.0223 25.1234 22.9719 25.0856 23.0095L25.0099 23.0846L25.06 23.1351L25.1357 23.0599Z" fill="black"/>
<path d="M21.5078 20.2161C21.5062 20.4037 21.5762 20.5849 21.7034 20.7228C21.7628 20.7892 21.8353 20.8424 21.9164 20.8791C21.9976 20.9159 22.0855 20.9353 22.1745 20.9361C22.3612 20.9361 22.5301 20.8472 22.6456 20.7228C22.7729 20.5849 22.8428 20.4037 22.8412 20.2161V19.2561H21.5078V20.2161Z" fill="#003399"/>
<path d="M21.8189 19.754C21.8925 19.754 21.9522 19.6943 21.9522 19.6206C21.9522 19.547 21.8925 19.4873 21.8189 19.4873C21.7452 19.4873 21.6855 19.547 21.6855 19.6206C21.6855 19.6943 21.7452 19.754 21.8189 19.754Z" fill="white"/>
<path d="M22.5572 19.754C22.6308 19.754 22.6905 19.6943 22.6905 19.6206C22.6905 19.547 22.6308 19.4873 22.5572 19.4873C22.4835 19.4873 22.4238 19.547 22.4238 19.6206C22.4238 19.6943 22.4835 19.754 22.5572 19.754Z" fill="white"/>
<path d="M22.1841 20.1094C22.2578 20.1094 22.3174 20.0497 22.3174 19.9761C22.3174 19.9025 22.2578 19.8428 22.1841 19.8428C22.1105 19.8428 22.0508 19.9025 22.0508 19.9761C22.0508 20.0497 22.1105 20.1094 22.1841 20.1094Z" fill="white"/>
<path d="M21.8189 20.4827C21.8925 20.4827 21.9522 20.423 21.9522 20.3494C21.9522 20.2758 21.8925 20.2161 21.8189 20.2161C21.7452 20.2161 21.6855 20.2758 21.6855 20.3494C21.6855 20.423 21.7452 20.4827 21.8189 20.4827Z" fill="white"/>
<path d="M22.5572 20.483C22.6308 20.483 22.6905 20.4233 22.6905 20.3496C22.6905 20.276 22.6308 20.2163 22.5572 20.2163C22.4835 20.2163 22.4238 20.276 22.4238 20.3496C22.4238 20.4233 22.4835 20.483 22.5572 20.483Z" fill="white"/>
<path d="M21.5078 17.9051C21.5062 18.0927 21.5762 18.2739 21.7034 18.4117C21.7628 18.4781 21.8353 18.5314 21.9164 18.5681C21.9976 18.6048 22.0855 18.6242 22.1745 18.6251C22.3612 18.6251 22.5301 18.5362 22.6456 18.4117C22.7729 18.2739 22.8428 18.0927 22.8412 17.9051V16.9451H21.5078V17.9051Z" fill="#003399"/>
<path d="M21.8189 17.4427C21.8925 17.4427 21.9522 17.383 21.9522 17.3094C21.9522 17.2357 21.8925 17.176 21.8189 17.176C21.7452 17.176 21.6855 17.2357 21.6855 17.3094C21.6855 17.383 21.7452 17.4427 21.8189 17.4427Z" fill="white"/>
<path d="M22.5572 17.4429C22.6308 17.4429 22.6905 17.3832 22.6905 17.3096C22.6905 17.236 22.6308 17.1763 22.5572 17.1763C22.4835 17.1763 22.4238 17.236 22.4238 17.3096C22.4238 17.3832 22.4835 17.4429 22.5572 17.4429Z" fill="white"/>
<path d="M22.1841 17.7984C22.2578 17.7984 22.3174 17.7387 22.3174 17.6651C22.3174 17.5914 22.2578 17.5317 22.1841 17.5317C22.1105 17.5317 22.0508 17.5914 22.0508 17.6651C22.0508 17.7387 22.1105 17.7984 22.1841 17.7984Z" fill="white"/>
<path d="M21.8189 18.1717C21.8925 18.1717 21.9522 18.112 21.9522 18.0384C21.9522 17.9647 21.8925 17.905 21.8189 17.905C21.7452 17.905 21.6855 17.9647 21.6855 18.0384C21.6855 18.112 21.7452 18.1717 21.8189 18.1717Z" fill="white"/>
<path d="M22.5572 18.1717C22.6308 18.1717 22.6905 18.112 22.6905 18.0384C22.6905 17.9647 22.6308 17.905 22.5572 17.905C22.4835 17.905 22.4238 17.9647 22.4238 18.0384C22.4238 18.112 22.4835 18.1717 22.5572 18.1717Z" fill="white"/>
<path d="M19.6582 20.2161C19.6566 20.4037 19.7265 20.5849 19.8538 20.7228C19.9131 20.7892 19.9857 20.8424 20.0668 20.8791C20.148 20.9159 20.2359 20.9353 20.3249 20.9361C20.5116 20.9361 20.6805 20.8472 20.796 20.7228C20.9232 20.5849 20.9932 20.4037 20.9916 20.2161V19.2561H19.6582V20.2161Z" fill="#003399"/>
<path d="M19.9693 19.754C20.0429 19.754 20.1026 19.6943 20.1026 19.6206C20.1026 19.547 20.0429 19.4873 19.9693 19.4873C19.8956 19.4873 19.8359 19.547 19.8359 19.6206C19.8359 19.6943 19.8956 19.754 19.9693 19.754Z" fill="white"/>
<path d="M20.7076 19.754C20.7812 19.754 20.8409 19.6943 20.8409 19.6206C20.8409 19.547 20.7812 19.4873 20.7076 19.4873C20.6339 19.4873 20.5742 19.547 20.5742 19.6206C20.5742 19.6943 20.6339 19.754 20.7076 19.754Z" fill="white"/>
<path d="M20.3345 20.1094C20.4081 20.1094 20.4678 20.0497 20.4678 19.9761C20.4678 19.9025 20.4081 19.8428 20.3345 19.8428C20.2609 19.8428 20.2012 19.9025 20.2012 19.9761C20.2012 20.0497 20.2609 20.1094 20.3345 20.1094Z" fill="white"/>
<path d="M19.9693 20.4827C20.0429 20.4827 20.1026 20.423 20.1026 20.3494C20.1026 20.2758 20.0429 20.2161 19.9693 20.2161C19.8956 20.2161 19.8359 20.2758 19.8359 20.3494C19.8359 20.423 19.8956 20.4827 19.9693 20.4827Z" fill="white"/>
<path d="M20.7076 20.483C20.7812 20.483 20.8409 20.4233 20.8409 20.3496C20.8409 20.276 20.7812 20.2163 20.7076 20.2163C20.6339 20.2163 20.5742 20.276 20.5742 20.3496C20.5742 20.4233 20.6339 20.483 20.7076 20.483Z" fill="white"/>
<path d="M23.3555 20.2161C23.3539 20.4037 23.4238 20.5849 23.5511 20.7228C23.6104 20.7892 23.683 20.8424 23.7641 20.8791C23.8452 20.9159 23.9331 20.9353 24.0222 20.9361C24.2088 20.9361 24.3777 20.8472 24.4933 20.7228C24.6205 20.5849 24.6904 20.4037 24.6888 20.2161V19.2561H23.3555V20.2161Z" fill="#003399"/>
<path d="M23.6665 19.754C23.7402 19.754 23.7999 19.6943 23.7999 19.6206C23.7999 19.547 23.7402 19.4873 23.6665 19.4873C23.5929 19.4873 23.5332 19.547 23.5332 19.6206C23.5332 19.6943 23.5929 19.754 23.6665 19.754Z" fill="white"/>
<path d="M24.4048 19.754C24.4785 19.754 24.5382 19.6943 24.5382 19.6206C24.5382 19.547 24.4785 19.4873 24.4048 19.4873C24.3312 19.4873 24.2715 19.547 24.2715 19.6206C24.2715 19.6943 24.3312 19.754 24.4048 19.754Z" fill="white"/>
<path d="M24.0318 20.1094C24.1054 20.1094 24.1651 20.0497 24.1651 19.9761C24.1651 19.9025 24.1054 19.8428 24.0318 19.8428C23.9581 19.8428 23.8984 19.9025 23.8984 19.9761C23.8984 20.0497 23.9581 20.1094 24.0318 20.1094Z" fill="white"/>
<path d="M23.6665 20.4827C23.7402 20.4827 23.7999 20.423 23.7999 20.3494C23.7999 20.2758 23.7402 20.2161 23.6665 20.2161C23.5929 20.2161 23.5332 20.2758 23.5332 20.3494C23.5332 20.423 23.5929 20.4827 23.6665 20.4827Z" fill="white"/>
<path d="M24.4048 20.483C24.4785 20.483 24.5382 20.4233 24.5382 20.3496C24.5382 20.276 24.4785 20.2163 24.4048 20.2163C24.3312 20.2163 24.2715 20.276 24.2715 20.3496C24.2715 20.4233 24.3312 20.483 24.4048 20.483Z" fill="white"/>
<path d="M21.5078 22.5096C21.5062 22.6972 21.5762 22.8784 21.7034 23.0162C21.7628 23.0826 21.8353 23.1359 21.9164 23.1726C21.9976 23.2093 22.0855 23.2287 22.1745 23.2296C22.3612 23.2296 22.5301 23.1407 22.6456 23.0162C22.7729 22.8784 22.8428 22.6972 22.8412 22.5096V21.5496H21.5078V22.5096Z" fill="#003399"/>
<path d="M21.8189 22.0472C21.8925 22.0472 21.9522 21.9875 21.9522 21.9139C21.9522 21.8402 21.8925 21.7805 21.8189 21.7805C21.7452 21.7805 21.6855 21.8402 21.6855 21.9139C21.6855 21.9875 21.7452 22.0472 21.8189 22.0472Z" fill="white"/>
<path d="M22.5572 22.0474C22.6308 22.0474 22.6905 21.9877 22.6905 21.9141C22.6905 21.8405 22.6308 21.7808 22.5572 21.7808C22.4835 21.7808 22.4238 21.8405 22.4238 21.9141C22.4238 21.9877 22.4835 22.0474 22.5572 22.0474Z" fill="white"/>
<path d="M22.1841 22.4029C22.2578 22.4029 22.3174 22.3432 22.3174 22.2696C22.3174 22.1959 22.2578 22.1362 22.1841 22.1362C22.1105 22.1362 22.0508 22.1959 22.0508 22.2696C22.0508 22.3432 22.1105 22.4029 22.1841 22.4029Z" fill="white"/>
<path d="M21.8189 22.7762C21.8925 22.7762 21.9522 22.7165 21.9522 22.6429C21.9522 22.5692 21.8925 22.5095 21.8189 22.5095C21.7452 22.5095 21.6855 22.5692 21.6855 22.6429C21.6855 22.7165 21.7452 22.7762 21.8189 22.7762Z" fill="white"/>
<path d="M22.5572 22.7762C22.6308 22.7762 22.6905 22.7165 22.6905 22.6429C22.6905 22.5692 22.6308 22.5095 22.5572 22.5095C22.4835 22.5095 22.4238 22.5692 22.4238 22.6429C22.4238 22.7165 22.4835 22.7762 22.5572 22.7762Z" fill="white"/>
</g>
<defs>
<clipPath id="clip0_623_1648">
<rect width="53.3333" height="40" fill="white" transform="translate(0.832031)"/>
</clipPath>
</defs>
</svg>
