<svg width="55" height="40" viewBox="0 0 55 40" fill="none" xmlns="http://www.w3.org/2000/svg">
<g clip-path="url(#clip0_623_1322)">
<path d="M0.832031 0H54.1654V40H0.832031V0Z" fill="#012169"/>
<path d="M7.08203 0L27.4154 15.0833L47.6654 0H54.1654V5.16667L34.1654 20.0833L54.1654 34.9167V40H47.4987L27.4987 25.0833L7.58203 40H0.832031V35L20.7487 20.1667L0.832031 5.33333V0H7.08203Z" fill="white"/>
<path d="M36.1654 23.4167L54.1654 36.6667V40L31.582 23.4167H36.1654ZM20.832 25.0833L21.332 28L5.33203 40H0.832031L20.832 25.0833ZM54.1654 0V0.25L33.4154 15.9167L33.582 12.25L49.9987 0H54.1654ZM0.832031 0L20.7487 14.6667H15.7487L0.832031 3.5V0Z" fill="#C8102E"/>
<path d="M20.9154 0V40H34.2487V0H20.9154ZM0.832031 13.3333V26.6667H54.1654V13.3333H0.832031Z" fill="white"/>
<path d="M0.832031 16.0833V24.0833H54.1654V16.0833H0.832031ZM23.582 0V40H31.582V0H23.582Z" fill="#C8102E"/>
</g>
<defs>
<clipPath id="clip0_623_1322">
<rect width="53.3333" height="40" fill="white" transform="translate(0.832031)"/>
</clipPath>
</defs>
</svg>
