<svg width="55" height="40" viewBox="0 0 55 40" fill="none" xmlns="http://www.w3.org/2000/svg">
<g clip-path="url(#clip0_623_2456)">
<path fill-rule="evenodd" clip-rule="evenodd" d="M0.832031 0H54.1654V40H0.832031V0Z" fill="#E30A17"/>
<path fill-rule="evenodd" clip-rule="evenodd" d="M34.7494 20.625C34.7494 26.1416 30.1994 30.6166 24.5827 30.6166C18.966 30.6166 14.416 26.1416 14.416 20.6166C14.416 15.0916 18.966 10.6333 24.5827 10.6333C30.1994 10.6333 34.7494 15.1083 34.7494 20.625Z" fill="white"/>
<path fill-rule="evenodd" clip-rule="evenodd" d="M35.2486 20.625C35.2486 25.0416 31.6152 28.6166 27.1236 28.6166C22.6319 28.6166 18.9902 25.0333 18.9902 20.6166C18.9902 16.2 22.6319 12.6333 27.1236 12.6333C31.6152 12.6333 35.2569 16.2083 35.2569 20.625H35.2486Z" fill="#E30A17"/>
<path fill-rule="evenodd" clip-rule="evenodd" d="M36.7242 15.9585L36.6409 19.6502L33.1992 20.5835L36.5992 21.7919L36.5159 25.1835L38.7242 22.5335L42.0742 23.7002L40.1409 20.8585L42.4992 18.0335L38.8742 19.0335L36.7242 15.9502V15.9585Z" fill="white"/>
</g>
<defs>
<clipPath id="clip0_623_2456">
<rect width="53.3333" height="40" fill="white" transform="translate(0.832031)"/>
</clipPath>
</defs>
</svg>
