<svg width="55" height="40" viewBox="0 0 55 40" fill="none" xmlns="http://www.w3.org/2000/svg">
<g clip-path="url(#clip0_623_1852)">
<path fill-rule="evenodd" clip-rule="evenodd" d="M0.830078 0.00219727H54.1738V40.0022H0.830078V0.00219727Z" fill="white"/>
<path fill-rule="evenodd" clip-rule="evenodd" d="M6.67383 12.1514L12.2223 3.83182L13.6089 4.75656L8.06042 13.0761L6.67383 12.1514ZM8.75371 13.5385L14.3022 5.21894L15.6888 6.14368L10.1403 14.4632L8.75371 13.5385ZM10.8336 14.9256L16.382 6.60605L17.7686 7.53079L12.2202 15.8503L10.8336 14.9256Z" fill="black"/>
<path fill-rule="evenodd" clip-rule="evenodd" d="M37.1797 32.4956L42.7281 24.1761L44.1147 25.1008L38.5663 33.4203L37.1797 32.4956ZM39.2596 33.8827L44.808 25.5632L46.1946 26.4879L40.6462 34.8075L39.2596 33.8827ZM41.3395 35.2698L46.8879 26.9503L48.2745 27.875L42.726 36.1946L41.3395 35.2698Z" fill="black"/>
<path fill-rule="evenodd" clip-rule="evenodd" d="M39.2598 27.8738L46.1927 32.4975L39.2598 27.8738Z" fill="black"/>
<path d="M39.2598 27.8738L46.1927 32.4975" stroke="white" stroke-width="0.836045"/>
<path fill-rule="evenodd" clip-rule="evenodd" d="M19.1543 14.4651C20.6258 12.2586 22.9136 10.7271 25.5144 10.2074C28.1151 9.6877 30.8158 10.2225 33.0223 11.694C35.2288 13.1655 36.7603 15.4533 37.28 18.0541C37.7997 20.6548 37.2649 23.3555 35.7934 25.562L19.1543 14.4651Z" fill="#CD2E3A"/>
<path fill-rule="evenodd" clip-rule="evenodd" d="M19.1559 14.4649C17.6843 16.6714 17.1496 19.372 17.6693 21.9728C18.1889 24.5735 19.7205 26.8613 21.927 28.3329C24.1334 29.8044 26.8341 30.3392 29.4349 29.8195C32.0356 29.2998 34.3234 27.7683 35.795 25.5618C36.5307 24.4585 36.7981 23.1082 36.5383 21.8078C36.2784 20.5074 35.5126 19.3635 34.4094 18.6278C33.3062 17.892 31.9558 17.6246 30.6555 17.8845C29.3551 18.1443 28.2112 18.9101 27.4754 20.0133L19.1559 14.4649Z" fill="#0047A0"/>
<path d="M27.4746 20.0134C29.0068 17.7161 28.3865 14.6116 26.0891 13.0794C23.7917 11.5473 20.6872 12.1676 19.1551 14.465C17.6229 16.7624 18.2433 19.8668 20.5406 21.399C22.838 22.9311 25.9425 22.3108 27.4746 20.0134Z" fill="#CD2E3A"/>
<path fill-rule="evenodd" clip-rule="evenodd" d="M12.2461 36.1978L6.69765 27.8782L8.08424 26.9535L13.6327 35.273L12.2461 36.1978ZM14.326 34.8106L8.77753 26.4911L10.1641 25.5664L15.7126 33.8859L14.326 34.8106ZM16.4059 33.4235L10.8574 25.104L12.244 24.1792L17.7925 32.4988L16.4059 33.4235Z" fill="black"/>
<path fill-rule="evenodd" clip-rule="evenodd" d="M42.752 15.8535L37.2035 7.53397L38.5901 6.60923L44.1385 14.9288L42.752 15.8535ZM44.8318 14.4664L39.2834 6.14686L40.67 5.22212L46.2184 13.5417L44.8318 14.4664ZM46.9117 13.0793L41.3633 4.75975L42.7499 3.83501L48.2983 12.1546L46.9117 13.0793Z" fill="black"/>
<path fill-rule="evenodd" clip-rule="evenodd" d="M11.2051 30.8823L13.285 29.4952L11.2051 30.8823ZM39.2835 12.1563L41.7101 10.538L39.2835 12.1563ZM43.79 9.15091L45.8698 7.7638L43.79 9.15091Z" fill="black"/>
<path d="M11.2051 30.8823L13.285 29.4952M39.2835 12.1563L41.7101 10.538M43.79 9.15091L45.8698 7.7638" stroke="white" stroke-width="0.836045"/>
</g>
<defs>
<clipPath id="clip0_623_1852">
<rect width="53.3333" height="40" fill="white" transform="translate(0.832031)"/>
</clipPath>
</defs>
</svg>
