<svg width="53" height="40" viewBox="0 0 53 40" fill="none" xmlns="http://www.w3.org/2000/svg">
<g clip-path="url(#clip0_623_2466)">
<path d="M0 0H53V40H0V0Z" fill="#00008B"/>
<path d="M3.10547 0L13.2086 7.54167L23.2703 0H26.5V2.58333L16.5625 10.0417L26.5 17.4583V20H23.1875L13.25 12.5417L3.35391 20H0V17.5L9.89609 10.0833L0 2.66667V0H3.10547Z" fill="white"/>
<path d="M17.5563 11.7083L26.5 18.3333V20L15.2789 11.7083H17.5563ZM9.9375 12.5417L10.1859 14L2.23594 20H0L9.9375 12.5417ZM26.5 0V0.125L16.1898 7.95833L16.2727 6.125L24.4297 0H26.5ZM0 0L9.89609 7.33333H7.41172L0 1.75V0Z" fill="#FF0000"/>
<path d="M9.97891 0V20H16.6039V0H9.97891ZM0 6.66667V13.3333H26.5V6.66667H0Z" fill="white"/>
<path d="M0 8.04167V12.0417H26.5V8.04167H0ZM11.3039 0V20H15.2789V0H11.3039Z" fill="#FF0000"/>
<path d="M43.6429 33.0583L41.9452 33.275L42.1274 34.9833L40.9018 33.7833L39.6845 34.9916L39.8501 33.2833L38.1524 33.0833L39.5851 32.15L38.6824 30.6916L40.3055 31.2333L40.877 29.6083L41.4649 31.225L43.0798 30.6666L42.1937 32.1333L43.6346 33.0583H43.6429ZM43.3365 23.2916L43.5601 22.2083L42.7485 21.4583L43.8416 21.3333L44.2971 20.325L44.7526 21.3333L45.8457 21.4583L45.0341 22.2083L45.2577 23.2916L44.2971 22.7416L43.3365 23.2916ZM34.7157 18.2916L33.0346 18.475L33.1837 20.1666L31.9912 18.9583L30.7655 20.1333L30.9643 18.4416L29.2915 18.2166L30.7241 17.3166L29.8546 15.8583L31.4529 16.425L32.0491 14.8333L32.604 16.4416L34.2105 15.9166L33.3079 17.3583L34.724 18.2916H34.7157ZM51.5929 15.5583L49.8621 15.7833L50.0526 17.525L48.8021 16.3L47.5599 17.5333L47.7338 15.7833L46.003 15.5833L47.4688 14.625L46.5496 13.1333L48.2059 13.6916L48.7855 12.0416L49.3818 13.6916L51.0298 13.1166L50.1188 14.6166L51.5929 15.5583ZM43.6346 8.59995L41.9204 8.79162L42.0777 10.525L40.8604 9.29162L39.6099 10.4916L39.8087 8.76662L38.0944 8.53328L39.5602 7.61662L38.6741 6.12495L40.3055 6.69995L40.9101 5.07495L41.4732 6.71662L43.1129 6.17495L42.1937 7.64162L43.6346 8.59995ZM19.3788 32.1416L15.586 32.5916L15.967 36.4166L13.2507 33.7166L10.5179 36.4L10.9237 32.575L7.13086 32.0916L10.3523 30.025L8.36477 26.7416L11.9754 27.9916L13.2838 24.375L14.5674 28L18.1863 26.775L16.174 30.0416L19.3871 32.1333L19.3788 32.1416Z" fill="white"/>
</g>
<defs>
<clipPath id="clip0_623_2466">
<rect width="53" height="40" fill="white"/>
</clipPath>
</defs>
</svg>
