<svg width="55" height="40" viewBox="0 0 55 40" fill="none" xmlns="http://www.w3.org/2000/svg">
<g clip-path="url(#clip0_623_2576)">
<path d="M0.832031 0H54.1654V13.3333H0.832031V0Z" fill="#FF9933"/>
<path d="M0.832031 13.3333H54.1654V26.6666H0.832031V13.3333Z" fill="white"/>
<path d="M0.832031 26.6665H54.1654V39.9998H0.832031V26.6665Z" fill="#128807"/>
<path d="M27.4974 25.3334C30.4429 25.3334 32.8307 22.9456 32.8307 20.0001C32.8307 17.0546 30.4429 14.6667 27.4974 14.6667C24.5519 14.6667 22.1641 17.0546 22.1641 20.0001C22.1641 22.9456 24.5519 25.3334 27.4974 25.3334Z" fill="#000088"/>
<path d="M27.4987 24.6666C30.076 24.6666 32.1654 22.5772 32.1654 19.9999C32.1654 17.4226 30.076 15.3333 27.4987 15.3333C24.9214 15.3333 22.832 17.4226 22.832 19.9999C22.832 22.5772 24.9214 24.6666 27.4987 24.6666Z" fill="white"/>
<path d="M27.4978 20.9333C28.0133 20.9333 28.4311 20.5154 28.4311 20C28.4311 19.4845 28.0133 19.0667 27.4978 19.0667C26.9823 19.0667 26.5645 19.4845 26.5645 20C26.5645 20.5154 26.9823 20.9333 27.4978 20.9333Z" fill="#000088"/>
<path d="M32.0894 20.8485C32.2208 20.8658 32.3413 20.7733 32.3586 20.6419C32.3759 20.5105 32.2834 20.3899 32.152 20.3726C32.0206 20.3553 31.9 20.4478 31.8827 20.5793C31.8654 20.7107 31.9579 20.8312 32.0894 20.8485Z" fill="#000088"/>
<path d="M27.494 24.6663L27.654 21.8663L27.494 20.533L27.334 21.8663L27.494 24.6663Z" fill="#000088"/>
<path d="M31.7119 22.0089C31.8343 22.0597 31.9747 22.0015 32.0254 21.8791C32.0762 21.7566 32.018 21.6162 31.8956 21.5655C31.7731 21.5148 31.6327 21.5729 31.582 21.6954C31.5313 21.8178 31.5894 21.9582 31.7119 22.0089Z" fill="#000088"/>
<path d="M26.2859 24.5073L27.1652 21.8441L27.3557 20.5148L26.8561 21.7613L26.2859 24.5073Z" fill="#000088"/>
<path d="M31.0408 23.0328C31.1459 23.1135 31.2966 23.0936 31.3773 22.9885C31.458 22.8833 31.4381 22.7327 31.333 22.652C31.2278 22.5713 31.0772 22.5911 30.9965 22.6963C30.9158 22.8014 30.9356 22.9521 31.0408 23.0328Z" fill="#000088"/>
<path d="M25.152 24.0414L26.6905 21.6965L27.2186 20.4618L26.4134 21.5365L25.152 24.0414Z" fill="#000088"/>
<path d="M30.1325 23.8496C30.2132 23.9547 30.3638 23.9745 30.469 23.8939C30.5741 23.8132 30.594 23.6625 30.5133 23.5573C30.4326 23.4522 30.2819 23.4324 30.1768 23.513C30.0716 23.5937 30.0518 23.7444 30.1325 23.8496Z" fill="#000088"/>
<path d="M24.1846 23.2998L26.2776 21.433L27.1073 20.3771L26.0513 21.2067L24.1846 23.2998Z" fill="#000088"/>
<path d="M29.0683 24.404C29.119 24.5264 29.2594 24.5846 29.3819 24.5338C29.5043 24.4831 29.5625 24.3427 29.5118 24.2203C29.461 24.0978 29.3206 24.0397 29.1982 24.0904C29.0757 24.1411 29.0176 24.2815 29.0683 24.404Z" fill="#000088"/>
<path d="M23.4633 22.3332L25.9682 21.0717L27.0429 20.2665L25.8082 20.7946L23.4633 22.3332Z" fill="#000088"/>
<path d="M27.8757 24.658C27.893 24.7894 28.0136 24.8819 28.145 24.8646C28.2764 24.8473 28.3689 24.7268 28.3516 24.5954C28.3343 24.464 28.2138 24.3714 28.0824 24.3887C27.951 24.406 27.8584 24.5266 27.8757 24.658Z" fill="#000088"/>
<path d="M22.9981 21.2072L25.7441 20.6371L26.9906 20.1375L25.6613 20.328L22.9981 21.2072Z" fill="#000088"/>
<path d="M26.65 24.595C26.6327 24.7264 26.7252 24.8469 26.8566 24.8642C26.988 24.8815 27.1086 24.789 27.1259 24.6576C27.1432 24.5262 27.0507 24.4057 26.9193 24.3884C26.7879 24.3711 26.6673 24.4636 26.65 24.595Z" fill="#000088"/>
<path d="M22.8325 19.9996L25.6325 20.1596L26.9658 19.9996L25.6325 19.8396L22.8325 19.9996Z" fill="#000088"/>
<path d="M25.4891 24.2185C25.4384 24.3409 25.4965 24.4813 25.619 24.532C25.7415 24.5828 25.8818 24.5246 25.9326 24.4022C25.9833 24.2797 25.9251 24.1393 25.8027 24.0886C25.6802 24.0379 25.5398 24.096 25.4891 24.2185Z" fill="#000088"/>
<path d="M22.9905 18.7916L25.6537 19.6708L26.983 19.8613L25.7365 19.3617L22.9905 18.7916Z" fill="#000088"/>
<path d="M24.4653 23.5542C24.3846 23.6594 24.4044 23.81 24.5096 23.8907C24.6147 23.9714 24.7654 23.9516 24.8461 23.8464C24.9268 23.7413 24.9069 23.5906 24.8018 23.5099C24.6966 23.4292 24.546 23.449 24.4653 23.5542Z" fill="#000088"/>
<path d="M23.4576 17.6656L25.8025 19.2042L27.0372 19.7323L25.9625 18.9271L23.4576 17.6656Z" fill="#000088"/>
<path d="M23.6473 22.6481C23.5421 22.7288 23.5223 22.8795 23.603 22.9846C23.6837 23.0898 23.8343 23.1096 23.9395 23.0289C24.0446 22.9482 24.0645 22.7976 23.9838 22.6924C23.9031 22.5873 23.7524 22.5674 23.6473 22.6481Z" fill="#000088"/>
<path d="M24.1976 16.6992L26.0643 18.7923L27.1203 19.6219L26.2906 18.566L24.1976 16.6992Z" fill="#000088"/>
<path d="M23.0946 21.5632C22.9721 21.6139 22.914 21.7543 22.9647 21.8768C23.0154 21.9992 23.1558 22.0574 23.2783 22.0066C23.4007 21.9559 23.4589 21.8155 23.4082 21.6931C23.3574 21.5706 23.217 21.5125 23.0946 21.5632Z" fill="#000088"/>
<path d="M25.1659 15.9592L26.4273 18.464L27.2325 19.5387L26.7044 18.304L25.1659 15.9592Z" fill="#000088"/>
<path d="M22.8488 20.3701C22.7174 20.3874 22.6249 20.508 22.6422 20.6394C22.6595 20.7708 22.7801 20.8633 22.9115 20.846C23.0429 20.8287 23.1354 20.7082 23.1181 20.5768C23.1008 20.4453 22.9802 20.3528 22.8488 20.3701Z" fill="#000088"/>
<path d="M26.3001 15.493L26.8702 18.239L27.3699 19.4855L27.1793 18.1562L26.3001 15.493Z" fill="#000088"/>
<path d="M22.9019 19.1517C22.7704 19.1344 22.6499 19.2269 22.6326 19.3583C22.6153 19.4898 22.7078 19.6103 22.8392 19.6276C22.9706 19.6449 23.0912 19.5524 23.1085 19.421C23.1258 19.2896 23.0333 19.169 22.9019 19.1517Z" fill="#000088"/>
<path d="M27.4972 15.3337L27.3372 18.1337L27.4972 19.467L27.6572 18.1337L27.4972 15.3337Z" fill="#000088"/>
<path d="M23.2793 17.9915C23.1569 17.9408 23.0165 17.999 22.9658 18.1214C22.915 18.2439 22.9732 18.3843 23.0957 18.435C23.2181 18.4857 23.3585 18.4276 23.4092 18.3051C23.46 18.1827 23.4018 18.0423 23.2793 17.9915Z" fill="#000088"/>
<path d="M28.7053 15.493L27.826 18.1561L27.6355 19.4854L28.1351 18.239L28.7053 15.493Z" fill="#000088"/>
<path d="M23.9358 16.9684C23.8306 16.8878 23.68 16.9076 23.5993 17.0128C23.5186 17.1179 23.5384 17.2686 23.6436 17.3493C23.7487 17.4299 23.8994 17.4101 23.9801 17.305C24.0608 17.1998 24.0409 17.0491 23.9358 16.9684Z" fill="#000088"/>
<path d="M29.8246 15.9598L28.286 18.3047L27.7579 19.5394L28.5632 18.4647L29.8246 15.9598Z" fill="#000088"/>
<path d="M24.8441 16.1517C24.7634 16.0465 24.6127 16.0267 24.5076 16.1074C24.4024 16.1881 24.3826 16.3387 24.4633 16.4439C24.544 16.549 24.6946 16.5689 24.7998 16.4882C24.9049 16.4075 24.9248 16.2568 24.8441 16.1517Z" fill="#000088"/>
<path d="M30.792 16.7015L28.699 18.5682L27.8693 19.6242L28.9252 18.7945L30.792 16.7015Z" fill="#000088"/>
<path d="M25.9366 15.5958C25.8859 15.4733 25.7455 15.4152 25.623 15.4659C25.5005 15.5166 25.4424 15.657 25.4931 15.7795C25.5438 15.9019 25.6842 15.9601 25.8067 15.9094C25.9292 15.8587 25.9873 15.7183 25.9366 15.5958Z" fill="#000088"/>
<path d="M31.5396 17.6666L29.0347 18.928L27.96 19.7333L29.1947 19.2052L31.5396 17.6666Z" fill="#000088"/>
<path d="M27.1194 15.3417C27.1021 15.2103 26.9815 15.1178 26.8501 15.1351C26.7187 15.1524 26.6262 15.273 26.6435 15.4044C26.6608 15.5358 26.7813 15.6283 26.9128 15.611C27.0442 15.5937 27.1367 15.4731 27.1194 15.3417Z" fill="#000088"/>
<path d="M31.997 18.7923L29.251 19.3624L28.0045 19.8621L29.3338 19.6715L31.997 18.7923Z" fill="#000088"/>
<path d="M28.3451 15.4045C28.3624 15.2731 28.2699 15.1526 28.1385 15.1353C28.0071 15.118 27.8865 15.2105 27.8692 15.3419C27.8519 15.4733 27.9444 15.5939 28.0758 15.6112C28.2073 15.6285 28.3278 15.536 28.3451 15.4045Z" fill="#000088"/>
<path d="M32.1626 19.9999L29.3626 19.8399L28.0293 19.9999L29.3626 20.1599L32.1626 19.9999Z" fill="#000088"/>
<path d="M29.506 15.7808C29.5567 15.6583 29.4986 15.518 29.3761 15.4672C29.2537 15.4165 29.1133 15.4747 29.0625 15.5971C29.0118 15.7196 29.07 15.86 29.1924 15.9107C29.3149 15.9614 29.4553 15.9033 29.506 15.7808Z" fill="#000088"/>
<path d="M32.0046 21.2077L29.3414 20.3285L28.0121 20.1379L29.2586 20.6376L32.0046 21.2077Z" fill="#000088"/>
<path d="M30.5181 16.4412C30.5988 16.336 30.579 16.1853 30.4738 16.1046C30.3687 16.024 30.218 16.0438 30.1373 16.149C30.0566 16.2541 30.0765 16.4048 30.1816 16.4855C30.2868 16.5661 30.4374 16.5463 30.5181 16.4412Z" fill="#000088"/>
<path d="M31.5277 22.3297L29.1829 20.7911L27.9482 20.263L29.0229 21.0683L31.5277 22.3297Z" fill="#000088"/>
<path d="M31.3449 17.3475C31.4501 17.2668 31.4699 17.1161 31.3892 17.011C31.3085 16.9058 31.1579 16.886 31.0527 16.9667C30.9476 17.0474 30.9277 17.198 31.0084 17.3032C31.0891 17.4084 31.2398 17.4282 31.3449 17.3475Z" fill="#000088"/>
<path d="M30.7946 23.2964L28.9279 21.2034L27.8719 20.3737L28.7016 21.4296L30.7946 23.2964Z" fill="#000088"/>
<path d="M31.8976 18.4336C32.0201 18.3829 32.0782 18.2425 32.0275 18.1201C31.9768 17.9976 31.8364 17.9395 31.7139 17.9902C31.5915 18.0409 31.5333 18.1813 31.584 18.3038C31.6348 18.4262 31.7751 18.4844 31.8976 18.4336Z" fill="#000088"/>
<path d="M29.8263 24.0377L28.5649 21.5328L27.7597 20.4581L28.2878 21.6928L29.8263 24.0377Z" fill="#000088"/>
<path d="M32.1434 19.6267C32.2748 19.6094 32.3673 19.4888 32.35 19.3574C32.3327 19.226 32.2121 19.1335 32.0807 19.1508C31.9493 19.1681 31.8568 19.2887 31.8741 19.4201C31.8914 19.5515 32.012 19.644 32.1434 19.6267Z" fill="#000088"/>
<path d="M28.6921 24.5038L28.122 21.7578L27.6223 20.5113L27.8129 21.8406L28.6921 24.5038Z" fill="#000088"/>
</g>
<defs>
<clipPath id="clip0_623_2576">
<rect width="53.3333" height="40" fill="white" transform="translate(0.832031)"/>
</clipPath>
</defs>
</svg>
