<svg width="25" height="25" viewBox="0 0 25 25" fill="none" xmlns="http://www.w3.org/2000/svg">
<path d="M12.5001 2.60413C9.87554 2.60413 7.3585 3.64672 5.50267 5.50255C3.64684 7.35838 2.60425 9.87542 2.60425 12.5C2.60425 15.1245 3.64684 17.6415 5.50267 19.4974C7.3585 21.3532 9.87554 22.3958 12.5001 22.3958C15.1246 22.3958 17.6417 21.3532 19.4975 19.4974C21.3533 17.6415 22.3959 15.1245 22.3959 12.5C22.3959 9.87542 21.3533 7.35838 19.4975 5.50255C17.6417 3.64672 15.1246 2.60413 12.5001 2.60413Z" fill="#039BE5"/>
<path d="M13.8395 15.123H16.4005L16.8025 12.5214H13.839V11.0995C13.839 10.0188 14.1921 9.06047 15.2031 9.06047H16.8275V6.79015C16.5421 6.75161 15.9385 6.66724 14.7979 6.66724C12.4161 6.66724 11.0197 7.92505 11.0197 10.7907V12.5214H8.57129V15.123H11.0197V22.2735C11.5046 22.3464 11.9958 22.3959 12.4999 22.3959C12.9557 22.3959 13.4005 22.3542 13.8395 22.2948V15.123Z" fill="white"/>
</svg>
