<svg width="25" height="25" viewBox="0 0 25 25" fill="none" xmlns="http://www.w3.org/2000/svg">
<path d="M12.5 24.0479C10.1266 24.0479 7.80655 23.3441 5.83316 22.0255C3.85977 20.7069 2.3217 18.8328 1.41345 16.6401C0.505199 14.4473 0.267559 12.0345 0.730582 9.70677C1.1936 7.379 2.33649 5.24081 4.01472 3.56258C5.69295 1.88435 7.83115 0.741456 10.1589 0.278434C12.4867 -0.184589 14.8995 0.053051 17.0922 0.961303C19.2849 1.86955 21.1591 3.40762 22.4776 5.38101C23.7962 7.3544 24.5 9.67448 24.5 12.0479C24.4966 15.2294 23.2312 18.2796 20.9815 20.5293C18.7318 22.779 15.6815 24.0444 12.5 24.0479ZM12.5 2.04786C10.5222 2.04786 8.58879 2.63435 6.9443 3.73316C5.29981 4.83197 4.01809 6.39376 3.26121 8.22102C2.50433 10.0483 2.3063 12.059 2.69215 13.9988C3.078 15.9386 4.03041 17.7204 5.42894 19.1189C6.82746 20.5175 8.60929 21.4699 10.5491 21.8557C12.4889 22.2416 14.4996 22.0435 16.3268 21.2867C18.1541 20.5298 19.7159 19.2481 20.8147 17.6036C21.9135 15.9591 22.5 14.0257 22.5 12.0479C22.4971 9.39659 21.4426 6.85474 19.5679 4.98C17.6931 3.10527 15.1513 2.05077 12.5 2.04786Z" fill="white"/>
<path d="M8.44674 15.6459L7.38574 13.9499L11.4997 11.3729V6.04785H13.4997V12.4809L8.44674 15.6459Z" fill="white"/>
</svg>
