<svg width="25" height="25" viewBox="0 0 25 25" fill="none" xmlns="http://www.w3.org/2000/svg">
<g clip-path="url(#clip0_1634_11933)">
<path d="M4.5 13.0479H7.5V15.0479H4.5V13.0479ZM9.5 15.0479H12.5V13.0479H9.5V15.0479ZM4.5 19.0479H7.5V17.0479H4.5V19.0479ZM9.5 19.0479H12.5V17.0479H9.5V19.0479ZM4.5 7.04785H7.5V5.04785H4.5V7.04785ZM9.5 7.04785H12.5V5.04785H9.5V7.04785ZM4.5 11.0479H7.5V9.04785H4.5V11.0479ZM9.5 11.0479H12.5V9.04785H9.5V11.0479ZM24.5 8.04785V24.0479H0.5V3.04785C0.5 2.2522 0.81607 1.48914 1.37868 0.926531C1.94129 0.363922 2.70435 0.0478516 3.5 0.0478516L13.5 0.0478516C14.2956 0.0478516 15.0587 0.363922 15.6213 0.926531C16.1839 1.48914 16.5 2.2522 16.5 3.04785V5.04785H21.5C22.2956 5.04785 23.0587 5.36392 23.6213 5.92653C24.1839 6.48914 24.5 7.2522 24.5 8.04785ZM14.5 3.04785C14.5 2.78263 14.3946 2.52828 14.2071 2.34074C14.0196 2.15321 13.7652 2.04785 13.5 2.04785H3.5C3.23478 2.04785 2.98043 2.15321 2.79289 2.34074C2.60536 2.52828 2.5 2.78263 2.5 3.04785V22.0479H14.5V3.04785ZM22.5 8.04785C22.5 7.78264 22.3946 7.52828 22.2071 7.34074C22.0196 7.15321 21.7652 7.04785 21.5 7.04785H16.5V22.0479H22.5V8.04785ZM18.5 15.0479H20.5V13.0479H18.5V15.0479ZM18.5 19.0479H20.5V17.0479H18.5V19.0479ZM18.5 11.0479H20.5V9.04785H18.5V11.0479Z" fill="white"/>
</g>
<defs>
<clipPath id="clip0_1634_11933">
<rect width="24" height="24" fill="white" transform="translate(0.5 0.0478516)"/>
</clipPath>
</defs>
</svg>
