<svg width="35" height="33" viewBox="0 0 35 33" fill="none" xmlns="http://www.w3.org/2000/svg">
<path d="M1.31177 7.4205L18.0426 15.1852L22.7932 12.8084L6.69454 5.18524L1.31177 7.4205Z" fill="white"/>
<path d="M20.4878 23.2537L24.5809 21.2805L24.618 24.2592L20.506 26.1958L20.4878 23.2537ZM20.4878 27.4945L24.5809 25.5199L24.618 28.5L20.506 30.4366L20.4878 27.4945ZM26.0987 21.0447L32.8944 17.9636C33.0311 17.9027 33.1919 17.9622 33.253 18.0983L33.3031 18.2087L33.3548 18.3191C33.4166 18.4553 33.3562 18.6144 33.2195 18.6767L26.4238 21.7579C26.2886 21.8195 26.1278 21.76 26.066 21.6246L26.0158 21.5135L25.9649 21.4017C25.9031 21.2662 25.9627 21.1064 26.0987 21.0447ZM26.0987 22.9978L32.8944 19.9166C33.0311 19.855 33.1919 19.9145 33.253 20.0499L33.3031 20.1603L33.3548 20.2714C33.4166 20.4069 33.3562 20.5667 33.2195 20.6283L26.4238 23.7095C26.2886 23.7711 26.1278 23.7116 26.066 23.5762L25.9649 23.3547C25.9031 23.2178 25.9627 23.0587 26.0987 22.9978ZM26.0987 25.0791L32.8944 21.998C33.0311 21.9363 33.1919 21.9973 33.253 22.1327L33.3031 22.2424L33.3548 22.3542C33.4166 22.4882 33.3562 22.6495 33.2195 22.7111L26.4238 25.7923C26.2886 25.8539 26.1278 25.7944 26.066 25.659L26.0158 25.5486L25.9649 25.4368C25.9031 25.3006 25.9627 25.1415 26.0987 25.0791ZM26.0987 27.1906L32.8944 24.1094C33.0311 24.0478 33.1919 24.1073 33.253 24.2427L33.3031 24.3538L33.3548 24.4642C33.4166 24.6011 33.3562 24.7602 33.2195 24.8225L26.4238 27.9023C26.2886 27.9653 26.1278 27.9051 26.066 27.7704L25.9649 27.5475C25.9031 27.412 25.9627 27.2529 26.0987 27.1906ZM18.3489 16.0435V32.963L34.2748 25.5364L34.1759 8.14819L25.6013 12.4255L25.6449 17.2483L23.2587 18.4911L23.2369 13.6053L19.138 15.6508L18.3489 16.0435Z" fill="white"/>
<path d="M7.07223 21.0379L8.03084 21.0407L8.0464 16.1574C8.04852 15.7109 8.40437 15.3487 8.843 15.3487H8.84512C9.28445 15.3502 9.63959 15.7152 9.63818 16.1639L9.62191 21.0465L10.5805 21.0501C11.191 21.0523 11.5717 21.7261 11.2675 22.2657L9.50306 25.3953C9.19602 25.9399 8.42418 25.9378 8.11998 25.3902L6.3768 22.2491C6.07613 21.7066 6.4617 21.0357 7.07223 21.0379ZM0.941406 8.14819L0.986684 25.7019L17.2377 32.963V15.9468L16.5918 15.638L0.941406 8.14819Z" fill="white"/>
<path d="M9.0896 4.04346L17.9536 0.370422L33.5111 7.23393L33.534 7.24454L25.0602 11.4815L25.033 11.4681L9.0896 4.04346Z" fill="white"/>
</svg>
