<svg width="34" height="27" viewBox="0 0 34 27" fill="none" xmlns="http://www.w3.org/2000/svg">
<path d="M23.1027 10.8988C20.2014 10.8988 17.2981 10.9028 14.3968 10.8967C13.6286 10.8967 12.9935 11.1829 12.9109 11.9805C12.808 12.9709 12.8867 13.9775 12.8867 14.9903C17.9876 14.9903 23.014 14.9903 28.0625 14.9903C28.0625 13.6224 28.0625 12.3133 28.0625 10.8988C26.3508 10.8988 24.7257 10.8988 23.1027 10.8988Z" fill="white"/>
<path d="M9.8985 12.0363C9.8579 11.4019 9.39504 10.9715 8.76977 10.9311C7.80547 10.8664 6.82899 10.9129 5.84033 10.9129C5.84033 12.3171 5.84033 13.6345 5.84033 14.9903C7.20456 14.9903 8.52615 14.9903 9.91677 14.9903C9.91677 13.976 9.9655 13.0021 9.8985 12.0363Z" fill="white"/>
<path d="M5.84033 22.0078C13.2767 22.0078 20.6706 22.0078 28.0625 22.0078C28.0625 20.6221 28.0625 19.2979 28.0625 17.9142C20.6038 17.9142 13.2342 17.9142 5.84033 17.9142C5.84033 19.3123 5.84033 20.6549 5.84033 22.0078Z" fill="white"/>
<path d="M3.50087 26.1013H0.576904V1.74052C0.576904 0.98277 1.23032 0.370422 2.03889 0.370422C2.84527 0.370422 3.50087 0.98277 3.50087 1.74052V26.1013Z" fill="white"/>
<path d="M33.9105 26.1013H30.9866V6.43489C30.9866 5.67149 31.6417 5.04877 32.4496 5.04877C33.2554 5.04877 33.9105 5.67149 33.9105 6.43489V26.1013Z" fill="white"/>
</svg>
