<svg width="25" height="25" viewBox="0 0 25 25" fill="none" xmlns="http://www.w3.org/2000/svg">
<path d="M8.72222 4C6.11839 4 4 6.11839 4 8.72222V16.2778C4 18.8816 6.11839 21 8.72222 21H16.2778C18.8816 21 21 18.8816 21 16.2778V8.72222C21 6.11839 18.8816 4 16.2778 4H8.72222ZM8.72222 5.88889H16.2778C17.8399 5.88889 19.1111 7.16011 19.1111 8.72222V16.2778C19.1111 17.8399 17.8399 19.1111 16.2778 19.1111H8.72222C7.16011 19.1111 5.88889 17.8399 5.88889 16.2778V8.72222C5.88889 7.16011 7.16011 5.88889 8.72222 5.88889ZM17.2222 6.83333C16.7006 6.83333 16.2778 7.25618 16.2778 7.77778C16.2778 8.29938 16.7006 8.72222 17.2222 8.72222C17.7438 8.72222 18.1667 8.29938 18.1667 7.77778C18.1667 7.25618 17.7438 6.83333 17.2222 6.83333ZM12.5 7.77778C9.89617 7.77778 7.77778 9.89617 7.77778 12.5C7.77778 15.1038 9.89617 17.2222 12.5 17.2222C15.1038 17.2222 17.2222 15.1038 17.2222 12.5C17.2222 9.89617 15.1038 7.77778 12.5 7.77778ZM12.5 9.66667C14.0621 9.66667 15.3333 10.9379 15.3333 12.5C15.3333 14.0621 14.0621 15.3333 12.5 15.3333C10.9379 15.3333 9.66667 14.0621 9.66667 12.5C9.66667 10.9379 10.9379 9.66667 12.5 9.66667Z" fill="url(#paint0_radial_249_965)"/>
<path d="M8.72222 4C6.11839 4 4 6.11839 4 8.72222V16.2778C4 18.8816 6.11839 21 8.72222 21H16.2778C18.8816 21 21 18.8816 21 16.2778V8.72222C21 6.11839 18.8816 4 16.2778 4H8.72222ZM8.72222 5.88889H16.2778C17.8399 5.88889 19.1111 7.16011 19.1111 8.72222V16.2778C19.1111 17.8399 17.8399 19.1111 16.2778 19.1111H8.72222C7.16011 19.1111 5.88889 17.8399 5.88889 16.2778V8.72222C5.88889 7.16011 7.16011 5.88889 8.72222 5.88889ZM17.2222 6.83333C16.7006 6.83333 16.2778 7.25618 16.2778 7.77778C16.2778 8.29938 16.7006 8.72222 17.2222 8.72222C17.7438 8.72222 18.1667 8.29938 18.1667 7.77778C18.1667 7.25618 17.7438 6.83333 17.2222 6.83333ZM12.5 7.77778C9.89617 7.77778 7.77778 9.89617 7.77778 12.5C7.77778 15.1038 9.89617 17.2222 12.5 17.2222C15.1038 17.2222 17.2222 15.1038 17.2222 12.5C17.2222 9.89617 15.1038 7.77778 12.5 7.77778ZM12.5 9.66667C14.0621 9.66667 15.3333 10.9379 15.3333 12.5C15.3333 14.0621 14.0621 15.3333 12.5 15.3333C10.9379 15.3333 9.66667 14.0621 9.66667 12.5C9.66667 10.9379 10.9379 9.66667 12.5 9.66667Z" fill="url(#paint1_radial_249_965)"/>
<defs>
<radialGradient id="paint0_radial_249_965" cx="0" cy="0" r="1" gradientUnits="userSpaceOnUse" gradientTransform="translate(10.3197 21.0123) scale(21.1911 21.1911)">
<stop stop-color="#FFDD55"/>
<stop offset="0.328" stop-color="#FF543F"/>
<stop offset="0.348" stop-color="#FC5245"/>
<stop offset="0.504" stop-color="#E64771"/>
<stop offset="0.643" stop-color="#D53E91"/>
<stop offset="0.761" stop-color="#CC39A4"/>
<stop offset="0.841" stop-color="#C837AB"/>
</radialGradient>
<radialGradient id="paint1_radial_249_965" cx="0" cy="0" r="1" gradientUnits="userSpaceOnUse" gradientTransform="translate(6.73556 3.78776) scale(14.0709 9.37546)">
<stop stop-color="#4168C9"/>
<stop offset="0.999" stop-color="#4168C9" stop-opacity="0"/>
</radialGradient>
</defs>
</svg>
