<svg width="25" height="25" viewBox="0 0 25 25" fill="none" xmlns="http://www.w3.org/2000/svg">
<path d="M20.9476 7.209L16.3349 12.5L20.9469 17.7902C20.978 17.6569 21 17.5196 21 17.375V7.625C21 7.48038 20.978 7.34306 20.9476 7.209ZM14.404 12.4179L19.946 6.06012C19.8291 6.02519 19.7094 6 19.5833 6H5.41667C5.29058 6 5.17087 6.02519 5.054 6.06012L10.596 12.4179C11.6465 13.6213 13.3535 13.6213 14.404 12.4179ZM12.5 14.9448C11.48 14.9448 10.465 14.5044 9.67375 13.6407L5.054 18.9399C5.17087 18.9748 5.29058 19 5.41667 19H19.5833C19.7094 19 19.8291 18.9748 19.946 18.9399L15.3262 13.6407C14.535 14.5044 13.52 14.9448 12.5 14.9448ZM4.05242 7.209C4.02196 7.34306 4 7.48038 4 7.625V17.375C4 17.5196 4.02196 17.6569 4.05242 17.791L8.66508 12.5L4.05242 7.209Z" fill="white"/>
</svg>
