<svg width="41" height="41" viewBox="0 0 41 41" fill="none" xmlns="http://www.w3.org/2000/svg">
<path d="M11.4 8.38118C11.5 9.86452 11.75 11.3145 12.15 12.6979L10.15 14.6979C9.46667 12.6979 9.03333 10.5812 8.88333 8.38118H11.4ZM27.8333 28.4145C29.25 28.8145 30.7 29.0645 32.1667 29.1645V31.6478C29.9667 31.4978 27.85 31.0645 25.8333 30.3978L27.8333 28.4145ZM13 5.04785H7.16667C6.25 5.04785 5.5 5.79785 5.5 6.71452C5.5 22.3645 18.1833 35.0479 33.8333 35.0479C34.75 35.0479 35.5 34.2979 35.5 33.3812V27.5645C35.5 26.6479 34.75 25.8979 33.8333 25.8979C31.7667 25.8979 29.75 25.5645 27.8833 24.9479C27.7167 24.8812 27.5333 24.8645 27.3667 24.8645C26.9333 24.8645 26.5167 25.0312 26.1833 25.3479L22.5167 29.0145C17.8 26.5978 13.9333 22.7479 11.5333 18.0312L15.2 14.3645C15.6667 13.8979 15.8 13.2479 15.6167 12.6645C15 10.7979 14.6667 8.79785 14.6667 6.71452C14.6667 5.79785 13.9167 5.04785 13 5.04785Z" fill="white"/>
</svg>
