<svg width="25" height="25" viewBox="0 0 25 25" fill="none" xmlns="http://www.w3.org/2000/svg">
<path d="M21.8751 6.47344C21.186 6.77865 20.4449 6.98229 19.6631 7.07865C20.4579 6.60677 21.0694 5.85417 21.3563 4.9651C20.6126 5.40104 19.7886 5.72135 18.9121 5.8901C18.2121 5.14792 17.2136 4.6875 16.1074 4.6875C13.9824 4.6875 12.26 6.39479 12.26 8.5C12.26 8.79792 12.2949 9.08802 12.3605 9.36979C9.16364 9.20938 6.32822 7.68958 4.43135 5.38333C4.09801 5.94688 3.91051 6.60677 3.91051 7.30313C3.91051 8.62656 4.58812 9.79167 5.62145 10.4781C4.99072 10.4589 4.39697 10.2833 3.87718 10.0021C3.87718 10.0135 3.87718 10.0307 3.87718 10.0469C3.87718 11.8964 5.20374 13.4365 6.96208 13.787C6.64072 13.875 6.30114 13.924 5.95114 13.924C5.7027 13.924 5.46051 13.8958 5.22614 13.8536C5.71572 15.3651 7.13604 16.4698 8.81885 16.5026C7.50218 17.5234 5.84385 18.1349 4.04072 18.1349C3.72926 18.1349 3.42458 18.1172 3.12354 18.0807C4.82718 19.1594 6.8501 19.7917 9.02145 19.7917C16.097 19.7917 19.9678 13.9813 19.9678 8.94063C19.9678 8.77552 19.9626 8.61094 19.9548 8.44844C20.71 7.9151 21.361 7.24219 21.8751 6.47344Z" fill="#03A9F4"/>
</svg>
