<svg width="25" height="25" viewBox="0 0 25 25" fill="none" xmlns="http://www.w3.org/2000/svg">
<path d="M12.5 4C7.81322 4 4.00005 7.81316 4.00005 12.5C4.00005 13.9634 4.37812 15.4025 5.09507 16.6724L4.01373 20.5306C3.97825 20.6574 4.01262 20.7934 4.10427 20.8876C4.17486 20.9604 4.27095 20.9999 4.36962 20.9999C4.39918 20.9999 4.42912 20.9963 4.45831 20.9892L8.48508 19.9918C9.71462 20.6518 11.0994 20.9999 12.5 20.9999C17.1868 20.9999 21 17.1868 21 12.5C21 7.81316 17.1868 4 12.5 4ZM16.7759 15.4994C16.5941 16.0027 15.7219 16.4621 15.3028 16.5238C14.9266 16.5789 14.4506 16.6025 13.928 16.4384C13.6113 16.3386 13.2048 16.2063 12.6841 15.9842C10.4951 15.0507 9.06567 12.8743 8.95628 12.7306C8.84726 12.5868 8.06526 11.5624 8.06526 10.5021C8.06526 9.44183 8.62884 8.92038 8.82915 8.70455C9.02945 8.48872 9.2656 8.43477 9.41121 8.43477C9.55682 8.43477 9.70206 8.43662 9.82956 8.44253C9.96371 8.44918 10.1437 8.3919 10.3207 8.81246C10.5025 9.24411 10.939 10.3044 10.9929 10.4127C11.0476 10.5206 11.0839 10.6466 11.0114 10.7904C10.939 10.9341 10.9028 11.0239 10.7934 11.15C10.684 11.276 10.5643 11.4308 10.4659 11.5276C10.3566 11.6352 10.2431 11.7516 10.3702 11.9674C10.4974 12.1833 10.9353 12.8888 11.5842 13.4601C12.4176 14.1941 13.1209 14.4217 13.3389 14.5296C13.557 14.6375 13.6845 14.6194 13.8116 14.4757C13.9387 14.3315 14.3571 13.8463 14.5023 13.6308C14.6476 13.4154 14.7932 13.4509 14.9935 13.5229C15.1938 13.5946 16.2666 14.1157 16.4847 14.2236C16.7027 14.3315 16.8483 14.3855 16.903 14.4753C16.9577 14.5647 16.9577 14.9964 16.7759 15.4994Z" fill="white"/>
</svg>
