<svg width="25" height="25" viewBox="0 0 25 25" fill="none" xmlns="http://www.w3.org/2000/svg">
<path fill-rule="evenodd" clip-rule="evenodd" d="M2.5354 22.5536L3.93853 17.4312C3.0729 15.9323 2.61769 14.2312 2.61821 12.489C2.62082 7.0385 7.05623 2.60413 12.5073 2.60413C15.1526 2.60517 17.6349 3.63486 19.5021 5.50308C21.3687 7.37183 22.3969 9.85517 22.3958 12.4968C22.3937 17.9474 17.9573 22.3822 12.5073 22.3822H12.5031C10.8484 22.3817 9.22186 21.9666 7.77759 21.1786L2.5354 22.5536Z" fill="white"/>
<path fill-rule="evenodd" clip-rule="evenodd" d="M2.53534 22.8141C2.46659 22.8141 2.39992 22.787 2.35044 22.737C2.28534 22.6708 2.25981 22.5745 2.28429 22.4854L3.65877 17.4667C2.80669 15.9531 2.35721 14.2344 2.35825 12.4896C2.36034 6.89479 6.91294 2.34375 12.5072 2.34375C15.2208 2.34479 17.7702 3.40156 19.6864 5.31927C21.6025 7.2375 22.6572 9.78646 22.6562 12.4969C22.6541 18.0911 18.101 22.6427 12.5072 22.6427C10.8463 22.6422 9.20304 22.2323 7.74471 21.4568L2.60148 22.8052C2.57961 22.8115 2.55773 22.8141 2.53534 22.8141Z" fill="white"/>
<path fill-rule="evenodd" clip-rule="evenodd" d="M12.5073 2.60421C15.1526 2.60525 17.6349 3.63494 19.5021 5.50317C21.3688 7.37192 22.3969 9.85525 22.3959 12.4969C22.3938 17.9474 17.9573 22.3823 12.5073 22.3823H12.5032C10.8485 22.3818 9.22191 21.9667 7.77764 21.1787L2.53545 22.5537L3.93858 17.4313C3.07295 15.9323 2.61774 14.2313 2.61826 12.4891C2.62087 7.03858 7.05629 2.60421 12.5073 2.60421ZM12.5073 2.08337C6.76983 2.08337 2.10004 6.75108 2.09743 12.4891C2.09691 14.2427 2.53962 15.9709 3.3792 17.5006L2.03285 22.4167C1.98389 22.5964 2.03389 22.7881 2.16514 22.9204C2.2641 23.0204 2.39795 23.075 2.53545 23.075C2.57972 23.075 2.62399 23.0693 2.66774 23.0579L7.71306 21.7349C9.18597 22.4995 10.837 22.9032 12.5032 22.9037C18.2448 22.9037 22.9146 18.2355 22.9172 12.4974C22.9183 9.71671 21.8365 7.10212 19.8714 5.13546C17.9052 3.16827 15.2901 2.08442 12.5073 2.08337Z" fill="#CFD8DC"/>
<path fill-rule="evenodd" clip-rule="evenodd" d="M18.3209 6.6833C16.7688 5.13018 14.7058 4.27445 12.51 4.27393C7.97666 4.27393 4.28968 7.95934 4.2876 12.4895C4.28708 14.0422 4.72145 15.5536 5.54437 16.8625L5.7402 17.1734L4.90947 20.2052L8.02041 19.3896L8.32093 19.5677C9.58239 20.3166 11.0293 20.7125 12.5043 20.713H12.5074C17.0376 20.713 20.7246 17.0271 20.7261 12.4963C20.7267 10.301 19.873 8.23643 18.3209 6.6833Z" fill="#40C351"/>
<path fill-rule="evenodd" clip-rule="evenodd" d="M10.0353 8.35677C9.85044 7.94532 9.65565 7.93698 9.47909 7.92969C9.33481 7.92344 9.17023 7.92396 9.00565 7.92396C8.84106 7.92396 8.57336 7.98594 8.34679 8.23334C8.12023 8.48073 7.48169 9.07813 7.48169 10.2938C7.48169 11.5094 8.36711 12.6844 8.49054 12.849C8.61398 13.0135 10.1999 15.588 12.7114 16.5786C14.7984 17.4016 15.2234 17.238 15.6765 17.1969C16.1296 17.1557 17.1385 16.5995 17.3442 16.0224C17.5499 15.4453 17.5499 14.951 17.4885 14.8479C17.4265 14.7448 17.2619 14.6833 17.015 14.5594C16.7681 14.4354 15.553 13.838 15.3265 13.7557C15.0999 13.6734 14.9353 13.6323 14.7702 13.8797C14.6056 14.1266 14.1322 14.6833 13.9879 14.8479C13.8437 15.013 13.6994 15.0339 13.4525 14.9099C13.2056 14.7859 12.4098 14.5255 11.4655 13.6839C10.7312 13.0292 10.2353 12.2203 10.0911 11.9729C9.94679 11.726 10.0754 11.5922 10.1994 11.4688C10.3103 11.3578 10.4463 11.1802 10.5702 11.0359C10.6937 10.8917 10.7348 10.7885 10.8171 10.624C10.8994 10.4589 10.8583 10.3146 10.7963 10.1911C10.7353 10.0672 10.2551 8.84532 10.0353 8.35677Z" fill="white"/>
</svg>
