<svg width="242" height="81" viewBox="0 0 242 81" fill="none" xmlns="http://www.w3.org/2000/svg">
<path d="M207.442 36.7793V55.4959L219.544 52.831V33.3598L207.442 36.7793Z" fill="url(#paint0_linear_717_6826)"/>
<path d="M207.442 31.321V35.4899L219.544 32.0704V27.9015L207.442 31.321Z" fill="url(#paint1_linear_717_6826)"/>
<path d="M219.544 33.3598V52.831L231.64 48.2849V36.2602L219.549 33.3545L219.544 33.3598Z" fill="url(#paint2_linear_717_6826)"/>
<path d="M219.544 32.0704L231.64 35.016V31.0402L219.544 27.9015V32.0704Z" fill="url(#paint3_linear_717_6826)"/>
<path d="M211.088 0.815618C199.297 21.0811 183.197 25.6886 183.036 25.82L182.847 25.9722L182.776 32.8488L183.033 32.8597L183.871 26.4592C185.7 24.9421 200.387 23.9787 211.528 5.15829C222.521 23.9762 238.079 24.9421 240.033 26.4673L240.806 32.8463H241.062V25.9641L240.86 25.8094C240.685 25.6805 223.572 21.0705 211.978 0.818122L211.539 0.0478516L211.088 0.815618Z" fill="url(#paint4_radial_717_6826)"/>
<path d="M193.617 26.5486L193.15 25.6361C204.537 19.8434 209.008 11.1821 209.049 11.0966C208.866 11.4603 205.302 20.6034 193.617 26.5486Z" fill="#9C8E5C"/>
<path d="M228.08 24.6203C217.048 19.5819 214.144 11.4211 213.986 11.0948C214.024 11.1725 217.832 18.8166 228.506 23.689L228.08 24.6203Z" fill="#9C8E5C"/>
<path d="M192.54 41.1785V43.8621H207.442V41.1785H192.54Z" fill="url(#paint5_radial_717_6826)"/>
<path d="M193.151 38.0933V40.7769H207.442V38.0933H193.151Z" fill="url(#paint6_radial_717_6826)"/>
<path d="M192.119 72.7165C189.698 74.9265 184.06 80.0479 184.06 80.0479C210.955 75.2478 228.48 62.3215 238.903 50.7975C213.324 69.3103 197.479 71.8389 192.119 72.7165Z" fill="url(#paint7_radial_717_6826)"/>
<path d="M212.622 71.4642C220.251 75.1006 229.099 78.0896 239.296 79.9115C239.296 79.9115 233.657 74.7877 231.237 72.5748C228.772 72.1736 224.083 71.4187 217.254 68.9198C216.465 69.4149 215.073 70.212 212.622 71.4642Z" fill="url(#paint8_radial_717_6826)"/>
<path d="M184.45 50.6609C189.832 56.6089 197.117 62.9314 206.598 68.3204C207.679 67.879 209.29 67.2207 211.121 66.4314C203.929 63.2284 195.023 58.3108 184.45 50.6609Z" fill="url(#paint9_radial_717_6826)"/>
<path d="M191.974 44.2283V47.8353C199.691 50.6727 207.405 51.8273 207.442 51.8329V44.2286L191.974 44.2283Z" fill="url(#paint10_radial_717_6826)"/>
<path d="M204.996 21.0839C204.841 21.1133 204.723 21.2418 204.723 21.4021C204.723 21.5497 204.819 21.6726 204.953 21.7154L204.923 22.1971C204.77 22.2504 204.658 22.3923 204.658 22.5633C204.658 22.7159 204.751 22.8444 204.876 22.909L204.844 23.3928C204.688 23.4705 204.581 23.6284 204.581 23.8131C204.581 23.9762 204.664 24.1101 204.789 24.1956L204.781 24.3802C204.781 24.3802 204.183 26.3628 198.773 29.2555C195.274 31.131 194.191 34.1466 193.863 36.0437H193.858V36.049C193.683 37.0766 193.727 37.7748 193.727 37.7748H207.442L207.442 31.321C207.442 31.321 209.764 30.6656 212.295 29.9483C207.848 27.2701 205.335 24.3802 205.335 24.3802L205.321 24.1956C205.444 24.1101 205.534 23.9762 205.534 23.8131C205.534 23.6231 205.422 23.4624 205.261 23.3875L205.226 22.9168C205.362 22.8497 205.455 22.7212 205.455 22.5633C205.455 22.3867 205.335 22.2426 205.174 22.1942L205.138 21.7182C205.283 21.6832 205.395 21.5603 205.395 21.4021C205.395 21.2337 205.258 21.0948 205.092 21.0783L205.04 20.3935L204.996 21.0839Z" fill="url(#paint11_radial_717_6826)"/>
<path d="M234.828 44.6164C234.828 44.6164 230.759 48.3838 227.601 49.0449C224.451 49.7056 220.502 49.5827 217.18 50.0803C213.858 50.5754 211.915 53.877 211.915 53.877C211.915 53.877 209.972 50.5754 206.65 50.0803C203.331 49.5827 199.382 49.7056 196.227 49.0449C193.072 48.3785 189.003 44.6164 189.003 44.6164C189.003 44.6164 186.459 43.9584 184.294 43.9584C183.749 43.9584 183.227 43.9984 182.776 44.1054C183.44 44.6542 184.709 45.6041 184.701 45.5957C195.542 53.4356 204.631 58.4125 211.915 61.6046C219.143 58.4365 228.144 53.5161 238.867 45.7832C239.498 45.3146 240.279 44.7181 241.027 44.1001C240.579 43.9984 240.064 43.9575 239.526 43.9575C237.363 43.9575 234.828 44.6164 234.828 44.6164Z" fill="url(#paint12_radial_717_6826)"/>
<path d="M5.12725 24.2642C4.97631 24.2642 4.91518 24.3255 4.91518 24.4821V26.0628C4.91518 26.2189 4.97631 26.2801 5.12725 26.2801H6.5776C6.71934 26.2801 6.79021 26.2189 6.79021 26.0628V24.4821C6.79021 24.3255 6.71934 24.2642 6.5776 24.2642H5.12725ZM2.52461 24.2642C2.37368 24.2642 2.31254 24.3255 2.31254 24.4821V26.0628C2.31254 26.2189 2.37368 26.2801 2.52461 26.2801H3.97497C4.12157 26.2801 4.19189 26.2189 4.19189 26.0628V24.4821C4.19189 24.3255 4.12157 24.2642 3.97497 24.2642H2.52461ZM0.479171 32.7745C0.479171 36.0735 2.01014 37.4698 4.54678 37.4698C7.04501 37.4698 8.61817 36.0735 8.61817 32.7745C8.61817 29.4517 7.10668 28.0413 4.54678 28.0413C1.9912 28.0413 0.479171 29.4517 0.479171 32.7745ZM2.26927 32.7745C2.26927 30.8621 2.92601 29.7309 4.54678 29.7309C6.167 29.7309 6.83295 30.8621 6.83295 32.7745C6.83295 34.8614 6.167 35.7705 4.54678 35.7705C2.92601 35.7705 2.26927 34.8614 2.26927 32.7745Z" fill="url(#paint13_linear_717_6826)"/>
<path d="M12.4397 28.4294C12.2839 28.4294 12.2228 28.4907 12.2228 28.6468V38.0948C12.2228 39.3345 11.6461 39.9405 10.4938 39.9405H10.0075C9.85601 39.9405 9.79488 40.0023 9.79488 40.1584V41.4176C9.79488 41.564 9.85601 41.635 10.0075 41.635H10.5836C12.8227 41.635 14.0177 40.3997 14.0177 38.0471V36.6177C14.4148 37.072 14.9958 37.3137 15.718 37.3137H16.1622C16.767 37.3137 17.0169 37.1766 17.0169 36.4188C17.0169 35.8366 16.7389 35.6193 16.1622 35.6193H15.9306C14.7405 35.6193 14.0177 35.1173 14.0177 34.1427V28.6468C14.0177 28.4907 13.9517 28.4294 13.8003 28.4294H12.4397Z" fill="url(#paint14_linear_717_6826)"/>
<path d="M16.1859 35.6192C15.5903 35.6192 15.4632 35.7704 15.4632 36.4897C15.4632 37.0958 15.6092 37.3137 16.1859 37.3137H18.5289C19.1289 37.3137 19.3837 37.1386 19.3837 36.4187C19.3837 35.8127 19.11 35.6192 18.5289 35.6192H16.1859Z" fill="url(#paint15_linear_717_6826)"/>
<path d="M18.557 35.6192C17.9522 35.6192 17.8294 35.7704 17.8294 36.4897C17.8294 37.0958 17.976 37.3137 18.557 37.3137H20.9006C21.4957 37.3137 21.7554 37.1386 21.7554 36.4187C21.7554 35.8127 21.4719 35.6192 20.9006 35.6192H18.557Z" fill="url(#paint16_linear_717_6826)"/>
<path d="M20.9146 35.6192C20.3189 35.6192 20.1913 35.7704 20.1913 36.4897C20.1913 37.0958 20.3476 37.3137 20.9146 37.3137H23.2625C23.857 37.3137 24.1172 37.1386 24.1172 36.4187C24.1172 35.8127 23.8381 35.6192 23.2625 35.6192H20.9146Z" fill="url(#paint17_linear_717_6826)"/>
<path d="M25.6287 32.7745C25.6287 33.096 25.6476 33.3616 25.6476 33.6456C25.6476 35.1411 24.9438 35.6192 24.3293 35.6192L23.2625 35.6192C22.6625 35.6192 22.4115 35.7282 22.4115 36.4475C22.4115 37.0345 22.6906 37.3137 23.2625 37.3137L24.1832 37.3137C24.9671 37.3137 26.0301 37.1766 26.6349 36.2437C27.329 37.0958 28.3357 37.4698 29.7006 37.4698C30.9995 37.4698 32.0436 37.1148 32.7474 36.2724C33.3235 37.2047 34.4104 37.3137 35.204 37.3137H35.6665C36.2621 37.3137 36.5218 37.1766 36.5218 36.4188C36.5218 35.8366 36.2475 35.6192 35.6665 35.6192H35.0525C34.4293 35.6192 33.7493 35.1834 33.7303 33.7069C33.7493 33.4277 33.7725 33.096 33.7725 32.7745C33.7725 29.4517 32.2562 28.0413 29.7006 28.0413C27.145 28.0413 25.6287 29.4517 25.6287 32.7745ZM27.4188 32.7745C27.4188 30.8621 28.0804 29.7309 29.7006 29.7309C31.3208 29.7309 31.9825 30.8621 31.9825 32.7745C31.9825 34.8614 31.3208 35.7705 29.7006 35.7705C28.0804 35.7705 27.4188 34.8614 27.4188 32.7745Z" fill="url(#paint18_linear_717_6826)"/>
<path d="M37.2256 29.1438C37.0747 29.2338 37.013 29.3856 37.013 29.5796V30.8811C37.013 31.0372 37.0558 31.1272 37.3106 31.3164C38.5905 32.2915 39.7385 33.0347 40.2113 35.3823C39.3793 35.6192 38.7604 35.6192 38.3925 35.6192H35.6482C35.0525 35.6192 34.7929 35.7282 34.7929 36.4475C34.7929 37.0345 35.0715 37.3137 35.6482 37.3137H38.5483C39.3793 37.3137 40.504 37.1625 41.4436 36.6367C42.2751 37.1625 43.1915 37.3137 44.2167 37.3137H47.2213C47.8163 37.3137 48.0711 37.0958 48.0711 36.3814C48.0711 35.7705 47.7974 35.6192 47.2213 35.6192H44.0847C43.8526 35.6192 43.6405 35.6425 43.4517 35.5764C44.5759 34.8804 45.9029 33.2998 45.9029 31.4302C45.9029 29.3427 44.5148 28.0413 41.4436 28.0413C39.4599 28.0413 37.9056 28.7373 37.2256 29.1438ZM38.8037 30.2995C39.1201 30.1049 40.1686 29.7308 41.4436 29.7308C42.8891 29.7308 44.023 30.1238 44.023 31.5576C44.023 32.968 42.8091 34.1611 41.8926 34.7481C41.4014 32.6655 40.2492 31.1462 38.8037 30.2995Z" fill="url(#paint19_linear_717_6826)"/>
<path d="M47.245 35.6192C46.6445 35.6192 46.5168 35.7704 46.5168 36.4897C46.5168 37.0958 46.6683 37.3137 47.245 37.3137H49.588C50.1825 37.3137 50.4428 37.1386 50.4428 36.4187C50.4428 35.8127 50.1593 35.6192 49.588 35.6192H47.245Z" fill="url(#paint20_linear_717_6826)"/>
<path d="M49.607 35.6192C49.0065 35.6192 48.8837 35.7704 48.8837 36.4897C48.8837 37.0958 49.0352 37.3137 49.607 37.3137H51.9495C52.5445 37.3137 52.8048 37.1386 52.8048 36.4187C52.8048 35.8127 52.5305 35.6192 51.9495 35.6192H49.607Z" fill="url(#paint21_linear_717_6826)"/>
<path d="M54.5335 22.5459C54.382 22.5459 54.3209 22.612 54.3209 22.7638V34.4641C54.3209 35.3352 53.9947 35.6192 53.2957 35.6192L51.9495 35.6192C51.3501 35.6192 51.0988 35.8366 51.0988 36.5516C51.0988 37.1624 51.3782 37.3137 51.9495 37.3137H53.6122C55.4023 37.3137 56.111 36.4898 56.111 34.5774V22.7638C56.111 22.612 56.045 22.5459 55.8935 22.5459H54.5335Z" fill="url(#paint22_linear_717_6826)"/>
<path d="M59.3044 22.5459C59.1578 22.5459 59.0918 22.612 59.0918 22.7638V37.0958C59.0918 37.2519 59.1578 37.3137 59.3044 37.3137H60.6693C60.8132 37.3137 60.8759 37.2579 60.8819 37.1191V22.7416C60.8759 22.6055 60.8132 22.5459 60.6693 22.5459H59.3044Z" fill="url(#paint23_linear_717_6826)"/>
<path d="M63.5468 32.9068C63.5468 36.2014 65.1048 37.3137 67.6182 37.3137H69.8952V37.8769C69.8952 39.5053 69.0496 39.9405 67.9206 39.9405H65.3602C65.2092 39.9405 65.1481 40.0023 65.1481 40.1584V41.4176C65.1481 41.564 65.2092 41.635 65.3602 41.635H68.0012C70.2214 41.635 71.6853 40.5276 71.6853 37.8298V32.7745C71.6853 29.4517 70.2214 28.0413 67.6609 28.0413C65.3791 28.0413 63.5468 29.5797 63.5468 32.9068ZM65.3369 32.9068C65.3369 30.995 66.2106 29.7309 67.6609 29.7309C69.2812 29.7309 69.8952 30.8622 69.8952 32.7745V35.6193H67.7507C66.1446 35.6193 65.3369 34.9661 65.3369 32.9068Z" fill="url(#paint24_linear_717_6826)"/>
<path d="M80.5378 29.797C80.4529 29.906 80.467 29.9916 80.5995 30.1049L81.5349 30.8811C81.6431 30.9711 81.7469 30.9711 81.8367 30.8622C82.4556 30.1667 83.2822 29.7309 84.2457 29.7309C86.4377 29.7309 87.1415 31.279 87.1415 33.5551C87.1415 35.1412 86.9106 35.6193 85.3136 35.6193H81.9411C80.6368 35.6193 78.9176 36.2909 78.9176 38.6624C78.9176 40.7449 80.2165 41.635 82.4323 41.635H83.3103C83.4521 41.635 83.5235 41.564 83.5235 41.4176V40.1584C83.5235 40.0023 83.4521 39.9405 83.3103 39.9405H82.5784C81.1329 39.9405 80.7456 39.5524 80.7456 38.6152C80.7456 37.8954 81.062 37.3137 81.9411 37.3137H85.9703C87.2692 37.3137 88.1196 36.9874 88.6108 36.0545C88.9322 36.8969 89.768 37.3137 90.7223 37.3137H91.1756C91.7712 37.3137 92.026 37.1766 92.026 36.4188C92.026 35.8366 91.7474 35.6193 91.1756 35.6193H90.9349C89.8291 35.6193 89.0831 35.1645 89.0171 34.275C88.9982 34.0289 89.0404 33.8109 89.0404 33.5551C89.0404 30.7109 88.0818 28.0413 84.1802 28.0413C82.4702 28.0413 81.3223 28.7796 80.5378 29.797ZM84.586 39.3345C84.4394 39.3345 84.3734 39.3963 84.3734 39.5524V41.1379C84.3734 41.2848 84.4394 41.351 84.586 41.351H86.0363C86.1824 41.351 86.2489 41.2848 86.2489 41.1379V39.5524C86.2489 39.3963 86.1824 39.3345 86.0363 39.3345H84.586Z" fill="url(#paint25_linear_717_6826)"/>
<path d="M91.1896 35.6192C90.5946 35.6192 90.4669 35.7704 90.4669 36.4897C90.4669 37.0958 90.6135 37.3137 91.1896 37.3137H93.5332C94.1331 37.3137 94.3879 37.1386 94.3879 36.4187C94.3879 35.8127 94.1137 35.6192 93.5332 35.6192H91.1896Z" fill="url(#paint26_linear_717_6826)"/>
<path d="M93.5613 35.6192C92.9662 35.6192 92.8336 35.7704 92.8336 36.4897C92.8336 37.0958 92.9803 37.3137 93.5613 37.3137H95.9C96.4994 37.3137 96.7547 37.1386 96.7547 36.4187C96.7547 35.8127 96.4804 35.6192 95.9 35.6192H93.5613Z" fill="url(#paint27_linear_717_6826)"/>
<path d="M95.9232 35.6192C95.3232 35.6192 95.2004 35.7704 95.2004 36.4897C95.2004 37.0958 95.3465 37.3137 95.9232 37.3137H98.2711C98.8705 37.3137 99.1215 37.1386 99.1215 36.4187C99.1215 35.8127 98.8423 35.6192 98.2711 35.6192H95.9232Z" fill="url(#paint28_linear_717_6826)"/>
<path d="M99.5467 29.797C99.4661 29.9059 99.4801 29.9916 99.6078 30.1049L100.548 30.8811C100.661 30.9711 100.765 30.9711 100.846 30.8621C101.469 30.1667 102.295 29.7308 103.255 29.7308C105.451 29.7308 106.155 31.279 106.155 33.5551C106.155 35.1411 105.924 35.6192 104.318 35.6192L98.2711 35.6192C97.676 35.6192 97.4158 35.7282 97.4158 36.4475C97.4158 37.0345 97.69 37.3137 98.2711 37.3137H104.984C106.278 37.3137 107.133 36.9874 107.629 36.0545C107.945 36.8968 108.777 37.3137 109.735 37.3137H110.184C110.78 37.3137 111.034 37.1765 111.034 36.4188C111.034 35.8366 110.761 35.6192 110.184 35.6192H109.948C108.842 35.6192 108.096 35.1644 108.03 34.2749C108.011 34.0288 108.054 33.8109 108.054 33.5551C108.054 30.7109 107.09 28.0413 103.189 28.0413C101.488 28.0413 100.335 28.7795 99.5467 29.797Z" fill="url(#paint29_linear_717_6826)"/>
<path d="M112.763 22.5459C112.612 22.5459 112.551 22.612 112.551 22.7638V34.4641C112.551 35.3352 112.225 35.6192 111.526 35.6192H110.184C109.589 35.6192 109.334 35.8366 109.334 36.5516C109.334 37.1624 109.608 37.3137 110.184 37.3137H111.842C113.606 37.3137 114.32 36.5142 114.341 34.6625V22.7421C114.335 22.606 114.268 22.5459 114.129 22.5459H112.763Z" fill="url(#paint30_linear_717_6826)"/>
<path d="M117.539 22.5459C117.383 22.5459 117.327 22.612 117.327 22.7638V37.0958C117.327 37.2519 117.383 37.3137 117.539 37.3137H118.904C119.051 37.3137 119.112 37.2519 119.112 37.0958V22.7638C119.112 22.612 119.051 22.5459 118.904 22.5459H117.539Z" fill="url(#paint31_linear_717_6826)"/>
<path d="M131.323 24.2642C131.176 24.2642 131.111 24.3255 131.111 24.4821V26.0628C131.111 26.2189 131.176 26.2801 131.323 26.2801H132.778C132.929 26.2801 132.99 26.2189 132.99 26.0628V24.4821C132.99 24.3255 132.929 24.2642 132.778 24.2642H131.323ZM128.725 24.2642C128.574 24.2642 128.508 24.3255 128.508 24.4821V26.0628C128.508 26.2189 128.574 26.2801 128.725 26.2801H130.176C130.327 26.2801 130.388 26.2189 130.388 26.0628V24.4821C130.388 24.3255 130.327 24.2642 130.176 24.2642H128.725ZM126.68 32.7745C126.68 36.0735 128.215 37.4698 130.756 37.4698C133.246 37.4698 134.823 36.0735 134.823 32.7745C134.823 29.4517 133.312 28.0413 130.756 28.0413C128.191 28.0413 126.68 29.4517 126.68 32.7745ZM128.465 32.7745C128.465 30.8621 129.131 29.7309 130.756 29.7309C132.372 29.7309 133.033 30.8621 133.033 32.7745C133.033 34.8614 132.372 35.7705 130.756 35.7705C129.131 35.7705 128.465 34.8614 128.465 32.7745Z" fill="url(#paint32_linear_717_6826)"/>
<path d="M138.635 28.4294C138.489 28.4294 138.423 28.4907 138.423 28.6468V38.0948C138.423 39.3345 137.847 39.9405 136.699 39.9405H136.203C136.057 39.9405 135.99 40.0023 135.99 40.1584V41.4176C135.99 41.564 136.057 41.635 136.203 41.635H136.784C139.018 41.635 140.213 40.3997 140.213 38.0471V28.6468C140.213 28.4907 140.152 28.4294 140.001 28.4294H138.635Z" fill="url(#paint33_linear_717_6826)"/>
<path d="M143.302 22.5459C143.156 22.5459 143.095 22.612 143.095 22.7638V37.0958C143.095 37.2519 143.156 37.3137 143.302 37.3137H144.668C144.819 37.3137 144.88 37.2519 144.88 37.0958V22.7638C144.88 22.612 144.819 22.5459 144.668 22.5459H143.302Z" fill="url(#paint34_linear_717_6826)"/>
<path d="M149.014 24.2642C148.872 24.2642 148.801 24.3255 148.801 24.4821V26.0628C148.801 26.2189 148.872 26.2801 149.014 26.2801H150.464C150.615 26.2801 150.681 26.2189 150.681 26.0628V24.4821C150.681 24.3255 150.615 24.2642 150.464 24.2642H149.014ZM149.014 28.4294C148.872 28.4294 148.801 28.4907 148.801 28.6468V38.0948C148.801 39.3345 148.23 39.9405 147.081 39.9405H146.591C146.439 39.9405 146.373 40.0023 146.373 40.1584V41.4176C146.373 41.564 146.439 41.635 146.591 41.635H147.162C149.397 41.635 150.591 40.3997 150.591 38.0471V28.6468C150.591 28.4907 150.53 28.4294 150.383 28.4294H149.014Z" fill="url(#paint35_linear_717_6826)"/>
<path d="M153.156 32.9068C153.156 36.2014 154.706 37.3137 157.223 37.3137H159.505V37.8769C159.505 39.5053 158.65 39.9405 157.521 39.9405H154.961C154.814 39.9405 154.748 40.0023 154.748 40.1584V41.4176C154.748 41.564 154.814 41.635 154.961 41.635H157.606C159.827 41.635 161.295 40.5276 161.295 37.8298V32.7745C161.295 29.4517 159.827 28.0413 157.266 28.0413C154.984 28.0413 153.156 29.5797 153.156 32.9068ZM154.947 32.9068C154.947 30.995 155.816 29.7309 157.266 29.7309C158.886 29.7309 159.505 30.8622 159.505 32.7745V35.6193H157.351C155.754 35.6193 154.947 34.9661 154.947 32.9068Z" fill="url(#paint36_linear_717_6826)"/>
<path d="M6.45062 48.7011C6.35594 48.7011 6.28995 48.7396 6.26127 48.829L3.87065 54.4193H3.83819L1.40051 48.829C1.36751 48.7396 1.30583 48.7011 1.21657 48.7011H0.432143C0.351536 48.7011 0.314209 48.7396 0.314209 48.829V56.8852C0.314209 56.9752 0.351536 57.0039 0.432143 57.0039H1.18303C1.27284 57.0039 1.30584 56.9752 1.30584 56.8852V51.1111H1.3437L3.36537 55.6737C3.41785 55.7777 3.48872 55.82 3.60178 55.82H4.07893C4.16874 55.82 4.24448 55.7777 4.29154 55.6737L6.31807 51.1111H6.35594V56.8852C6.35594 56.9752 6.38894 57.0039 6.47388 57.0039H7.22964C7.31025 57.0039 7.34757 56.9752 7.34757 56.8852V48.829C7.34757 48.7396 7.31025 48.7011 7.22964 48.7011H6.45062Z" fill="url(#paint37_linear_717_6826)"/>
<path d="M9.4118 48.7011C9.32687 48.7011 9.29441 48.7396 9.29441 48.829V56.8852C9.29441 56.9752 9.32687 57.0039 9.4118 57.0039H10.239C10.3239 57.0039 10.3612 56.9752 10.3612 56.8852V48.829C10.3612 48.7396 10.3239 48.7011 10.239 48.7011H9.4118Z" fill="url(#paint38_linear_717_6826)"/>
<path d="M17.254 48.7011C17.1685 48.7011 17.1306 48.7396 17.1306 48.829V55.0536H17.0792L13.3892 48.829C13.3562 48.7396 13.295 48.7011 13.1912 48.7011H12.4208C12.3364 48.7011 12.3034 48.7396 12.3034 48.829V56.8852C12.3034 56.9752 12.3364 57.0039 12.4208 57.0039H13.1722C13.262 57.0039 13.295 56.9752 13.295 56.8852V50.685H13.3329L17.0359 56.8852C17.0744 56.9752 17.1306 57.0039 17.2394 57.0039H18.0049C18.0941 57.0039 18.1277 56.9752 18.1277 56.8852V48.829C18.1277 48.7396 18.0941 48.7011 18.0049 48.7011H17.254Z" fill="url(#paint39_linear_717_6826)"/>
<path d="M20.1913 48.7011C20.1069 48.7011 20.0739 48.7396 20.0739 48.829V56.8852C20.0739 56.9752 20.1069 57.0039 20.1913 57.0039H21.0185C21.0975 57.0039 21.1316 56.979 21.1359 56.9025V48.8117C21.1316 48.7341 21.0975 48.7011 21.0185 48.7011H20.1913Z" fill="url(#paint40_linear_717_6826)"/>
<path d="M22.9363 51.0021C22.9363 52.2798 23.7396 53.0517 25.3361 53.2924L25.7418 53.359C27.0364 53.5531 27.4427 53.9933 27.4427 54.7126C27.4427 55.5506 26.8005 56.1279 25.6434 56.1279C24.6891 56.1279 23.8954 55.7019 23.3658 55.2715C23.3047 55.2237 23.2479 55.2237 23.2008 55.2855L22.6766 55.9198C22.6247 55.981 22.6247 56.0428 22.6858 56.1046C23.2955 56.6532 24.3866 57.1405 25.5481 57.1405C27.5184 57.1405 28.5198 56.09 28.5198 54.6421C28.5198 53.255 27.7218 52.5595 26.1248 52.3177L25.7278 52.2608C24.4759 52.0624 24.0128 51.6223 24.0128 50.9257C24.0128 50.1305 24.5565 49.5819 25.5628 49.5819C26.2806 49.5819 26.8568 49.7809 27.5282 50.2069C27.5844 50.2443 27.6455 50.2443 27.6932 50.1831L28.1038 49.5109C28.1465 49.4491 28.1368 49.3879 28.0805 49.3402C27.4665 48.8908 26.5592 48.5693 25.5957 48.5693C23.9658 48.5693 22.9363 49.5201 22.9363 51.0021Z" fill="url(#paint41_linear_717_6826)"/>
<path d="M29.4691 48.7011C29.3841 48.7011 29.3511 48.7396 29.3511 48.829V49.596C29.3511 49.6811 29.3841 49.7147 29.4691 49.7147H31.7033C31.7461 49.7147 31.7693 49.7429 31.7693 49.7852V56.8852C31.7693 56.9752 31.8077 57.0039 31.8878 57.0039H32.7236C32.8042 57.0039 32.8421 56.9752 32.8421 56.8852V49.7852C32.8421 49.7429 32.8605 49.7147 32.9081 49.7147H35.1375C35.2273 49.7147 35.2603 49.6811 35.2603 49.596V48.829C35.2603 48.7396 35.2273 48.7011 35.1375 48.7011H29.4691Z" fill="url(#paint42_linear_717_6826)"/>
<path d="M36.5835 48.7011C36.4936 48.7011 36.465 48.7396 36.465 48.829V56.8852C36.465 56.9752 36.4936 57.0039 36.5835 57.0039H37.4052C37.4901 57.0039 37.528 56.9752 37.528 56.8852V53.5629C37.528 53.5157 37.5518 53.4967 37.5989 53.4967H39.3982L41.0282 56.8852C41.0612 56.9752 41.1131 57.0039 41.1845 57.0039H42.1432C42.2514 57.0039 42.2752 56.9562 42.214 56.8619L40.4753 53.3591C41.4821 53.0279 42.0815 52.2185 42.0815 51.0965C42.0815 49.6573 41.052 48.7011 39.5259 48.7011H36.5835ZM37.528 52.4077V49.7852C37.528 49.7429 37.5518 49.7147 37.5989 49.7147H39.5069C40.4612 49.7147 41.0141 50.2162 41.0141 51.0965C41.0141 51.9768 40.4612 52.4739 39.5069 52.4739H37.5989C37.5518 52.4739 37.528 52.4506 37.528 52.4077Z" fill="url(#paint43_linear_717_6826)"/>
<path d="M47.9483 48.7011C47.8823 48.7011 47.8212 48.7396 47.7736 48.829L45.9694 52.379H45.9461L44.1176 48.829C44.0749 48.7396 44.0132 48.7011 43.9429 48.7011H43.0924C42.9837 48.7011 42.9604 48.7537 42.9934 48.8388L45.4025 53.6144V56.8852C45.4025 56.9752 45.4403 57.0039 45.5253 57.0039H46.3378C46.4184 57.0039 46.4606 56.9752 46.4606 56.8852V53.6144L48.8696 48.8388C48.9026 48.7537 48.8837 48.7011 48.775 48.7011H47.9483Z" fill="url(#paint44_linear_717_6826)"/>
<path d="M52.5255 50.5099C52.3653 51.0021 52.3085 51.4754 52.3085 52.8576C52.3085 54.2345 52.3653 54.7126 52.5255 55.1999C52.9464 56.483 53.9007 57.1405 55.2942 57.1405C56.697 57.1405 57.6557 56.483 58.0717 55.1999C58.2323 54.7126 58.2886 54.2345 58.2886 52.8576C58.2886 51.4754 58.2323 51.0021 58.0717 50.5099C57.6557 49.2317 56.697 48.5693 55.2942 48.5693C53.9007 48.5693 52.9464 49.2317 52.5255 50.5099ZM53.5653 54.8925C53.4754 54.5987 53.3856 54.0643 53.3856 52.8576C53.3856 51.6504 53.4754 51.1111 53.5653 50.813C53.8201 50.027 54.3821 49.5819 55.2942 49.5819C56.2058 49.5819 56.7868 50.027 57.0324 50.813C57.1314 51.1111 57.212 51.6504 57.212 52.8576C57.212 54.0643 57.1314 54.5987 57.0324 54.8925C56.7868 55.6878 56.2058 56.1279 55.2942 56.1279C54.3821 56.1279 53.8201 55.6878 53.5653 54.8925Z" fill="url(#paint45_linear_717_6826)"/>
<path d="M60.0652 48.7011C59.9846 48.7011 59.9472 48.7396 59.9472 48.829V56.8852C59.9472 56.9752 59.9846 57.0039 60.0652 57.0039H60.8918C60.9767 57.0039 61.0146 56.9752 61.0146 56.8852V53.4772C61.0146 53.4252 61.0384 53.4062 61.0855 53.4062H64.3828C64.4677 53.4062 64.5007 53.3639 64.5007 53.2832V52.5118C64.5007 52.4267 64.4677 52.3888 64.3828 52.3888H61.0855C61.0384 52.3888 61.0146 52.3698 61.0146 52.3177V49.7852C61.0146 49.7429 61.0384 49.7147 61.0855 49.7147H64.9735C65.0536 49.7147 65.0909 49.6811 65.0909 49.596V48.829C65.0909 48.7396 65.0536 48.7011 64.9735 48.7011H60.0652Z" fill="url(#paint46_linear_717_6826)"/>
<path d="M74.2176 48.7011C74.1273 48.7011 74.0948 48.7396 74.0948 48.829V52.2326C74.0948 52.2798 74.0661 52.3036 74.0191 52.3036H70.4854C70.4334 52.3036 70.415 52.2798 70.415 52.2326V48.829C70.415 48.7396 70.3772 48.7011 70.2965 48.7011H69.465C69.3801 48.7011 69.3471 48.7396 69.3471 48.829V56.8852C69.3471 56.9752 69.3801 57.0039 69.465 57.0039H70.2965C70.3772 57.0039 70.415 56.9752 70.415 56.8852V53.397C70.415 53.345 70.4334 53.3211 70.4854 53.3211H74.0191C74.0661 53.3211 74.0948 53.345 74.0948 53.397V56.8852C74.0948 56.9752 74.1273 57.0039 74.2176 57.0039H75.0394C75.1243 57.0039 75.1579 56.9752 75.1579 56.8852V48.829C75.1579 48.7396 75.1243 48.7011 75.0394 48.7011H74.2176Z" fill="url(#paint47_linear_717_6826)"/>
<path d="M79.3612 48.7011C79.2811 48.7011 79.2389 48.7396 79.2151 48.829L76.3858 56.8852C76.362 56.9752 76.3858 57.0039 76.4707 57.0039H77.3065C77.3779 57.0039 77.4245 56.9752 77.4623 56.8852L78.0861 55.0774H81.3834L82.0072 56.8852C82.0304 56.9752 82.0824 57.0039 82.1678 57.0039H83.0037C83.0886 57.0039 83.1075 56.9752 83.0886 56.8852L80.2922 48.829C80.2684 48.7396 80.2214 48.7011 80.1364 48.7011H79.3612ZM79.7301 50.3013H79.7491L81.0339 54.0735H78.4356L79.7301 50.3013Z" fill="url(#paint48_linear_717_6826)"/>
<path d="M87.2925 48.7011C87.2124 48.7011 87.1751 48.7396 87.1751 48.829V54.3434C87.1751 55.5696 86.6265 56.1279 85.663 56.1279C85.1486 56.1279 84.7277 55.858 84.4777 55.6167C84.4204 55.5506 84.3593 55.536 84.2976 55.5886L83.703 56.1187C83.6414 56.18 83.6414 56.2228 83.703 56.2889C84.0899 56.7719 84.8083 57.1405 85.6257 57.1405C87.2265 57.1405 88.2419 56.2179 88.2419 54.3434V48.829C88.2419 48.7396 88.2046 48.7011 88.1197 48.7011H87.2925Z" fill="url(#paint49_linear_717_6826)"/>
<path d="M93.108 48.7011C93.0279 48.7011 92.9895 48.7396 92.9895 48.829V54.3434C92.9895 55.5696 92.4372 56.1279 91.478 56.1279C90.9679 56.1279 90.5427 55.858 90.2878 55.6167C90.231 55.5506 90.1699 55.536 90.1126 55.5886L89.5126 56.1187C89.4515 56.18 89.4515 56.2228 89.5126 56.2889C89.9097 56.7719 90.6276 57.1405 91.4456 57.1405C93.0371 57.1405 94.0574 56.2179 94.0574 54.3434V48.829C94.0574 48.7396 94.0196 48.7011 93.939 48.7011H93.108Z" fill="url(#paint50_linear_717_6826)"/>
<path d="M101.001 48.7011C100.926 48.7011 100.879 48.7396 100.855 48.829L98.0254 56.8852C98.0016 56.9752 98.0254 57.0039 98.1152 57.0039H98.951C99.017 57.0039 99.0695 56.9752 99.1025 56.8852L99.7257 55.0774H103.023L103.647 56.8852C103.671 56.9752 103.722 57.0039 103.807 57.0039H104.643C104.728 57.0039 104.747 56.9752 104.728 56.8852L101.937 48.829C101.909 48.7396 101.861 48.7011 101.776 48.7011H101.001ZM101.37 50.3013H101.393L102.678 54.0735H100.075L101.37 50.3013Z" fill="url(#paint51_linear_717_6826)"/>
<path d="M110.898 48.7011C110.817 48.7011 110.78 48.7396 110.78 48.829V55.0536H110.733L107.038 48.829C107.006 48.7396 106.948 48.7011 106.84 48.7011H106.065C105.985 48.7011 105.947 48.7396 105.947 48.829V56.8852C105.947 56.9752 105.985 57.0039 106.065 57.0039H106.826C106.91 57.0039 106.948 56.9752 106.948 56.8852V50.685H106.981L110.69 56.8852C110.723 56.9752 110.78 57.0039 110.888 57.0039H111.653C111.738 57.0039 111.776 56.9752 111.776 56.8852V48.829C111.776 48.7396 111.738 48.7011 111.653 48.7011H110.898Z" fill="url(#paint52_linear_717_6826)"/>
<path d="M113.84 48.7011C113.755 48.7011 113.722 48.7396 113.722 48.829V56.8852C113.722 56.9752 113.755 57.0039 113.84 57.0039H116.585C117.997 57.0039 118.886 56.4217 119.24 55.2379C119.377 54.7842 119.457 54.3342 119.457 52.8576C119.457 51.3805 119.377 50.9257 119.24 50.472C118.886 49.2881 117.997 48.7011 116.585 48.7011H113.84ZM114.785 55.9198V49.7852C114.785 49.7429 114.814 49.7147 114.856 49.7147H116.354C117.364 49.7147 117.936 50.027 118.215 50.8552C118.309 51.1485 118.38 51.5599 118.38 52.8576C118.38 54.1499 118.309 54.5614 118.215 54.8595C117.936 55.6878 117.364 55.9951 116.354 55.9951H114.856C114.814 55.9951 114.785 55.9669 114.785 55.9198Z" fill="url(#paint53_linear_717_6826)"/>
<path d="M128.678 48.7011C128.598 48.7011 128.56 48.7396 128.56 48.829V54.1022C128.56 55.4698 127.856 56.1279 126.75 56.1279C125.645 56.1279 124.932 55.4698 124.932 54.1022V48.829C124.932 48.7396 124.894 48.7011 124.809 48.7011H123.983C123.897 48.7011 123.864 48.7396 123.864 48.829V54.1114C123.864 56.0808 124.932 57.1405 126.75 57.1405C128.541 57.1405 129.627 56.0808 129.627 54.1114V48.829C129.627 48.7396 129.59 48.7011 129.509 48.7011H128.678Z" fill="url(#paint54_linear_717_6826)"/>
<path d="M137.648 48.7011C137.554 48.7011 137.492 48.7396 137.455 48.829L135.069 54.4193H135.036L132.604 48.829C132.566 48.7396 132.504 48.7011 132.41 48.7011H131.63C131.545 48.7011 131.512 48.7396 131.512 48.829V56.8852C131.512 56.9752 131.545 57.0039 131.63 57.0039H132.386C132.466 57.0039 132.504 56.9752 132.504 56.8852V51.1111H132.547L134.568 55.6737C134.616 55.7778 134.686 55.82 134.795 55.82H135.272C135.371 55.82 135.442 55.7778 135.489 55.6737L137.516 51.1111H137.554V56.8852C137.554 56.9752 137.591 57.0039 137.672 57.0039H138.428C138.513 57.0039 138.546 56.9752 138.546 56.8852V48.829C138.546 48.7396 138.513 48.7011 138.428 48.7011H137.648Z" fill="url(#paint55_linear_717_6826)"/>
<path d="M140.61 48.7011C140.53 48.7011 140.492 48.7396 140.492 48.829V56.8852C140.492 56.9752 140.53 57.0039 140.61 57.0039H141.437C141.522 57.0039 141.559 56.9752 141.559 56.8852V53.5629C141.559 53.5157 141.583 53.4967 141.63 53.4967H143.43L145.055 56.8852C145.093 56.9752 145.14 57.0039 145.216 57.0039H146.175C146.278 57.0039 146.302 56.9562 146.241 56.8619L144.507 53.3591C145.518 53.0279 146.113 52.2185 146.113 51.0965C146.113 49.6573 145.084 48.7011 143.562 48.7011H140.61ZM141.559 52.4077V49.7852C141.559 49.7429 141.583 49.7147 141.63 49.7147H143.534C144.498 49.7147 145.046 50.2162 145.046 51.0965C145.046 51.9768 144.498 52.4739 143.534 52.4739H141.63C141.583 52.4739 141.559 52.4506 141.559 52.4077Z" fill="url(#paint56_linear_717_6826)"/>
<path d="M150.072 48.7011C150.001 48.7011 149.954 48.7396 149.925 48.829L147.096 56.8852C147.077 56.9752 147.096 57.0039 147.181 57.0039H148.021C148.093 57.0039 148.14 56.9752 148.177 56.8852L148.796 55.0774H152.098L152.722 56.8852C152.745 56.9752 152.788 57.0039 152.878 57.0039H153.714C153.804 57.0039 153.822 56.9752 153.804 56.8852L151.002 48.829C150.984 48.7396 150.936 48.7011 150.851 48.7011H150.072ZM150.445 50.3013H150.464L151.749 54.0735H149.15L150.445 50.3013Z" fill="url(#paint57_linear_717_6826)"/>
<path d="M159.888 48.7011C159.803 48.7011 159.769 48.7396 159.769 48.829V52.2326C159.769 52.2798 159.746 52.3036 159.694 52.3036H156.161C156.113 52.3036 156.09 52.2798 156.09 52.2326V48.829C156.09 48.7396 156.057 48.7011 155.972 48.7011H155.14C155.061 48.7011 155.022 48.7396 155.022 48.829V56.8852C155.022 56.9752 155.061 57.0039 155.14 57.0039H155.972C156.057 57.0039 156.09 56.9752 156.09 56.8852V53.397C156.09 53.345 156.113 53.3211 156.161 53.3211H159.694C159.746 53.3211 159.769 53.345 159.769 53.397V56.8852C159.769 56.9752 159.803 57.0039 159.888 57.0039H160.714C160.804 57.0039 160.832 56.9752 160.832 56.8852V48.829C160.832 48.7396 160.804 48.7011 160.714 48.7011H159.888Z" fill="url(#paint58_linear_717_6826)"/>
<defs>
<linearGradient id="paint0_linear_717_6826" x1="256.179" y1="40.0474" x2="-173.681" y2="40.0474" gradientUnits="userSpaceOnUse">
<stop stop-color="#393D3F"/>
<stop offset="1" stop-color="#666A6C"/>
</linearGradient>
<linearGradient id="paint1_linear_717_6826" x1="256.179" y1="40.0486" x2="-173.681" y2="40.0486" gradientUnits="userSpaceOnUse">
<stop stop-color="#393D3F"/>
<stop offset="1" stop-color="#666A6C"/>
</linearGradient>
<linearGradient id="paint2_linear_717_6826" x1="232.779" y1="40.0477" x2="-33.4125" y2="40.0477" gradientUnits="userSpaceOnUse">
<stop stop-color="#393D3F"/>
<stop offset="1" stop-color="#666A6C"/>
</linearGradient>
<linearGradient id="paint3_linear_717_6826" x1="232.779" y1="40.0473" x2="-33.4125" y2="40.0473" gradientUnits="userSpaceOnUse">
<stop stop-color="#393D3F"/>
<stop offset="1" stop-color="#666A6C"/>
</linearGradient>
<radialGradient id="paint4_radial_717_6826" cx="0" cy="0" r="1" gradientUnits="userSpaceOnUse" gradientTransform="translate(118.456 -36.6522) rotate(90) scale(100.184 176.008)">
<stop stop-color="#BD8D45"/>
<stop offset="0.31" stop-color="#DDBC8C"/>
<stop offset="0.74" stop-color="#FED082"/>
<stop offset="1" stop-color="#99723E"/>
</radialGradient>
<radialGradient id="paint5_radial_717_6826" cx="0" cy="0" r="1" gradientUnits="userSpaceOnUse" gradientTransform="translate(278.819 1419.09) rotate(-94.9442) scale(1451.94 829.743)">
<stop stop-color="#967C42"/>
<stop offset="0.0376344" stop-color="#967C42"/>
<stop offset="0.168688" stop-color="#897A47"/>
<stop offset="0.168945" stop-color="#897A47"/>
<stop offset="0.312968" stop-color="#7A774C"/>
<stop offset="0.317204" stop-color="#7A774C"/>
<stop offset="0.655914" stop-color="#3E7E4B"/>
<stop offset="1" stop-color="#004425"/>
</radialGradient>
<radialGradient id="paint6_radial_717_6826" cx="0" cy="0" r="1" gradientUnits="userSpaceOnUse" gradientTransform="translate(280.434 1327.13) rotate(-95.1545) scale(1452.42 864.952)">
<stop stop-color="#967C42"/>
<stop offset="0.0376344" stop-color="#967C42"/>
<stop offset="0.168688" stop-color="#897A47"/>
<stop offset="0.168945" stop-color="#897A47"/>
<stop offset="0.312968" stop-color="#7A774C"/>
<stop offset="0.317204" stop-color="#7A774C"/>
<stop offset="0.655914" stop-color="#3E7E4B"/>
<stop offset="1" stop-color="#004425"/>
</radialGradient>
<radialGradient id="paint7_radial_717_6826" cx="0" cy="0" r="1" gradientUnits="userSpaceOnUse" gradientTransform="translate(123.095 173.094) rotate(-90) scale(160.249 266.722)">
<stop stop-color="#BD8D45"/>
<stop offset="0.31" stop-color="#DDBC8C"/>
<stop offset="0.74" stop-color="#FED082"/>
<stop offset="1" stop-color="#99723E"/>
</radialGradient>
<radialGradient id="paint8_radial_717_6826" cx="0" cy="0" r="1" gradientUnits="userSpaceOnUse" gradientTransform="translate(-5.03221 459.55) rotate(-90) scale(426.441 548.404)">
<stop stop-color="#BD8D45"/>
<stop offset="0.31" stop-color="#DDBC8C"/>
<stop offset="0.74" stop-color="#FED082"/>
<stop offset="1" stop-color="#99723E"/>
</radialGradient>
<radialGradient id="paint9_radial_717_6826" cx="0" cy="0" r="1" gradientUnits="userSpaceOnUse" gradientTransform="translate(249.264 233.545) rotate(-90) scale(265.427 548.454)">
<stop stop-color="#BD8D45"/>
<stop offset="0.31" stop-color="#DDBC8C"/>
<stop offset="0.74" stop-color="#FED082"/>
<stop offset="1" stop-color="#99723E"/>
</radialGradient>
<radialGradient id="paint10_radial_717_6826" cx="0" cy="0" r="1" gradientUnits="userSpaceOnUse" gradientTransform="translate(277.44 584.667) rotate(-103.289) scale(524.51 780.927)">
<stop stop-color="#967C42"/>
<stop offset="0.0376344" stop-color="#967C42"/>
<stop offset="0.168688" stop-color="#897A47"/>
<stop offset="0.168945" stop-color="#897A47"/>
<stop offset="0.312968" stop-color="#7A774C"/>
<stop offset="0.317204" stop-color="#7A774C"/>
<stop offset="0.655914" stop-color="#3E7E4B"/>
<stop offset="1" stop-color="#004425"/>
</radialGradient>
<radialGradient id="paint11_radial_717_6826" cx="0" cy="0" r="1" gradientUnits="userSpaceOnUse" gradientTransform="translate(208.453 191.125) rotate(-114.207) scale(244.872 609.502)">
<stop stop-color="#967C42"/>
<stop offset="0.0376344" stop-color="#967C42"/>
<stop offset="0.168688" stop-color="#897A47"/>
<stop offset="0.168945" stop-color="#897A47"/>
<stop offset="0.312968" stop-color="#7A774C"/>
<stop offset="0.317204" stop-color="#7A774C"/>
<stop offset="0.655914" stop-color="#3E7E4B"/>
<stop offset="1" stop-color="#004425"/>
</radialGradient>
<radialGradient id="paint12_radial_717_6826" cx="0" cy="0" r="1" gradientUnits="userSpaceOnUse" gradientTransform="translate(121.217 193.855) rotate(-90) scale(172.967 163.531)">
<stop stop-color="#BD8D45"/>
<stop offset="0.31" stop-color="#DDBC8C"/>
<stop offset="0.74" stop-color="#FED082"/>
<stop offset="1" stop-color="#99723E"/>
</radialGradient>
<linearGradient id="paint13_linear_717_6826" x1="120.694" y1="531.89" x2="120.694" y2="-108.528" gradientUnits="userSpaceOnUse">
<stop stop-color="#967C42"/>
<stop offset="0.0376344" stop-color="#967C42"/>
<stop offset="0.168688" stop-color="#897A47"/>
<stop offset="0.168945" stop-color="#897A47"/>
<stop offset="0.312968" stop-color="#7A774C"/>
<stop offset="0.317204" stop-color="#7A774C"/>
<stop offset="0.655914" stop-color="#3E7E4B"/>
<stop offset="1" stop-color="#004425"/>
</linearGradient>
<linearGradient id="paint14_linear_717_6826" x1="120.685" y1="557.126" x2="120.685" y2="-83.2957" gradientUnits="userSpaceOnUse">
<stop stop-color="#967C42"/>
<stop offset="0.0376344" stop-color="#967C42"/>
<stop offset="0.168688" stop-color="#897A47"/>
<stop offset="0.168945" stop-color="#897A47"/>
<stop offset="0.312968" stop-color="#7A774C"/>
<stop offset="0.317204" stop-color="#7A774C"/>
<stop offset="0.655914" stop-color="#3E7E4B"/>
<stop offset="1" stop-color="#004425"/>
</linearGradient>
<linearGradient id="paint15_linear_717_6826" x1="120.69" y1="4137.55" x2="120.69" y2="-853.5" gradientUnits="userSpaceOnUse">
<stop stop-color="#967C42"/>
<stop offset="0.0376344" stop-color="#967C42"/>
<stop offset="0.168688" stop-color="#897A47"/>
<stop offset="0.168945" stop-color="#897A47"/>
<stop offset="0.312968" stop-color="#7A774C"/>
<stop offset="0.317204" stop-color="#7A774C"/>
<stop offset="0.655914" stop-color="#3E7E4B"/>
<stop offset="1" stop-color="#004425"/>
</linearGradient>
<linearGradient id="paint16_linear_717_6826" x1="120.696" y1="4137.55" x2="120.696" y2="-853.5" gradientUnits="userSpaceOnUse">
<stop stop-color="#967C42"/>
<stop offset="0.0376344" stop-color="#967C42"/>
<stop offset="0.168688" stop-color="#897A47"/>
<stop offset="0.168945" stop-color="#897A47"/>
<stop offset="0.312968" stop-color="#7A774C"/>
<stop offset="0.317204" stop-color="#7A774C"/>
<stop offset="0.655914" stop-color="#3E7E4B"/>
<stop offset="1" stop-color="#004425"/>
</linearGradient>
<linearGradient id="paint17_linear_717_6826" x1="120.695" y1="4137.55" x2="120.695" y2="-853.5" gradientUnits="userSpaceOnUse">
<stop stop-color="#967C42"/>
<stop offset="0.0376344" stop-color="#967C42"/>
<stop offset="0.168688" stop-color="#897A47"/>
<stop offset="0.168945" stop-color="#897A47"/>
<stop offset="0.312968" stop-color="#7A774C"/>
<stop offset="0.317204" stop-color="#7A774C"/>
<stop offset="0.655914" stop-color="#3E7E4B"/>
<stop offset="1" stop-color="#004425"/>
</linearGradient>
<linearGradient id="paint18_linear_717_6826" x1="120.689" y1="744.947" x2="120.689" y2="-152.024" gradientUnits="userSpaceOnUse">
<stop stop-color="#967C42"/>
<stop offset="0.0376344" stop-color="#967C42"/>
<stop offset="0.168688" stop-color="#897A47"/>
<stop offset="0.168945" stop-color="#897A47"/>
<stop offset="0.312968" stop-color="#7A774C"/>
<stop offset="0.317204" stop-color="#7A774C"/>
<stop offset="0.655914" stop-color="#3E7E4B"/>
<stop offset="1" stop-color="#004425"/>
</linearGradient>
<linearGradient id="paint19_linear_717_6826" x1="120.687" y1="756.144" x2="120.687" y2="-155.931" gradientUnits="userSpaceOnUse">
<stop stop-color="#967C42"/>
<stop offset="0.0376344" stop-color="#967C42"/>
<stop offset="0.168688" stop-color="#897A47"/>
<stop offset="0.168945" stop-color="#897A47"/>
<stop offset="0.312968" stop-color="#7A774C"/>
<stop offset="0.317204" stop-color="#7A774C"/>
<stop offset="0.655914" stop-color="#3E7E4B"/>
<stop offset="1" stop-color="#004425"/>
</linearGradient>
<linearGradient id="paint20_linear_717_6826" x1="120.696" y1="4137.55" x2="120.696" y2="-853.5" gradientUnits="userSpaceOnUse">
<stop stop-color="#967C42"/>
<stop offset="0.0376344" stop-color="#967C42"/>
<stop offset="0.168688" stop-color="#897A47"/>
<stop offset="0.168945" stop-color="#897A47"/>
<stop offset="0.312968" stop-color="#7A774C"/>
<stop offset="0.317204" stop-color="#7A774C"/>
<stop offset="0.655914" stop-color="#3E7E4B"/>
<stop offset="1" stop-color="#004425"/>
</linearGradient>
<linearGradient id="paint21_linear_717_6826" x1="120.683" y1="4137.55" x2="120.683" y2="-853.5" gradientUnits="userSpaceOnUse">
<stop stop-color="#967C42"/>
<stop offset="0.0376344" stop-color="#967C42"/>
<stop offset="0.168688" stop-color="#897A47"/>
<stop offset="0.168945" stop-color="#897A47"/>
<stop offset="0.312968" stop-color="#7A774C"/>
<stop offset="0.317204" stop-color="#7A774C"/>
<stop offset="0.655914" stop-color="#3E7E4B"/>
<stop offset="1" stop-color="#004425"/>
</linearGradient>
<linearGradient id="paint22_linear_717_6826" x1="120.693" y1="474.784" x2="120.693" y2="-97.8884" gradientUnits="userSpaceOnUse">
<stop stop-color="#967C42"/>
<stop offset="0.0376344" stop-color="#967C42"/>
<stop offset="0.168688" stop-color="#897A47"/>
<stop offset="0.168945" stop-color="#897A47"/>
<stop offset="0.312968" stop-color="#7A774C"/>
<stop offset="0.317204" stop-color="#7A774C"/>
<stop offset="0.655914" stop-color="#3E7E4B"/>
<stop offset="1" stop-color="#004425"/>
</linearGradient>
<linearGradient id="paint23_linear_717_6826" x1="120.699" y1="474.784" x2="120.699" y2="-97.8884" gradientUnits="userSpaceOnUse">
<stop stop-color="#967C42"/>
<stop offset="0.0376344" stop-color="#967C42"/>
<stop offset="0.168688" stop-color="#897A47"/>
<stop offset="0.168945" stop-color="#897A47"/>
<stop offset="0.312968" stop-color="#7A774C"/>
<stop offset="0.317204" stop-color="#7A774C"/>
<stop offset="0.655914" stop-color="#3E7E4B"/>
<stop offset="1" stop-color="#004425"/>
</linearGradient>
<linearGradient id="paint24_linear_717_6826" x1="120.685" y1="541.221" x2="120.685" y2="-80.9162" gradientUnits="userSpaceOnUse">
<stop stop-color="#967C42"/>
<stop offset="0.0376344" stop-color="#967C42"/>
<stop offset="0.168688" stop-color="#897A47"/>
<stop offset="0.168945" stop-color="#897A47"/>
<stop offset="0.312968" stop-color="#7A774C"/>
<stop offset="0.317204" stop-color="#7A774C"/>
<stop offset="0.655914" stop-color="#3E7E4B"/>
<stop offset="1" stop-color="#004425"/>
</linearGradient>
<linearGradient id="paint25_linear_717_6826" x1="120.687" y1="541.221" x2="120.687" y2="-80.9162" gradientUnits="userSpaceOnUse">
<stop stop-color="#967C42"/>
<stop offset="0.0376344" stop-color="#967C42"/>
<stop offset="0.168688" stop-color="#897A47"/>
<stop offset="0.168945" stop-color="#897A47"/>
<stop offset="0.312968" stop-color="#7A774C"/>
<stop offset="0.317204" stop-color="#7A774C"/>
<stop offset="0.655914" stop-color="#3E7E4B"/>
<stop offset="1" stop-color="#004425"/>
</linearGradient>
<linearGradient id="paint26_linear_717_6826" x1="120.698" y1="4137.55" x2="120.698" y2="-853.5" gradientUnits="userSpaceOnUse">
<stop stop-color="#967C42"/>
<stop offset="0.0376344" stop-color="#967C42"/>
<stop offset="0.168688" stop-color="#897A47"/>
<stop offset="0.168945" stop-color="#897A47"/>
<stop offset="0.312968" stop-color="#7A774C"/>
<stop offset="0.317204" stop-color="#7A774C"/>
<stop offset="0.655914" stop-color="#3E7E4B"/>
<stop offset="1" stop-color="#004425"/>
</linearGradient>
<linearGradient id="paint27_linear_717_6826" x1="120.685" y1="4137.55" x2="120.685" y2="-853.5" gradientUnits="userSpaceOnUse">
<stop stop-color="#967C42"/>
<stop offset="0.0376344" stop-color="#967C42"/>
<stop offset="0.168688" stop-color="#897A47"/>
<stop offset="0.168945" stop-color="#897A47"/>
<stop offset="0.312968" stop-color="#7A774C"/>
<stop offset="0.317204" stop-color="#7A774C"/>
<stop offset="0.655914" stop-color="#3E7E4B"/>
<stop offset="1" stop-color="#004425"/>
</linearGradient>
<linearGradient id="paint28_linear_717_6826" x1="120.678" y1="4137.55" x2="120.678" y2="-853.5" gradientUnits="userSpaceOnUse">
<stop stop-color="#967C42"/>
<stop offset="0.0376344" stop-color="#967C42"/>
<stop offset="0.168688" stop-color="#897A47"/>
<stop offset="0.168945" stop-color="#897A47"/>
<stop offset="0.312968" stop-color="#7A774C"/>
<stop offset="0.317204" stop-color="#7A774C"/>
<stop offset="0.655914" stop-color="#3E7E4B"/>
<stop offset="1" stop-color="#004425"/>
</linearGradient>
<linearGradient id="paint29_linear_717_6826" x1="120.691" y1="756.144" x2="120.691" y2="-155.931" gradientUnits="userSpaceOnUse">
<stop stop-color="#967C42"/>
<stop offset="0.0376344" stop-color="#967C42"/>
<stop offset="0.168688" stop-color="#897A47"/>
<stop offset="0.168945" stop-color="#897A47"/>
<stop offset="0.312968" stop-color="#7A774C"/>
<stop offset="0.317204" stop-color="#7A774C"/>
<stop offset="0.655914" stop-color="#3E7E4B"/>
<stop offset="1" stop-color="#004425"/>
</linearGradient>
<linearGradient id="paint30_linear_717_6826" x1="120.704" y1="474.784" x2="120.704" y2="-97.8884" gradientUnits="userSpaceOnUse">
<stop stop-color="#967C42"/>
<stop offset="0.0376344" stop-color="#967C42"/>
<stop offset="0.168688" stop-color="#897A47"/>
<stop offset="0.168945" stop-color="#897A47"/>
<stop offset="0.312968" stop-color="#7A774C"/>
<stop offset="0.317204" stop-color="#7A774C"/>
<stop offset="0.655914" stop-color="#3E7E4B"/>
<stop offset="1" stop-color="#004425"/>
</linearGradient>
<linearGradient id="paint31_linear_717_6826" x1="120.649" y1="474.784" x2="120.649" y2="-97.8884" gradientUnits="userSpaceOnUse">
<stop stop-color="#967C42"/>
<stop offset="0.0376344" stop-color="#967C42"/>
<stop offset="0.168688" stop-color="#897A47"/>
<stop offset="0.168945" stop-color="#897A47"/>
<stop offset="0.312968" stop-color="#7A774C"/>
<stop offset="0.317204" stop-color="#7A774C"/>
<stop offset="0.655914" stop-color="#3E7E4B"/>
<stop offset="1" stop-color="#004425"/>
</linearGradient>
<linearGradient id="paint32_linear_717_6826" x1="120.682" y1="531.89" x2="120.682" y2="-108.528" gradientUnits="userSpaceOnUse">
<stop stop-color="#967C42"/>
<stop offset="0.0376344" stop-color="#967C42"/>
<stop offset="0.168688" stop-color="#897A47"/>
<stop offset="0.168945" stop-color="#897A47"/>
<stop offset="0.312968" stop-color="#7A774C"/>
<stop offset="0.317204" stop-color="#7A774C"/>
<stop offset="0.655914" stop-color="#3E7E4B"/>
<stop offset="1" stop-color="#004425"/>
</linearGradient>
<linearGradient id="paint33_linear_717_6826" x1="120.682" y1="557.126" x2="120.682" y2="-83.2957" gradientUnits="userSpaceOnUse">
<stop stop-color="#967C42"/>
<stop offset="0.0376344" stop-color="#967C42"/>
<stop offset="0.168688" stop-color="#897A47"/>
<stop offset="0.168945" stop-color="#897A47"/>
<stop offset="0.312968" stop-color="#7A774C"/>
<stop offset="0.317204" stop-color="#7A774C"/>
<stop offset="0.655914" stop-color="#3E7E4B"/>
<stop offset="1" stop-color="#004425"/>
</linearGradient>
<linearGradient id="paint34_linear_717_6826" x1="120.71" y1="474.784" x2="120.71" y2="-97.8884" gradientUnits="userSpaceOnUse">
<stop stop-color="#967C42"/>
<stop offset="0.0376344" stop-color="#967C42"/>
<stop offset="0.168688" stop-color="#897A47"/>
<stop offset="0.168945" stop-color="#897A47"/>
<stop offset="0.312968" stop-color="#7A774C"/>
<stop offset="0.317204" stop-color="#7A774C"/>
<stop offset="0.655914" stop-color="#3E7E4B"/>
<stop offset="1" stop-color="#004425"/>
</linearGradient>
<linearGradient id="paint35_linear_717_6826" x1="120.679" y1="423.549" x2="120.679" y2="-63.3117" gradientUnits="userSpaceOnUse">
<stop stop-color="#967C42"/>
<stop offset="0.0376344" stop-color="#967C42"/>
<stop offset="0.168688" stop-color="#897A47"/>
<stop offset="0.168945" stop-color="#897A47"/>
<stop offset="0.312968" stop-color="#7A774C"/>
<stop offset="0.317204" stop-color="#7A774C"/>
<stop offset="0.655914" stop-color="#3E7E4B"/>
<stop offset="1" stop-color="#004425"/>
</linearGradient>
<linearGradient id="paint36_linear_717_6826" x1="120.685" y1="541.221" x2="120.685" y2="-80.9162" gradientUnits="userSpaceOnUse">
<stop stop-color="#967C42"/>
<stop offset="0.0376344" stop-color="#967C42"/>
<stop offset="0.168688" stop-color="#897A47"/>
<stop offset="0.168945" stop-color="#897A47"/>
<stop offset="0.312968" stop-color="#7A774C"/>
<stop offset="0.317204" stop-color="#7A774C"/>
<stop offset="0.655914" stop-color="#3E7E4B"/>
<stop offset="1" stop-color="#004425"/>
</linearGradient>
<linearGradient id="paint37_linear_717_6826" x1="120.684" y1="608.814" x2="120.684" y2="-24.5186" gradientUnits="userSpaceOnUse">
<stop stop-color="#BD8D45"/>
<stop offset="0.31" stop-color="#DDBC8C"/>
<stop offset="0.74" stop-color="#FED082"/>
<stop offset="1" stop-color="#99723E"/>
</linearGradient>
<linearGradient id="paint38_linear_717_6826" x1="120.659" y1="608.814" x2="120.659" y2="-24.5186" gradientUnits="userSpaceOnUse">
<stop stop-color="#BD8D45"/>
<stop offset="0.31" stop-color="#DDBC8C"/>
<stop offset="0.74" stop-color="#FED082"/>
<stop offset="1" stop-color="#99723E"/>
</linearGradient>
<linearGradient id="paint39_linear_717_6826" x1="120.678" y1="608.814" x2="120.678" y2="-24.5186" gradientUnits="userSpaceOnUse">
<stop stop-color="#BD8D45"/>
<stop offset="0.31" stop-color="#DDBC8C"/>
<stop offset="0.74" stop-color="#FED082"/>
<stop offset="1" stop-color="#99723E"/>
</linearGradient>
<linearGradient id="paint40_linear_717_6826" x1="120.67" y1="608.814" x2="120.67" y2="-24.5186" gradientUnits="userSpaceOnUse">
<stop stop-color="#BD8D45"/>
<stop offset="0.31" stop-color="#DDBC8C"/>
<stop offset="0.74" stop-color="#FED082"/>
<stop offset="1" stop-color="#99723E"/>
</linearGradient>
<linearGradient id="paint41_linear_717_6826" x1="120.39" y1="591.033" x2="120.39" y2="-22.4751" gradientUnits="userSpaceOnUse">
<stop stop-color="#BD8D45"/>
<stop offset="0.31" stop-color="#DDBC8C"/>
<stop offset="0.74" stop-color="#FED082"/>
<stop offset="1" stop-color="#99723E"/>
</linearGradient>
<linearGradient id="paint42_linear_717_6826" x1="120.688" y1="608.814" x2="120.688" y2="-24.5186" gradientUnits="userSpaceOnUse">
<stop stop-color="#BD8D45"/>
<stop offset="0.31" stop-color="#DDBC8C"/>
<stop offset="0.74" stop-color="#FED082"/>
<stop offset="1" stop-color="#99723E"/>
</linearGradient>
<linearGradient id="paint43_linear_717_6826" x1="121.273" y1="608.814" x2="121.273" y2="-24.5186" gradientUnits="userSpaceOnUse">
<stop stop-color="#BD8D45"/>
<stop offset="0.31" stop-color="#DDBC8C"/>
<stop offset="0.74" stop-color="#FED082"/>
<stop offset="1" stop-color="#99723E"/>
</linearGradient>
<linearGradient id="paint44_linear_717_6826" x1="120.668" y1="608.814" x2="120.668" y2="-24.5186" gradientUnits="userSpaceOnUse">
<stop stop-color="#BD8D45"/>
<stop offset="0.31" stop-color="#DDBC8C"/>
<stop offset="0.74" stop-color="#FED082"/>
<stop offset="1" stop-color="#99723E"/>
</linearGradient>
<linearGradient id="paint45_linear_717_6826" x1="120.691" y1="591.033" x2="120.691" y2="-22.4751" gradientUnits="userSpaceOnUse">
<stop stop-color="#BD8D45"/>
<stop offset="0.31" stop-color="#DDBC8C"/>
<stop offset="0.74" stop-color="#FED082"/>
<stop offset="1" stop-color="#99723E"/>
</linearGradient>
<linearGradient id="paint46_linear_717_6826" x1="120.687" y1="608.814" x2="120.687" y2="-24.5186" gradientUnits="userSpaceOnUse">
<stop stop-color="#BD8D45"/>
<stop offset="0.31" stop-color="#DDBC8C"/>
<stop offset="0.74" stop-color="#FED082"/>
<stop offset="1" stop-color="#99723E"/>
</linearGradient>
<linearGradient id="paint47_linear_717_6826" x1="120.679" y1="608.814" x2="120.679" y2="-24.5186" gradientUnits="userSpaceOnUse">
<stop stop-color="#BD8D45"/>
<stop offset="0.31" stop-color="#DDBC8C"/>
<stop offset="0.74" stop-color="#FED082"/>
<stop offset="1" stop-color="#99723E"/>
</linearGradient>
<linearGradient id="paint48_linear_717_6826" x1="120.637" y1="608.814" x2="120.637" y2="-24.5186" gradientUnits="userSpaceOnUse">
<stop stop-color="#BD8D45"/>
<stop offset="0.31" stop-color="#DDBC8C"/>
<stop offset="0.74" stop-color="#FED082"/>
<stop offset="1" stop-color="#99723E"/>
</linearGradient>
<linearGradient id="paint49_linear_717_6826" x1="120.285" y1="600.257" x2="120.285" y2="-22.8267" gradientUnits="userSpaceOnUse">
<stop stop-color="#BD8D45"/>
<stop offset="0.31" stop-color="#DDBC8C"/>
<stop offset="0.74" stop-color="#FED082"/>
<stop offset="1" stop-color="#99723E"/>
</linearGradient>
<linearGradient id="paint50_linear_717_6826" x1="120.292" y1="600.257" x2="120.292" y2="-22.8267" gradientUnits="userSpaceOnUse">
<stop stop-color="#BD8D45"/>
<stop offset="0.31" stop-color="#DDBC8C"/>
<stop offset="0.74" stop-color="#FED082"/>
<stop offset="1" stop-color="#99723E"/>
</linearGradient>
<linearGradient id="paint51_linear_717_6826" x1="120.638" y1="608.814" x2="120.638" y2="-24.5186" gradientUnits="userSpaceOnUse">
<stop stop-color="#BD8D45"/>
<stop offset="0.31" stop-color="#DDBC8C"/>
<stop offset="0.74" stop-color="#FED082"/>
<stop offset="1" stop-color="#99723E"/>
</linearGradient>
<linearGradient id="paint52_linear_717_6826" x1="120.693" y1="608.814" x2="120.693" y2="-24.5186" gradientUnits="userSpaceOnUse">
<stop stop-color="#BD8D45"/>
<stop offset="0.31" stop-color="#DDBC8C"/>
<stop offset="0.74" stop-color="#FED082"/>
<stop offset="1" stop-color="#99723E"/>
</linearGradient>
<linearGradient id="paint53_linear_717_6826" x1="120.689" y1="608.814" x2="120.689" y2="-24.5186" gradientUnits="userSpaceOnUse">
<stop stop-color="#BD8D45"/>
<stop offset="0.31" stop-color="#DDBC8C"/>
<stop offset="0.74" stop-color="#FED082"/>
<stop offset="1" stop-color="#99723E"/>
</linearGradient>
<linearGradient id="paint54_linear_717_6826" x1="120.695" y1="600.257" x2="120.695" y2="-22.8267" gradientUnits="userSpaceOnUse">
<stop stop-color="#BD8D45"/>
<stop offset="0.31" stop-color="#DDBC8C"/>
<stop offset="0.74" stop-color="#FED082"/>
<stop offset="1" stop-color="#99723E"/>
</linearGradient>
<linearGradient id="paint55_linear_717_6826" x1="120.691" y1="608.814" x2="120.691" y2="-24.5186" gradientUnits="userSpaceOnUse">
<stop stop-color="#BD8D45"/>
<stop offset="0.31" stop-color="#DDBC8C"/>
<stop offset="0.74" stop-color="#FED082"/>
<stop offset="1" stop-color="#99723E"/>
</linearGradient>
<linearGradient id="paint56_linear_717_6826" x1="121.267" y1="608.814" x2="121.267" y2="-24.5186" gradientUnits="userSpaceOnUse">
<stop stop-color="#BD8D45"/>
<stop offset="0.31" stop-color="#DDBC8C"/>
<stop offset="0.74" stop-color="#FED082"/>
<stop offset="1" stop-color="#99723E"/>
</linearGradient>
<linearGradient id="paint57_linear_717_6826" x1="120.684" y1="608.814" x2="120.684" y2="-24.5186" gradientUnits="userSpaceOnUse">
<stop stop-color="#BD8D45"/>
<stop offset="0.31" stop-color="#DDBC8C"/>
<stop offset="0.74" stop-color="#FED082"/>
<stop offset="1" stop-color="#99723E"/>
</linearGradient>
<linearGradient id="paint58_linear_717_6826" x1="157.927" y1="-6.17718" x2="157.927" y2="59.5535" gradientUnits="userSpaceOnUse">
<stop stop-color="#BD8D45"/>
<stop offset="0.31" stop-color="#DDBC8C"/>
<stop offset="0.74" stop-color="#FED082"/>
<stop offset="1" stop-color="#99723E"/>
</linearGradient>
</defs>
</svg>
