<?xml version="1.0" encoding="UTF-8"?>
<!DOCTYPE svg PUBLIC "-//W3C//DTD SVG 1.1//EN" "http://www.w3.org/Graphics/SVG/1.1/DTD/svg11.dtd">
<!-- Creator: CorelDRAW X6 -->
<svg xmlns="http://www.w3.org/2000/svg" xml:space="preserve" width="5.44423in" height="2.36565in" version="1.1" style="shape-rendering:geometricPrecision; text-rendering:geometricPrecision; image-rendering:optimizeQuality; fill-rule:evenodd; clip-rule:evenodd"
viewBox="0 0 5444 2366"
 xmlns:xlink="http://www.w3.org/1999/xlink">
 <defs>
  <style type="text/css">
   <![CDATA[
    .fil2 {fill:#292B7D}
    .fil1 {fill:#EB282E}
    .fil0 {fill:#292B7D;fill-rule:nonzero}
   ]]>
  </style>
 </defs>
 <g id="Layer_x0020_1">
  <metadata id="CorelCorpID_0Corel-Layer"/>
  <g id="_852974272">
   <g>
    <path class="fil0" d="M3538 925l94 245 1555 0c63,-12 112,-44 145,-90l0 0c32,-44 51,-101 56,-168l-1850 13zm50 283l-116 -300 -14 -37 40 0 1918 -14 28 0 0 28c-1,90 -25,169 -68,228l0 0c-43,59 -104,99 -182,113l-5 0 -1575 0 -19 0 -7 -18z"/>
    <path class="fil0" d="M3637 1225l-41 244 1270 0c64,-12 113,-41 147,-86 31,-41 49,-94 54,-158l-1430 0zm-100 268l50 -300 4 -23 23 0 1482 0 28 0 0 28c-1,89 -24,164 -66,220 -43,56 -105,93 -183,107l-5 0 -1304 0 -32 0 5 -32z"/>
    <path class="fil0" d="M3588 1525l-27 262 888 0c62,-12 111,-44 145,-91 32,-45 51,-104 56,-171l-1062 0zm-84 287l33 -318 3 -25 24 0 1115 0 28 0 0 28c-1,90 -25,170 -68,231 -43,60 -104,100 -182,114l-5 0 -920 0 -30 0 3 -31z"/>
    <path class="fil0" d="M3546 1842l-157 262 590 0c62,-12 111,-44 145,-91 32,-45 51,-104 56,-171l-634 0zm-228 276l190 -318 8 -13 15 0 678 0 28 0 0 28c-1,90 -25,170 -68,231 -43,59 -104,100 -182,114l-5 0 -640 0 -48 0 25 -42z"/>
    <polygon class="fil0" points="3178,2336 3347,2069 3393,2099 3223,2366 "/>
   </g>
   <path class="fil1" d="M2229 867c10,-80 -42,-83 -68,-10 -48,133 -96,266 -144,398 18,172 37,345 55,517 89,136 177,272 266,409 5,39 10,78 14,118 44,0 89,0 133,0 9,-92 17,-184 26,-276 -7,-72 -13,-143 -20,-215 -51,-135 -102,-270 -153,-406 -25,-63 -59,-63 -75,0 -3,37 -6,74 -9,112 -57,-20 -89,-61 -87,-132 21,-171 41,-343 62,-514z"/>
   <path class="fil1" d="M3192 867c-10,-80 42,-83 68,-10 48,133 96,266 144,398 -18,172 -37,345 -55,517 -89,136 -177,272 -266,409 -5,39 -10,78 -14,118 -44,0 -89,0 -133,0 -9,-92 -17,-184 -26,-276 7,-72 13,-143 20,-215 51,-135 102,-270 153,-406 25,-63 59,-63 75,0 3,37 6,74 9,112 57,-20 89,-61 87,-132 -21,-171 -41,-343 -62,-514z"/>
   <path class="fil2" d="M2487 697c13,7 49,22 56,33 -2,8 -6,10 -11,15 -4,5 -9,14 -9,22 0,13 10,50 16,56 3,3 7,4 10,7l19 17c13,10 11,11 5,24 -2,5 -2,8 -3,15 -4,35 -15,22 -26,44 -6,12 -3,16 -6,29 -12,-1 -20,-5 -30,17 -4,10 -8,19 -13,28l-13 0c-3,5 -4,8 -9,13 -15,16 -20,23 -45,23 -20,0 -41,-4 -54,12 -23,29 23,67 28,95 1,7 1,10 3,16 2,5 4,9 6,13 -37,9 -30,-7 -88,18 -8,3 -15,6 -17,15 -3,13 12,33 20,41 13,14 21,16 47,16 -7,10 -38,6 -38,18 0,18 39,61 62,72 21,10 42,3 60,-10 0,8 2,13 3,21 1,7 2,15 2,21 2,18 -2,28 4,44 7,18 19,29 21,49 1,7 2,15 4,21 4,13 7,22 9,37 9,59 13,55 34,110 9,23 30,79 41,99l33 61c5,9 12,22 16,32 17,43 8,32 14,57 6,24 16,11 29,8 13,-3 29,6 36,-11 3,-8 -1,-20 7,-24 15,-8 23,4 48,-40 4,-7 6,-14 16,-15 25,-2 20,-18 20,-40 0,-41 0,-81 0,-122 0,-19 -3,-44 5,-56 6,-9 35,-41 42,-46 12,-8 29,-9 38,-21 11,-15 -4,-16 23,-37l98 -79c6,-5 11,-8 17,-13l48 -40c20,-16 7,-23 7,-36 0,-7 19,-9 24,-10l41 -10c6,-1 11,0 16,-1 16,-3 16,-20 16,-34 0,-42 -13,-37 -21,-53 -5,-10 -5,-20 -8,-30 -7,-17 -15,-17 -10,-40 16,0 13,-11 6,-17l-13 -12c0,0 -2,-2 -2,-2 -3,-4 -4,-4 -5,-9 18,-13 25,-7 40,5 16,13 8,21 17,30 13,12 52,-4 74,-4 15,0 -11,45 -11,56 0,10 1,21 5,29 7,18 27,20 32,-1l11 28c2,9 4,24 14,24 5,0 8,-1 11,-3 26,-20 13,-29 17,-47 4,-15 4,-32 4,-49 40,22 44,-60 53,-91 6,-23 19,-52 42,-58 14,-4 17,3 28,3 4,0 10,-5 10,-9 0,-9 -7,-14 -7,-21 0,-14 5,-17 -8,-26 -7,-5 -17,-7 -25,-12 0,-13 0,-17 -7,-24 -13,-13 -29,-6 -46,-3 -12,2 -18,0 -28,4 -15,5 -21,21 -30,32 -4,5 -10,11 -15,16 -12,12 -38,32 -53,41 -17,10 -47,19 -68,23 -30,6 -22,-2 -41,-15 -42,-29 -39,15 -51,28 -5,5 -15,7 -23,9 -34,11 -37,6 -73,-3 -38,-10 -166,-46 -188,-66 -4,-4 -6,-12 -7,-18 -2,-9 10,-20 20,-29 5,-5 11,-7 11,-17 0,-13 -15,-17 -23,-22 -13,-8 -46,-24 -56,-36 -4,-5 -16,-24 -17,-29 17,0 37,-6 37,-27 0,-11 -22,-36 -9,-48 5,-5 8,1 23,-19 8,-11 17,-23 17,-41 0,-39 -40,-33 -69,-33 -28,0 -16,11 -62,-2 -22,-6 -33,-20 -47,-36 -16,-19 -44,-15 -65,-10 -14,3 -15,9 -27,14 -11,5 -17,10 -23,19 -3,4 -5,8 -7,13 -3,6 -4,10 -7,15z"/>
   <path class="fil1" d="M3449 258c-178,101 -319,209 -416,356 -47,48 -98,49 -78,-24 11,-40 29,-59 56,-90 118,-137 257,-222 438,-242z"/>
   <path class="fil2" d="M3674 196c-22,-59 -44,-118 -66,-176 21,-7 42,-13 63,-20 49,51 98,102 147,154 13,0 25,0 38,0 1,-69 134,-55 133,0 99,-3 198,-7 298,-10 88,-17 175,-33 263,-50 -4,-49 131,-52 144,-15 20,12 27,16 47,29 20,18 7,36 -16,43 -101,24 -202,48 -303,72 0,14 -1,28 -1,43 -11,4 -22,8 -33,12 -15,-13 -30,-25 -45,-38 -127,18 -254,36 -381,54 -122,3 -244,6 -366,10 -55,-3 -48,-32 -9,-57 30,-16 59,-33 89,-49z"/>
   <g>
    <path class="fil0" d="M1906 925l-94 245 -1555 0c-63,-12 -112,-44 -145,-90l0 0c-32,-44 -51,-101 -56,-168l1850 13zm-50 283l116 -300 14 -37 -40 0 -1918 -14 -28 0 0 28c1,90 25,169 68,228l0 0c43,59 104,99 182,113l5 0 1575 0 19 0 7 -18z"/>
    <path class="fil0" d="M1807 1225l41 244 -1270 0c-64,-12 -113,-41 -147,-86 -31,-41 -49,-94 -54,-158l1430 0zm100 268l-50 -300 -4 -23 -23 0 -1482 0 -28 0 0 28c1,89 24,164 66,220 43,56 105,93 183,107l5 0 1304 0 32 0 -5 -32z"/>
    <path class="fil0" d="M1856 1525l27 262 -888 0c-62,-12 -111,-44 -145,-91 -32,-45 -51,-104 -56,-171l1062 0zm84 287l-33 -318 -3 -25 -24 0 -1115 0 -28 0 0 28c1,90 25,170 68,231 43,60 104,100 182,114l5 0 920 0 30 0 -3 -31z"/>
    <path class="fil0" d="M1898 1842l157 262 -590 0c-62,-12 -111,-44 -145,-91 -32,-45 -51,-104 -56,-171l634 0zm228 276l-190 -318 -8 -13 -15 0 -678 0 -28 0 0 28c1,90 25,170 68,231 43,59 104,100 182,114l5 0 640 0 48 0 -25 -42z"/>
    <polygon class="fil0" points="2266,2336 2097,2069 2051,2099 2221,2366 "/>
   </g>
  </g>
 </g>
</svg>
