<svg width="50" height="51" viewBox="0 0 50 51" fill="none" xmlns="http://www.w3.org/2000/svg">
<path fill-rule="evenodd" clip-rule="evenodd" d="M5.0708 45.2305L7.87705 34.9857C6.1458 31.9878 5.23538 28.5857 5.23643 25.1013C5.24163 14.2003 14.1125 5.33154 25.0145 5.33154C30.3052 5.33363 35.2698 7.393 39.0041 11.1295C42.7375 14.867 44.7937 19.8336 44.7916 25.117C44.7875 36.018 35.9145 44.8878 25.0145 44.8878H25.0062C21.6968 44.8867 18.4437 44.0565 15.5552 42.4805L5.0708 45.2305Z" fill="white"/>
<path fill-rule="evenodd" clip-rule="evenodd" d="M5.07067 45.7512C4.93317 45.7512 4.79984 45.697 4.70088 45.597C4.57067 45.4647 4.51963 45.272 4.56859 45.0939L7.31755 35.0564C5.61338 32.0293 4.71442 28.5918 4.7165 25.1022C4.72067 13.9126 13.8259 4.81055 25.0144 4.81055C30.4415 4.81263 35.5405 6.92617 39.3728 10.7616C43.205 14.598 45.3144 19.696 45.3123 25.1168C45.3082 36.3053 36.2019 45.4085 25.0144 45.4085C21.6925 45.4074 18.4061 44.5876 15.4894 43.0366L5.20296 45.7335C5.15921 45.746 5.11546 45.7512 5.07067 45.7512Z" fill="white"/>
<path fill-rule="evenodd" clip-rule="evenodd" d="M25.0147 5.33122C30.3053 5.3333 35.2699 7.39268 39.0042 11.1291C42.7376 14.8666 44.7938 19.8333 44.7917 25.1166C44.7876 36.0177 35.9146 44.8875 25.0147 44.8875H25.0063C21.6969 44.8864 18.4438 44.0562 15.5553 42.4802L5.0709 45.2302L7.87715 34.9854C6.1459 31.9875 5.23549 28.5854 5.23653 25.101C5.24174 14.2 14.1126 5.33122 25.0147 5.33122ZM25.0147 4.28955C13.5397 4.28955 4.20007 13.625 4.19486 25.101C4.19382 28.6083 5.07924 32.0646 6.7584 35.1239L4.0657 44.9562C3.96778 45.3156 4.06778 45.6989 4.33028 45.9635C4.5282 46.1635 4.7959 46.2729 5.0709 46.2729C5.15945 46.2729 5.24799 46.2614 5.33549 46.2385L15.4261 43.5927C18.3719 45.1218 21.674 45.9291 25.0063 45.9302C36.4897 45.9302 45.8292 36.5937 45.8344 25.1177C45.8365 19.5562 43.673 14.3271 39.7428 10.3937C35.8105 6.45934 30.5803 4.29163 25.0147 4.28955Z" fill="#CFD8DC"/>
<path fill-rule="evenodd" clip-rule="evenodd" d="M36.6419 13.4896C33.5377 10.3834 29.4117 8.67194 25.02 8.6709C15.9533 8.6709 8.57936 16.0417 8.5752 25.1021C8.57415 28.2074 9.4429 31.2303 11.0887 33.848L11.4804 34.4699L9.81895 40.5334L16.0408 38.9021L16.6419 39.2584C19.1648 40.7563 22.0585 41.548 25.0085 41.549H25.0148C34.0752 41.549 41.4492 34.1771 41.4523 25.1157C41.4533 20.7251 39.746 16.5959 36.6419 13.4896Z" fill="#40C351"/>
<path fill-rule="evenodd" clip-rule="evenodd" d="M20.0707 16.8363C19.7009 16.0134 19.3113 15.9968 18.9582 15.9822C18.6696 15.9697 18.3405 15.9707 18.0113 15.9707C17.6821 15.9707 17.1467 16.0947 16.6936 16.5895C16.2405 17.0843 14.9634 18.2791 14.9634 20.7103C14.9634 23.1416 16.7342 25.4916 16.9811 25.8207C17.228 26.1499 20.3998 31.2988 25.4228 33.2801C29.5967 34.9259 30.4467 34.5988 31.353 34.5166C32.2592 34.4343 34.2769 33.3218 34.6884 32.1676C35.0998 31.0134 35.0998 30.0249 34.9769 29.8186C34.853 29.6124 34.5238 29.4895 34.03 29.2416C33.5363 28.9936 31.1061 27.7988 30.653 27.6343C30.1998 27.4697 29.8707 27.3874 29.5405 27.8822C29.2113 28.3759 28.2644 29.4895 27.9759 29.8186C27.6873 30.1488 27.3988 30.1905 26.905 29.9426C26.4113 29.6947 24.8196 29.1738 22.9311 27.4905C21.4623 26.1811 20.4707 24.5634 20.1821 24.0686C19.8936 23.5749 20.1509 23.3072 20.3988 23.0603C20.6207 22.8384 20.8925 22.4832 21.1405 22.1947C21.3873 21.9061 21.4696 21.6999 21.6342 21.3707C21.7988 21.0405 21.7165 20.752 21.5925 20.5051C21.4707 20.2572 20.5103 17.8134 20.0707 16.8363Z" fill="white"/>
</svg>
