<svg width="385" height="188" viewBox="0 0 385 188" fill="none" xmlns="http://www.w3.org/2000/svg">
<path d="M85.8586 124.92V153H79.0186V141.44H68.3786V153H61.5386V124.92H68.3786V135.92H79.0186V124.92H85.8586ZM89.4364 141.8C89.4364 139.507 89.8631 137.493 90.7164 135.76C91.5964 134.027 92.7831 132.693 94.2764 131.76C95.7697 130.827 97.4364 130.36 99.2764 130.36C100.85 130.36 102.223 130.68 103.396 131.32C104.596 131.96 105.516 132.8 106.156 133.84V130.68H112.996V153H106.156V149.84C105.49 150.88 104.556 151.72 103.356 152.36C102.183 153 100.81 153.32 99.2364 153.32C97.4231 153.32 95.7697 152.853 94.2764 151.92C92.7831 150.96 91.5964 149.613 90.7164 147.88C89.8631 146.12 89.4364 144.093 89.4364 141.8ZM106.156 141.84C106.156 140.133 105.676 138.787 104.716 137.8C103.783 136.813 102.636 136.32 101.276 136.32C99.9164 136.32 98.7564 136.813 97.7964 137.8C96.8631 138.76 96.3964 140.093 96.3964 141.8C96.3964 143.507 96.8631 144.867 97.7964 145.88C98.7564 146.867 99.9164 147.36 101.276 147.36C102.636 147.36 103.783 146.867 104.716 145.88C105.676 144.893 106.156 143.547 106.156 141.84ZM121.345 128.36C120.145 128.36 119.158 128.013 118.385 127.32C117.638 126.6 117.265 125.72 117.265 124.68C117.265 123.613 117.638 122.733 118.385 122.04C119.158 121.32 120.145 120.96 121.345 120.96C122.518 120.96 123.478 121.32 124.225 122.04C124.998 122.733 125.385 123.613 125.385 124.68C125.385 125.72 124.998 126.6 124.225 127.32C123.478 128.013 122.518 128.36 121.345 128.36ZM124.785 155.88C124.785 158.627 124.092 160.6 122.705 161.8C121.318 163.027 119.385 163.64 116.905 163.64H114.225V157.84H115.865C116.612 157.84 117.145 157.693 117.465 157.4C117.785 157.107 117.945 156.627 117.945 155.96V130.68H124.785V155.88ZM133.103 128.36C131.903 128.36 130.916 128.013 130.143 127.32C129.396 126.6 129.023 125.72 129.023 124.68C129.023 123.613 129.396 122.733 130.143 122.04C130.916 121.32 131.903 120.96 133.103 120.96C134.276 120.96 135.236 121.32 135.983 122.04C136.756 122.733 137.143 123.613 137.143 124.68C137.143 125.72 136.756 126.6 135.983 127.32C135.236 128.013 134.276 128.36 133.103 128.36ZM136.543 155.88C136.543 158.627 135.849 160.6 134.463 161.8C133.076 163.027 131.143 163.64 128.663 163.64H125.983V157.84H127.623C128.369 157.84 128.903 157.693 129.223 157.4C129.543 157.107 129.703 156.627 129.703 155.96V130.68H136.543V155.88ZM148.577 141.8C148.577 139.507 149.004 137.493 149.857 135.76C150.737 134.027 151.924 132.693 153.417 131.76C154.91 130.827 156.577 130.36 158.417 130.36C159.99 130.36 161.364 130.68 162.537 131.32C163.737 131.96 164.657 132.8 165.297 133.84V130.68H172.137V153H165.297V149.84C164.63 150.88 163.697 151.72 162.497 152.36C161.324 153 159.95 153.32 158.377 153.32C156.564 153.32 154.91 152.853 153.417 151.92C151.924 150.96 150.737 149.613 149.857 147.88C149.004 146.12 148.577 144.093 148.577 141.8ZM165.297 141.84C165.297 140.133 164.817 138.787 163.857 137.8C162.924 136.813 161.777 136.32 160.417 136.32C159.057 136.32 157.897 136.813 156.937 137.8C156.004 138.76 155.537 140.093 155.537 141.8C155.537 143.507 156.004 144.867 156.937 145.88C157.897 146.867 159.057 147.36 160.417 147.36C161.777 147.36 162.924 146.867 163.857 145.88C164.817 144.893 165.297 143.547 165.297 141.84ZM190.685 130.44C193.299 130.44 195.379 131.293 196.925 133C198.499 134.68 199.285 137 199.285 139.96V153H192.485V140.88C192.485 139.387 192.099 138.227 191.325 137.4C190.552 136.573 189.512 136.16 188.205 136.16C186.899 136.16 185.859 136.573 185.085 137.4C184.312 138.227 183.925 139.387 183.925 140.88V153H177.085V130.68H183.925V133.64C184.619 132.653 185.552 131.88 186.725 131.32C187.899 130.733 189.219 130.44 190.685 130.44ZM202.679 141.8C202.679 139.507 203.105 137.493 203.959 135.76C204.839 134.027 206.025 132.693 207.519 131.76C209.012 130.827 210.679 130.36 212.519 130.36C213.985 130.36 215.319 130.667 216.519 131.28C217.745 131.893 218.705 132.72 219.399 133.76V123.4H226.239V153H219.399V149.8C218.759 150.867 217.839 151.72 216.639 152.36C215.465 153 214.092 153.32 212.519 153.32C210.679 153.32 209.012 152.853 207.519 151.92C206.025 150.96 204.839 149.613 203.959 147.88C203.105 146.12 202.679 144.093 202.679 141.8ZM219.399 141.84C219.399 140.133 218.919 138.787 217.959 137.8C217.025 136.813 215.879 136.32 214.519 136.32C213.159 136.32 211.999 136.813 211.039 137.8C210.105 138.76 209.639 140.093 209.639 141.8C209.639 143.507 210.105 144.867 211.039 145.88C211.999 146.867 213.159 147.36 214.519 147.36C215.879 147.36 217.025 146.867 217.959 145.88C218.919 144.893 219.399 143.547 219.399 141.84ZM246.384 124.92V141.72C246.384 143.4 246.797 144.693 247.624 145.6C248.45 146.507 249.664 146.96 251.264 146.96C252.864 146.96 254.09 146.507 254.944 145.6C255.797 144.693 256.224 143.4 256.224 141.72V124.92H263.064V141.68C263.064 144.187 262.53 146.307 261.464 148.04C260.397 149.773 258.957 151.08 257.144 151.96C255.357 152.84 253.357 153.28 251.144 153.28C248.93 153.28 246.944 152.853 245.184 152C243.45 151.12 242.077 149.813 241.064 148.08C240.05 146.32 239.544 144.187 239.544 141.68V124.92H246.384ZM296.347 130.44C299.12 130.44 301.32 131.28 302.947 132.96C304.6 134.64 305.427 136.973 305.427 139.96V153H298.627V140.88C298.627 139.44 298.24 138.333 297.467 137.56C296.72 136.76 295.68 136.36 294.347 136.36C293.013 136.36 291.96 136.76 291.187 137.56C290.44 138.333 290.067 139.44 290.067 140.88V153H283.267V140.88C283.267 139.44 282.88 138.333 282.107 137.56C281.36 136.76 280.32 136.36 278.987 136.36C277.653 136.36 276.6 136.76 275.827 137.56C275.08 138.333 274.707 139.44 274.707 140.88V153H267.867V130.68H274.707V133.48C275.4 132.547 276.307 131.813 277.427 131.28C278.547 130.72 279.813 130.44 281.227 130.44C282.907 130.44 284.4 130.8 285.707 131.52C287.04 132.24 288.08 133.267 288.827 134.6C289.6 133.373 290.653 132.373 291.987 131.6C293.32 130.827 294.773 130.44 296.347 130.44ZM317.05 134.4C317.85 133.173 318.85 132.213 320.05 131.52C321.25 130.8 322.584 130.44 324.05 130.44V137.68H322.17C320.464 137.68 319.184 138.053 318.33 138.8C317.477 139.52 317.05 140.8 317.05 142.64V153H310.21V130.68H317.05V134.4ZM325.96 141.8C325.96 139.507 326.387 137.493 327.24 135.76C328.12 134.027 329.307 132.693 330.8 131.76C332.293 130.827 333.96 130.36 335.8 130.36C337.373 130.36 338.747 130.68 339.92 131.32C341.12 131.96 342.04 132.8 342.68 133.84V130.68H349.52V153H342.68V149.84C342.013 150.88 341.08 151.72 339.88 152.36C338.707 153 337.333 153.32 335.76 153.32C333.947 153.32 332.293 152.853 330.8 151.92C329.307 150.96 328.12 149.613 327.24 147.88C326.387 146.12 325.96 144.093 325.96 141.8ZM342.68 141.84C342.68 140.133 342.2 138.787 341.24 137.8C340.307 136.813 339.16 136.32 337.8 136.32C336.44 136.32 335.28 136.813 334.32 137.8C333.387 138.76 332.92 140.093 332.92 141.8C332.92 143.507 333.387 144.867 334.32 145.88C335.28 146.867 336.44 147.36 337.8 147.36C339.16 147.36 340.307 146.867 341.24 145.88C342.2 144.893 342.68 143.547 342.68 141.84ZM368.188 130.44C370.748 130.44 372.802 131.293 374.348 133C375.895 134.68 376.668 137 376.668 139.96V153H369.868V140.88C369.868 139.387 369.482 138.227 368.708 137.4C367.935 136.573 366.895 136.16 365.588 136.16C364.282 136.16 363.242 136.573 362.468 137.4C361.695 138.227 361.308 139.387 361.308 140.88V153H354.468V123.4H361.308V133.68C362.002 132.693 362.948 131.907 364.148 131.32C365.348 130.733 366.695 130.44 368.188 130.44Z" fill="#CA9E67"/>
<path d="M20.3115 63.383C22.6657 63.383 24.5049 61.4715 24.5049 59.1925C24.5049 56.9134 22.6657 55.002 20.3115 55.002C18.0309 55.002 16.1917 56.9134 16.1917 59.1925C16.1917 61.4715 18.0309 63.383 20.3115 63.383ZM32.818 63.383C35.1722 63.383 37.0114 61.4715 37.0114 59.1925C37.0114 56.9134 35.1722 55.002 32.818 55.002C30.5374 55.002 28.6983 56.9134 28.6983 59.1925C28.6983 61.4715 30.5374 63.383 32.818 63.383ZM29.2868 102.347L38.1149 93.5252H40.8369C43.9268 93.5252 45.3246 90.2904 43.1175 88.0849L29.2868 74.2636C27.7419 72.7197 25.5348 72.7197 23.9899 74.2636L10.1592 88.0849C7.95216 90.2904 9.27638 93.5252 12.3662 93.5252H15.1618L23.9899 102.347C25.5348 103.891 27.7419 103.891 29.2868 102.347Z" fill="#CA9E67"/>
<path d="M65.6292 83.0857H43.3381L54.4469 94.1869C55.9918 95.7307 55.9918 97.9363 54.4469 99.4801L0.963135 152.927H3.02303L61.6565 94.4074C62.245 93.8193 62.9807 93.5252 63.79 93.5252H65.6292V83.0857Z" fill="#CA9E67"/>
<path d="M60.4059 93.5252H109.402V83.0857H100.206C99.3968 83.0857 98.6611 82.7917 98.0726 82.2035L90.2008 74.2636C88.6559 72.7197 86.4489 72.7197 84.9039 74.2636L76.9586 82.2035C76.3701 82.7917 75.6344 83.0857 74.8252 83.0857H60.4059V93.5252Z" fill="#CA9E67"/>
<path d="M156.338 71.6169H120.143C117.053 71.6169 115.729 74.8517 117.936 77.0572L123.968 83.0857H104.179V93.5252H156.338V83.0857H144.862L156.338 71.6169Z" fill="#CA9E67"/>
<path d="M173.627 10.1562C171.493 10.1562 169.875 11.7736 169.875 13.9056V80.8067C169.875 82.0565 168.845 83.0857 167.594 83.0857H151.115V93.5252H160.311C161.12 93.5252 161.856 93.2312 162.444 92.643L171.052 83.9679C171.64 83.3798 171.935 82.6446 171.935 81.8359V19.7135C171.935 18.9048 172.229 18.1697 172.817 17.5815L180.321 10.1562H173.627Z" fill="#CA9E67"/>
<path d="M183.117 93.5252H183.705C184.147 93.5252 184.441 93.2312 184.441 92.7901V19.7135C184.441 18.9048 184.735 18.1697 185.324 17.5815L192.828 10.1562H186.133C184 10.1562 182.381 11.7736 182.381 13.9056V92.7901C182.381 93.2312 182.675 93.5252 183.117 93.5252Z" fill="#CA9E67"/>
<path d="M210.411 104.994H212.618L224.609 93.0841C226.154 91.5403 226.154 89.3347 224.609 87.7909L211.146 74.2636C209.601 72.7197 207.394 72.7197 205.849 74.2636L195.623 84.4826C191.945 88.1584 194.226 93.5252 199.375 93.5252H216.811C218.871 93.5252 219.754 95.6572 218.282 97.1276L210.411 104.994Z" fill="#CA9E67"/>
<path d="M248.592 107.641L252.271 103.965C253.816 102.421 253.816 100.215 252.271 98.6714L247.121 93.5251H263.085L272.134 102.494C272.722 103.082 273.458 103.377 274.267 103.377H287.73L277.872 93.5251H287.657V83.0856H268.676C267.867 83.0856 267.131 82.7916 266.543 82.2034L253.08 68.7497C251.535 67.2058 249.328 67.2058 247.783 68.7497L237.631 78.8951H239.691L241.456 77.1307C243.001 75.5868 245.208 75.5868 246.753 77.1307L252.933 83.3062L241.162 95.069C239.617 96.6129 239.691 98.8184 241.235 100.362L248.592 107.641ZM261.908 109.111C264.189 109.111 266.101 107.273 266.101 104.994C266.101 102.641 264.189 100.803 261.908 100.803C259.627 100.803 257.715 102.641 257.715 104.994C257.715 107.273 259.627 109.111 261.908 109.111Z" fill="#CA9E67"/>
<path d="M329.075 103.377H342.538L332.68 93.5251H342.465V83.0856H323.484C322.675 83.0856 321.939 82.7916 321.351 82.2034L307.888 68.7497C306.343 67.2058 304.136 67.2058 302.591 68.7497L292.439 78.8951H294.498L296.264 77.1307C297.809 75.5868 300.016 75.5868 301.561 77.1307L307.52 83.0856H281.992V93.5251H317.893L326.942 102.494C327.53 103.082 328.266 103.377 329.075 103.377Z" fill="#CA9E67"/>
<path d="M359.827 10.1562C357.693 10.1562 356.075 11.7736 356.075 13.9056V80.8067C356.075 82.0565 355.045 83.0857 353.794 83.0857H337.315V93.5252H346.511C347.32 93.5252 348.056 93.2312 348.644 92.643L357.252 83.9679C357.84 83.3798 358.135 82.6446 358.135 81.8359V19.7135C358.135 18.9048 358.429 18.1697 359.017 17.5815L366.521 10.1562H359.827Z" fill="#CA9E67"/>
<path d="M369.317 93.5252H369.905C370.347 93.5252 370.641 93.2312 370.641 92.7901V19.7135C370.641 18.9048 370.935 18.1697 371.524 17.5815L379.028 10.1562H372.333C370.2 10.1562 368.581 11.7736 368.581 13.9056V92.7901C368.581 93.2312 368.875 93.5252 369.317 93.5252Z" fill="#CA9E67"/>
</svg>
