<svg width="34" height="46" viewBox="0 0 34 46" fill="none" xmlns="http://www.w3.org/2000/svg">
<mask id="mask0_717_6770" style="mask-type:luminance" maskUnits="userSpaceOnUse" x="5" y="4" width="29" height="37">
<path d="M5.0918 4.80316H33.644V40.8392H5.0918V4.80316Z" fill="white"/>
</mask>
<g mask="url(#mask0_717_6770)">
<path d="M21.8745 16.7069L21.8801 16.7048C21.8745 16.7069 22.9147 16.2466 22.9147 16.2466C22.5079 15.994 21.9927 15.742 21.3396 15.5175C21.3396 15.5175 22.37 15.5667 23.5967 15.9454L25.6519 15.0353C25.2134 14.7299 24.6222 14.416 23.8283 14.1429C23.8283 14.1429 25.0628 14.2027 26.4388 14.6869L28.0499 13.9747C27.5952 13.6228 26.9456 13.2497 26.0214 12.9316C26.0214 12.9316 27.4382 13.0006 28.9275 13.5862L32.3826 12.0567C26.9477 9.68624 23.0351 12.4136 20.7885 14.9431C21.9019 12.4396 22.8535 8.19834 18.7924 4.9361L18.9113 6.72312C19.763 7.51844 20.262 8.36797 20.262 8.36797C19.7764 7.90907 19.3365 7.60642 18.9571 7.40794L19.0739 9.14992C19.9847 9.96988 20.5217 10.8842 20.5217 10.8842C19.9945 10.3865 19.5216 10.0726 19.1218 9.87627L19.2316 11.5148C20.0178 12.2791 20.4753 13.0576 20.4753 13.0576C20.0333 12.6402 19.6293 12.3523 19.2745 12.1546L19.3794 13.7283C19.8587 14.2858 20.1269 14.7425 20.1269 14.7425C19.8742 14.5039 19.6335 14.3076 19.4075 14.1457L19.4568 14.8854C18.0175 11.8097 15.003 7.98719 9.03733 8.78393L11.9392 11.2037C13.532 11.0503 14.9129 11.3747 14.9129 11.3747C13.9367 11.4254 13.2096 11.6056 12.6761 11.8188L14.0289 12.9471C15.4851 12.8598 16.6887 13.142 16.6887 13.142C15.8504 13.1864 15.1958 13.325 14.6898 13.4989L16.4163 14.9382C17.7001 14.9122 18.7037 15.148 18.7037 15.148C18.0147 15.1845 17.4495 15.2845 16.9892 15.4161C16.9892 15.4161 17.8626 16.1446 17.8584 16.1411L17.8626 16.1446C14.7827 14.4413 9.79465 12.9802 5.25073 17.4431L7.54873 17.5614C8.69246 16.5943 9.85166 16.0855 9.85166 16.0855C9.19288 16.6365 8.74032 17.1525 8.42993 17.6064L10.6702 17.7219C11.8541 16.683 13.1019 16.1354 13.1019 16.1354C12.3876 16.733 11.916 17.2897 11.6049 17.7697L13.7122 17.8781C14.8066 16.9899 15.8694 16.5239 15.8694 16.5239C15.2697 17.0251 14.8411 17.4973 14.5349 17.9203L16.5584 18.0245C17.3425 17.4973 17.9661 17.2235 17.9661 17.2235C17.6233 17.5107 17.2341 18.059 17.2341 18.059C14.3365 18.3384 10.6097 19.6813 9.41458 24.5194L11.1143 23.5883C11.5078 22.3882 12.1145 21.5113 12.1145 21.5113C11.8857 22.1975 11.7893 22.7683 11.7668 23.2307L13.4243 22.3228C13.8142 21.0545 14.4674 20.1106 14.4674 20.1106C14.2189 20.8546 14.126 21.462 14.1155 21.9441L15.6744 21.0904C16.0665 19.9692 16.6232 19.1654 16.6232 19.1654C16.4142 19.7897 16.3156 20.3183 16.2833 20.7568L17.7803 19.9368C18.1097 19.2119 18.4363 18.7396 18.4363 18.7396C18.3166 19.0978 18.2336 19.4237 18.178 19.7193L18.9318 19.3062C18.0414 23.2075 17.8338 30.666 7.51073 35.0255L13.0914 40.7068C20.0192 32.2665 19.7623 23.4489 19.9776 19.4526L21.2903 20.7497C21.3649 20.3401 21.4043 19.8418 21.3783 19.2414C21.3783 19.2414 21.6661 20.0916 21.7513 21.2058L23.1421 22.5804C23.2498 22.1278 23.3152 21.5493 23.2828 20.8187C23.2828 20.8187 23.6284 21.8378 23.6749 23.1068L24.7644 24.1844C24.9045 23.7044 24.9995 23.0597 24.9622 22.2095C24.9622 22.2095 25.3577 23.3785 25.3584 24.7714L27.6965 27.0828C27.876 22.1018 24.6623 19.7862 21.9533 18.7206L24.5863 19.3294C24.4083 18.8388 24.126 18.2666 23.6875 17.6198C23.6875 17.6198 24.5807 18.3602 25.3894 19.5152L27.4446 19.991C27.2778 19.4434 26.9772 18.7783 26.4543 18.0076C26.4543 18.0076 27.5037 18.8775 28.3567 20.2014L30.5421 20.7068C30.3683 20.1853 30.0748 19.5645 29.5927 18.8536C29.5927 18.8536 30.5682 19.6616 31.4022 20.906L33.6439 21.424C30.5013 15.8835 25.3042 15.9165 21.8745 16.7069Z" fill="white"/>
</g>
<mask id="mask1_717_6770" style="mask-type:luminance" maskUnits="userSpaceOnUse" x="0" y="9" width="28" height="37">
<path d="M0.941406 9.30762H27.9748V45.3704H0.941406V9.30762Z" fill="white"/>
</mask>
<g mask="url(#mask1_717_6770)">
<path d="M26.2053 26.8977C25.1355 29.694 23.2408 32.8387 20.5775 36.2094C18.5709 38.7495 16.5573 40.868 15.2319 42.1877C13.894 40.8554 11.8571 38.7129 9.84203 36.1566C5.51911 30.6709 3.23378 25.7871 3.23378 22.0336C3.23378 18.8276 4.48167 15.8131 6.74729 13.5461C7.80233 12.491 9.01925 11.6563 10.341 11.0658L8.41959 9.46246C3.96506 11.8836 0.941406 16.6049 0.941406 22.0336C0.941406 32.5213 15.2312 45.3641 15.2312 45.3641C15.2312 45.3641 24.2677 37.2419 27.9684 28.6418L26.2053 26.8977Z" fill="white"/>
</g>
<mask id="mask2_717_6770" style="mask-type:luminance" maskUnits="userSpaceOnUse" x="22" y="0" width="10" height="9">
<path d="M22.0288 0.370422H31.3982V8.22656H22.0288V0.370422Z" fill="white"/>
</mask>
<g mask="url(#mask2_717_6770)">
<path d="M31.218 2.59591C31.0984 2.263 29.9117 2.37913 28.4717 2.84084L27.2709 1.90334C27.6081 1.68023 27.6693 1.47541 27.5855 1.31213C27.4863 1.11646 27.2195 1.05241 26.6804 1.32691C26.6537 1.34098 26.6234 1.35717 26.5924 1.37406L25.3171 0.377441L24.4366 0.694164L25.5219 2.0617C25.1749 2.3179 24.9117 2.55861 24.9588 2.65151C25.0102 2.75216 25.4177 2.65855 25.8752 2.50652L26.6783 3.51933C25.8569 3.85858 24.899 4.27806 24.0734 4.67221L22.5088 3.3652L22.1041 3.51159L23.0071 5.20852C22.43 5.52032 22.0626 5.77088 22.102 5.88138C22.1421 5.99259 22.5841 5.95106 23.2281 5.82226L23.7912 7.49174L24.1959 7.34535L24.3909 5.55551C25.2791 5.3324 26.2835 5.04453 27.133 4.7813L27.4068 5.85323C27.052 6.0123 26.786 6.16855 26.8092 6.26286C26.8324 6.35647 27.1428 6.37125 27.5328 6.34591L27.9684 8.0541L28.8489 7.73668L28.8918 6.15588C28.9221 6.14884 28.951 6.1425 28.977 6.13547C29.564 5.99048 29.7238 5.76736 29.671 5.55481C29.6231 5.35774 29.4092 5.23808 28.9137 5.33592L28.946 4.15982C30.3495 3.59676 31.3377 2.92882 31.218 2.59591Z" fill="white"/>
</g>
<path d="M17.1 10.0956C17.1613 10.149 17.222 10.203 17.2819 10.2578C17.6522 10.3193 18.0175 10.3986 18.3779 10.4948L18.2166 7.98173C17.2833 7.78545 16.3179 7.6825 15.329 7.6825C14.4499 7.6825 13.5894 7.76397 12.7532 7.91951C14.3643 8.2543 15.8199 8.98164 17.1 10.0956Z" fill="white"/>
<path d="M24.5653 11.1772C23.873 10.7194 23.1357 10.3024 22.3586 9.93237C22.3759 10.0502 22.3915 10.1695 22.4019 10.2894C22.4598 10.906 22.4304 11.5384 22.3154 12.1823C23.0449 11.783 23.796 11.4471 24.5653 11.1772Z" fill="white"/>
<path d="M28.9232 20.998L27.3774 20.6194C27.4017 20.8887 27.4172 21.1594 27.4253 21.4315C28.3587 22.9523 28.8072 24.7551 28.7607 26.8066C29.3049 25.1194 29.6273 23.4315 29.6273 21.8008C29.6273 21.5887 29.6219 21.3772 29.6132 21.1672L28.9232 20.998Z" fill="white"/>
</svg>
