<svg width="34" height="34" viewBox="0 0 34 34" fill="none" xmlns="http://www.w3.org/2000/svg">
<path d="M2.72657 30.2539C4.22699 30.3788 5.73463 30.48 7.2428 30.5656V32.3788C7.2428 32.8227 6.88511 33.1727 6.45 33.1727H2.52475C2.08913 33.1727 1.73145 32.815 1.73145 32.3788V30.0128C2.04268 30.1372 2.38436 30.2229 2.72657 30.2539ZM26.5511 30.5656V32.3788C26.5511 32.8227 26.9088 33.1727 27.3439 33.1727H31.2691C31.7048 33.1727 32.0624 32.815 32.0624 32.3788V30.0128C31.7435 30.145 31.4013 30.2307 31.0596 30.2621C29.5669 30.3788 28.0593 30.48 26.5511 30.5656ZM30.9816 29.2577C21.6075 30.0206 12.1864 30.0206 2.8045 29.2577C1.57609 29.1566 0.658907 28.114 0.767812 26.9465C0.930913 25.2029 1.09401 23.4594 1.26537 21.7164C1.33505 20.9845 1.77842 20.3698 2.38436 20.0431L1.66177 19.8949C1.47492 19.8562 1.34279 19.6926 1.34279 19.5058V18.4007C1.34279 18.1829 1.52189 18.0038 1.73919 18.0038H3.97046L5.7816 14.1746C6.43452 12.7892 7.84926 11.8942 9.38013 11.8942H14.3475L13.166 13.0927H9.38788C8.31534 13.0927 7.32848 13.7229 6.86963 14.6881L4.42106 19.8562C12.8238 20.4942 21.2576 20.4942 29.6526 19.8325L27.2195 14.6804C26.7612 13.7074 25.7738 13.085 24.7013 13.085H21.0945L22.2836 11.8942C22.6181 11.9639 22.9675 11.9954 23.3097 11.9954C23.6752 11.9954 24.0328 11.9562 24.3745 11.886H24.709C26.2404 11.886 27.6551 12.7815 28.308 14.1668L30.1192 17.9961H32.3499C32.5672 17.9961 32.7463 18.1746 32.7463 18.393V19.498C32.7463 19.6849 32.6142 19.8485 32.4274 19.8872L31.4947 20.0818C32.0624 20.4162 32.4666 21.0077 32.5363 21.7081C32.6994 23.4517 32.863 25.1952 33.0338 26.9387C33.135 28.114 32.2178 29.1566 30.9816 29.2577ZM6.55891 24.8138C6.55891 23.8176 5.75786 23.016 4.76326 23.016C3.76814 23.016 2.9676 23.8176 2.9676 24.8138C2.9676 25.8099 3.76814 26.6115 4.76326 26.6115C5.75786 26.6115 6.55891 25.8022 6.55891 24.8138ZM22.9675 25.9188C22.9675 25.3351 22.4937 24.8607 21.9105 24.8607H20.2784C20.4183 24.6347 20.4957 24.3781 20.4957 24.0979C20.4957 23.2963 19.8428 22.6346 19.0345 22.6346H14.7671C13.9666 22.6346 13.3059 23.2886 13.3059 24.0979C13.3059 24.3781 13.3833 24.6347 13.5232 24.8607H11.8912C11.3079 24.8607 10.8341 25.3351 10.8341 25.9188C10.8341 26.5026 11.3079 26.9774 11.8912 26.9774H21.9105C22.486 26.9852 22.9675 26.5026 22.9675 25.9188ZM30.8263 24.8138C30.8263 23.8176 30.0258 23.016 29.0306 23.016C28.0355 23.016 27.235 23.8176 27.235 24.8138C27.235 25.8099 28.0355 26.6115 29.0306 26.6115C30.018 26.6115 30.8263 25.8022 30.8263 24.8138Z" fill="white"/>
<path d="M26.3178 5.21639C26.1392 5.59731 25.9059 5.94777 25.6262 6.25126C25.6107 6.64817 25.4553 7.03734 25.1518 7.34083C24.5846 7.9091 23.7061 7.96381 23.0764 7.51219C23.0067 7.45748 22.9365 7.40328 22.8746 7.34083C22.7502 7.21644 22.6491 7.07605 22.5789 6.92843C22.4782 6.73385 22.4235 6.52378 22.408 6.31371C22.3925 6.11138 22.4158 5.90906 22.4782 5.71447C22.5556 5.47292 22.6878 5.24736 22.8746 5.06052C23.3329 4.60116 23.9936 4.47677 24.5691 4.68683C24.7245 4.43031 24.8334 4.14231 24.8643 3.83056C23.5662 3.16938 21.9337 3.37945 20.8457 4.46902C20.8224 4.49225 20.7992 4.51548 20.7755 4.54696C20.6278 4.71006 20.488 4.88142 20.3791 5.06052C20.2547 5.25511 20.154 5.45743 20.0761 5.65976C19.9904 5.88531 19.9285 6.11138 19.8898 6.35242C19.7731 7.04508 19.866 7.76097 20.1695 8.40718L13.4612 15.1237C13.0024 15.5831 13.0024 16.3227 13.4612 16.7816C13.6868 17.0076 13.9898 17.1243 14.285 17.1243C14.5807 17.1243 14.8837 17.0076 15.1093 16.7816L15.8241 16.0657L17.4335 17.6765C17.674 17.9181 18.0626 17.9181 18.3037 17.6765C18.5447 17.4355 18.5447 17.0463 18.3037 16.8053L16.6949 15.1939L17.5578 14.3299L18.7078 15.4819C18.9488 15.7235 19.3375 15.7235 19.5785 15.4819C19.7029 15.3575 19.7576 15.2017 19.7576 15.0463C19.7576 14.8904 19.6952 14.7268 19.5785 14.6102L18.4281 13.4581L21.817 10.065C23.0996 10.672 24.678 10.4464 25.7428 9.3801C26.8695 8.23582 27.0564 6.53152 26.3178 5.21639ZM23.0609 2.60111C22.136 2.64756 21.2575 2.99802 20.5427 3.58952C20.5427 3.57404 20.5427 3.56629 20.5427 3.55081C20.5427 3.05273 20.7135 2.5624 21.032 2.17323C21.1409 2.04058 21.2575 1.93168 21.3897 1.83051C22.0116 1.93168 22.5866 2.19646 23.0609 2.60111ZM19.1744 8.17388L19.1042 8.24356C18.537 7.91684 18.0709 7.43425 17.7674 6.8505L13.0184 7.51219L13.2434 9.13081C13.2904 9.46578 13.0571 9.78476 12.7149 9.83173C12.381 9.87818 12.062 9.64488 12.0155 9.30216L11.79 7.68355L10.5853 7.85439L10.896 10.1115C10.9425 10.4464 10.7097 10.7654 10.3675 10.8124C10.033 10.8588 9.71457 10.6255 9.66811 10.2828L9.35688 8.02575L8.35454 8.16614C8.29983 8.17388 8.24563 8.17388 8.19092 8.17388C7.61594 8.17388 7.11838 7.74548 7.0327 7.16173C6.94754 6.52378 7.39039 5.93228 8.02782 5.83886L17.4412 4.53148C17.6275 3.63597 18.1715 2.84215 18.9256 2.34407C18.8012 2.73324 18.7393 3.1379 18.7393 3.54307C18.7393 4.0334 18.8245 4.50773 19.0036 4.95936C19.05 5.06826 19.0965 5.18491 19.1512 5.30156L19.2286 5.46517C18.9334 6.32919 18.9024 7.27889 19.1744 8.17388ZM19.563 4.74929C19.4232 4.3756 19.3452 3.97095 19.3452 3.54307C19.3452 2.96705 19.4929 2.42201 19.7416 1.94716C20.3171 0.896814 21.4361 0.172668 22.7187 0.172668C24.5768 0.172668 26.0922 1.69064 26.0922 3.55081C26.0922 3.93172 26.0303 4.29766 25.9136 4.63264C25.8125 4.94387 25.6571 5.23188 25.4785 5.49614C24.9732 6.22029 24.1882 6.72611 23.2787 6.88198C23.2163 6.81179 23.1621 6.74159 23.1234 6.65591V6.64817C23.0687 6.53926 23.0377 6.43036 23.0222 6.30597C23.9007 6.21255 24.6543 5.70673 25.0899 4.98258C25.2375 4.7338 25.3541 4.46128 25.4238 4.16553C25.4708 3.96321 25.494 3.76088 25.494 3.54307C25.494 2.01736 24.2501 0.771908 22.7265 0.771908C21.864 0.771908 21.0944 1.16882 20.5814 1.7918C20.1927 2.27439 19.9517 2.88137 19.9517 3.55081C19.9517 3.74539 19.9749 3.93998 20.0142 4.12631C20.0374 4.22747 20.0606 4.32915 20.0993 4.43031C20.0219 4.52322 19.9517 4.6249 19.8898 4.72606C19.8196 4.82722 19.7654 4.93613 19.7029 5.04504C19.6487 4.94387 19.6018 4.85045 19.563 4.74929Z" fill="white"/>
</svg>
