<svg width="60" height="60" viewBox="0 0 60 60" fill="none" xmlns="http://www.w3.org/2000/svg">
<path fill-rule="evenodd" clip-rule="evenodd" d="M29.8945 0.370422C13.6013 0.370422 0.394531 13.5785 0.394531 29.8704C0.394531 46.1632 13.6013 59.3704 29.8945 59.3704C46.1859 59.3704 59.3945 46.1632 59.3945 29.8704C59.3927 13.5785 46.1859 0.370422 29.8945 0.370422ZM46.5421 37.7931C46.2634 38.9031 45.5723 38.1197 45.2152 37.997C41.4321 36.7089 37.6758 35.3469 33.9102 34.0145C33.2089 33.7662 32.4901 33.5642 31.608 33.2873C31.608 36.2115 31.5849 38.9862 31.6172 41.759C31.6329 43.192 32.9948 43.562 33.8668 44.1812C34.9667 44.9618 35.0571 45.8975 35.0156 47.0352C34.9842 47.874 34.5828 48.1619 33.9406 47.6959C30.987 45.5561 28.1294 46.1383 25.2745 47.874C25.1472 47.9534 24.9497 47.9183 24.7993 47.9349C24.2503 46.0497 24.7799 44.6213 26.5248 43.7291C27.9144 43.0185 28.1847 41.879 28.1165 40.4164C28.0076 38.105 28.0869 35.7843 28.0869 33.2089C23.0886 34.9704 18.2573 36.6738 13.4149 38.3818C12.7958 35.0654 12.829 34.9289 15.6626 33.2643C16.8889 32.5436 18.1346 31.9586 17.7267 30.1454C17.6031 29.5908 17.4776 28.7973 18.5406 28.813C19.5436 28.8277 19.3968 29.5299 19.4254 30.1565C19.4338 30.3235 19.4983 30.4896 19.538 30.6584C22.642 29.4404 22.7961 29.2024 22.8782 26.1056C22.8939 25.5142 22.4732 24.5804 23.669 24.5601C24.8242 24.5407 24.4902 25.4311 24.553 26.0614C24.6 26.5163 24.6065 26.9739 24.6332 27.451C27.8267 26.3465 28.0869 25.9912 28.0869 22.817C28.0869 19.8587 28.1257 16.8995 28.0713 13.9412C28.0473 12.5958 28.5262 11.7506 29.9204 11.8022C31.2085 11.8512 31.6366 12.7065 31.6209 13.9485C31.5794 17.3701 31.6034 20.7934 31.608 24.2177C31.6099 25.4846 32.9487 27.0164 34.163 27.2037C34.6945 27.2849 34.7323 26.9832 34.736 26.6076C34.7378 26.2016 34.7489 25.7956 34.7415 25.3887C34.7295 24.8277 34.9473 24.5481 35.5572 24.5398C36.228 24.5305 36.5251 24.7963 36.4808 25.4606C36.4725 25.576 36.5058 25.6987 36.479 25.8076C35.7279 28.9052 38.0725 29.6813 40.0305 30.7609C40.4706 30.4222 40.3396 30.0457 40.3295 29.7302C40.3119 29.0649 40.5648 28.7677 41.2494 28.8167C41.8289 28.8573 42.1712 29.1599 42.0365 29.7025C41.4303 32.1597 43.2702 32.8592 44.8646 33.7773C46.484 34.7139 46.9896 36.003 46.5421 37.7931Z" fill="black"/>
</svg>
