<svg width="500" height="92" viewBox="0 0 500 92" fill="none" xmlns="http://www.w3.org/2000/svg">
<g clip-path="url(#clip0_493_3427)">
<path fill-rule="evenodd" clip-rule="evenodd" d="M0 4.27905V6.37594H8.24786V64.176H0V66.3256H25.7511V64.176H17.524V6.37594H25.7511V4.27905H0Z" fill="white"/>
<path fill-rule="evenodd" clip-rule="evenodd" d="M33.5943 64.4193H28.376V66.5821H46.0511V64.4193H40.9675V47.0446C40.9675 40.0292 45.8627 31.3437 52.2917 31.3437C56.0535 31.3437 58.2422 32.3791 58.2422 39.2004V64.4193H53.3431V66.5821H70.7068V64.4193H65.6288V37.9677C65.6288 29.3837 57.7283 28.629 54.3432 28.629C47.4776 28.629 43.7938 32.6372 41.1314 38.5283H40.9675V28.629C39.2454 29.025 37.4547 29.2948 35.6774 29.3837C33.9719 29.5427 32.1457 29.5427 30.3802 29.5427H28.376V31.7258H33.5943V64.4193Z" fill="white"/>
<path fill-rule="evenodd" clip-rule="evenodd" d="M102.193 54.9728C99.9101 61.6982 94.6311 66.115 89.1463 65.8101C84.2267 65.5247 81.316 63.6076 79.9092 60.5201C79.3149 59.1923 77.9049 54.8964 77.9049 49.2875C77.9049 37.0352 80.2859 30.4876 89.3347 30.4876C91.417 30.4876 97.3667 31.5261 97.3667 34.0545C97.3667 35.0712 94.3528 35.5554 94.3528 39.201C94.3528 41.8901 96.2507 43.5788 98.8027 43.5788C101.437 43.5788 103.078 41.158 103.078 38.6296C103.078 31.4325 94.3528 28.6288 88.2155 28.6288C82.8293 28.6288 69.3164 32.6379 69.3164 49.2875C69.3164 55.708 73.7592 67.7873 88.3857 67.7873C98.2392 67.3983 102.022 61.614 104.177 54.9728H102.193Z" fill="white"/>
<path fill-rule="evenodd" clip-rule="evenodd" d="M116.975 28.6288C113.538 29.4912 109.862 29.5426 106.361 29.5426H103.445V31.7264H109.862V64.4192H103.445V66.5827H124.498V64.4192H117.222V46.6725C117.222 42.9005 118.257 39.304 119.578 36.5853C121.637 32.3798 124.856 31.0481 124.963 31.0481C125.253 31.0481 125.84 31.0481 125.84 31.6056C125.84 31.9868 125.429 32.8281 125.429 33.5844C125.429 35.4345 127.416 37.34 129.126 37.34C131.102 37.34 133.555 36.1939 133.555 33.8643C133.555 30.3121 131.034 28.6288 127.78 28.6288C122.604 28.6288 118.837 33.2109 117.124 37.4102H116.975V28.6288Z" fill="white"/>
<path fill-rule="evenodd" clip-rule="evenodd" d="M141.117 42.5302C141.211 40.2364 141.494 38.0526 142.041 36.3771C142.272 35.7503 144.78 30.4876 150.458 30.4876C155.181 30.4876 159.147 32.6379 159.147 39.3843V42.5302H141.117ZM165.572 54.9728C164.251 61.1594 157.925 65.8101 152.551 65.8101C142.272 65.8101 141.057 58.3597 141.057 49.102V45.2512H167.748C167.645 35.0712 160.391 28.6288 150.718 28.6288C139.502 28.6288 132.141 38.7177 132.141 49.7569C132.141 60.1194 141.396 67.7873 151.038 67.7873C159.323 67.7873 165.761 63.6879 167.645 54.9728H165.572Z" fill="white"/>
<path fill-rule="evenodd" clip-rule="evenodd" d="M206.639 64.4193V1.34088C203.278 1.99736 199.59 2.19851 196.119 2.19851H192.964V4.34647H199.311V35.7504H199.14C196.294 30.0332 190.788 28.629 187.796 28.629C176.549 28.629 170.229 37.5982 170.229 48.087C170.229 58.7107 177.323 67.7867 186.835 67.7867C192.241 67.7867 196.576 65.5249 199.218 61.0426H199.419V67.3135C203.548 66.6757 207.698 66.5821 211.862 66.5821V64.4193H206.639ZM199.037 40.3333C199.59 42.1733 199.662 46.4591 199.662 48.5283C199.662 58.2709 198.465 60.1187 194.87 63.3114C193.61 64.3375 190.788 65.8103 188.356 65.8103C180.61 65.8103 178.785 61.0426 178.785 46.6719C178.785 40.0292 179.118 30.4877 187.904 30.4877C196.576 30.4877 198.641 38.9299 199.037 40.3333Z" fill="white"/>
<path fill-rule="evenodd" clip-rule="evenodd" d="M232.765 66.5824V64.4197H227.191V28.6285C223.822 29.4916 220.125 29.5423 216.606 29.5423H213.495V31.7261H219.856V64.4197H213.495V66.5824H232.765Z" fill="white"/>
<path fill-rule="evenodd" clip-rule="evenodd" d="M247.138 39.6697C247.314 36.8387 251.67 30.4876 257.906 30.4876C267.088 30.4876 267.456 40.7822 267.456 47.775C267.456 55.2606 267.353 65.8101 257.906 65.8101C255.068 65.8101 246.657 64.2539 246.657 52.4585C246.657 50.1226 246.869 42.1732 247.138 39.6697ZM246.946 1.34076C243.544 1.99801 239.885 2.19839 236.358 2.19839H234.208V4.34635H239.594V64.3374H234.208V66.5828C238.343 66.4744 242.421 67.0241 246.57 67.3133V60.8671H246.789C249.033 64.618 253.179 67.7866 257.906 67.7866C268.012 67.7866 276.026 59.742 276.026 48.1352C276.026 39.7539 270.935 28.6289 257.8 28.6289C253.393 28.6289 248.93 31.8216 247.138 35.1765H246.946V1.34076Z" fill="white"/>
<path fill-rule="evenodd" clip-rule="evenodd" d="M296.284 66.5824V64.4197H289.01V1.34039C285.615 1.99765 281.93 2.1988 278.434 2.1988H274.364V4.34677H281.639V64.4197H274.364V66.5824H296.284Z" fill="white"/>
<path fill-rule="evenodd" clip-rule="evenodd" d="M303.209 42.5302C303.295 40.2364 303.551 38.0526 304.128 36.3771C304.32 35.7503 306.877 30.4876 312.541 30.4876C317.26 30.4876 321.239 32.6379 321.239 39.3843V42.5302H303.209ZM327.634 54.9728C326.309 61.1594 319.983 65.8101 314.631 65.8101C304.32 65.8101 303.107 58.3597 303.107 49.102V45.2512H329.814C329.746 35.0712 322.478 28.6288 312.805 28.6288C301.573 28.6288 294.221 38.7177 294.221 49.7569C294.221 60.1194 303.483 67.7873 313.106 67.7873C321.422 67.7873 327.843 63.6879 329.746 54.9728H327.634Z" fill="white"/>
<path fill-rule="evenodd" clip-rule="evenodd" d="M362.557 64.4193H357.385V66.5821H375.043V64.4193H369.904V47.0446C369.904 40.0292 374.833 31.3437 381.254 31.3437C385.024 31.3437 387.191 32.3791 387.191 39.2004V64.4193H382.288V66.5821H399.672V64.4193H394.564V37.9677C394.564 29.3837 386.734 28.629 383.323 28.629C376.44 28.629 372.773 32.6372 370.115 38.5283H369.904V28.629C368.208 29.025 366.396 29.2948 364.621 29.3837C362.946 29.5427 361.132 29.5427 359.343 29.5427H357.385V31.7258H362.557V64.4193Z" fill="white"/>
<path fill-rule="evenodd" clip-rule="evenodd" d="M434.754 64.4193V1.34088C431.326 1.99736 427.641 2.19851 424.171 2.19851H421.068V4.34647H427.385V35.7504H427.197C424.359 30.0332 418.867 28.629 415.853 28.629C404.618 28.629 398.267 37.5982 398.267 48.087C398.267 58.7107 405.392 67.7867 414.916 67.7867C420.298 67.7867 424.628 65.5249 427.291 61.0426H427.453V67.3135C431.613 66.6757 435.798 66.5821 439.965 66.5821V64.4193H434.754ZM427.094 40.3333C427.641 42.1733 427.756 46.4591 427.756 48.5283C427.756 58.2709 426.534 60.1187 422.94 63.3114C421.708 64.3375 418.866 65.8103 416.433 65.8103C408.671 65.8103 406.875 61.0426 406.875 46.6719C406.875 40.0292 407.192 30.4877 415.92 30.4877C424.628 30.4877 426.722 38.9299 427.094 40.3333Z" fill="white"/>
<path fill-rule="evenodd" clip-rule="evenodd" d="M460.837 66.5824V64.4197H455.26V28.6285C451.861 29.4916 448.185 29.5423 444.714 29.5423H441.572V31.7261H447.894V64.4197H441.572V66.5824H460.837Z" fill="white"/>
<path fill-rule="evenodd" clip-rule="evenodd" d="M484.997 55.7083C484.997 59.6542 483.702 60.6623 482.938 61.417C480.689 63.4091 478.68 64.1232 475.67 64.1232C471.34 64.1232 468.396 61.3367 468.396 56.7617C468.396 48.1355 478.91 47.1017 484.997 47.0447V55.7083ZM497.702 60.1189C497.249 61.6985 496.282 64.3368 494.402 64.3368C492.402 64.3368 492.402 62.8461 492.402 60.0386V37.8136C492.402 34.0548 492.402 28.6292 479.561 28.6292C468.306 28.6292 464.472 34.2567 464.472 37.5976C464.472 40.236 465.86 42.1134 468.396 42.1134C470.777 42.1134 472.276 40.4862 472.276 38.1667C472.276 35.0707 469.447 34.6208 469.447 33.8638C469.447 31.1701 476.132 30.4871 478.235 30.4871C481.582 30.4871 484.997 31.8211 484.997 36.1942V45.0753C470.597 45.0753 461.621 49.9131 461.325 58.6141C461.325 65.5251 466.408 67.7869 472.374 67.7869C477.179 67.7869 481.89 65.9983 485.122 62.0595C485.784 65.5251 487.798 67.7869 491.238 67.7869C495.599 67.7869 499.018 64.5099 499.287 60.1189H497.702Z" fill="white"/>
<path fill-rule="evenodd" clip-rule="evenodd" d="M348.895 91.9999C353.708 91.9999 358.133 88.5444 358.133 83.316C358.133 78.5172 353.298 74.8972 348.895 74.8972C344.488 74.8972 340.261 78.6817 340.261 83.316C340.261 88.3947 343.886 91.9999 348.895 91.9999Z" fill="#EA2227"/>
<path fill-rule="evenodd" clip-rule="evenodd" d="M350.34 66.8467C350.973 38.1707 355.255 13.6512 355.255 10.0366C355.255 5.38909 353.312 0.735291 349.186 0.735291C345.048 0.735291 343.129 5.38909 343.129 10.0366C343.129 13.6512 347.396 38.1707 348.036 66.8467H350.34Z" fill="white"/>
</g>
<defs>
<clipPath id="clip0_493_3427">
<rect width="500" height="92" fill="white"/>
</clipPath>
</defs>
</svg>
